  0
SECTION
  2
HEADER
  9
$ACADVER
  1
AC1009
  9
$EXTMIN
 10
0.0
 20
0.0
 30
0.0
  9
$EXTMAX
 10
1000.0
 20
1000.0
 30
0.0
  9
$FILLMODE
 70
 0
  9
$SPLFRAME
 70
 1
  0
ENDSEC
  0
SECTION
  2
TABLES
  0
TABLE
  2
LAYER
 70
1
  0
LAYER
  2
0
 70
     0
 62
     7
  6
CONTINUOUS
  0
ENDTAB
  0
ENDSEC
  0
SECTION
  2
ENTITIES
  0
LINE
  8
0
 62
     0
 10
0.0950846
 20
76.2801
 30
0.0
 11
114.395
 21
76.2801
 31
0.0
  0
LINE
  8
0
 62
     0
 10
114.395
 20
76.2801
 30
0.0
 11
114.395
 21
0.0799264
 31
0.0
  0
LINE
  8
0
 62
     0
 10
114.395
 20
0.0799264
 30
0.0
 11
0.0950846
 21
0.0799264
 31
0.0
  0
LINE
  8
0
 62
     0
 10
0.0950846
 20
0.0799264
 30
0.0
 11
0.0950846
 21
76.2801
 31
0.0
  0
LINE
  8
0
 62
     0
 10
59.7697
 20
16.6054
 30
0.0
 11
59.7697
 21
15.6049
 31
0.0
  0
LINE
  8
0
 62
     0
 10
59.7697
 20
15.6049
 30
0.0
 11
58.9703
 21
15.6049
 31
0.0
  0
LINE
  8
0
 62
     0
 10
58.9703
 20
15.6049
 30
0.0
 11
58.9703
 21
12.5057
 31
0.0
  0
LINE
  8
0
 62
     0
 10
58.9703
 20
12.5057
 30
0.0
 11
59.7697
 21
12.5057
 31
0.0
  0
LINE
  8
0
 62
     0
 10
59.7697
 20
12.5057
 30
0.0
 11
59.7697
 21
6.70553
 31
0.0
  0
LINE
  8
0
 62
     0
 10
59.7697
 20
6.70553
 30
0.0
 11
58.9703
 21
6.70553
 31
0.0
  0
LINE
  8
0
 62
     0
 10
58.9703
 20
6.70553
 30
0.0
 11
58.9703
 21
3.60497
 31
0.0
  0
LINE
  8
0
 62
     0
 10
58.9703
 20
3.60497
 30
0.0
 11
59.7697
 21
3.60497
 31
0.0
  0
LINE
  8
0
 62
     0
 10
59.7697
 20
3.60497
 30
0.0
 11
59.7697
 21
2.60587
 31
0.0
  0
LINE
  8
0
 62
     0
 10
59.7697
 20
2.60587
 30
0.0
 11
73.769
 21
2.60587
 31
0.0
  0
LINE
  8
0
 62
     0
 10
73.769
 20
2.60587
 30
0.0
 11
73.769
 21
3.60497
 31
0.0
  0
LINE
  8
0
 62
     0
 10
73.769
 20
3.60497
 30
0.0
 11
74.5698
 21
3.60497
 31
0.0
  0
LINE
  8
0
 62
     0
 10
74.5698
 20
3.60497
 30
0.0
 11
74.5698
 21
6.70553
 31
0.0
  0
LINE
  8
0
 62
     0
 10
74.5698
 20
6.70553
 30
0.0
 11
73.769
 21
6.70553
 31
0.0
  0
LINE
  8
0
 62
     0
 10
73.769
 20
6.70553
 30
0.0
 11
73.769
 21
12.5057
 31
0.0
  0
LINE
  8
0
 62
     0
 10
73.769
 20
12.5057
 30
0.0
 11
74.5698
 21
12.5057
 31
0.0
  0
LINE
  8
0
 62
     0
 10
74.5698
 20
12.5057
 30
0.0
 11
74.5698
 21
15.6049
 31
0.0
  0
LINE
  8
0
 62
     0
 10
74.5698
 20
15.6049
 30
0.0
 11
73.769
 21
15.6049
 31
0.0
  0
LINE
  8
0
 62
     0
 10
73.769
 20
15.6049
 30
0.0
 11
73.769
 21
16.6054
 31
0.0
  0
LINE
  8
0
 62
     0
 10
73.769
 20
16.6054
 30
0.0
 11
59.7697
 21
16.6054
 31
0.0
  0
LINE
  8
0
 62
     0
 10
78.8197
 20
16.6054
 30
0.0
 11
78.8197
 21
15.6049
 31
0.0
  0
LINE
  8
0
 62
     0
 10
78.8197
 20
15.6049
 30
0.0
 11
78.0203
 21
15.6049
 31
0.0
  0
LINE
  8
0
 62
     0
 10
78.0203
 20
15.6049
 30
0.0
 11
78.0203
 21
12.5057
 31
0.0
  0
LINE
  8
0
 62
     0
 10
78.0203
 20
12.5057
 30
0.0
 11
78.8197
 21
12.5057
 31
0.0
  0
LINE
  8
0
 62
     0
 10
78.8197
 20
12.5057
 30
0.0
 11
78.8197
 21
6.70553
 31
0.0
  0
LINE
  8
0
 62
     0
 10
78.8197
 20
6.70553
 30
0.0
 11
78.0203
 21
6.70553
 31
0.0
  0
LINE
  8
0
 62
     0
 10
78.0203
 20
6.70553
 30
0.0
 11
78.0203
 21
3.60497
 31
0.0
  0
LINE
  8
0
 62
     0
 10
78.0203
 20
3.60497
 30
0.0
 11
78.8197
 21
3.60497
 31
0.0
  0
LINE
  8
0
 62
     0
 10
78.8197
 20
3.60497
 30
0.0
 11
78.8197
 21
2.60587
 31
0.0
  0
LINE
  8
0
 62
     0
 10
78.8197
 20
2.60587
 30
0.0
 11
92.819
 21
2.60587
 31
0.0
  0
LINE
  8
0
 62
     0
 10
92.819
 20
2.60587
 30
0.0
 11
92.819
 21
3.60497
 31
0.0
  0
LINE
  8
0
 62
     0
 10
92.819
 20
3.60497
 30
0.0
 11
93.6198
 21
3.60497
 31
0.0
  0
LINE
  8
0
 62
     0
 10
93.6198
 20
3.60497
 30
0.0
 11
93.6198
 21
6.70553
 31
0.0
  0
LINE
  8
0
 62
     0
 10
93.6198
 20
6.70553
 30
0.0
 11
92.819
 21
6.70553
 31
0.0
  0
LINE
  8
0
 62
     0
 10
92.819
 20
6.70553
 30
0.0
 11
92.819
 21
12.5057
 31
0.0
  0
LINE
  8
0
 62
     0
 10
92.819
 20
12.5057
 30
0.0
 11
93.6198
 21
12.5057
 31
0.0
  0
LINE
  8
0
 62
     0
 10
93.6198
 20
12.5057
 30
0.0
 11
93.6198
 21
15.6049
 31
0.0
  0
LINE
  8
0
 62
     0
 10
93.6198
 20
15.6049
 30
0.0
 11
92.819
 21
15.6049
 31
0.0
  0
LINE
  8
0
 62
     0
 10
92.819
 20
15.6049
 30
0.0
 11
92.819
 21
16.6054
 31
0.0
  0
LINE
  8
0
 62
     0
 10
92.819
 20
16.6054
 30
0.0
 11
78.8197
 21
16.6054
 31
0.0
  0
LINE
  8
0
 62
     0
 10
98.8702
 20
22.1685
 30
0.0
 11
98.8702
 21
21.3679
 31
0.0
  0
LINE
  8
0
 62
     0
 10
98.8702
 20
21.3679
 30
0.0
 11
97.8697
 21
21.3679
 31
0.0
  0
LINE
  8
0
 62
     0
 10
97.8697
 20
21.3679
 30
0.0
 11
97.8697
 21
7.36836
 31
0.0
  0
LINE
  8
0
 62
     0
 10
97.8697
 20
7.36836
 30
0.0
 11
98.8702
 21
7.36836
 31
0.0
  0
LINE
  8
0
 62
     0
 10
98.8702
 20
7.36836
 30
0.0
 11
98.8702
 21
6.56773
 31
0.0
  0
LINE
  8
0
 62
     0
 10
98.8702
 20
6.56773
 30
0.0
 11
101.969
 21
6.56773
 31
0.0
  0
LINE
  8
0
 62
     0
 10
101.969
 20
6.56773
 30
0.0
 11
101.969
 21
7.36836
 31
0.0
  0
LINE
  8
0
 62
     0
 10
101.969
 20
7.36836
 30
0.0
 11
107.769
 21
7.36836
 31
0.0
  0
LINE
  8
0
 62
     0
 10
107.769
 20
7.36836
 30
0.0
 11
107.769
 21
6.56773
 31
0.0
  0
LINE
  8
0
 62
     0
 10
107.769
 20
6.56773
 30
0.0
 11
110.87
 21
6.56773
 31
0.0
  0
LINE
  8
0
 62
     0
 10
110.87
 20
6.56773
 30
0.0
 11
110.87
 21
7.36836
 31
0.0
  0
LINE
  8
0
 62
     0
 10
110.87
 20
7.36836
 30
0.0
 11
111.869
 21
7.36836
 31
0.0
  0
LINE
  8
0
 62
     0
 10
111.869
 20
7.36836
 30
0.0
 11
111.869
 21
21.3679
 31
0.0
  0
LINE
  8
0
 62
     0
 10
111.869
 20
21.3679
 30
0.0
 11
110.87
 21
21.3679
 31
0.0
  0
LINE
  8
0
 62
     0
 10
110.87
 20
21.3679
 30
0.0
 11
110.87
 21
22.1685
 31
0.0
  0
LINE
  8
0
 62
     0
 10
110.87
 20
22.1685
 30
0.0
 11
107.769
 21
22.1685
 31
0.0
  0
LINE
  8
0
 62
     0
 10
107.769
 20
22.1685
 30
0.0
 11
107.769
 21
21.3679
 31
0.0
  0
LINE
  8
0
 62
     0
 10
107.769
 20
21.3679
 30
0.0
 11
101.969
 21
21.3679
 31
0.0
  0
LINE
  8
0
 62
     0
 10
101.969
 20
21.3679
 30
0.0
 11
101.969
 21
22.1685
 31
0.0
  0
LINE
  8
0
 62
     0
 10
101.969
 20
22.1685
 30
0.0
 11
98.8702
 21
22.1685
 31
0.0
  0
LINE
  8
0
 62
     0
 10
2.61965
 20
35.6553
 30
0.0
 11
2.61965
 21
34.6549
 31
0.0
  0
LINE
  8
0
 62
     0
 10
2.61965
 20
34.6549
 30
0.0
 11
1.82039
 21
34.6549
 31
0.0
  0
LINE
  8
0
 62
     0
 10
1.82039
 20
34.6549
 30
0.0
 11
1.82039
 21
31.5557
 31
0.0
  0
LINE
  8
0
 62
     0
 10
1.82039
 20
31.5557
 30
0.0
 11
2.61965
 21
31.5557
 31
0.0
  0
LINE
  8
0
 62
     0
 10
2.61965
 20
31.5557
 30
0.0
 11
2.61965
 21
25.7555
 31
0.0
  0
LINE
  8
0
 62
     0
 10
2.61965
 20
25.7555
 30
0.0
 11
1.82039
 21
25.7555
 31
0.0
  0
LINE
  8
0
 62
     0
 10
1.82039
 20
25.7555
 30
0.0
 11
1.82039
 21
22.655
 31
0.0
  0
LINE
  8
0
 62
     0
 10
1.82039
 20
22.655
 30
0.0
 11
2.61965
 21
22.655
 31
0.0
  0
LINE
  8
0
 62
     0
 10
2.61965
 20
22.655
 30
0.0
 11
2.61965
 21
21.6559
 31
0.0
  0
LINE
  8
0
 62
     0
 10
2.61965
 20
21.6559
 30
0.0
 11
16.6192
 21
21.6559
 31
0.0
  0
LINE
  8
0
 62
     0
 10
16.6192
 20
21.6559
 30
0.0
 11
16.6192
 21
22.655
 31
0.0
  0
LINE
  8
0
 62
     0
 10
16.6192
 20
22.655
 30
0.0
 11
17.4198
 21
22.655
 31
0.0
  0
LINE
  8
0
 62
     0
 10
17.4198
 20
22.655
 30
0.0
 11
17.4198
 21
25.7555
 31
0.0
  0
LINE
  8
0
 62
     0
 10
17.4198
 20
25.7555
 30
0.0
 11
16.6192
 21
25.7555
 31
0.0
  0
LINE
  8
0
 62
     0
 10
16.6192
 20
25.7555
 30
0.0
 11
16.6192
 21
31.5557
 31
0.0
  0
LINE
  8
0
 62
     0
 10
16.6192
 20
31.5557
 30
0.0
 11
17.4198
 21
31.5557
 31
0.0
  0
LINE
  8
0
 62
     0
 10
17.4198
 20
31.5557
 30
0.0
 11
17.4198
 21
34.6549
 31
0.0
  0
LINE
  8
0
 62
     0
 10
17.4198
 20
34.6549
 30
0.0
 11
16.6192
 21
34.6549
 31
0.0
  0
LINE
  8
0
 62
     0
 10
16.6192
 20
34.6549
 30
0.0
 11
16.6192
 21
35.6553
 31
0.0
  0
LINE
  8
0
 62
     0
 10
16.6192
 20
35.6553
 30
0.0
 11
2.61965
 21
35.6553
 31
0.0
  0
LINE
  8
0
 62
     0
 10
21.6697
 20
35.6553
 30
0.0
 11
21.6697
 21
34.6549
 31
0.0
  0
LINE
  8
0
 62
     0
 10
21.6697
 20
34.6549
 30
0.0
 11
20.8704
 21
34.6549
 31
0.0
  0
LINE
  8
0
 62
     0
 10
20.8704
 20
34.6549
 30
0.0
 11
20.8704
 21
31.5557
 31
0.0
  0
LINE
  8
0
 62
     0
 10
20.8704
 20
31.5557
 30
0.0
 11
21.6697
 21
31.5557
 31
0.0
  0
LINE
  8
0
 62
     0
 10
21.6697
 20
31.5557
 30
0.0
 11
21.6697
 21
25.7555
 31
0.0
  0
LINE
  8
0
 62
     0
 10
21.6697
 20
25.7555
 30
0.0
 11
20.8704
 21
25.7555
 31
0.0
  0
LINE
  8
0
 62
     0
 10
20.8704
 20
25.7555
 30
0.0
 11
20.8704
 21
22.655
 31
0.0
  0
LINE
  8
0
 62
     0
 10
20.8704
 20
22.655
 30
0.0
 11
21.6697
 21
22.655
 31
0.0
  0
LINE
  8
0
 62
     0
 10
21.6697
 20
22.655
 30
0.0
 11
21.6697
 21
21.6559
 31
0.0
  0
LINE
  8
0
 62
     0
 10
21.6697
 20
21.6559
 30
0.0
 11
35.669
 21
21.6559
 31
0.0
  0
LINE
  8
0
 62
     0
 10
35.669
 20
21.6559
 30
0.0
 11
35.669
 21
22.655
 31
0.0
  0
LINE
  8
0
 62
     0
 10
35.669
 20
22.655
 30
0.0
 11
36.4698
 21
22.655
 31
0.0
  0
LINE
  8
0
 62
     0
 10
36.4698
 20
22.655
 30
0.0
 11
36.4698
 21
25.7555
 31
0.0
  0
LINE
  8
0
 62
     0
 10
36.4698
 20
25.7555
 30
0.0
 11
35.669
 21
25.7555
 31
0.0
  0
LINE
  8
0
 62
     0
 10
35.669
 20
25.7555
 30
0.0
 11
35.669
 21
31.5557
 31
0.0
  0
LINE
  8
0
 62
     0
 10
35.669
 20
31.5557
 30
0.0
 11
36.4698
 21
31.5557
 31
0.0
  0
LINE
  8
0
 62
     0
 10
36.4698
 20
31.5557
 30
0.0
 11
36.4698
 21
34.6549
 31
0.0
  0
LINE
  8
0
 62
     0
 10
36.4698
 20
34.6549
 30
0.0
 11
35.669
 21
34.6549
 31
0.0
  0
LINE
  8
0
 62
     0
 10
35.669
 20
34.6549
 30
0.0
 11
35.669
 21
35.6553
 31
0.0
  0
LINE
  8
0
 62
     0
 10
35.669
 20
35.6553
 30
0.0
 11
21.6697
 21
35.6553
 31
0.0
  0
LINE
  8
0
 62
     0
 10
40.7197
 20
35.6553
 30
0.0
 11
40.7197
 21
34.6549
 31
0.0
  0
LINE
  8
0
 62
     0
 10
40.7197
 20
34.6549
 30
0.0
 11
39.9203
 21
34.6549
 31
0.0
  0
LINE
  8
0
 62
     0
 10
39.9203
 20
34.6549
 30
0.0
 11
39.9203
 21
31.5557
 31
0.0
  0
LINE
  8
0
 62
     0
 10
39.9203
 20
31.5557
 30
0.0
 11
40.7197
 21
31.5557
 31
0.0
  0
LINE
  8
0
 62
     0
 10
40.7197
 20
31.5557
 30
0.0
 11
40.7197
 21
25.7555
 31
0.0
  0
LINE
  8
0
 62
     0
 10
40.7197
 20
25.7555
 30
0.0
 11
39.9203
 21
25.7555
 31
0.0
  0
LINE
  8
0
 62
     0
 10
39.9203
 20
25.7555
 30
0.0
 11
39.9203
 21
22.655
 31
0.0
  0
LINE
  8
0
 62
     0
 10
39.9203
 20
22.655
 30
0.0
 11
40.7197
 21
22.655
 31
0.0
  0
LINE
  8
0
 62
     0
 10
40.7197
 20
22.655
 30
0.0
 11
40.7197
 21
21.6559
 31
0.0
  0
LINE
  8
0
 62
     0
 10
40.7197
 20
21.6559
 30
0.0
 11
54.719
 21
21.6559
 31
0.0
  0
LINE
  8
0
 62
     0
 10
54.719
 20
21.6559
 30
0.0
 11
54.719
 21
22.655
 31
0.0
  0
LINE
  8
0
 62
     0
 10
54.719
 20
22.655
 30
0.0
 11
55.5198
 21
22.655
 31
0.0
  0
LINE
  8
0
 62
     0
 10
55.5198
 20
22.655
 30
0.0
 11
55.5198
 21
25.7555
 31
0.0
  0
LINE
  8
0
 62
     0
 10
55.5198
 20
25.7555
 30
0.0
 11
54.719
 21
25.7555
 31
0.0
  0
LINE
  8
0
 62
     0
 10
54.719
 20
25.7555
 30
0.0
 11
54.719
 21
31.5557
 31
0.0
  0
LINE
  8
0
 62
     0
 10
54.719
 20
31.5557
 30
0.0
 11
55.5198
 21
31.5557
 31
0.0
  0
LINE
  8
0
 62
     0
 10
55.5198
 20
31.5557
 30
0.0
 11
55.5198
 21
34.6549
 31
0.0
  0
LINE
  8
0
 62
     0
 10
55.5198
 20
34.6549
 30
0.0
 11
54.719
 21
34.6549
 31
0.0
  0
LINE
  8
0
 62
     0
 10
54.719
 20
34.6549
 30
0.0
 11
54.719
 21
35.6553
 31
0.0
  0
LINE
  8
0
 62
     0
 10
54.719
 20
35.6553
 30
0.0
 11
40.7197
 21
35.6553
 31
0.0
  0
LINE
  8
0
 62
     0
 10
59.7697
 20
35.6553
 30
0.0
 11
59.7697
 21
34.6549
 31
0.0
  0
LINE
  8
0
 62
     0
 10
59.7697
 20
34.6549
 30
0.0
 11
58.9703
 21
34.6549
 31
0.0
  0
LINE
  8
0
 62
     0
 10
58.9703
 20
34.6549
 30
0.0
 11
58.9703
 21
31.5557
 31
0.0
  0
LINE
  8
0
 62
     0
 10
58.9703
 20
31.5557
 30
0.0
 11
59.7697
 21
31.5557
 31
0.0
  0
LINE
  8
0
 62
     0
 10
59.7697
 20
31.5557
 30
0.0
 11
59.7697
 21
25.7555
 31
0.0
  0
LINE
  8
0
 62
     0
 10
59.7697
 20
25.7555
 30
0.0
 11
58.9703
 21
25.7555
 31
0.0
  0
LINE
  8
0
 62
     0
 10
58.9703
 20
25.7555
 30
0.0
 11
58.9703
 21
22.655
 31
0.0
  0
LINE
  8
0
 62
     0
 10
58.9703
 20
22.655
 30
0.0
 11
59.7697
 21
22.655
 31
0.0
  0
LINE
  8
0
 62
     0
 10
59.7697
 20
22.655
 30
0.0
 11
59.7697
 21
21.6559
 31
0.0
  0
LINE
  8
0
 62
     0
 10
59.7697
 20
21.6559
 30
0.0
 11
73.769
 21
21.6559
 31
0.0
  0
LINE
  8
0
 62
     0
 10
73.769
 20
21.6559
 30
0.0
 11
73.769
 21
22.655
 31
0.0
  0
LINE
  8
0
 62
     0
 10
73.769
 20
22.655
 30
0.0
 11
74.5698
 21
22.655
 31
0.0
  0
LINE
  8
0
 62
     0
 10
74.5698
 20
22.655
 30
0.0
 11
74.5698
 21
25.7555
 31
0.0
  0
LINE
  8
0
 62
     0
 10
74.5698
 20
25.7555
 30
0.0
 11
73.769
 21
25.7555
 31
0.0
  0
LINE
  8
0
 62
     0
 10
73.769
 20
25.7555
 30
0.0
 11
73.769
 21
31.5557
 31
0.0
  0
LINE
  8
0
 62
     0
 10
73.769
 20
31.5557
 30
0.0
 11
74.5698
 21
31.5557
 31
0.0
  0
LINE
  8
0
 62
     0
 10
74.5698
 20
31.5557
 30
0.0
 11
74.5698
 21
34.6549
 31
0.0
  0
LINE
  8
0
 62
     0
 10
74.5698
 20
34.6549
 30
0.0
 11
73.769
 21
34.6549
 31
0.0
  0
LINE
  8
0
 62
     0
 10
73.769
 20
34.6549
 30
0.0
 11
73.769
 21
35.6553
 31
0.0
  0
LINE
  8
0
 62
     0
 10
73.769
 20
35.6553
 30
0.0
 11
59.7697
 21
35.6553
 31
0.0
  0
LINE
  8
0
 62
     0
 10
78.8197
 20
35.6553
 30
0.0
 11
78.8197
 21
34.6549
 31
0.0
  0
LINE
  8
0
 62
     0
 10
78.8197
 20
34.6549
 30
0.0
 11
78.0203
 21
34.6549
 31
0.0
  0
LINE
  8
0
 62
     0
 10
78.0203
 20
34.6549
 30
0.0
 11
78.0203
 21
31.5557
 31
0.0
  0
LINE
  8
0
 62
     0
 10
78.0203
 20
31.5557
 30
0.0
 11
78.8197
 21
31.5557
 31
0.0
  0
LINE
  8
0
 62
     0
 10
78.8197
 20
31.5557
 30
0.0
 11
78.8197
 21
25.7555
 31
0.0
  0
LINE
  8
0
 62
     0
 10
78.8197
 20
25.7555
 30
0.0
 11
78.0203
 21
25.7555
 31
0.0
  0
LINE
  8
0
 62
     0
 10
78.0203
 20
25.7555
 30
0.0
 11
78.0203
 21
22.655
 31
0.0
  0
LINE
  8
0
 62
     0
 10
78.0203
 20
22.655
 30
0.0
 11
78.8197
 21
22.655
 31
0.0
  0
LINE
  8
0
 62
     0
 10
78.8197
 20
22.655
 30
0.0
 11
78.8197
 21
21.6559
 31
0.0
  0
LINE
  8
0
 62
     0
 10
78.8197
 20
21.6559
 30
0.0
 11
92.819
 21
21.6559
 31
0.0
  0
LINE
  8
0
 62
     0
 10
92.819
 20
21.6559
 30
0.0
 11
92.819
 21
22.655
 31
0.0
  0
LINE
  8
0
 62
     0
 10
92.819
 20
22.655
 30
0.0
 11
93.6184
 21
22.655
 31
0.0
  0
LINE
  8
0
 62
     0
 10
93.6184
 20
22.655
 30
0.0
 11
93.6184
 21
25.7555
 31
0.0
  0
LINE
  8
0
 62
     0
 10
93.6184
 20
25.7555
 30
0.0
 11
92.819
 21
25.7555
 31
0.0
  0
LINE
  8
0
 62
     0
 10
92.819
 20
25.7555
 30
0.0
 11
92.819
 21
31.5557
 31
0.0
  0
LINE
  8
0
 62
     0
 10
92.819
 20
31.5557
 30
0.0
 11
93.6184
 21
31.5557
 31
0.0
  0
LINE
  8
0
 62
     0
 10
93.6184
 20
31.5557
 30
0.0
 11
93.6184
 21
34.6549
 31
0.0
  0
LINE
  8
0
 62
     0
 10
93.6184
 20
34.6549
 30
0.0
 11
92.819
 21
34.6549
 31
0.0
  0
LINE
  8
0
 62
     0
 10
92.819
 20
34.6549
 30
0.0
 11
92.819
 21
35.6553
 31
0.0
  0
LINE
  8
0
 62
     0
 10
92.819
 20
35.6553
 30
0.0
 11
78.8197
 21
35.6553
 31
0.0
  0
LINE
  8
0
 62
     0
 10
97.8697
 20
45.1803
 30
0.0
 11
97.8697
 21
44.1798
 31
0.0
  0
LINE
  8
0
 62
     0
 10
97.8697
 20
44.1798
 30
0.0
 11
97.0703
 21
44.1798
 31
0.0
  0
LINE
  8
0
 62
     0
 10
97.0703
 20
44.1798
 30
0.0
 11
97.0703
 21
41.0806
 31
0.0
  0
LINE
  8
0
 62
     0
 10
97.0703
 20
41.0806
 30
0.0
 11
97.8697
 21
41.0806
 31
0.0
  0
LINE
  8
0
 62
     0
 10
97.8697
 20
41.0806
 30
0.0
 11
97.8697
 21
35.2806
 31
0.0
  0
LINE
  8
0
 62
     0
 10
97.8697
 20
35.2806
 30
0.0
 11
97.0703
 21
35.2806
 31
0.0
  0
LINE
  8
0
 62
     0
 10
97.0703
 20
35.2806
 30
0.0
 11
97.0703
 21
32.18
 31
0.0
  0
LINE
  8
0
 62
     0
 10
97.0703
 20
32.18
 30
0.0
 11
97.8697
 21
32.18
 31
0.0
  0
LINE
  8
0
 62
     0
 10
97.8697
 20
32.18
 30
0.0
 11
97.8697
 21
31.1809
 31
0.0
  0
LINE
  8
0
 62
     0
 10
97.8697
 20
31.1809
 30
0.0
 11
111.869
 21
31.1809
 31
0.0
  0
LINE
  8
0
 62
     0
 10
111.869
 20
31.1809
 30
0.0
 11
111.869
 21
32.18
 31
0.0
  0
LINE
  8
0
 62
     0
 10
111.869
 20
32.18
 30
0.0
 11
112.67
 21
32.18
 31
0.0
  0
LINE
  8
0
 62
     0
 10
112.67
 20
32.18
 30
0.0
 11
112.67
 21
35.2806
 31
0.0
  0
LINE
  8
0
 62
     0
 10
112.67
 20
35.2806
 30
0.0
 11
111.869
 21
35.2806
 31
0.0
  0
LINE
  8
0
 62
     0
 10
111.869
 20
35.2806
 30
0.0
 11
111.869
 21
41.0806
 31
0.0
  0
LINE
  8
0
 62
     0
 10
111.869
 20
41.0806
 30
0.0
 11
112.67
 21
41.0806
 31
0.0
  0
LINE
  8
0
 62
     0
 10
112.67
 20
41.0806
 30
0.0
 11
112.67
 21
44.1798
 31
0.0
  0
LINE
  8
0
 62
     0
 10
112.67
 20
44.1798
 30
0.0
 11
111.869
 21
44.1798
 31
0.0
  0
LINE
  8
0
 62
     0
 10
111.869
 20
44.1798
 30
0.0
 11
111.869
 21
45.1803
 31
0.0
  0
LINE
  8
0
 62
     0
 10
111.869
 20
45.1803
 30
0.0
 11
97.8697
 21
45.1803
 31
0.0
  0
LINE
  8
0
 62
     0
 10
2.61965
 20
54.7053
 30
0.0
 11
2.61965
 21
53.7048
 31
0.0
  0
LINE
  8
0
 62
     0
 10
2.61965
 20
53.7048
 30
0.0
 11
1.82039
 21
53.7048
 31
0.0
  0
LINE
  8
0
 62
     0
 10
1.82039
 20
53.7048
 30
0.0
 11
1.82039
 21
50.6056
 31
0.0
  0
LINE
  8
0
 62
     0
 10
1.82039
 20
50.6056
 30
0.0
 11
2.61965
 21
50.6056
 31
0.0
  0
LINE
  8
0
 62
     0
 10
2.61965
 20
50.6056
 30
0.0
 11
2.61965
 21
44.8056
 31
0.0
  0
LINE
  8
0
 62
     0
 10
2.61965
 20
44.8056
 30
0.0
 11
1.82039
 21
44.8056
 31
0.0
  0
LINE
  8
0
 62
     0
 10
1.82039
 20
44.8056
 30
0.0
 11
1.82039
 21
41.705
 31
0.0
  0
LINE
  8
0
 62
     0
 10
1.82039
 20
41.705
 30
0.0
 11
2.61965
 21
41.705
 31
0.0
  0
LINE
  8
0
 62
     0
 10
2.61965
 20
41.705
 30
0.0
 11
2.61965
 21
40.706
 31
0.0
  0
LINE
  8
0
 62
     0
 10
2.61965
 20
40.706
 30
0.0
 11
16.6192
 21
40.706
 31
0.0
  0
LINE
  8
0
 62
     0
 10
16.6192
 20
40.706
 30
0.0
 11
16.6192
 21
41.705
 31
0.0
  0
LINE
  8
0
 62
     0
 10
16.6192
 20
41.705
 30
0.0
 11
17.4198
 21
41.705
 31
0.0
  0
LINE
  8
0
 62
     0
 10
17.4198
 20
41.705
 30
0.0
 11
17.4198
 21
44.8056
 31
0.0
  0
LINE
  8
0
 62
     0
 10
17.4198
 20
44.8056
 30
0.0
 11
16.6192
 21
44.8056
 31
0.0
  0
LINE
  8
0
 62
     0
 10
16.6192
 20
44.8056
 30
0.0
 11
16.6192
 21
50.6056
 31
0.0
  0
LINE
  8
0
 62
     0
 10
16.6192
 20
50.6056
 30
0.0
 11
17.4198
 21
50.6056
 31
0.0
  0
LINE
  8
0
 62
     0
 10
17.4198
 20
50.6056
 30
0.0
 11
17.4198
 21
53.7048
 31
0.0
  0
LINE
  8
0
 62
     0
 10
17.4198
 20
53.7048
 30
0.0
 11
16.6192
 21
53.7048
 31
0.0
  0
LINE
  8
0
 62
     0
 10
16.6192
 20
53.7048
 30
0.0
 11
16.6192
 21
54.7053
 31
0.0
  0
LINE
  8
0
 62
     0
 10
16.6192
 20
54.7053
 30
0.0
 11
2.61965
 21
54.7053
 31
0.0
  0
LINE
  8
0
 62
     0
 10
21.6697
 20
54.7053
 30
0.0
 11
21.6697
 21
53.7048
 31
0.0
  0
LINE
  8
0
 62
     0
 10
21.6697
 20
53.7048
 30
0.0
 11
20.8704
 21
53.7048
 31
0.0
  0
LINE
  8
0
 62
     0
 10
20.8704
 20
53.7048
 30
0.0
 11
20.8704
 21
50.6056
 31
0.0
  0
LINE
  8
0
 62
     0
 10
20.8704
 20
50.6056
 30
0.0
 11
21.6697
 21
50.6056
 31
0.0
  0
LINE
  8
0
 62
     0
 10
21.6697
 20
50.6056
 30
0.0
 11
21.6697
 21
44.8056
 31
0.0
  0
LINE
  8
0
 62
     0
 10
21.6697
 20
44.8056
 30
0.0
 11
20.8704
 21
44.8056
 31
0.0
  0
LINE
  8
0
 62
     0
 10
20.8704
 20
44.8056
 30
0.0
 11
20.8704
 21
41.705
 31
0.0
  0
LINE
  8
0
 62
     0
 10
20.8704
 20
41.705
 30
0.0
 11
21.6697
 21
41.705
 31
0.0
  0
LINE
  8
0
 62
     0
 10
21.6697
 20
41.705
 30
0.0
 11
21.6697
 21
40.706
 31
0.0
  0
LINE
  8
0
 62
     0
 10
21.6697
 20
40.706
 30
0.0
 11
35.669
 21
40.706
 31
0.0
  0
LINE
  8
0
 62
     0
 10
35.669
 20
40.706
 30
0.0
 11
35.669
 21
41.705
 31
0.0
  0
LINE
  8
0
 62
     0
 10
35.669
 20
41.705
 30
0.0
 11
36.4698
 21
41.705
 31
0.0
  0
LINE
  8
0
 62
     0
 10
36.4698
 20
41.705
 30
0.0
 11
36.4698
 21
44.8056
 31
0.0
  0
LINE
  8
0
 62
     0
 10
36.4698
 20
44.8056
 30
0.0
 11
35.669
 21
44.8056
 31
0.0
  0
LINE
  8
0
 62
     0
 10
35.669
 20
44.8056
 30
0.0
 11
35.669
 21
50.6056
 31
0.0
  0
LINE
  8
0
 62
     0
 10
35.669
 20
50.6056
 30
0.0
 11
36.4698
 21
50.6056
 31
0.0
  0
LINE
  8
0
 62
     0
 10
36.4698
 20
50.6056
 30
0.0
 11
36.4698
 21
53.7048
 31
0.0
  0
LINE
  8
0
 62
     0
 10
36.4698
 20
53.7048
 30
0.0
 11
35.669
 21
53.7048
 31
0.0
  0
LINE
  8
0
 62
     0
 10
35.669
 20
53.7048
 30
0.0
 11
35.669
 21
54.7053
 31
0.0
  0
LINE
  8
0
 62
     0
 10
35.669
 20
54.7053
 30
0.0
 11
21.6697
 21
54.7053
 31
0.0
  0
LINE
  8
0
 62
     0
 10
40.7197
 20
54.7053
 30
0.0
 11
40.7197
 21
53.7048
 31
0.0
  0
LINE
  8
0
 62
     0
 10
40.7197
 20
53.7048
 30
0.0
 11
39.9203
 21
53.7048
 31
0.0
  0
LINE
  8
0
 62
     0
 10
39.9203
 20
53.7048
 30
0.0
 11
39.9203
 21
50.6056
 31
0.0
  0
LINE
  8
0
 62
     0
 10
39.9203
 20
50.6056
 30
0.0
 11
40.7197
 21
50.6056
 31
0.0
  0
LINE
  8
0
 62
     0
 10
40.7197
 20
50.6056
 30
0.0
 11
40.7197
 21
44.8056
 31
0.0
  0
LINE
  8
0
 62
     0
 10
40.7197
 20
44.8056
 30
0.0
 11
39.9203
 21
44.8056
 31
0.0
  0
LINE
  8
0
 62
     0
 10
39.9203
 20
44.8056
 30
0.0
 11
39.9203
 21
41.705
 31
0.0
  0
LINE
  8
0
 62
     0
 10
39.9203
 20
41.705
 30
0.0
 11
40.7197
 21
41.705
 31
0.0
  0
LINE
  8
0
 62
     0
 10
40.7197
 20
41.705
 30
0.0
 11
40.7197
 21
40.706
 31
0.0
  0
LINE
  8
0
 62
     0
 10
40.7197
 20
40.706
 30
0.0
 11
54.719
 21
40.706
 31
0.0
  0
LINE
  8
0
 62
     0
 10
54.719
 20
40.706
 30
0.0
 11
54.719
 21
41.705
 31
0.0
  0
LINE
  8
0
 62
     0
 10
54.719
 20
41.705
 30
0.0
 11
55.5198
 21
41.705
 31
0.0
  0
LINE
  8
0
 62
     0
 10
55.5198
 20
41.705
 30
0.0
 11
55.5198
 21
44.8056
 31
0.0
  0
LINE
  8
0
 62
     0
 10
55.5198
 20
44.8056
 30
0.0
 11
54.719
 21
44.8056
 31
0.0
  0
LINE
  8
0
 62
     0
 10
54.719
 20
44.8056
 30
0.0
 11
54.719
 21
50.6056
 31
0.0
  0
LINE
  8
0
 62
     0
 10
54.719
 20
50.6056
 30
0.0
 11
55.5198
 21
50.6056
 31
0.0
  0
LINE
  8
0
 62
     0
 10
55.5198
 20
50.6056
 30
0.0
 11
55.5198
 21
53.7048
 31
0.0
  0
LINE
  8
0
 62
     0
 10
55.5198
 20
53.7048
 30
0.0
 11
54.719
 21
53.7048
 31
0.0
  0
LINE
  8
0
 62
     0
 10
54.719
 20
53.7048
 30
0.0
 11
54.719
 21
54.7053
 31
0.0
  0
LINE
  8
0
 62
     0
 10
54.719
 20
54.7053
 30
0.0
 11
40.7197
 21
54.7053
 31
0.0
  0
LINE
  8
0
 62
     0
 10
59.7697
 20
54.7053
 30
0.0
 11
59.7697
 21
53.7048
 31
0.0
  0
LINE
  8
0
 62
     0
 10
59.7697
 20
53.7048
 30
0.0
 11
58.9703
 21
53.7048
 31
0.0
  0
LINE
  8
0
 62
     0
 10
58.9703
 20
53.7048
 30
0.0
 11
58.9703
 21
50.6056
 31
0.0
  0
LINE
  8
0
 62
     0
 10
58.9703
 20
50.6056
 30
0.0
 11
59.7697
 21
50.6056
 31
0.0
  0
LINE
  8
0
 62
     0
 10
59.7697
 20
50.6056
 30
0.0
 11
59.7697
 21
44.8056
 31
0.0
  0
LINE
  8
0
 62
     0
 10
59.7697
 20
44.8056
 30
0.0
 11
58.9703
 21
44.8056
 31
0.0
  0
LINE
  8
0
 62
     0
 10
58.9703
 20
44.8056
 30
0.0
 11
58.9703
 21
41.705
 31
0.0
  0
LINE
  8
0
 62
     0
 10
58.9703
 20
41.705
 30
0.0
 11
59.7697
 21
41.705
 31
0.0
  0
LINE
  8
0
 62
     0
 10
59.7697
 20
41.705
 30
0.0
 11
59.7697
 21
40.706
 31
0.0
  0
LINE
  8
0
 62
     0
 10
59.7697
 20
40.706
 30
0.0
 11
73.769
 21
40.706
 31
0.0
  0
LINE
  8
0
 62
     0
 10
73.769
 20
40.706
 30
0.0
 11
73.769
 21
41.705
 31
0.0
  0
LINE
  8
0
 62
     0
 10
73.769
 20
41.705
 30
0.0
 11
74.5698
 21
41.705
 31
0.0
  0
LINE
  8
0
 62
     0
 10
74.5698
 20
41.705
 30
0.0
 11
74.5698
 21
44.8056
 31
0.0
  0
LINE
  8
0
 62
     0
 10
74.5698
 20
44.8056
 30
0.0
 11
73.769
 21
44.8056
 31
0.0
  0
LINE
  8
0
 62
     0
 10
73.769
 20
44.8056
 30
0.0
 11
73.769
 21
50.6056
 31
0.0
  0
LINE
  8
0
 62
     0
 10
73.769
 20
50.6056
 30
0.0
 11
74.5698
 21
50.6056
 31
0.0
  0
LINE
  8
0
 62
     0
 10
74.5698
 20
50.6056
 30
0.0
 11
74.5698
 21
53.7048
 31
0.0
  0
LINE
  8
0
 62
     0
 10
74.5698
 20
53.7048
 30
0.0
 11
73.769
 21
53.7048
 31
0.0
  0
LINE
  8
0
 62
     0
 10
73.769
 20
53.7048
 30
0.0
 11
73.769
 21
54.7053
 31
0.0
  0
LINE
  8
0
 62
     0
 10
73.769
 20
54.7053
 30
0.0
 11
59.7697
 21
54.7053
 31
0.0
  0
LINE
  8
0
 62
     0
 10
78.8197
 20
54.7053
 30
0.0
 11
78.8197
 21
53.7048
 31
0.0
  0
LINE
  8
0
 62
     0
 10
78.8197
 20
53.7048
 30
0.0
 11
78.0203
 21
53.7048
 31
0.0
  0
LINE
  8
0
 62
     0
 10
78.0203
 20
53.7048
 30
0.0
 11
78.0203
 21
50.6056
 31
0.0
  0
LINE
  8
0
 62
     0
 10
78.0203
 20
50.6056
 30
0.0
 11
78.8197
 21
50.6056
 31
0.0
  0
LINE
  8
0
 62
     0
 10
78.8197
 20
50.6056
 30
0.0
 11
78.8197
 21
44.8056
 31
0.0
  0
LINE
  8
0
 62
     0
 10
78.8197
 20
44.8056
 30
0.0
 11
78.0203
 21
44.8056
 31
0.0
  0
LINE
  8
0
 62
     0
 10
78.0203
 20
44.8056
 30
0.0
 11
78.0203
 21
41.705
 31
0.0
  0
LINE
  8
0
 62
     0
 10
78.0203
 20
41.705
 30
0.0
 11
78.8197
 21
41.705
 31
0.0
  0
LINE
  8
0
 62
     0
 10
78.8197
 20
41.705
 30
0.0
 11
78.8197
 21
40.706
 31
0.0
  0
LINE
  8
0
 62
     0
 10
78.8197
 20
40.706
 30
0.0
 11
92.819
 21
40.706
 31
0.0
  0
LINE
  8
0
 62
     0
 10
92.819
 20
40.706
 30
0.0
 11
92.819
 21
41.705
 31
0.0
  0
LINE
  8
0
 62
     0
 10
92.819
 20
41.705
 30
0.0
 11
93.6184
 21
41.705
 31
0.0
  0
LINE
  8
0
 62
     0
 10
93.6184
 20
41.705
 30
0.0
 11
93.6184
 21
44.8056
 31
0.0
  0
LINE
  8
0
 62
     0
 10
93.6184
 20
44.8056
 30
0.0
 11
92.819
 21
44.8056
 31
0.0
  0
LINE
  8
0
 62
     0
 10
92.819
 20
44.8056
 30
0.0
 11
92.819
 21
50.6056
 31
0.0
  0
LINE
  8
0
 62
     0
 10
92.819
 20
50.6056
 30
0.0
 11
93.6184
 21
50.6056
 31
0.0
  0
LINE
  8
0
 62
     0
 10
93.6184
 20
50.6056
 30
0.0
 11
93.6184
 21
53.7048
 31
0.0
  0
LINE
  8
0
 62
     0
 10
93.6184
 20
53.7048
 30
0.0
 11
92.819
 21
53.7048
 31
0.0
  0
LINE
  8
0
 62
     0
 10
92.819
 20
53.7048
 30
0.0
 11
92.819
 21
54.7053
 31
0.0
  0
LINE
  8
0
 62
     0
 10
92.819
 20
54.7053
 30
0.0
 11
78.8197
 21
54.7053
 31
0.0
  0
LINE
  8
0
 62
     0
 10
2.61965
 20
73.7553
 30
0.0
 11
2.61965
 21
72.7548
 31
0.0
  0
LINE
  8
0
 62
     0
 10
2.61965
 20
72.7548
 30
0.0
 11
1.82039
 21
72.7548
 31
0.0
  0
LINE
  8
0
 62
     0
 10
1.82039
 20
72.7548
 30
0.0
 11
1.82039
 21
69.6556
 31
0.0
  0
LINE
  8
0
 62
     0
 10
1.82039
 20
69.6556
 30
0.0
 11
2.61965
 21
69.6556
 31
0.0
  0
LINE
  8
0
 62
     0
 10
2.61965
 20
69.6556
 30
0.0
 11
2.61965
 21
63.8556
 31
0.0
  0
LINE
  8
0
 62
     0
 10
2.61965
 20
63.8556
 30
0.0
 11
1.82039
 21
63.8556
 31
0.0
  0
LINE
  8
0
 62
     0
 10
1.82039
 20
63.8556
 30
0.0
 11
1.82039
 21
60.755
 31
0.0
  0
LINE
  8
0
 62
     0
 10
1.82039
 20
60.755
 30
0.0
 11
2.61965
 21
60.755
 31
0.0
  0
LINE
  8
0
 62
     0
 10
2.61965
 20
60.755
 30
0.0
 11
2.61965
 21
59.756
 31
0.0
  0
LINE
  8
0
 62
     0
 10
2.61965
 20
59.756
 30
0.0
 11
16.6192
 21
59.756
 31
0.0
  0
LINE
  8
0
 62
     0
 10
16.6192
 20
59.756
 30
0.0
 11
16.6192
 21
60.755
 31
0.0
  0
LINE
  8
0
 62
     0
 10
16.6192
 20
60.755
 30
0.0
 11
17.4198
 21
60.755
 31
0.0
  0
LINE
  8
0
 62
     0
 10
17.4198
 20
60.755
 30
0.0
 11
17.4198
 21
63.8556
 31
0.0
  0
LINE
  8
0
 62
     0
 10
17.4198
 20
63.8556
 30
0.0
 11
16.6192
 21
63.8556
 31
0.0
  0
LINE
  8
0
 62
     0
 10
16.6192
 20
63.8556
 30
0.0
 11
16.6192
 21
69.6556
 31
0.0
  0
LINE
  8
0
 62
     0
 10
16.6192
 20
69.6556
 30
0.0
 11
17.4198
 21
69.6556
 31
0.0
  0
LINE
  8
0
 62
     0
 10
17.4198
 20
69.6556
 30
0.0
 11
17.4198
 21
72.7548
 31
0.0
  0
LINE
  8
0
 62
     0
 10
17.4198
 20
72.7548
 30
0.0
 11
16.6192
 21
72.7548
 31
0.0
  0
LINE
  8
0
 62
     0
 10
16.6192
 20
72.7548
 30
0.0
 11
16.6192
 21
73.7553
 31
0.0
  0
LINE
  8
0
 62
     0
 10
16.6192
 20
73.7553
 30
0.0
 11
2.61965
 21
73.7553
 31
0.0
  0
LINE
  8
0
 62
     0
 10
21.6697
 20
73.7553
 30
0.0
 11
21.6697
 21
72.7548
 31
0.0
  0
LINE
  8
0
 62
     0
 10
21.6697
 20
72.7548
 30
0.0
 11
20.8704
 21
72.7548
 31
0.0
  0
LINE
  8
0
 62
     0
 10
20.8704
 20
72.7548
 30
0.0
 11
20.8704
 21
69.6556
 31
0.0
  0
LINE
  8
0
 62
     0
 10
20.8704
 20
69.6556
 30
0.0
 11
21.6697
 21
69.6556
 31
0.0
  0
LINE
  8
0
 62
     0
 10
21.6697
 20
69.6556
 30
0.0
 11
21.6697
 21
63.8556
 31
0.0
  0
LINE
  8
0
 62
     0
 10
21.6697
 20
63.8556
 30
0.0
 11
20.8704
 21
63.8556
 31
0.0
  0
LINE
  8
0
 62
     0
 10
20.8704
 20
63.8556
 30
0.0
 11
20.8704
 21
60.755
 31
0.0
  0
LINE
  8
0
 62
     0
 10
20.8704
 20
60.755
 30
0.0
 11
21.6697
 21
60.755
 31
0.0
  0
LINE
  8
0
 62
     0
 10
21.6697
 20
60.755
 30
0.0
 11
21.6697
 21
59.756
 31
0.0
  0
LINE
  8
0
 62
     0
 10
21.6697
 20
59.756
 30
0.0
 11
35.669
 21
59.756
 31
0.0
  0
LINE
  8
0
 62
     0
 10
35.669
 20
59.756
 30
0.0
 11
35.669
 21
60.755
 31
0.0
  0
LINE
  8
0
 62
     0
 10
35.669
 20
60.755
 30
0.0
 11
36.4698
 21
60.755
 31
0.0
  0
LINE
  8
0
 62
     0
 10
36.4698
 20
60.755
 30
0.0
 11
36.4698
 21
63.8556
 31
0.0
  0
LINE
  8
0
 62
     0
 10
36.4698
 20
63.8556
 30
0.0
 11
35.669
 21
63.8556
 31
0.0
  0
LINE
  8
0
 62
     0
 10
35.669
 20
63.8556
 30
0.0
 11
35.669
 21
69.6556
 31
0.0
  0
LINE
  8
0
 62
     0
 10
35.669
 20
69.6556
 30
0.0
 11
36.4698
 21
69.6556
 31
0.0
  0
LINE
  8
0
 62
     0
 10
36.4698
 20
69.6556
 30
0.0
 11
36.4698
 21
72.7548
 31
0.0
  0
LINE
  8
0
 62
     0
 10
36.4698
 20
72.7548
 30
0.0
 11
35.669
 21
72.7548
 31
0.0
  0
LINE
  8
0
 62
     0
 10
35.669
 20
72.7548
 30
0.0
 11
35.669
 21
73.7553
 31
0.0
  0
LINE
  8
0
 62
     0
 10
35.669
 20
73.7553
 30
0.0
 11
21.6697
 21
73.7553
 31
0.0
  0
LINE
  8
0
 62
     0
 10
40.7197
 20
73.7553
 30
0.0
 11
40.7197
 21
72.7548
 31
0.0
  0
LINE
  8
0
 62
     0
 10
40.7197
 20
72.7548
 30
0.0
 11
39.9203
 21
72.7548
 31
0.0
  0
LINE
  8
0
 62
     0
 10
39.9203
 20
72.7548
 30
0.0
 11
39.9203
 21
69.6556
 31
0.0
  0
LINE
  8
0
 62
     0
 10
39.9203
 20
69.6556
 30
0.0
 11
40.7197
 21
69.6556
 31
0.0
  0
LINE
  8
0
 62
     0
 10
40.7197
 20
69.6556
 30
0.0
 11
40.7197
 21
63.8556
 31
0.0
  0
LINE
  8
0
 62
     0
 10
40.7197
 20
63.8556
 30
0.0
 11
39.9203
 21
63.8556
 31
0.0
  0
LINE
  8
0
 62
     0
 10
39.9203
 20
63.8556
 30
0.0
 11
39.9203
 21
60.755
 31
0.0
  0
LINE
  8
0
 62
     0
 10
39.9203
 20
60.755
 30
0.0
 11
40.7197
 21
60.755
 31
0.0
  0
LINE
  8
0
 62
     0
 10
40.7197
 20
60.755
 30
0.0
 11
40.7197
 21
59.756
 31
0.0
  0
LINE
  8
0
 62
     0
 10
40.7197
 20
59.756
 30
0.0
 11
54.719
 21
59.756
 31
0.0
  0
LINE
  8
0
 62
     0
 10
54.719
 20
59.756
 30
0.0
 11
54.719
 21
60.755
 31
0.0
  0
LINE
  8
0
 62
     0
 10
54.719
 20
60.755
 30
0.0
 11
55.5198
 21
60.755
 31
0.0
  0
LINE
  8
0
 62
     0
 10
55.5198
 20
60.755
 30
0.0
 11
55.5198
 21
63.8556
 31
0.0
  0
LINE
  8
0
 62
     0
 10
55.5198
 20
63.8556
 30
0.0
 11
54.719
 21
63.8556
 31
0.0
  0
LINE
  8
0
 62
     0
 10
54.719
 20
63.8556
 30
0.0
 11
54.719
 21
69.6556
 31
0.0
  0
LINE
  8
0
 62
     0
 10
54.719
 20
69.6556
 30
0.0
 11
55.5198
 21
69.6556
 31
0.0
  0
LINE
  8
0
 62
     0
 10
55.5198
 20
69.6556
 30
0.0
 11
55.5198
 21
72.7548
 31
0.0
  0
LINE
  8
0
 62
     0
 10
55.5198
 20
72.7548
 30
0.0
 11
54.719
 21
72.7548
 31
0.0
  0
LINE
  8
0
 62
     0
 10
54.719
 20
72.7548
 30
0.0
 11
54.719
 21
73.7553
 31
0.0
  0
LINE
  8
0
 62
     0
 10
54.719
 20
73.7553
 30
0.0
 11
40.7197
 21
73.7553
 31
0.0
  0
LINE
  8
0
 62
     0
 10
59.7697
 20
73.7553
 30
0.0
 11
59.7697
 21
72.7548
 31
0.0
  0
LINE
  8
0
 62
     0
 10
59.7697
 20
72.7548
 30
0.0
 11
58.9703
 21
72.7548
 31
0.0
  0
LINE
  8
0
 62
     0
 10
58.9703
 20
72.7548
 30
0.0
 11
58.9703
 21
69.6556
 31
0.0
  0
LINE
  8
0
 62
     0
 10
58.9703
 20
69.6556
 30
0.0
 11
59.7697
 21
69.6556
 31
0.0
  0
LINE
  8
0
 62
     0
 10
59.7697
 20
69.6556
 30
0.0
 11
59.7697
 21
63.8556
 31
0.0
  0
LINE
  8
0
 62
     0
 10
59.7697
 20
63.8556
 30
0.0
 11
58.9703
 21
63.8556
 31
0.0
  0
LINE
  8
0
 62
     0
 10
58.9703
 20
63.8556
 30
0.0
 11
58.9703
 21
60.755
 31
0.0
  0
LINE
  8
0
 62
     0
 10
58.9703
 20
60.755
 30
0.0
 11
59.7697
 21
60.755
 31
0.0
  0
LINE
  8
0
 62
     0
 10
59.7697
 20
60.755
 30
0.0
 11
59.7697
 21
59.756
 31
0.0
  0
LINE
  8
0
 62
     0
 10
59.7697
 20
59.756
 30
0.0
 11
73.769
 21
59.756
 31
0.0
  0
LINE
  8
0
 62
     0
 10
73.769
 20
59.756
 30
0.0
 11
73.769
 21
60.755
 31
0.0
  0
LINE
  8
0
 62
     0
 10
73.769
 20
60.755
 30
0.0
 11
74.5698
 21
60.755
 31
0.0
  0
LINE
  8
0
 62
     0
 10
74.5698
 20
60.755
 30
0.0
 11
74.5698
 21
63.8556
 31
0.0
  0
LINE
  8
0
 62
     0
 10
74.5698
 20
63.8556
 30
0.0
 11
73.769
 21
63.8556
 31
0.0
  0
LINE
  8
0
 62
     0
 10
73.769
 20
63.8556
 30
0.0
 11
73.769
 21
69.6556
 31
0.0
  0
LINE
  8
0
 62
     0
 10
73.769
 20
69.6556
 30
0.0
 11
74.5698
 21
69.6556
 31
0.0
  0
LINE
  8
0
 62
     0
 10
74.5698
 20
69.6556
 30
0.0
 11
74.5698
 21
72.7548
 31
0.0
  0
LINE
  8
0
 62
     0
 10
74.5698
 20
72.7548
 30
0.0
 11
73.769
 21
72.7548
 31
0.0
  0
LINE
  8
0
 62
     0
 10
73.769
 20
72.7548
 30
0.0
 11
73.769
 21
73.7553
 31
0.0
  0
LINE
  8
0
 62
     0
 10
73.769
 20
73.7553
 30
0.0
 11
59.7697
 21
73.7553
 31
0.0
  0
LINE
  8
0
 62
     0
 10
78.8197
 20
73.7553
 30
0.0
 11
78.8197
 21
72.7548
 31
0.0
  0
LINE
  8
0
 62
     0
 10
78.8197
 20
72.7548
 30
0.0
 11
78.0203
 21
72.7548
 31
0.0
  0
LINE
  8
0
 62
     0
 10
78.0203
 20
72.7548
 30
0.0
 11
78.0203
 21
69.6556
 31
0.0
  0
LINE
  8
0
 62
     0
 10
78.0203
 20
69.6556
 30
0.0
 11
78.8197
 21
69.6556
 31
0.0
  0
LINE
  8
0
 62
     0
 10
78.8197
 20
69.6556
 30
0.0
 11
78.8197
 21
63.8556
 31
0.0
  0
LINE
  8
0
 62
     0
 10
78.8197
 20
63.8556
 30
0.0
 11
78.0203
 21
63.8556
 31
0.0
  0
LINE
  8
0
 62
     0
 10
78.0203
 20
63.8556
 30
0.0
 11
78.0203
 21
60.755
 31
0.0
  0
LINE
  8
0
 62
     0
 10
78.0203
 20
60.755
 30
0.0
 11
78.8197
 21
60.755
 31
0.0
  0
LINE
  8
0
 62
     0
 10
78.8197
 20
60.755
 30
0.0
 11
78.8197
 21
59.756
 31
0.0
  0
LINE
  8
0
 62
     0
 10
78.8197
 20
59.756
 30
0.0
 11
92.819
 21
59.756
 31
0.0
  0
LINE
  8
0
 62
     0
 10
92.819
 20
59.756
 30
0.0
 11
92.819
 21
60.755
 31
0.0
  0
LINE
  8
0
 62
     0
 10
92.819
 20
60.755
 30
0.0
 11
93.6184
 21
60.755
 31
0.0
  0
LINE
  8
0
 62
     0
 10
93.6184
 20
60.755
 30
0.0
 11
93.6184
 21
63.8556
 31
0.0
  0
LINE
  8
0
 62
     0
 10
93.6184
 20
63.8556
 30
0.0
 11
92.819
 21
63.8556
 31
0.0
  0
LINE
  8
0
 62
     0
 10
92.819
 20
63.8556
 30
0.0
 11
92.819
 21
69.6556
 31
0.0
  0
LINE
  8
0
 62
     0
 10
92.819
 20
69.6556
 30
0.0
 11
93.6184
 21
69.6556
 31
0.0
  0
LINE
  8
0
 62
     0
 10
93.6184
 20
69.6556
 30
0.0
 11
93.6184
 21
72.7548
 31
0.0
  0
LINE
  8
0
 62
     0
 10
93.6184
 20
72.7548
 30
0.0
 11
92.819
 21
72.7548
 31
0.0
  0
LINE
  8
0
 62
     0
 10
92.819
 20
72.7548
 30
0.0
 11
92.819
 21
73.7553
 31
0.0
  0
LINE
  8
0
 62
     0
 10
92.819
 20
73.7553
 30
0.0
 11
78.8197
 21
73.7553
 31
0.0
  0
ENDSEC
  0
EOF
