0
SECTION
2
HEADER
9
$INSUNITS
70
4
9
$ACADVER
1
AC1014
9
$HANDSEED
5
FFFF
0
ENDSEC
0
SECTION
2
TABLES
0
TABLE
2
VPORT
5
8
100
AcDbSymbolTable
0
ENDTAB
0
TABLE
2
LTYPE
5
5
100
AcDbSymbolTable
0
LTYPE
5
14
100
AcDbSymbolTableRecord
100
AcDbLinetypeTableRecord
2
BYBLOCK
70
0
0
LTYPE
5
15
100
AcDbSymbolTableRecord
100
AcDbLinetypeTableRecord
2
BYLAYER
70
0
0
ENDTAB
0
TABLE
2
LAYER
5
2
100
AcDbSymbolTable
70
2
0
LAYER
5
50
100
AcDbSymbolTableRecord
100
AcDbLayerTableRecord
2
0
70
0
6
CONTINUOUS
0
ENDTAB
0
TABLE
2
STYLE
5
3
100
AcDbSymbolTable
70
1
0
STYLE
5
11
100
AcDbSymbolTableRecord
100
AcDbTextStyleTableRecord
2
STANDARD
70
0
0
ENDTAB
0
TABLE
2
VIEW
5
6
100
AcDbSymbolTable
70
0
0
ENDTAB
0
TABLE
2
UCS
5
7
100
AcDbSymbolTable
70
0
0
ENDTAB
0
TABLE
2
APPID
5
9
100
AcDbSymbolTable
70
2
0
APPID
5
12
100
AcDbSymbolTableRecord
100
AcDbRegAppTableRecord
2
ACAD
70
0
0
ENDTAB
0
TABLE
2
DIMSTYLE
5
A
100
AcDbSymbolTable
70
1
0
ENDTAB
0
TABLE
2
BLOCK_RECORD
5
1
100
AcDbSymbolTable
70
1
0
BLOCK_RECORD
5
1F
100
AcDbSymbolTableRecord
100
AcDbBlockTableRecord
2
*MODEL_SPACE
0
BLOCK_RECORD
5
1B
100
AcDbSymbolTableRecord
100
AcDbBlockTableRecord
2
*PAPER_SPACE
0
ENDTAB
0
ENDSEC
0
SECTION
2
BLOCKS
0
BLOCK
5
20
100
AcDbEntity
100
AcDbBlockBegin
2
*MODEL_SPACE
0
ENDBLK
5
21
100
AcDbEntity
100
AcDbBlockEnd
0
BLOCK
5
1C
100
AcDbEntity
100
AcDbBlockBegin
2
*PAPER_SPACE
0
ENDBLK
5
1D
100
AcDbEntity
100
AcDbBlockEnd
0
ENDSEC
0
SECTION
2
ENTITIES
0
LWPOLYLINE
5
100
100
AcDbEntity
8
0
100
AcDbPolyline
90
4
70
1
43
0.0
10
12.6187
20
41.201999999999998
10
26.618200000000005
20
41.201999999999998
10
26.618200000000005
20
55.200200000000009
10
12.6187
20
55.200200000000009
0
LWPOLYLINE
5
101
100
AcDbEntity
8
0
100
AcDbPolyline
90
4
70
1
43
0.0
10
45.668100000000003
20
72.156800000000004
10
45.668100000000003
20
86.156500000000008
10
31.667300000000004
20
86.156500000000008
10
31.667300000000004
20
72.156800000000004
0
LWPOLYLINE
5
102
100
AcDbEntity
8
0
100
AcDbPolyline
90
4
70
1
43
0.0
10
88.818899999999999
20
45.675200000000004
10
88.818899999999999
20
31.675599999999999
10
102.81800000000001
20
31.675599999999999
10
102.81800000000001
20
45.675200000000004
0
LWPOLYLINE
5
103
100
AcDbEntity
8
0
100
AcDbPolyline
90
4
70
1
43
0.0
10
121.86799999999999
20
45.963099999999997
10
121.86799999999999
20
59.962699999999998
10
107.86900000000001
20
59.962699999999998
10
107.86900000000001
20
45.963099999999997
0
LWPOLYLINE
5
104
100
AcDbEntity
8
0
100
AcDbPolyline
90
4
70
1
43
0.0
10
88.818899999999999
20
50.7256
10
102.81800000000001
20
50.7256
10
102.81800000000001
20
64.725200000000001
10
88.818899999999999
20
64.725200000000001
0
LWPOLYLINE
5
105
100
AcDbEntity
8
0
100
AcDbPolyline
90
4
70
1
43
0.0
10
107.86900000000001
20
22.150600000000004
10
121.86799999999999
20
22.150600000000004
10
121.86799999999999
20
36.150199999999998
10
107.86900000000001
20
36.150199999999998
0
LWPOLYLINE
5
106
100
AcDbEntity
8
0
100
AcDbPolyline
90
4
70
1
43
0.0
10
102.81800000000001
20
69.775599999999997
10
102.81800000000001
20
83.775200000000012
10
88.818899999999999
20
83.775200000000012
10
88.818899999999999
20
69.775599999999997
0
LWPOLYLINE
5
107
100
AcDbEntity
8
0
100
AcDbPolyline
90
4
70
1
43
0.0
10
12.6187
20
36.150199999999998
10
12.6187
20
22.150600000000004
10
26.618200000000005
20
22.150600000000004
10
26.618200000000005
20
36.150199999999998
0
LWPOLYLINE
5
108
100
AcDbEntity
8
0
100
AcDbPolyline
90
4
70
1
43
0.0
10
64.718100000000021
20
50.437700000000007
10
50.718899999999998
20
50.437700000000007
10
50.718899999999998
20
36.438100000000006
10
64.718100000000021
20
36.438100000000006
0
LWPOLYLINE
5
109
100
AcDbEntity
8
0
100
AcDbPolyline
90
4
70
1
43
0.0
10
31.667300000000004
20
34.056800000000003
10
45.668100000000003
20
34.056800000000003
10
45.668100000000003
20
48.056400000000004
10
31.667300000000004
20
48.056400000000004
0
LWPOLYLINE
5
110
100
AcDbEntity
8
0
100
AcDbPolyline
90
4
70
1
43
0.0
10
64.718100000000021
20
88.537700000000001
10
50.718899999999998
20
88.537700000000001
10
50.718899999999998
20
74.538100000000014
10
64.718100000000021
20
74.538100000000014
0
LWPOLYLINE
5
111
100
AcDbEntity
8
0
100
AcDbPolyline
90
4
70
1
43
0.0
10
26.618200000000005
20
74.250200000000007
10
12.6187
20
74.250200000000007
10
12.6187
20
60.250599999999999
10
26.618200000000005
20
60.250599999999999
0
LWPOLYLINE
5
112
100
AcDbEntity
8
0
100
AcDbPolyline
90
4
70
1
43
0.0
10
83.768100000000004
20
64.725200000000001
10
69.768900000000002
20
64.725200000000001
10
69.768900000000002
20
50.7256
10
83.768100000000004
20
50.7256
0
LWPOLYLINE
5
113
100
AcDbEntity
8
0
100
AcDbPolyline
90
4
70
1
43
0.0
10
102.81800000000001
20
12.625600000000002
10
102.81800000000001
20
26.625100000000003
10
88.818899999999999
20
26.625100000000003
10
88.818899999999999
20
12.625600000000002
0
LWPOLYLINE
5
114
100
AcDbEntity
8
0
100
AcDbPolyline
90
4
70
1
43
0.0
10
83.768100000000004
20
31.675599999999999
10
83.768100000000004
20
45.675200000000004
10
69.768900000000002
20
45.675200000000004
10
69.768900000000002
20
31.675599999999999
0
LWPOLYLINE
5
115
100
AcDbEntity
8
0
100
AcDbPolyline
90
4
70
1
43
0.0
10
83.768100000000004
20
69.775599999999997
10
83.768100000000004
20
83.775200000000012
10
69.768900000000002
20
83.775200000000012
10
69.768900000000002
20
69.775599999999997
0
LWPOLYLINE
5
116
100
AcDbEntity
8
0
100
AcDbPolyline
90
4
70
1
43
0.0
10
50.718899999999998
20
55.488100000000003
10
64.718100000000021
20
55.488100000000003
10
64.718100000000021
20
69.487700000000004
10
50.718899999999998
20
69.487700000000004
0
LWPOLYLINE
5
117
100
AcDbEntity
8
0
100
AcDbPolyline
90
4
70
1
43
0.0
10
69.768900000000002
20
12.625600000000002
10
83.768100000000004
20
12.625600000000002
10
83.768100000000004
20
26.625100000000003
10
69.768900000000002
20
26.625100000000003
0
LWPOLYLINE
5
118
100
AcDbEntity
8
0
100
AcDbPolyline
90
4
70
1
43
0.0
10
45.668100000000003
20
67.106499999999997
10
31.667300000000004
20
67.106499999999997
10
31.667300000000004
20
53.106800000000007
10
45.668100000000003
20
53.106800000000007
0
LINE
5
119
100
AcDbEntity
8
0
100
AcDbLine
10
6.6186999999999996
20
60.250599999999999
30
0
11
6.6186999999999996
21
74.250200000000007
31
0
0
LINE
5
120
100
AcDbEntity
8
0
100
AcDbLine
10
26.618200000000005
20
16.150600000000001
30
0
11
12.6187
21
16.150600000000001
31
0
0
LINE
5
121
100
AcDbEntity
8
0
100
AcDbLine
10
12.6187
20
16.150600000000001
30
0
11
6.6186999999999987
21
16.150600000000001
31
0
0
LINE
5
122
100
AcDbEntity
8
0
100
AcDbLine
10
6.6186999999999987
20
16.150600000000001
30
0
11
26.618200000000005
21
16.150600000000001
31
0
0
LINE
5
123
100
AcDbEntity
8
0
100
AcDbLine
10
6.6186999999999996
20
60.250599999999999
30
0
11
6.6186999999999987
21
16.150600000000001
31
0
0
LINE
5
124
100
AcDbEntity
8
0
100
AcDbLine
10
12.6187
20
80.250200000000007
30
0
11
26.618200000000005
21
80.250200000000007
31
0
0
LINE
5
125
100
AcDbEntity
8
0
100
AcDbLine
10
12.6187
20
80.250200000000007
30
0
11
6.6186999999999996
21
80.250200000000007
31
0
0
LINE
5
126
100
AcDbEntity
8
0
100
AcDbLine
10
6.6186999999999996
20
74.250200000000007
30
0
11
6.6186999999999996
21
80.250200000000007
31
0
0
LINE
5
127
100
AcDbEntity
8
0
100
AcDbLine
10
50.718899999999998
20
94.537700000000001
30
0
11
64.718100000000021
21
94.537700000000001
31
0
0
LINE
5
128
100
AcDbEntity
8
0
100
AcDbLine
10
50.718899999999998
20
94.537700000000001
30
0
11
28.917300000000004
21
94.537700000000001
31
0
0
LINE
5
129
100
AcDbEntity
8
0
100
AcDbLine
10
64.718100000000021
20
94.537700000000001
30
0
11
67.468100000000021
21
94.537700000000001
31
0
0
LINE
5
130
100
AcDbEntity
8
0
100
AcDbLine
10
69.768900000000002
20
89.775199999999998
30
0
11
83.768100000000004
21
89.775199999999998
31
0
0
LINE
5
131
100
AcDbEntity
8
0
100
AcDbLine
10
83.768100000000004
20
89.775199999999998
30
0
11
105.56800000000001
21
89.775199999999998
31
0
0
LINE
5
132
100
AcDbEntity
8
0
100
AcDbLine
10
107.86900000000001
20
65.962700000000012
30
0
11
121.86799999999999
21
65.962700000000012
31
0
0
LINE
5
133
100
AcDbEntity
8
0
100
AcDbLine
10
121.86799999999999
20
65.962700000000012
30
0
11
131.86799999999999
21
65.962700000000012
31
0
0
LINE
5
134
100
AcDbEntity
8
0
100
AcDbLine
10
121.86799999999999
20
16.150600000000001
30
0
11
107.86900000000001
21
16.150600000000001
31
0
0
LINE
5
135
100
AcDbEntity
8
0
100
AcDbLine
10
121.86799999999999
20
16.150600000000001
30
0
11
131.86799999999999
21
16.150600000000001
31
0
0
LINE
5
136
100
AcDbEntity
8
0
100
AcDbLine
10
102.81800000000001
20
6.6256000000000004
30
0
11
88.818899999999999
21
6.6256000000000004
31
0
0
LINE
5
137
100
AcDbEntity
8
0
100
AcDbLine
10
104.64586824815154
20
6.6256000000000004
30
0
11
105.119
21
6.6256000000000004
31
0
0
LINE
5
138
100
AcDbEntity
8
0
100
AcDbLine
10
88.818899999999999
20
6.6256000000000004
30
0
11
67.018900000000002
21
6.6256000000000004
31
0
0
LINE
5
139
100
AcDbEntity
8
0
100
AcDbLine
10
45.668100000000003
20
28.056800000000003
30
0
11
31.667300000000004
21
28.056800000000003
31
0
0
LINE
5
140
100
AcDbEntity
8
0
100
AcDbLine
10
45.668100000000003
20
28.056800000000003
30
0
11
64.718100000000021
21
28.056800000000003
31
0
0
LINE
5
141
100
AcDbEntity
8
0
100
AcDbLine
10
26.618200000000005
20
16.150600000000001
30
0
11
29.368200000000005
21
16.150600000000001
31
0
0
LINE
5
142
100
AcDbEntity
8
0
100
AcDbLine
10
107.86900000000001
20
65.962700000000012
30
0
11
107.86900000000001
21
89.775199999999998
31
0
0
LINE
5
143
100
AcDbEntity
8
0
100
AcDbLine
10
105.56800000000001
20
89.775199999999998
30
0
11
107.86900000000001
21
89.775199999999998
31
0
0
LINE
5
144
100
AcDbEntity
8
0
100
AcDbLine
10
69.768900000000002
20
89.775199999999998
30
0
11
69.768900000000002
21
94.537700000000001
31
0
0
LINE
5
145
100
AcDbEntity
8
0
100
AcDbLine
10
67.468100000000021
20
94.537700000000001
30
0
11
69.768900000000002
21
94.537700000000001
31
0
0
LINE
5
146
100
AcDbEntity
8
0
100
AcDbLine
10
28.917300000000004
20
94.537700000000001
30
0
11
26.618200000000005
21
94.537700000000001
31
0
0
LINE
5
147
100
AcDbEntity
8
0
100
AcDbLine
10
26.618200000000005
20
80.250200000000007
30
0
11
26.618200000000005
21
94.537700000000001
31
0
0
LINE
5
148
100
AcDbEntity
8
0
100
AcDbLine
10
31.667300000000004
20
16.150600000000001
30
0
11
31.667300000000004
21
28.056800000000003
31
0
0
LINE
5
149
100
AcDbEntity
8
0
100
AcDbLine
10
29.368200000000005
20
16.150600000000001
30
0
11
31.667300000000004
21
16.150600000000001
31
0
0
LINE
5
150
100
AcDbEntity
8
0
100
AcDbLine
10
64.718100000000021
20
28.056800000000003
30
0
11
64.718100000000021
21
6.6256000000000004
31
0
0
LINE
5
151
100
AcDbEntity
8
0
100
AcDbLine
10
67.018900000000002
20
6.6256000000000004
30
0
11
64.718100000000021
21
6.6256000000000004
31
0
0
LINE
5
152
100
AcDbEntity
8
0
100
AcDbLine
10
107.86900000000001
20
16.150600000000001
30
0
11
107.86900000000001
21
12.281712579125799
31
0
0
LINE
5
153
100
AcDbEntity
8
0
100
AcDbLine
10
105.119
20
6.6256000000000004
30
0
11
107.86900000000001
21
6.6256000000000004
31
0
0
LINE
5
154
100
AcDbEntity
8
0
100
AcDbLine
10
107.86900000000001
20
6.6256000000000004
30
0
11
107.86900000000001
21
12.281712579125799
31
0
0
CIRCLE
5
155
100
AcDbEntity
8
0
100
AcDbCircle
10
9.6187000000000005
20
77.201734850187393
30
0
40
2.2000000000000002
0
CIRCLE
5
156
100
AcDbEntity
8
0
100
AcDbCircle
10
9.6187000000000005
20
19.667796802555163
30
0
40
2.2000000000000002
0
CIRCLE
5
157
100
AcDbEntity
8
0
100
AcDbCircle
10
104.64586824815154
20
86.572421241937278
30
0
40
2.2000000000000002
0
CIRCLE
5
158
100
AcDbEntity
8
0
100
AcDbCircle
10
104.64586824815152
20
9.8807256785616868
30
0
40
2.1999999999999931
0
LINE
5
159
100
AcDbEntity
8
0
100
AcDbLine
10
102.81800000000001
20
6.6256000000000004
30
0
11
104.64586824815154
21
6.6256000000000004
31
0
0
CIRCLE
5
160
100
AcDbEntity
8
0
100
AcDbCircle
10
114.86850000000001
20
41.056650000000005
30
0
40
2.2000000000000064
0
LINE
5
161
100
AcDbEntity
8
0
100
AcDbLine
10
12.6187
20
67.250399999999999
30
0
11
26.618200000000005
21
67.250399999999999
31
0
0
LINE
5
162
100
AcDbEntity
8
0
100
AcDbLine
10
12.6187
20
48.201099999999997
30
0
11
26.618200000000005
21
48.201099999999997
31
0
0
LINE
5
163
100
AcDbEntity
8
0
100
AcDbLine
10
12.6187
20
29.150400000000005
30
0
11
26.618200000000005
21
29.150400000000005
31
0
0
LINE
5
164
100
AcDbEntity
8
0
100
AcDbLine
10
19.618450000000003
20
36.150199999999998
30
0
11
19.618450000000003
21
22.150600000000004
31
0
0
LINE
5
165
100
AcDbEntity
8
0
100
AcDbLine
10
19.618450000000003
20
74.250200000000007
30
0
11
19.618450000000003
21
60.250599999999999
31
0
0
LINE
5
166
100
AcDbEntity
8
0
100
AcDbLine
10
19.618450000000003
20
55.200200000000009
30
0
11
19.618450000000003
21
48.201099999999997
31
0
0
LINE
5
167
100
AcDbEntity
8
0
100
AcDbLine
10
38.667700000000004
20
79.156650000000013
30
0
11
45.668100000000003
21
79.156650000000013
31
0
0
LINE
5
168
100
AcDbEntity
8
0
100
AcDbLine
10
31.667300000000004
20
60.106650000000002
30
0
11
45.668100000000003
21
60.106650000000002
31
0
0
LINE
5
169
100
AcDbEntity
8
0
100
AcDbLine
10
31.667300000000004
20
41.056600000000003
30
0
11
45.668100000000003
21
41.056600000000003
31
0
0
LINE
5
170
100
AcDbEntity
8
0
100
AcDbLine
10
38.667700000000004
20
86.156500000000008
30
0
11
38.667700000000004
21
72.156800000000004
31
0
0
LINE
5
171
100
AcDbEntity
8
0
100
AcDbLine
10
38.667700000000004
20
67.106499999999997
30
0
11
38.667700000000004
21
53.106800000000007
31
0
0
LINE
5
172
100
AcDbEntity
8
0
100
AcDbLine
10
38.667700000000004
20
48.056400000000004
30
0
11
38.667700000000004
21
34.056800000000003
31
0
0
LINE
5
173
100
AcDbEntity
8
0
100
AcDbLine
10
50.718899999999998
20
81.537900000000008
30
0
11
64.718100000000021
21
81.537900000000008
31
0
0
LINE
5
174
100
AcDbEntity
8
0
100
AcDbLine
10
50.718899999999998
20
62.487900000000003
30
0
11
64.718100000000021
21
62.487900000000003
31
0
0
LINE
5
175
100
AcDbEntity
8
0
100
AcDbLine
10
50.718899999999998
20
43.437899999999999
30
0
11
64.718100000000021
21
43.437899999999999
31
0
0
LINE
5
176
100
AcDbEntity
8
0
100
AcDbLine
10
57.718500000000006
20
88.537700000000001
30
0
11
57.718500000000006
21
74.538100000000014
31
0
0
LINE
5
177
100
AcDbEntity
8
0
100
AcDbLine
10
57.718500000000006
20
69.487700000000004
30
0
11
57.718500000000006
21
55.488100000000003
31
0
0
LINE
5
178
100
AcDbEntity
8
0
100
AcDbLine
10
57.718500000000006
20
50.437700000000007
30
0
11
57.718500000000006
21
36.438100000000006
31
0
0
LINE
5
179
100
AcDbEntity
8
0
100
AcDbLine
10
69.768900000000002
20
38.675399999999996
30
0
11
102.81800000000001
21
38.675399999999996
31
0
0
LINE
5
180
100
AcDbEntity
8
0
100
AcDbLine
10
69.768900000000002
20
19.625350000000001
30
0
11
102.81800000000001
21
19.625350000000001
31
0
0
LINE
5
181
100
AcDbEntity
8
0
100
AcDbLine
10
107.86900000000001
20
29.150400000000005
30
0
11
121.86799999999999
21
29.150400000000005
31
0
0
LINE
5
182
100
AcDbEntity
8
0
100
AcDbLine
10
107.86900000000001
20
52.962899999999998
30
0
11
121.86799999999999
21
52.962899999999998
31
0
0
LINE
5
183
100
AcDbEntity
8
0
100
AcDbLine
10
114.86850000000001
20
36.150199999999998
30
0
11
114.86850000000001
21
22.150600000000004
31
0
0
LINE
5
184
100
AcDbEntity
8
0
100
AcDbLine
10
114.86850000000001
20
59.962699999999998
30
0
11
114.86850000000001
21
45.963099999999997
31
0
0
LINE
5
185
100
AcDbEntity
8
0
100
AcDbLine
10
114.86850000000001
20
43.256650000000008
30
0
11
114.86850000000001
21
38.856649999999995
31
0
0
LINE
5
186
100
AcDbEntity
8
0
100
AcDbLine
10
69.768900000000002
20
57.7254
30
0
11
83.768100000000004
21
57.7254
31
0
0
LINE
5
187
100
AcDbEntity
8
0
100
AcDbLine
10
88.818899999999999
20
57.7254
30
0
11
102.81800000000001
21
57.7254
31
0
0
LINE
5
188
100
AcDbEntity
8
0
100
AcDbLine
10
69.768900000000002
20
76.775400000000005
30
0
11
83.768100000000004
21
76.775400000000005
31
0
0
LINE
5
189
100
AcDbEntity
8
0
100
AcDbLine
10
88.818899999999999
20
76.775400000000005
30
0
11
102.81800000000001
21
76.775400000000005
31
0
0
LINE
5
190
100
AcDbEntity
8
0
100
AcDbLine
10
76.768500000000003
20
83.775200000000012
30
0
11
76.768500000000003
21
69.775599999999997
31
0
0
LINE
5
191
100
AcDbEntity
8
0
100
AcDbLine
10
95.818450000000013
20
83.775200000000012
30
0
11
95.818450000000013
21
69.775599999999997
31
0
0
LINE
5
192
100
AcDbEntity
8
0
100
AcDbLine
10
95.818450000000013
20
64.725200000000001
30
0
11
95.818450000000013
21
50.7256
31
0
0
LINE
5
193
100
AcDbEntity
8
0
100
AcDbLine
10
95.818450000000013
20
45.675200000000004
30
0
11
95.818450000000013
21
31.675599999999999
31
0
0
LINE
5
194
100
AcDbEntity
8
0
100
AcDbLine
10
95.818450000000013
20
26.625100000000003
30
0
11
95.818450000000013
21
12.625600000000002
31
0
0
LINE
5
195
100
AcDbEntity
8
0
100
AcDbLine
10
76.768500000000003
20
26.625100000000003
30
0
11
76.768500000000003
21
12.625600000000002
31
0
0
LINE
5
196
100
AcDbEntity
8
0
100
AcDbLine
10
76.768500000000003
20
64.725200000000001
30
0
11
76.768500000000003
21
50.7256
31
0
0
LINE
5
197
100
AcDbEntity
8
0
100
AcDbLine
10
76.768500000000003
20
45.675200000000004
30
0
11
76.768500000000003
21
31.675599999999999
31
0
0
LINE
5
198
100
AcDbEntity
8
0
100
AcDbLine
10
19.618450000000003
20
48.201099999999997
30
0
11
19.618450000000003
21
41.201999999999998
31
0
0
LINE
5
199
100
AcDbEntity
8
0
100
AcDbLine
10
38.667700000000004
20
79.156650000000013
30
0
11
31.667300000000004
21
79.156650000000013
31
0
0
LINE
5
200
100
AcDbEntity
8
0
100
AcDbLine
10
134.36799999999999
20
59.962699999999998
30
0
11
134.36799999999999
21
45.963099999999997
31
0
0
LINE
5
201
100
AcDbEntity
8
0
100
AcDbLine
10
134.36799999999999
20
59.962699999999998
30
0
11
134.36799999999999
21
65.962700000000012
31
0
0
LINE
5
202
100
AcDbEntity
8
0
100
AcDbLine
10
134.36799999999999
20
45.963099999999997
30
0
11
134.36799999999999
21
16.150600000000001
31
0
0
LINE
5
203
100
AcDbEntity
8
0
100
AcDbLine
10
131.86799999999999
20
65.962700000000012
30
0
11
134.36799999999999
21
65.962700000000012
31
0
0
LINE
5
204
100
AcDbEntity
8
0
100
AcDbLine
10
131.86799999999999
20
16.150600000000001
30
0
11
134.36799999999999
21
16.150600000000001
31
0
0
ENDSEC
0
SECTION
2
OBJECTS
0
DICTIONARY
5
C
100
AcDbDictionary
3
ACAD_GROUP
350
D
3
ACAD_MLINESTYLE
350
17
0
DICTIONARY
5
D
100
AcDbDictionary
0
DICTIONARY
5
1A
330
C
100
AcDbDictionary
0
DICTIONARY
5
17
100
AcDbDictionary
0
ENDSEC
0
EOF
