0
SECTION
2
HEADER
9
$INSUNITS
70
4
9
$ACADVER
1
AC1014
9
$HANDSEED
5
FFFF
0
ENDSEC
0
SECTION
2
TABLES
0
TABLE
2
VPORT
5
8
100
AcDbSymbolTable
0
ENDTAB
0
TABLE
2
LTYPE
5
5
100
AcDbSymbolTable
0
LTYPE
5
14
100
AcDbSymbolTableRecord
100
AcDbLinetypeTableRecord
2
BYBLOCK
70
0
0
LTYPE
5
15
100
AcDbSymbolTableRecord
100
AcDbLinetypeTableRecord
2
BYLAYER
70
0
0
ENDTAB
0
TABLE
2
LAYER
5
2
100
AcDbSymbolTable
70
2
0
LAYER
5
50
100
AcDbSymbolTableRecord
100
AcDbLayerTableRecord
2
0
70
0
6
CONTINUOUS
0
ENDTAB
0
TABLE
2
STYLE
5
3
100
AcDbSymbolTable
70
1
0
STYLE
5
11
100
AcDbSymbolTableRecord
100
AcDbTextStyleTableRecord
2
STANDARD
70
0
0
ENDTAB
0
TABLE
2
VIEW
5
6
100
AcDbSymbolTable
70
0
0
ENDTAB
0
TABLE
2
UCS
5
7
100
AcDbSymbolTable
70
0
0
ENDTAB
0
TABLE
2
APPID
5
9
100
AcDbSymbolTable
70
2
0
APPID
5
12
100
AcDbSymbolTableRecord
100
AcDbRegAppTableRecord
2
ACAD
70
0
0
ENDTAB
0
TABLE
2
DIMSTYLE
5
A
100
AcDbSymbolTable
70
1
0
ENDTAB
0
TABLE
2
BLOCK_RECORD
5
1
100
AcDbSymbolTable
70
1
0
BLOCK_RECORD
5
1F
100
AcDbSymbolTableRecord
100
AcDbBlockTableRecord
2
*MODEL_SPACE
0
BLOCK_RECORD
5
1B
100
AcDbSymbolTableRecord
100
AcDbBlockTableRecord
2
*PAPER_SPACE
0
ENDTAB
0
ENDSEC
0
SECTION
2
BLOCKS
0
BLOCK
5
20
100
AcDbEntity
100
AcDbBlockBegin
2
*MODEL_SPACE
0
ENDBLK
5
21
100
AcDbEntity
100
AcDbBlockEnd
0
BLOCK
5
1C
100
AcDbEntity
100
AcDbBlockBegin
2
*PAPER_SPACE
0
ENDBLK
5
1D
100
AcDbEntity
100
AcDbBlockEnd
0
ENDSEC
0
SECTION
2
ENTITIES
0
LWPOLYLINE
5
100
100
AcDbEntity
8
0
100
AcDbPolyline
90
4
70
1
43
0.0
10
111.86900000000001
20
49.96220000000001
10
97.869699999999995
20
49.96220000000001
10
97.869699999999995
20
35.961500000000001
10
111.86900000000001
20
35.961500000000001
0
LWPOLYLINE
5
101
100
AcDbEntity
8
0
100
AcDbPolyline
90
4
70
1
43
0.0
10
2.61965
20
45.1997
10
2.61965
20
31.198800000000002
10
16.619199999999999
20
31.198800000000002
10
16.619199999999999
20
45.1997
0
LWPOLYLINE
5
102
100
AcDbEntity
8
0
100
AcDbPolyline
90
4
70
1
43
0.0
10
59.769700000000007
20
54.724700000000006
10
59.769700000000007
20
40.724000000000011
10
73.768999999999991
20
40.724000000000011
10
73.768999999999991
20
54.724700000000006
0
LWPOLYLINE
5
103
100
AcDbEntity
8
0
100
AcDbPolyline
90
4
70
1
43
0.0
10
54.718999999999994
20
59.487200000000009
10
40.719700000000003
20
59.487200000000009
10
40.719700000000003
20
45.486500000000007
10
54.718999999999994
20
45.486500000000007
0
LWPOLYLINE
5
104
100
AcDbEntity
8
0
100
AcDbPolyline
90
4
70
1
43
0.0
10
21.669699999999999
20
57.105899999999998
10
21.669699999999999
20
43.105200000000004
10
35.669000000000004
20
43.105200000000004
10
35.669000000000004
20
57.105899999999998
0
LWPOLYLINE
5
105
100
AcDbEntity
8
0
100
AcDbPolyline
90
4
70
1
43
0.0
10
78.819699999999997
20
2.62378
10
92.819000000000003
20
2.62378
10
92.819000000000003
20
16.624700000000001
10
78.819699999999997
20
16.624700000000001
0
LWPOLYLINE
5
106
100
AcDbEntity
8
0
100
AcDbPolyline
90
4
70
1
43
0.0
10
78.819699999999997
20
73.774699999999996
10
78.819699999999997
20
59.773999999999994
10
92.819000000000003
20
59.773999999999994
10
92.819000000000003
20
73.774699999999996
0
LWPOLYLINE
5
107
100
AcDbEntity
8
0
100
AcDbPolyline
90
4
70
1
43
0.0
10
54.718999999999994
20
64.536500000000004
10
54.718999999999994
20
78.537199999999999
10
40.719700000000003
20
78.537199999999999
10
40.719700000000003
20
64.536500000000004
0
LWPOLYLINE
5
108
100
AcDbEntity
8
0
100
AcDbPolyline
90
4
70
1
43
0.0
10
59.769700000000007
20
2.62378
10
73.768999999999991
20
2.62378
10
73.768999999999991
20
16.624700000000001
10
59.769700000000007
20
16.624700000000001
0
LWPOLYLINE
5
109
100
AcDbEntity
8
0
100
AcDbPolyline
90
4
70
1
43
0.0
10
35.669000000000004
20
76.155900000000003
10
21.669699999999999
20
76.155900000000003
10
21.669699999999999
20
62.155200000000008
10
35.669000000000004
20
62.155200000000008
0
LWPOLYLINE
5
110
100
AcDbEntity
8
0
100
AcDbPolyline
90
4
70
1
43
0.0
10
59.769700000000007
20
59.773999999999994
10
73.768999999999991
20
59.773999999999994
10
73.768999999999991
20
73.774699999999996
10
59.769700000000007
20
73.774699999999996
0
LWPOLYLINE
5
111
100
AcDbEntity
8
0
100
AcDbPolyline
90
4
70
1
43
0.0
10
111.86900000000001
20
12.1488
10
111.86900000000001
20
26.149699999999999
10
97.869699999999995
20
26.149699999999999
10
97.869699999999995
20
12.1488
0
LWPOLYLINE
5
112
100
AcDbEntity
8
0
100
AcDbPolyline
90
4
70
1
43
0.0
10
0.095084600000000019
20
92.59195970208944
10
0.095084599999992747
20
0.097840800000000006
10
117.72146914483355
20
0.097840799999993067
10
117.72146914483355
20
92.59195970208944
0
LWPOLYLINE
5
113
100
AcDbEntity
8
0
100
AcDbPolyline
90
4
70
1
43
0.0
10
16.619199999999999
20
12.1488
10
16.619199999999999
20
26.149699999999999
10
2.61965
20
26.149699999999999
10
2.61965
20
12.1488
0
LWPOLYLINE
5
114
100
AcDbEntity
8
0
100
AcDbPolyline
90
4
70
1
43
0.0
10
59.769700000000007
20
21.6738
10
73.768999999999991
20
21.6738
10
73.768999999999991
20
35.674700000000001
10
59.769700000000007
20
35.674700000000001
0
LWPOLYLINE
5
115
100
AcDbEntity
8
0
100
AcDbPolyline
90
4
70
1
43
0.0
10
92.819000000000003
20
35.674700000000001
10
78.819699999999997
20
35.674700000000001
10
78.819699999999997
20
21.6738
10
92.819000000000003
20
21.6738
0
LWPOLYLINE
5
116
100
AcDbEntity
8
0
100
AcDbPolyline
90
4
70
1
43
0.0
10
2.61965
20
64.249700000000004
10
2.61965
20
50.248999999999995
10
16.619199999999999
20
50.248999999999995
10
16.619199999999999
20
64.249700000000004
0
LWPOLYLINE
5
117
100
AcDbEntity
8
0
100
AcDbPolyline
90
4
70
1
43
0.0
10
54.718999999999994
20
26.436299999999999
10
54.718999999999994
20
40.437199999999997
10
40.719700000000003
20
40.437199999999997
10
40.719700000000003
20
26.436299999999999
0
LWPOLYLINE
5
118
100
AcDbEntity
8
0
100
AcDbPolyline
90
4
70
1
43
0.0
10
35.669000000000004
20
38.055900000000008
10
21.669699999999999
20
38.055900000000008
10
21.669699999999999
20
24.055
10
35.669000000000004
20
24.055
0
LWPOLYLINE
5
119
100
AcDbEntity
8
0
100
AcDbPolyline
90
4
70
1
43
0.0
10
92.819000000000003
20
54.724700000000006
10
78.819699999999997
20
54.724700000000006
10
78.819699999999997
20
40.724000000000011
10
92.819000000000003
20
40.724000000000011
0
LWPOLYLINE
5
120
100
AcDbEntity
8
0
100
AcDbPolyline
90
4
70
1
43
0.0
10
56.128357711023668
20
81.002642278265114
10
38.128357711023654
20
81.002642278265114
10
38.128357711023654
20
48.002642278265114
10
56.128357711023668
20
48.002642278265114
0
LINE
5
121
100
AcDbEntity
8
0
100
AcDbLine
10
0.095084600000000019
20
10.063934370512451
30
0
11
46.212916405101467
21
0.097840800000000006
31
0
0
LINE
5
122
100
AcDbEntity
8
0
100
AcDbLine
10
101.13296212290491
20
76.214110706211244
30
0
11
25.344903343679274
21
92.59195970208944
31
0
0
LINE
5
123
100
AcDbEntity
8
0
100
AcDbLine
10
0.095084600000001629
20
81.161945857153739
30
0
11
78.2369871176451
21
81.161945857153739
31
0
0
LINE
5
124
100
AcDbEntity
8
0
100
AcDbLine
10
101.13296212290491
20
76.214110706211244
30
0
11
117.72146914483355
21
72.629323505583216
31
0
0
LINE
5
125
100
AcDbEntity
8
0
100
AcDbLine
10
2.61965
20
57.249350000000007
30
0
11
16.619199999999999
21
57.249350000000007
31
0
0
LINE
5
126
100
AcDbEntity
8
0
100
AcDbLine
10
2.61965
20
38.199249999999999
30
0
11
16.619199999999999
21
38.199249999999999
31
0
0
LINE
5
127
100
AcDbEntity
8
0
100
AcDbLine
10
2.61965
20
19.149249999999999
30
0
11
16.619199999999999
21
19.149249999999999
31
0
0
LINE
5
128
100
AcDbEntity
8
0
100
AcDbLine
10
21.669699999999999
20
69.155550000000005
30
0
11
35.669000000000004
21
69.155550000000005
31
0
0
LINE
5
129
100
AcDbEntity
8
0
100
AcDbLine
10
21.669699999999999
20
50.105550000000001
30
0
11
35.669000000000004
21
50.105550000000001
31
0
0
LINE
5
130
100
AcDbEntity
8
0
100
AcDbLine
10
21.669699999999999
20
31.05545
30
0
11
35.669000000000004
21
31.05545
31
0
0
LINE
5
131
100
AcDbEntity
8
0
100
AcDbLine
10
40.719700000000003
20
71.536850000000001
30
0
11
54.718999999999994
21
71.536850000000001
31
0
0
LINE
5
132
100
AcDbEntity
8
0
100
AcDbLine
10
40.719700000000003
20
52.486850000000004
30
0
11
54.718999999999994
21
52.486850000000004
31
0
0
LINE
5
133
100
AcDbEntity
8
0
100
AcDbLine
10
40.719700000000003
20
33.436749999999996
30
0
11
54.718999999999994
21
33.436749999999996
31
0
0
LINE
5
134
100
AcDbEntity
8
0
100
AcDbLine
10
59.769700000000007
20
66.774349999999998
30
0
11
73.768999999999991
21
66.774349999999998
31
0
0
LINE
5
135
100
AcDbEntity
8
0
100
AcDbLine
10
78.819699999999997
20
66.774349999999998
30
0
11
92.819000000000003
21
66.774349999999998
31
0
0
LINE
5
136
100
AcDbEntity
8
0
100
AcDbLine
10
59.769700000000007
20
47.724350000000008
30
0
11
73.768999999999991
21
47.724350000000008
31
0
0
LINE
5
137
100
AcDbEntity
8
0
100
AcDbLine
10
78.819699999999997
20
47.724350000000008
30
0
11
92.819000000000003
21
47.724350000000008
31
0
0
LINE
5
138
100
AcDbEntity
8
0
100
AcDbLine
10
59.769700000000007
20
28.674250000000001
30
0
11
73.768999999999991
21
28.674250000000001
31
0
0
LINE
5
139
100
AcDbEntity
8
0
100
AcDbLine
10
78.819699999999997
20
28.674250000000001
30
0
11
92.819000000000003
21
28.674250000000001
31
0
0
LINE
5
140
100
AcDbEntity
8
0
100
AcDbLine
10
59.769700000000007
20
9.6242400000000004
30
0
11
73.768999999999991
21
9.6242400000000004
31
0
0
LINE
5
141
100
AcDbEntity
8
0
100
AcDbLine
10
78.819699999999997
20
9.6242400000000004
30
0
11
92.819000000000003
21
9.6242400000000004
31
0
0
LINE
5
142
100
AcDbEntity
8
0
100
AcDbLine
10
66.769350000000003
20
16.624700000000001
30
0
11
66.769350000000003
21
2.62378
31
0
0
LINE
5
143
100
AcDbEntity
8
0
100
AcDbLine
10
85.81935
20
16.624700000000001
30
0
11
85.81935
21
2.62378
31
0
0
LINE
5
144
100
AcDbEntity
8
0
100
AcDbLine
10
85.81935
20
35.674700000000001
30
0
11
85.81935
21
21.6738
31
0
0
LINE
5
145
100
AcDbEntity
8
0
100
AcDbLine
10
66.769350000000003
20
35.674700000000001
30
0
11
66.769350000000003
21
21.6738
31
0
0
LINE
5
146
100
AcDbEntity
8
0
100
AcDbLine
10
66.769350000000003
20
73.774699999999996
30
0
11
66.769350000000003
21
59.773999999999994
31
0
0
LINE
5
147
100
AcDbEntity
8
0
100
AcDbLine
10
66.769350000000003
20
54.724700000000006
30
0
11
66.769350000000003
21
40.724000000000011
31
0
0
LINE
5
148
100
AcDbEntity
8
0
100
AcDbLine
10
85.81935
20
73.774699999999996
30
0
11
85.81935
21
59.773999999999994
31
0
0
LINE
5
149
100
AcDbEntity
8
0
100
AcDbLine
10
85.81935
20
54.724700000000006
30
0
11
85.81935
21
40.724000000000011
31
0
0
LINE
5
150
100
AcDbEntity
8
0
100
AcDbLine
10
47.719349999999999
20
78.537199999999999
30
0
11
47.719349999999999
21
64.536500000000004
31
0
0
LINE
5
151
100
AcDbEntity
8
0
100
AcDbLine
10
47.719349999999999
20
59.487200000000009
30
0
11
47.719349999999999
21
45.486500000000007
31
0
0
LINE
5
152
100
AcDbEntity
8
0
100
AcDbLine
10
47.719349999999999
20
40.437199999999997
30
0
11
47.719349999999999
21
26.436299999999999
31
0
0
LINE
5
153
100
AcDbEntity
8
0
100
AcDbLine
10
28.669350000000001
20
38.055900000000008
30
0
11
28.669350000000001
21
24.055
31
0
0
LINE
5
154
100
AcDbEntity
8
0
100
AcDbLine
10
28.669350000000001
20
76.155900000000003
30
0
11
28.669350000000001
21
62.155200000000008
31
0
0
LINE
5
155
100
AcDbEntity
8
0
100
AcDbLine
10
28.669350000000001
20
57.105899999999998
30
0
11
28.669350000000001
21
43.105200000000004
31
0
0
LINE
5
156
100
AcDbEntity
8
0
100
AcDbLine
10
9.6194249999999997
20
64.249700000000004
30
0
11
9.6194249999999997
21
50.248999999999995
31
0
0
LINE
5
157
100
AcDbEntity
8
0
100
AcDbLine
10
9.6194249999999997
20
45.1997
30
0
11
9.6194249999999997
21
31.198800000000002
31
0
0
LINE
5
158
100
AcDbEntity
8
0
100
AcDbLine
10
9.6194249999999997
20
26.149699999999999
30
0
11
9.6194249999999997
21
12.1488
31
0
0
LWPOLYLINE
5
159
100
AcDbEntity
8
0
100
AcDbPolyline
90
4
70
1
43
0.0
10
75.417288464741972
20
81.016659921875984
10
57.417288464741958
20
81.016659921875984
10
57.417288464741958
20
48.016659921875977
10
75.417288464741972
20
48.016659921875977
0
ENDSEC
0
SECTION
2
OBJECTS
0
DICTIONARY
5
C
100
AcDbDictionary
3
ACAD_GROUP
350
D
3
ACAD_MLINESTYLE
350
17
0
DICTIONARY
5
D
100
AcDbDictionary
0
DICTIONARY
5
1A
330
C
100
AcDbDictionary
0
DICTIONARY
5
17
100
AcDbDictionary
0
ENDSEC
0
EOF
