M48
;DRILL file {KiCad (5.0.0)} date 03/06/19 00:57:09
;FORMAT={-:-/ absolute / inch / decimal}
FMAT,2
INCH,TZ
T1C0.0394
T2C0.0472
T3C0.0669
T4C0.0748
T5C0.1575
%
G90
G05
M72
T1
X5.3402Y-4.8768
X5.7512Y-4.8768
X6.0902Y-5.0646
X6.5012Y-5.0646
X6.0902Y-4.3142
X6.5012Y-4.3142
X6.8402Y-5.0646
X7.2512Y-5.0646
X3.8402Y-5.4394
X4.2512Y-5.4394
X6.8402Y-3.5646
X7.2512Y-3.5646
X7.5902Y-4.502
X8.0012Y-4.502
X5.3402Y-3.3768
X5.7512Y-3.3768
X4.5902Y-3.4709
X5.0012Y-3.4709
X7.5902Y-5.4394
X8.0012Y-5.4394
X6.8402Y-4.3142
X7.2512Y-4.3142
X4.5902Y-4.9705
X5.0012Y-4.9705
X5.3402Y-4.1268
X5.7512Y-4.1268
X4.5902Y-4.2209
X5.0012Y-4.2209
X3.8402Y-4.6894
X4.2512Y-4.6894
X6.8402Y-5.8142
X7.2512Y-5.8142
X6.0902Y-5.8142
X6.5012Y-5.8142
X3.8402Y-3.9394
X4.2512Y-3.9394
X6.0902Y-3.5646
X6.5012Y-3.5646
T2
X8.3469Y-3.8909
X8.3469Y-4.1665
X8.4157Y-3.8909
X8.4157Y-4.1665
T3
X3.8457Y-3.774
X4.2457Y-3.774
X6.0957Y-3.3992
X6.4957Y-3.3992
X5.3457Y-4.7114
X5.7457Y-4.7114
X6.0957Y-4.8992
X6.4957Y-4.8992
X6.0957Y-4.1488
X6.4957Y-4.1488
X6.8457Y-4.8992
X7.2457Y-4.8992
X3.8457Y-5.274
X4.2457Y-5.274
X6.8457Y-3.3992
X7.2457Y-3.3992
X7.5957Y-4.3366
X7.9957Y-4.3366
X5.3457Y-3.2114
X5.7457Y-3.2114
X4.5957Y-3.3055
X4.9957Y-3.3055
X7.5957Y-5.274
X7.9957Y-5.274
X6.8457Y-4.1488
X7.2457Y-4.1488
X4.5957Y-4.8051
X4.9957Y-4.8051
X5.3457Y-3.9614
X5.7457Y-3.9614
X4.5957Y-4.0555
X4.9957Y-4.0555
X3.8457Y-4.524
X4.2457Y-4.524
X6.8457Y-5.6488
X7.2457Y-5.6488
X6.0957Y-5.6488
X6.4957Y-5.6488
T4
X7.5791Y-5.274
X8.0122Y-5.274
X6.8291Y-4.1488
X7.2622Y-4.1488
X4.5791Y-4.8051
X5.0122Y-4.8051
X5.3291Y-3.9614
X5.7622Y-3.9614
X4.5791Y-4.0555
X5.0122Y-4.0555
X3.8291Y-4.524
X4.2622Y-4.524
X6.8291Y-5.6488
X7.2622Y-5.6488
X6.0791Y-5.6488
X6.5122Y-5.6488
X3.8291Y-3.774
X4.2622Y-3.774
X6.0791Y-3.3992
X6.5122Y-3.3992
X5.3291Y-4.7114
X5.7622Y-4.7114
X6.0791Y-4.8992
X6.5122Y-4.8992
X6.0791Y-4.1488
X6.5122Y-4.1488
X6.8291Y-4.8992
X7.2622Y-4.8992
X3.8291Y-5.274
X4.2622Y-5.274
X6.8291Y-3.3992
X7.2622Y-3.3992
X7.5791Y-4.3366
X8.0122Y-4.3366
X5.3291Y-3.2114
X5.7622Y-3.2114
X4.5791Y-3.3055
X5.0122Y-3.3055
T5
X7.7957Y-5.274
X7.0457Y-4.1488
X4.7957Y-4.8051
X5.5457Y-3.9614
X4.7957Y-4.0555
X4.0457Y-4.524
X7.0457Y-5.6488
X6.2957Y-5.6488
X4.0457Y-3.774
X6.2957Y-3.3992
X5.5457Y-4.7114
X6.2957Y-4.8992
X6.2957Y-4.1488
X7.0457Y-4.8992
X4.0457Y-5.274
X7.0457Y-3.3992
X7.7957Y-4.3366
X5.5457Y-3.2114
X4.7957Y-3.3055
T0
M30
