G04 #@! TF.GenerationSoftware,KiCad,Pcbnew,(5.0.0)*
G04 #@! TF.CreationDate,2019-03-06T00:57:05+08:00*
G04 #@! TF.ProjectId,Shinonome,5368696E6F6E6F6D652E6B696361645F,rev?*
G04 #@! TF.SameCoordinates,Original*
G04 #@! TF.FileFunction,Legend,Bot*
G04 #@! TF.FilePolarity,Positive*
%FSLAX46Y46*%
G04 Gerber Fmt 4.6, Leading zero omitted, Abs format (unit mm)*
G04 Created by KiCad (PCBNEW (5.0.0)) date 03/06/19 00:57:05*
%MOMM*%
%LPD*%
G01*
G04 APERTURE LIST*
%ADD10C,0.150000*%
%ADD11C,0.010000*%
%ADD12C,0.125000*%
G04 APERTURE END LIST*
D10*
G04 #@! TO.C,U1*
X134513600Y-101632000D02*
X134513600Y-71152000D01*
X131973600Y-101632000D02*
X134513600Y-101632000D01*
X131973600Y-71152000D02*
X131973600Y-101632000D01*
X134513600Y-71152000D02*
X131973600Y-71152000D01*
X149733600Y-101632000D02*
X149733600Y-71152000D01*
X147193600Y-101632000D02*
X149733600Y-101632000D01*
X147193600Y-71152000D02*
X147193600Y-101632000D01*
X149733600Y-71152000D02*
X147193600Y-71152000D01*
G04 #@! TO.C,D1*
X102370000Y-103870000D02*
X103270000Y-103370000D01*
X103270000Y-103370000D02*
X103270000Y-104370000D01*
X103270000Y-104370000D02*
X102370000Y-103870000D01*
X102270000Y-103370000D02*
X102270000Y-104370000D01*
X105470000Y-103120000D02*
X100070000Y-103120000D01*
X100070000Y-103120000D02*
X100070000Y-104620000D01*
X100070000Y-104620000D02*
X105470000Y-104620000D01*
X105470000Y-104620000D02*
X105470000Y-103120000D01*
G04 #@! TO.C,D2*
X102370000Y-122820000D02*
X103270000Y-122320000D01*
X103270000Y-122320000D02*
X103270000Y-123320000D01*
X103270000Y-123320000D02*
X102370000Y-122820000D01*
X102270000Y-122320000D02*
X102270000Y-123320000D01*
X105470000Y-122070000D02*
X100070000Y-122070000D01*
X100070000Y-122070000D02*
X100070000Y-123570000D01*
X100070000Y-123570000D02*
X105470000Y-123570000D01*
X105470000Y-123570000D02*
X105470000Y-122070000D01*
G04 #@! TO.C,D3*
X102370000Y-141930000D02*
X103270000Y-141430000D01*
X103270000Y-141430000D02*
X103270000Y-142430000D01*
X103270000Y-142430000D02*
X102370000Y-141930000D01*
X102270000Y-141430000D02*
X102270000Y-142430000D01*
X105470000Y-141180000D02*
X100070000Y-141180000D01*
X100070000Y-141180000D02*
X100070000Y-142680000D01*
X100070000Y-142680000D02*
X105470000Y-142680000D01*
X105470000Y-142680000D02*
X105470000Y-141180000D01*
G04 #@! TO.C,D4*
X124490000Y-92660000D02*
X124490000Y-91160000D01*
X119090000Y-92660000D02*
X124490000Y-92660000D01*
X119090000Y-91160000D02*
X119090000Y-92660000D01*
X124490000Y-91160000D02*
X119090000Y-91160000D01*
X121290000Y-91410000D02*
X121290000Y-92410000D01*
X122290000Y-92410000D02*
X121390000Y-91910000D01*
X122290000Y-91410000D02*
X122290000Y-92410000D01*
X121390000Y-91910000D02*
X122290000Y-91410000D01*
G04 #@! TO.C,D5*
X124520000Y-111730000D02*
X124520000Y-110230000D01*
X119120000Y-111730000D02*
X124520000Y-111730000D01*
X119120000Y-110230000D02*
X119120000Y-111730000D01*
X124520000Y-110230000D02*
X119120000Y-110230000D01*
X121320000Y-110480000D02*
X121320000Y-111480000D01*
X122320000Y-111480000D02*
X121420000Y-110980000D01*
X122320000Y-110480000D02*
X122320000Y-111480000D01*
X121420000Y-110980000D02*
X122320000Y-110480000D01*
G04 #@! TO.C,D6*
X124530000Y-130820000D02*
X124530000Y-129320000D01*
X119130000Y-130820000D02*
X124530000Y-130820000D01*
X119130000Y-129320000D02*
X119130000Y-130820000D01*
X124530000Y-129320000D02*
X119130000Y-129320000D01*
X121330000Y-129570000D02*
X121330000Y-130570000D01*
X122330000Y-130570000D02*
X121430000Y-130070000D01*
X122330000Y-129570000D02*
X122330000Y-130570000D01*
X121430000Y-130070000D02*
X122330000Y-129570000D01*
G04 #@! TO.C,D7*
X140480000Y-89670000D02*
X141380000Y-89170000D01*
X141380000Y-89170000D02*
X141380000Y-90170000D01*
X141380000Y-90170000D02*
X140480000Y-89670000D01*
X140380000Y-89170000D02*
X140380000Y-90170000D01*
X143580000Y-88920000D02*
X138180000Y-88920000D01*
X138180000Y-88920000D02*
X138180000Y-90420000D01*
X138180000Y-90420000D02*
X143580000Y-90420000D01*
X143580000Y-90420000D02*
X143580000Y-88920000D01*
G04 #@! TO.C,D8*
X140490000Y-108620000D02*
X141390000Y-108120000D01*
X141390000Y-108120000D02*
X141390000Y-109120000D01*
X141390000Y-109120000D02*
X140490000Y-108620000D01*
X140390000Y-108120000D02*
X140390000Y-109120000D01*
X143590000Y-107870000D02*
X138190000Y-107870000D01*
X138190000Y-107870000D02*
X138190000Y-109370000D01*
X138190000Y-109370000D02*
X143590000Y-109370000D01*
X143590000Y-109370000D02*
X143590000Y-107870000D01*
G04 #@! TO.C,D9*
X140500000Y-127690000D02*
X141400000Y-127190000D01*
X141400000Y-127190000D02*
X141400000Y-128190000D01*
X141400000Y-128190000D02*
X140500000Y-127690000D01*
X140400000Y-127190000D02*
X140400000Y-128190000D01*
X143600000Y-126940000D02*
X138200000Y-126940000D01*
X138200000Y-126940000D02*
X138200000Y-128440000D01*
X138200000Y-128440000D02*
X143600000Y-128440000D01*
X143600000Y-128440000D02*
X143600000Y-126940000D01*
G04 #@! TO.C,D10*
X162630000Y-95040000D02*
X162630000Y-93540000D01*
X157230000Y-95040000D02*
X162630000Y-95040000D01*
X157230000Y-93540000D02*
X157230000Y-95040000D01*
X162630000Y-93540000D02*
X157230000Y-93540000D01*
X159430000Y-93790000D02*
X159430000Y-94790000D01*
X160430000Y-94790000D02*
X159530000Y-94290000D01*
X160430000Y-93790000D02*
X160430000Y-94790000D01*
X159530000Y-94290000D02*
X160430000Y-93790000D01*
G04 #@! TO.C,D11*
X162620000Y-114110000D02*
X162620000Y-112610000D01*
X157220000Y-114110000D02*
X162620000Y-114110000D01*
X157220000Y-112610000D02*
X157220000Y-114110000D01*
X162620000Y-112610000D02*
X157220000Y-112610000D01*
X159420000Y-112860000D02*
X159420000Y-113860000D01*
X160420000Y-113860000D02*
X159520000Y-113360000D01*
X160420000Y-112860000D02*
X160420000Y-113860000D01*
X159520000Y-113360000D02*
X160420000Y-112860000D01*
G04 #@! TO.C,D12*
X162600000Y-133190000D02*
X162600000Y-131690000D01*
X157200000Y-133190000D02*
X162600000Y-133190000D01*
X157200000Y-131690000D02*
X157200000Y-133190000D01*
X162600000Y-131690000D02*
X157200000Y-131690000D01*
X159400000Y-131940000D02*
X159400000Y-132940000D01*
X160400000Y-132940000D02*
X159500000Y-132440000D01*
X160400000Y-131940000D02*
X160400000Y-132940000D01*
X159500000Y-132440000D02*
X160400000Y-131940000D01*
G04 #@! TO.C,D13*
X159540000Y-151450000D02*
X160440000Y-150950000D01*
X160440000Y-150950000D02*
X160440000Y-151950000D01*
X160440000Y-151950000D02*
X159540000Y-151450000D01*
X159440000Y-150950000D02*
X159440000Y-151950000D01*
X162640000Y-150700000D02*
X157240000Y-150700000D01*
X157240000Y-150700000D02*
X157240000Y-152200000D01*
X157240000Y-152200000D02*
X162640000Y-152200000D01*
X162640000Y-152200000D02*
X162640000Y-150700000D01*
G04 #@! TO.C,D14*
X178580000Y-94310000D02*
X179480000Y-93810000D01*
X179480000Y-93810000D02*
X179480000Y-94810000D01*
X179480000Y-94810000D02*
X178580000Y-94310000D01*
X178480000Y-93810000D02*
X178480000Y-94810000D01*
X181680000Y-93560000D02*
X176280000Y-93560000D01*
X176280000Y-93560000D02*
X176280000Y-95060000D01*
X176280000Y-95060000D02*
X181680000Y-95060000D01*
X181680000Y-95060000D02*
X181680000Y-93560000D01*
G04 #@! TO.C,D15*
X181690000Y-114150000D02*
X181690000Y-112650000D01*
X176290000Y-114150000D02*
X181690000Y-114150000D01*
X176290000Y-112650000D02*
X176290000Y-114150000D01*
X181690000Y-112650000D02*
X176290000Y-112650000D01*
X178490000Y-112900000D02*
X178490000Y-113900000D01*
X179490000Y-113900000D02*
X178590000Y-113400000D01*
X179490000Y-112900000D02*
X179490000Y-113900000D01*
X178590000Y-113400000D02*
X179490000Y-112900000D01*
G04 #@! TO.C,D16*
X178610000Y-132440000D02*
X179510000Y-131940000D01*
X179510000Y-131940000D02*
X179510000Y-132940000D01*
X179510000Y-132940000D02*
X178610000Y-132440000D01*
X178510000Y-131940000D02*
X178510000Y-132940000D01*
X181710000Y-131690000D02*
X176310000Y-131690000D01*
X176310000Y-131690000D02*
X176310000Y-133190000D01*
X176310000Y-133190000D02*
X181710000Y-133190000D01*
X181710000Y-133190000D02*
X181710000Y-131690000D01*
G04 #@! TO.C,D17*
X178560000Y-151440000D02*
X179460000Y-150940000D01*
X179460000Y-150940000D02*
X179460000Y-151940000D01*
X179460000Y-151940000D02*
X178560000Y-151440000D01*
X178460000Y-150940000D02*
X178460000Y-151940000D01*
X181660000Y-150690000D02*
X176260000Y-150690000D01*
X176260000Y-150690000D02*
X176260000Y-152190000D01*
X176260000Y-152190000D02*
X181660000Y-152190000D01*
X181660000Y-152190000D02*
X181660000Y-150690000D01*
G04 #@! TO.C,D18*
X197610000Y-118170000D02*
X198510000Y-117670000D01*
X198510000Y-117670000D02*
X198510000Y-118670000D01*
X198510000Y-118670000D02*
X197610000Y-118170000D01*
X197510000Y-117670000D02*
X197510000Y-118670000D01*
X200710000Y-117420000D02*
X195310000Y-117420000D01*
X195310000Y-117420000D02*
X195310000Y-118920000D01*
X195310000Y-118920000D02*
X200710000Y-118920000D01*
X200710000Y-118920000D02*
X200710000Y-117420000D01*
G04 #@! TO.C,D19*
X197630000Y-141940000D02*
X198530000Y-141440000D01*
X198530000Y-141440000D02*
X198530000Y-142440000D01*
X198530000Y-142440000D02*
X197630000Y-141940000D01*
X197530000Y-141440000D02*
X197530000Y-142440000D01*
X200730000Y-141190000D02*
X195330000Y-141190000D01*
X195330000Y-141190000D02*
X195330000Y-142690000D01*
X195330000Y-142690000D02*
X200730000Y-142690000D01*
X200730000Y-142690000D02*
X200730000Y-141190000D01*
G04 #@! TO.C,J1*
X209010000Y-97330000D02*
X215010000Y-97330000D01*
X215010000Y-97330000D02*
X215010000Y-109330000D01*
X215010000Y-109330000D02*
X209010000Y-109330000D01*
X209010000Y-109330000D02*
X209010000Y-97330000D01*
G04 #@! TO.C,SW20*
X213810000Y-119860000D02*
X213560000Y-119860000D01*
X213560000Y-119860000D02*
X213560000Y-113860000D01*
X213560000Y-113860000D02*
X213810000Y-113860000D01*
X216810000Y-113860000D02*
X217060000Y-113860000D01*
X217060000Y-113860000D02*
X217060000Y-119860000D01*
X217060000Y-119860000D02*
X216810000Y-119860000D01*
D11*
G04 #@! TO.C,G\002A\002A\002A*
G36*
X150048045Y-103010350D02*
X149925576Y-103244695D01*
X149900758Y-103728828D01*
X149900667Y-103801333D01*
X149900667Y-104648000D01*
X151424667Y-104648000D01*
X151424667Y-103907167D01*
X151404697Y-103440739D01*
X151300002Y-103205042D01*
X151043406Y-103092592D01*
X150895500Y-103060500D01*
X150345557Y-102968162D01*
X150048045Y-103010350D01*
X150048045Y-103010350D01*
G37*
X150048045Y-103010350D02*
X149925576Y-103244695D01*
X149900758Y-103728828D01*
X149900667Y-103801333D01*
X149900667Y-104648000D01*
X151424667Y-104648000D01*
X151424667Y-103907167D01*
X151404697Y-103440739D01*
X151300002Y-103205042D01*
X151043406Y-103092592D01*
X150895500Y-103060500D01*
X150345557Y-102968162D01*
X150048045Y-103010350D01*
G36*
X152320707Y-105416737D02*
X152274551Y-105700596D01*
X152271334Y-106044524D01*
X152285465Y-106514799D01*
X152384244Y-106752139D01*
X152652252Y-106862275D01*
X152969875Y-106917750D01*
X153498689Y-107009721D01*
X153865156Y-107125510D01*
X154099042Y-107322312D01*
X154230115Y-107657325D01*
X154288142Y-108187744D01*
X154302888Y-108970766D01*
X154303334Y-109479958D01*
X154303334Y-111590667D01*
X155827334Y-111590667D01*
X155827334Y-105528768D01*
X155065334Y-105468164D01*
X154596382Y-105446720D01*
X154373429Y-105507531D01*
X154306540Y-105689917D01*
X154303334Y-105801310D01*
X154303334Y-106195061D01*
X153809585Y-105843481D01*
X153306774Y-105564185D01*
X152793585Y-105387450D01*
X152472647Y-105338866D01*
X152320707Y-105416737D01*
X152320707Y-105416737D01*
G37*
X152320707Y-105416737D02*
X152274551Y-105700596D01*
X152271334Y-106044524D01*
X152285465Y-106514799D01*
X152384244Y-106752139D01*
X152652252Y-106862275D01*
X152969875Y-106917750D01*
X153498689Y-107009721D01*
X153865156Y-107125510D01*
X154099042Y-107322312D01*
X154230115Y-107657325D01*
X154288142Y-108187744D01*
X154302888Y-108970766D01*
X154303334Y-109479958D01*
X154303334Y-111590667D01*
X155827334Y-111590667D01*
X155827334Y-105528768D01*
X155065334Y-105468164D01*
X154596382Y-105446720D01*
X154373429Y-105507531D01*
X154306540Y-105689917D01*
X154303334Y-105801310D01*
X154303334Y-106195061D01*
X153809585Y-105843481D01*
X153306774Y-105564185D01*
X152793585Y-105387450D01*
X152472647Y-105338866D01*
X152320707Y-105416737D01*
G36*
X157946754Y-103888225D02*
X157867311Y-104165303D01*
X157859334Y-104563333D01*
X157846682Y-105031539D01*
X157760935Y-105253250D01*
X157530406Y-105320633D01*
X157266667Y-105325333D01*
X156869443Y-105351546D01*
X156706539Y-105499439D01*
X156674074Y-105872889D01*
X156674000Y-105918000D01*
X156699780Y-106313971D01*
X156846085Y-106477326D01*
X157216366Y-106510554D01*
X157272213Y-106510667D01*
X157870426Y-106510667D01*
X157822546Y-108415667D01*
X157774667Y-110320667D01*
X157214460Y-110374465D01*
X156834895Y-110442180D01*
X156698728Y-110617029D01*
X156706460Y-110967132D01*
X156761316Y-111293693D01*
X156906447Y-111460307D01*
X157237201Y-111532446D01*
X157566601Y-111557758D01*
X158105518Y-111560474D01*
X158472554Y-111444698D01*
X158828582Y-111154943D01*
X158878934Y-111105117D01*
X159090896Y-110883626D01*
X159233190Y-110675221D01*
X159319699Y-110409739D01*
X159364305Y-110017013D01*
X159380889Y-109426880D01*
X159383334Y-108569176D01*
X159383334Y-106510667D01*
X159806667Y-106510667D01*
X160092950Y-106466386D01*
X160210149Y-106267124D01*
X160230000Y-105918000D01*
X160198269Y-105517104D01*
X160055912Y-105353003D01*
X159808668Y-105325333D01*
X159523277Y-105274052D01*
X159368250Y-105058120D01*
X159281808Y-104665394D01*
X159171780Y-104219091D01*
X158971437Y-103998039D01*
X158665973Y-103903394D01*
X158184137Y-103824516D01*
X157946754Y-103888225D01*
X157946754Y-103888225D01*
G37*
X157946754Y-103888225D02*
X157867311Y-104165303D01*
X157859334Y-104563333D01*
X157846682Y-105031539D01*
X157760935Y-105253250D01*
X157530406Y-105320633D01*
X157266667Y-105325333D01*
X156869443Y-105351546D01*
X156706539Y-105499439D01*
X156674074Y-105872889D01*
X156674000Y-105918000D01*
X156699780Y-106313971D01*
X156846085Y-106477326D01*
X157216366Y-106510554D01*
X157272213Y-106510667D01*
X157870426Y-106510667D01*
X157822546Y-108415667D01*
X157774667Y-110320667D01*
X157214460Y-110374465D01*
X156834895Y-110442180D01*
X156698728Y-110617029D01*
X156706460Y-110967132D01*
X156761316Y-111293693D01*
X156906447Y-111460307D01*
X157237201Y-111532446D01*
X157566601Y-111557758D01*
X158105518Y-111560474D01*
X158472554Y-111444698D01*
X158828582Y-111154943D01*
X158878934Y-111105117D01*
X159090896Y-110883626D01*
X159233190Y-110675221D01*
X159319699Y-110409739D01*
X159364305Y-110017013D01*
X159380889Y-109426880D01*
X159383334Y-108569176D01*
X159383334Y-106510667D01*
X159806667Y-106510667D01*
X160092950Y-106466386D01*
X160210149Y-106267124D01*
X160230000Y-105918000D01*
X160198269Y-105517104D01*
X160055912Y-105353003D01*
X159808668Y-105325333D01*
X159523277Y-105274052D01*
X159368250Y-105058120D01*
X159281808Y-104665394D01*
X159171780Y-104219091D01*
X158971437Y-103998039D01*
X158665973Y-103903394D01*
X158184137Y-103824516D01*
X157946754Y-103888225D01*
G36*
X162050969Y-105526703D02*
X161807141Y-105655572D01*
X161364847Y-106001297D01*
X161064033Y-106379940D01*
X160958795Y-106709175D01*
X161018647Y-106855530D01*
X161460460Y-107089751D01*
X161957743Y-107082845D01*
X162337987Y-106858925D01*
X162767416Y-106556414D01*
X163191975Y-106563063D01*
X163413467Y-106713867D01*
X163574370Y-106926679D01*
X163548730Y-107112089D01*
X163297310Y-107313839D01*
X162780874Y-107575672D01*
X162543603Y-107683615D01*
X161654776Y-108167293D01*
X161077968Y-108692654D01*
X160786742Y-109289416D01*
X160738000Y-109713158D01*
X160885811Y-110462352D01*
X161322255Y-111037323D01*
X161855359Y-111354554D01*
X162747782Y-111572110D01*
X163593394Y-111476870D01*
X164071527Y-111260428D01*
X164510394Y-110915213D01*
X164841239Y-110517229D01*
X164971334Y-110179030D01*
X164829992Y-110075350D01*
X164486752Y-109931004D01*
X164456802Y-109920430D01*
X164050245Y-109828125D01*
X163761070Y-109937488D01*
X163610135Y-110073198D01*
X163160111Y-110345262D01*
X162673106Y-110378760D01*
X162276211Y-110167162D01*
X162254947Y-110142835D01*
X162148185Y-109899407D01*
X162277803Y-109664591D01*
X162675735Y-109406906D01*
X163278000Y-109134247D01*
X164090895Y-108718543D01*
X164609956Y-108250071D01*
X164879879Y-107685771D01*
X164906454Y-107565413D01*
X164896679Y-106829848D01*
X164617515Y-106201490D01*
X164131162Y-105718668D01*
X163499821Y-105419711D01*
X162785690Y-105342946D01*
X162050969Y-105526703D01*
X162050969Y-105526703D01*
G37*
X162050969Y-105526703D02*
X161807141Y-105655572D01*
X161364847Y-106001297D01*
X161064033Y-106379940D01*
X160958795Y-106709175D01*
X161018647Y-106855530D01*
X161460460Y-107089751D01*
X161957743Y-107082845D01*
X162337987Y-106858925D01*
X162767416Y-106556414D01*
X163191975Y-106563063D01*
X163413467Y-106713867D01*
X163574370Y-106926679D01*
X163548730Y-107112089D01*
X163297310Y-107313839D01*
X162780874Y-107575672D01*
X162543603Y-107683615D01*
X161654776Y-108167293D01*
X161077968Y-108692654D01*
X160786742Y-109289416D01*
X160738000Y-109713158D01*
X160885811Y-110462352D01*
X161322255Y-111037323D01*
X161855359Y-111354554D01*
X162747782Y-111572110D01*
X163593394Y-111476870D01*
X164071527Y-111260428D01*
X164510394Y-110915213D01*
X164841239Y-110517229D01*
X164971334Y-110179030D01*
X164829992Y-110075350D01*
X164486752Y-109931004D01*
X164456802Y-109920430D01*
X164050245Y-109828125D01*
X163761070Y-109937488D01*
X163610135Y-110073198D01*
X163160111Y-110345262D01*
X162673106Y-110378760D01*
X162276211Y-110167162D01*
X162254947Y-110142835D01*
X162148185Y-109899407D01*
X162277803Y-109664591D01*
X162675735Y-109406906D01*
X163278000Y-109134247D01*
X164090895Y-108718543D01*
X164609956Y-108250071D01*
X164879879Y-107685771D01*
X164906454Y-107565413D01*
X164896679Y-106829848D01*
X164617515Y-106201490D01*
X164131162Y-105718668D01*
X163499821Y-105419711D01*
X162785690Y-105342946D01*
X162050969Y-105526703D01*
G36*
X171493420Y-103888225D02*
X171413978Y-104165303D01*
X171406000Y-104563333D01*
X171393348Y-105031539D01*
X171307601Y-105253250D01*
X171077073Y-105320633D01*
X170813334Y-105325333D01*
X170416110Y-105351546D01*
X170253205Y-105499439D01*
X170220741Y-105872889D01*
X170220667Y-105918000D01*
X170246447Y-106313971D01*
X170392752Y-106477326D01*
X170763033Y-106510554D01*
X170818880Y-106510667D01*
X171417092Y-106510667D01*
X171321334Y-110320667D01*
X170761127Y-110374465D01*
X170381561Y-110442180D01*
X170245395Y-110617029D01*
X170253127Y-110967132D01*
X170307983Y-111293693D01*
X170453114Y-111460307D01*
X170783868Y-111532446D01*
X171113268Y-111557758D01*
X171652185Y-111560474D01*
X172019221Y-111444698D01*
X172375249Y-111154943D01*
X172425601Y-111105117D01*
X172637563Y-110883626D01*
X172779857Y-110675221D01*
X172866366Y-110409739D01*
X172910972Y-110017013D01*
X172927556Y-109426880D01*
X172930000Y-108569176D01*
X172930000Y-106510667D01*
X173353334Y-106510667D01*
X173639617Y-106466386D01*
X173756816Y-106267124D01*
X173776667Y-105918000D01*
X173744936Y-105517104D01*
X173602578Y-105353003D01*
X173355335Y-105325333D01*
X173069944Y-105274052D01*
X172914917Y-105058120D01*
X172828474Y-104665394D01*
X172718447Y-104219091D01*
X172518103Y-103998039D01*
X172212640Y-103903394D01*
X171730804Y-103824516D01*
X171493420Y-103888225D01*
X171493420Y-103888225D01*
G37*
X171493420Y-103888225D02*
X171413978Y-104165303D01*
X171406000Y-104563333D01*
X171393348Y-105031539D01*
X171307601Y-105253250D01*
X171077073Y-105320633D01*
X170813334Y-105325333D01*
X170416110Y-105351546D01*
X170253205Y-105499439D01*
X170220741Y-105872889D01*
X170220667Y-105918000D01*
X170246447Y-106313971D01*
X170392752Y-106477326D01*
X170763033Y-106510554D01*
X170818880Y-106510667D01*
X171417092Y-106510667D01*
X171321334Y-110320667D01*
X170761127Y-110374465D01*
X170381561Y-110442180D01*
X170245395Y-110617029D01*
X170253127Y-110967132D01*
X170307983Y-111293693D01*
X170453114Y-111460307D01*
X170783868Y-111532446D01*
X171113268Y-111557758D01*
X171652185Y-111560474D01*
X172019221Y-111444698D01*
X172375249Y-111154943D01*
X172425601Y-111105117D01*
X172637563Y-110883626D01*
X172779857Y-110675221D01*
X172866366Y-110409739D01*
X172910972Y-110017013D01*
X172927556Y-109426880D01*
X172930000Y-108569176D01*
X172930000Y-106510667D01*
X173353334Y-106510667D01*
X173639617Y-106466386D01*
X173756816Y-106267124D01*
X173776667Y-105918000D01*
X173744936Y-105517104D01*
X173602578Y-105353003D01*
X173355335Y-105325333D01*
X173069944Y-105274052D01*
X172914917Y-105058120D01*
X172828474Y-104665394D01*
X172718447Y-104219091D01*
X172518103Y-103998039D01*
X172212640Y-103903394D01*
X171730804Y-103824516D01*
X171493420Y-103888225D01*
G36*
X189556457Y-105381107D02*
X188781989Y-105598437D01*
X188207063Y-106077537D01*
X187825229Y-106826720D01*
X187630038Y-107854299D01*
X187629066Y-107865333D01*
X187577334Y-108458000D01*
X189079541Y-108507225D01*
X190581747Y-108556451D01*
X190469114Y-109260824D01*
X190356160Y-109757185D01*
X190213701Y-110125126D01*
X190173839Y-110185265D01*
X189823782Y-110401549D01*
X189455607Y-110325973D01*
X189169264Y-109984099D01*
X189143383Y-109921748D01*
X188993321Y-109605051D01*
X188794671Y-109517922D01*
X188415451Y-109605566D01*
X188396092Y-109611493D01*
X187998178Y-109764992D01*
X187858308Y-109959495D01*
X187946134Y-110290482D01*
X188088200Y-110580209D01*
X188544412Y-111121516D01*
X189195197Y-111468202D01*
X189934597Y-111581778D01*
X190540667Y-111471079D01*
X191080771Y-111107589D01*
X191530327Y-110490032D01*
X191855271Y-109698264D01*
X192021540Y-108812140D01*
X192010473Y-108025443D01*
X191855387Y-107311466D01*
X190513979Y-107311466D01*
X190478673Y-107563587D01*
X190149567Y-107678400D01*
X189778667Y-107696000D01*
X189324199Y-107664552D01*
X189051610Y-107584986D01*
X189016667Y-107537690D01*
X189072357Y-107272920D01*
X189181809Y-106945023D01*
X189446558Y-106593746D01*
X189807969Y-106533038D01*
X190181465Y-106767378D01*
X190277065Y-106887011D01*
X190513979Y-107311466D01*
X191855387Y-107311466D01*
X191775996Y-106945974D01*
X191365660Y-106138794D01*
X190788318Y-105613444D01*
X190052825Y-105379466D01*
X189556457Y-105381107D01*
X189556457Y-105381107D01*
G37*
X189556457Y-105381107D02*
X188781989Y-105598437D01*
X188207063Y-106077537D01*
X187825229Y-106826720D01*
X187630038Y-107854299D01*
X187629066Y-107865333D01*
X187577334Y-108458000D01*
X189079541Y-108507225D01*
X190581747Y-108556451D01*
X190469114Y-109260824D01*
X190356160Y-109757185D01*
X190213701Y-110125126D01*
X190173839Y-110185265D01*
X189823782Y-110401549D01*
X189455607Y-110325973D01*
X189169264Y-109984099D01*
X189143383Y-109921748D01*
X188993321Y-109605051D01*
X188794671Y-109517922D01*
X188415451Y-109605566D01*
X188396092Y-109611493D01*
X187998178Y-109764992D01*
X187858308Y-109959495D01*
X187946134Y-110290482D01*
X188088200Y-110580209D01*
X188544412Y-111121516D01*
X189195197Y-111468202D01*
X189934597Y-111581778D01*
X190540667Y-111471079D01*
X191080771Y-111107589D01*
X191530327Y-110490032D01*
X191855271Y-109698264D01*
X192021540Y-108812140D01*
X192010473Y-108025443D01*
X191855387Y-107311466D01*
X190513979Y-107311466D01*
X190478673Y-107563587D01*
X190149567Y-107678400D01*
X189778667Y-107696000D01*
X189324199Y-107664552D01*
X189051610Y-107584986D01*
X189016667Y-107537690D01*
X189072357Y-107272920D01*
X189181809Y-106945023D01*
X189446558Y-106593746D01*
X189807969Y-106533038D01*
X190181465Y-106767378D01*
X190277065Y-106887011D01*
X190513979Y-107311466D01*
X191855387Y-107311466D01*
X191775996Y-106945974D01*
X191365660Y-106138794D01*
X190788318Y-105613444D01*
X190052825Y-105379466D01*
X189556457Y-105381107D01*
G36*
X144551035Y-105585662D02*
X144193056Y-106108733D01*
X144161145Y-106193694D01*
X144092848Y-106556923D01*
X144035716Y-107179566D01*
X143994771Y-107982422D01*
X143975040Y-108886293D01*
X143974000Y-109143551D01*
X143974000Y-111556565D01*
X144731604Y-111616820D01*
X145489208Y-111677074D01*
X145535937Y-109323716D01*
X145560641Y-108362318D01*
X145594933Y-107685469D01*
X145645906Y-107239063D01*
X145720652Y-106968992D01*
X145826265Y-106821148D01*
X145867977Y-106790665D01*
X146210997Y-106706605D01*
X146587643Y-106843433D01*
X146763416Y-106947138D01*
X146883929Y-107076396D01*
X146959611Y-107290577D01*
X147000890Y-107649048D01*
X147018196Y-108211179D01*
X147021955Y-109036339D01*
X147022000Y-109316230D01*
X147022000Y-111556565D01*
X147784000Y-111617169D01*
X148546000Y-111677774D01*
X148546000Y-105494667D01*
X147784000Y-105494667D01*
X147307130Y-105517217D01*
X147081729Y-105609858D01*
X147022172Y-105810069D01*
X147022000Y-105828230D01*
X147001537Y-106020264D01*
X146890072Y-106041720D01*
X146612489Y-105882279D01*
X146405704Y-105743563D01*
X145695793Y-105395370D01*
X145064759Y-105345305D01*
X144551035Y-105585662D01*
X144551035Y-105585662D01*
G37*
X144551035Y-105585662D02*
X144193056Y-106108733D01*
X144161145Y-106193694D01*
X144092848Y-106556923D01*
X144035716Y-107179566D01*
X143994771Y-107982422D01*
X143975040Y-108886293D01*
X143974000Y-109143551D01*
X143974000Y-111556565D01*
X144731604Y-111616820D01*
X145489208Y-111677074D01*
X145535937Y-109323716D01*
X145560641Y-108362318D01*
X145594933Y-107685469D01*
X145645906Y-107239063D01*
X145720652Y-106968992D01*
X145826265Y-106821148D01*
X145867977Y-106790665D01*
X146210997Y-106706605D01*
X146587643Y-106843433D01*
X146763416Y-106947138D01*
X146883929Y-107076396D01*
X146959611Y-107290577D01*
X147000890Y-107649048D01*
X147018196Y-108211179D01*
X147021955Y-109036339D01*
X147022000Y-109316230D01*
X147022000Y-111556565D01*
X147784000Y-111617169D01*
X148546000Y-111677774D01*
X148546000Y-105494667D01*
X147784000Y-105494667D01*
X147307130Y-105517217D01*
X147081729Y-105609858D01*
X147022172Y-105810069D01*
X147022000Y-105828230D01*
X147001537Y-106020264D01*
X146890072Y-106041720D01*
X146612489Y-105882279D01*
X146405704Y-105743563D01*
X145695793Y-105395370D01*
X145064759Y-105345305D01*
X144551035Y-105585662D01*
G36*
X149900667Y-108542667D02*
X149901632Y-109625361D01*
X149908367Y-110415511D01*
X149926634Y-110959237D01*
X149962192Y-111302661D01*
X150020804Y-111491906D01*
X150108229Y-111573092D01*
X150230228Y-111592342D01*
X150281667Y-111592979D01*
X150772070Y-111641048D01*
X151043667Y-111697395D01*
X151424667Y-111799499D01*
X151424667Y-108749866D01*
X151423564Y-107625481D01*
X151410859Y-106795196D01*
X151372453Y-106214454D01*
X151294251Y-105838699D01*
X151162156Y-105623371D01*
X150962071Y-105523915D01*
X150679901Y-105495774D01*
X150394818Y-105494667D01*
X149900667Y-105494667D01*
X149900667Y-108542667D01*
X149900667Y-108542667D01*
G37*
X149900667Y-108542667D02*
X149901632Y-109625361D01*
X149908367Y-110415511D01*
X149926634Y-110959237D01*
X149962192Y-111302661D01*
X150020804Y-111491906D01*
X150108229Y-111573092D01*
X150230228Y-111592342D01*
X150281667Y-111592979D01*
X150772070Y-111641048D01*
X151043667Y-111697395D01*
X151424667Y-111799499D01*
X151424667Y-108749866D01*
X151423564Y-107625481D01*
X151410859Y-106795196D01*
X151372453Y-106214454D01*
X151294251Y-105838699D01*
X151162156Y-105623371D01*
X150962071Y-105523915D01*
X150679901Y-105495774D01*
X150394818Y-105494667D01*
X149900667Y-105494667D01*
X149900667Y-108542667D01*
G36*
X180465388Y-105526765D02*
X180305602Y-105701678D01*
X180202271Y-105913337D01*
X180128661Y-106241008D01*
X180080415Y-106736183D01*
X180053175Y-107450351D01*
X180042585Y-108435004D01*
X180042000Y-108816558D01*
X180042000Y-111555094D01*
X180719334Y-111619689D01*
X181396667Y-111684283D01*
X181396667Y-109449991D01*
X181402894Y-108413908D01*
X181427096Y-107669749D01*
X181477555Y-107170907D01*
X181562554Y-106870780D01*
X181690374Y-106722760D01*
X181869297Y-106680244D01*
X181888917Y-106680000D01*
X182153971Y-106718300D01*
X182342664Y-106864712D01*
X182467398Y-107166500D01*
X182540576Y-107670932D01*
X182574600Y-108425272D01*
X182582000Y-109321482D01*
X182582000Y-111556565D01*
X183344000Y-111617169D01*
X184106000Y-111677774D01*
X184106000Y-109178887D01*
X184109053Y-108208643D01*
X184122293Y-107526843D01*
X184151842Y-107083288D01*
X184203824Y-106827782D01*
X184284362Y-106710124D01*
X184399578Y-106680117D01*
X184410801Y-106680000D01*
X184682441Y-106716588D01*
X184875782Y-106858021D01*
X185003613Y-107151800D01*
X185078725Y-107645428D01*
X185113906Y-108386407D01*
X185122000Y-109321482D01*
X185122000Y-111556565D01*
X185884000Y-111617169D01*
X186646000Y-111677774D01*
X186646000Y-105494667D01*
X185884000Y-105494667D01*
X185389514Y-105525043D01*
X185160804Y-105632285D01*
X185122000Y-105762477D01*
X185080143Y-105909186D01*
X184905830Y-105879268D01*
X184551680Y-105677811D01*
X183888583Y-105392111D01*
X183325482Y-105394665D01*
X182902492Y-105677597D01*
X182710928Y-106039217D01*
X182554404Y-106096044D01*
X182207005Y-105883316D01*
X182090150Y-105788241D01*
X181493092Y-105425171D01*
X180930734Y-105337005D01*
X180465388Y-105526765D01*
X180465388Y-105526765D01*
G37*
X180465388Y-105526765D02*
X180305602Y-105701678D01*
X180202271Y-105913337D01*
X180128661Y-106241008D01*
X180080415Y-106736183D01*
X180053175Y-107450351D01*
X180042585Y-108435004D01*
X180042000Y-108816558D01*
X180042000Y-111555094D01*
X180719334Y-111619689D01*
X181396667Y-111684283D01*
X181396667Y-109449991D01*
X181402894Y-108413908D01*
X181427096Y-107669749D01*
X181477555Y-107170907D01*
X181562554Y-106870780D01*
X181690374Y-106722760D01*
X181869297Y-106680244D01*
X181888917Y-106680000D01*
X182153971Y-106718300D01*
X182342664Y-106864712D01*
X182467398Y-107166500D01*
X182540576Y-107670932D01*
X182574600Y-108425272D01*
X182582000Y-109321482D01*
X182582000Y-111556565D01*
X183344000Y-111617169D01*
X184106000Y-111677774D01*
X184106000Y-109178887D01*
X184109053Y-108208643D01*
X184122293Y-107526843D01*
X184151842Y-107083288D01*
X184203824Y-106827782D01*
X184284362Y-106710124D01*
X184399578Y-106680117D01*
X184410801Y-106680000D01*
X184682441Y-106716588D01*
X184875782Y-106858021D01*
X185003613Y-107151800D01*
X185078725Y-107645428D01*
X185113906Y-108386407D01*
X185122000Y-109321482D01*
X185122000Y-111556565D01*
X185884000Y-111617169D01*
X186646000Y-111677774D01*
X186646000Y-105494667D01*
X185884000Y-105494667D01*
X185389514Y-105525043D01*
X185160804Y-105632285D01*
X185122000Y-105762477D01*
X185080143Y-105909186D01*
X184905830Y-105879268D01*
X184551680Y-105677811D01*
X183888583Y-105392111D01*
X183325482Y-105394665D01*
X182902492Y-105677597D01*
X182710928Y-106039217D01*
X182554404Y-106096044D01*
X182207005Y-105883316D01*
X182090150Y-105788241D01*
X181493092Y-105425171D01*
X180930734Y-105337005D01*
X180465388Y-105526765D01*
G36*
X175021150Y-105573896D02*
X174690460Y-105988803D01*
X174458310Y-106647630D01*
X174323828Y-107470549D01*
X174286140Y-108377734D01*
X174344373Y-109289357D01*
X174497656Y-110125590D01*
X174745115Y-110806607D01*
X175083212Y-111250493D01*
X175698435Y-111545469D01*
X176345923Y-111532975D01*
X176786989Y-111327065D01*
X176996194Y-111193961D01*
X177108593Y-111209038D01*
X177154263Y-111431500D01*
X177163281Y-111920554D01*
X177163334Y-112067898D01*
X177171767Y-112628358D01*
X177225319Y-112939083D01*
X177366372Y-113088997D01*
X177637307Y-113167021D01*
X177692500Y-113178167D01*
X178007991Y-113244040D01*
X178248809Y-113273690D01*
X178424999Y-113228867D01*
X178546604Y-113071323D01*
X178623666Y-112762808D01*
X178666230Y-112265073D01*
X178684337Y-111539867D01*
X178688031Y-110548943D01*
X178687334Y-109389333D01*
X178687334Y-109257793D01*
X177131105Y-109257793D01*
X177079339Y-109869990D01*
X176979847Y-110168388D01*
X176622472Y-110392269D01*
X176251540Y-110323501D01*
X175978889Y-109984028D01*
X175973809Y-109970976D01*
X175888279Y-109577830D01*
X175828602Y-108982194D01*
X175808667Y-108381069D01*
X175835385Y-107669638D01*
X175929462Y-107194642D01*
X176111788Y-106857051D01*
X176136725Y-106825759D01*
X176414365Y-106560560D01*
X176658992Y-106554511D01*
X176771725Y-106613267D01*
X176922790Y-106760300D01*
X177022147Y-107025709D01*
X177083765Y-107478298D01*
X177121614Y-108186870D01*
X177127581Y-108365988D01*
X177131105Y-109257793D01*
X178687334Y-109257793D01*
X178687334Y-105494667D01*
X177925334Y-105494667D01*
X177430106Y-105525325D01*
X177201354Y-105633132D01*
X177163334Y-105760957D01*
X177119908Y-105907784D01*
X176944124Y-105844091D01*
X176717164Y-105676290D01*
X176103070Y-105375692D01*
X175463108Y-105374257D01*
X175021150Y-105573896D01*
X175021150Y-105573896D01*
G37*
X175021150Y-105573896D02*
X174690460Y-105988803D01*
X174458310Y-106647630D01*
X174323828Y-107470549D01*
X174286140Y-108377734D01*
X174344373Y-109289357D01*
X174497656Y-110125590D01*
X174745115Y-110806607D01*
X175083212Y-111250493D01*
X175698435Y-111545469D01*
X176345923Y-111532975D01*
X176786989Y-111327065D01*
X176996194Y-111193961D01*
X177108593Y-111209038D01*
X177154263Y-111431500D01*
X177163281Y-111920554D01*
X177163334Y-112067898D01*
X177171767Y-112628358D01*
X177225319Y-112939083D01*
X177366372Y-113088997D01*
X177637307Y-113167021D01*
X177692500Y-113178167D01*
X178007991Y-113244040D01*
X178248809Y-113273690D01*
X178424999Y-113228867D01*
X178546604Y-113071323D01*
X178623666Y-112762808D01*
X178666230Y-112265073D01*
X178684337Y-111539867D01*
X178688031Y-110548943D01*
X178687334Y-109389333D01*
X178687334Y-109257793D01*
X177131105Y-109257793D01*
X177079339Y-109869990D01*
X176979847Y-110168388D01*
X176622472Y-110392269D01*
X176251540Y-110323501D01*
X175978889Y-109984028D01*
X175973809Y-109970976D01*
X175888279Y-109577830D01*
X175828602Y-108982194D01*
X175808667Y-108381069D01*
X175835385Y-107669638D01*
X175929462Y-107194642D01*
X176111788Y-106857051D01*
X176136725Y-106825759D01*
X176414365Y-106560560D01*
X176658992Y-106554511D01*
X176771725Y-106613267D01*
X176922790Y-106760300D01*
X177022147Y-107025709D01*
X177083765Y-107478298D01*
X177121614Y-108186870D01*
X177127581Y-108365988D01*
X177131105Y-109257793D01*
X178687334Y-109257793D01*
X178687334Y-105494667D01*
X177925334Y-105494667D01*
X177430106Y-105525325D01*
X177201354Y-105633132D01*
X177163334Y-105760957D01*
X177119908Y-105907784D01*
X176944124Y-105844091D01*
X176717164Y-105676290D01*
X176103070Y-105375692D01*
X175463108Y-105374257D01*
X175021150Y-105573896D01*
G36*
X137727388Y-105226255D02*
X137708667Y-105476309D01*
X137784319Y-105867158D01*
X138061042Y-106053242D01*
X138111736Y-106067116D01*
X138343767Y-106158086D01*
X138460701Y-106341472D01*
X138496694Y-106709601D01*
X138492736Y-107097027D01*
X138571610Y-107903604D01*
X138870599Y-108471923D01*
X139416594Y-108830216D01*
X140236483Y-109006713D01*
X140318761Y-109014162D01*
X140992282Y-109125911D01*
X141423382Y-109316897D01*
X141574420Y-109565320D01*
X141527305Y-109714024D01*
X141421854Y-109810062D01*
X141198516Y-109892965D01*
X140798598Y-109975638D01*
X140163406Y-110070986D01*
X139516795Y-110156091D01*
X138770498Y-110339735D01*
X138303172Y-110685192D01*
X138079435Y-111228278D01*
X138047334Y-111643403D01*
X138170079Y-112366951D01*
X138552495Y-112887592D01*
X139215847Y-113231789D01*
X139358565Y-113274792D01*
X140165566Y-113406598D01*
X141098654Y-113424097D01*
X141969728Y-113327986D01*
X142237453Y-113264115D01*
X142775358Y-112983926D01*
X143117872Y-112561652D01*
X143246411Y-112079439D01*
X143173079Y-111755139D01*
X141926223Y-111755139D01*
X141735195Y-111995603D01*
X141697969Y-112023918D01*
X141247496Y-112202022D01*
X140644271Y-112260179D01*
X140050311Y-112197231D01*
X139660852Y-112038487D01*
X139428385Y-111747188D01*
X139509357Y-111477331D01*
X139878778Y-111262961D01*
X140303588Y-111162943D01*
X141004374Y-111094566D01*
X141462789Y-111154077D01*
X141755972Y-111357080D01*
X141839184Y-111473584D01*
X141926223Y-111755139D01*
X143173079Y-111755139D01*
X143142393Y-111619436D01*
X142787235Y-111263788D01*
X142700012Y-111219372D01*
X142413812Y-111069801D01*
X142417278Y-110947400D01*
X142620017Y-110792195D01*
X142912631Y-110408506D01*
X142940387Y-109921223D01*
X142711396Y-109427210D01*
X142486156Y-109193657D01*
X142014311Y-108802889D01*
X142407206Y-108461111D01*
X142767047Y-107951877D01*
X142889773Y-107435125D01*
X141407221Y-107435125D01*
X141256728Y-107873411D01*
X140941401Y-108136219D01*
X140520235Y-108160066D01*
X140257134Y-108043483D01*
X140086004Y-107770963D01*
X140011956Y-107308412D01*
X140011600Y-107272667D01*
X140120707Y-106758080D01*
X140392183Y-106440188D01*
X140742265Y-106343560D01*
X141087188Y-106492764D01*
X141333882Y-106884844D01*
X141407221Y-107435125D01*
X142889773Y-107435125D01*
X142919026Y-107311953D01*
X142841951Y-106681146D01*
X142716424Y-106421195D01*
X142130970Y-105817823D01*
X141364120Y-105445370D01*
X140504684Y-105330581D01*
X139648990Y-105497332D01*
X139260776Y-105575940D01*
X138870827Y-105457305D01*
X138644313Y-105327998D01*
X138146325Y-105059981D01*
X137856014Y-105023636D01*
X137727388Y-105226255D01*
X137727388Y-105226255D01*
G37*
X137727388Y-105226255D02*
X137708667Y-105476309D01*
X137784319Y-105867158D01*
X138061042Y-106053242D01*
X138111736Y-106067116D01*
X138343767Y-106158086D01*
X138460701Y-106341472D01*
X138496694Y-106709601D01*
X138492736Y-107097027D01*
X138571610Y-107903604D01*
X138870599Y-108471923D01*
X139416594Y-108830216D01*
X140236483Y-109006713D01*
X140318761Y-109014162D01*
X140992282Y-109125911D01*
X141423382Y-109316897D01*
X141574420Y-109565320D01*
X141527305Y-109714024D01*
X141421854Y-109810062D01*
X141198516Y-109892965D01*
X140798598Y-109975638D01*
X140163406Y-110070986D01*
X139516795Y-110156091D01*
X138770498Y-110339735D01*
X138303172Y-110685192D01*
X138079435Y-111228278D01*
X138047334Y-111643403D01*
X138170079Y-112366951D01*
X138552495Y-112887592D01*
X139215847Y-113231789D01*
X139358565Y-113274792D01*
X140165566Y-113406598D01*
X141098654Y-113424097D01*
X141969728Y-113327986D01*
X142237453Y-113264115D01*
X142775358Y-112983926D01*
X143117872Y-112561652D01*
X143246411Y-112079439D01*
X143173079Y-111755139D01*
X141926223Y-111755139D01*
X141735195Y-111995603D01*
X141697969Y-112023918D01*
X141247496Y-112202022D01*
X140644271Y-112260179D01*
X140050311Y-112197231D01*
X139660852Y-112038487D01*
X139428385Y-111747188D01*
X139509357Y-111477331D01*
X139878778Y-111262961D01*
X140303588Y-111162943D01*
X141004374Y-111094566D01*
X141462789Y-111154077D01*
X141755972Y-111357080D01*
X141839184Y-111473584D01*
X141926223Y-111755139D01*
X143173079Y-111755139D01*
X143142393Y-111619436D01*
X142787235Y-111263788D01*
X142700012Y-111219372D01*
X142413812Y-111069801D01*
X142417278Y-110947400D01*
X142620017Y-110792195D01*
X142912631Y-110408506D01*
X142940387Y-109921223D01*
X142711396Y-109427210D01*
X142486156Y-109193657D01*
X142014311Y-108802889D01*
X142407206Y-108461111D01*
X142767047Y-107951877D01*
X142889773Y-107435125D01*
X141407221Y-107435125D01*
X141256728Y-107873411D01*
X140941401Y-108136219D01*
X140520235Y-108160066D01*
X140257134Y-108043483D01*
X140086004Y-107770963D01*
X140011956Y-107308412D01*
X140011600Y-107272667D01*
X140120707Y-106758080D01*
X140392183Y-106440188D01*
X140742265Y-106343560D01*
X141087188Y-106492764D01*
X141333882Y-106884844D01*
X141407221Y-107435125D01*
X142889773Y-107435125D01*
X142919026Y-107311953D01*
X142841951Y-106681146D01*
X142716424Y-106421195D01*
X142130970Y-105817823D01*
X141364120Y-105445370D01*
X140504684Y-105330581D01*
X139648990Y-105497332D01*
X139260776Y-105575940D01*
X138870827Y-105457305D01*
X138644313Y-105327998D01*
X138146325Y-105059981D01*
X137856014Y-105023636D01*
X137727388Y-105226255D01*
G36*
X166169917Y-108491547D02*
X166440764Y-109519408D01*
X166701364Y-110467566D01*
X166933850Y-111274066D01*
X167120354Y-111876954D01*
X167243008Y-112214275D01*
X167244448Y-112217378D01*
X167707687Y-112852944D01*
X168401402Y-113253823D01*
X169122444Y-113411765D01*
X169882000Y-113497378D01*
X169882000Y-112798022D01*
X169864881Y-112355059D01*
X169762372Y-112154631D01*
X169497753Y-112100718D01*
X169323200Y-112098667D01*
X168887743Y-112058302D01*
X168587112Y-111914407D01*
X168419564Y-111632778D01*
X168383354Y-111179209D01*
X168476736Y-110519499D01*
X168697967Y-109619441D01*
X169045301Y-108444834D01*
X169123931Y-108192503D01*
X169396702Y-107324021D01*
X169636965Y-106562489D01*
X169824996Y-105970161D01*
X169941072Y-105609290D01*
X169965283Y-105537000D01*
X169900034Y-105399992D01*
X169555463Y-105334500D01*
X169225118Y-105325333D01*
X168409531Y-105325333D01*
X168018892Y-107105348D01*
X167852343Y-107816345D01*
X167701600Y-108373423D01*
X167585041Y-108713707D01*
X167527460Y-108786485D01*
X167451407Y-108588260D01*
X167328169Y-108134583D01*
X167177534Y-107501981D01*
X167078068Y-107048803D01*
X166729470Y-105410000D01*
X166039178Y-105358880D01*
X165348887Y-105307761D01*
X166169917Y-108491547D01*
X166169917Y-108491547D01*
G37*
X166169917Y-108491547D02*
X166440764Y-109519408D01*
X166701364Y-110467566D01*
X166933850Y-111274066D01*
X167120354Y-111876954D01*
X167243008Y-112214275D01*
X167244448Y-112217378D01*
X167707687Y-112852944D01*
X168401402Y-113253823D01*
X169122444Y-113411765D01*
X169882000Y-113497378D01*
X169882000Y-112798022D01*
X169864881Y-112355059D01*
X169762372Y-112154631D01*
X169497753Y-112100718D01*
X169323200Y-112098667D01*
X168887743Y-112058302D01*
X168587112Y-111914407D01*
X168419564Y-111632778D01*
X168383354Y-111179209D01*
X168476736Y-110519499D01*
X168697967Y-109619441D01*
X169045301Y-108444834D01*
X169123931Y-108192503D01*
X169396702Y-107324021D01*
X169636965Y-106562489D01*
X169824996Y-105970161D01*
X169941072Y-105609290D01*
X169965283Y-105537000D01*
X169900034Y-105399992D01*
X169555463Y-105334500D01*
X169225118Y-105325333D01*
X168409531Y-105325333D01*
X168018892Y-107105348D01*
X167852343Y-107816345D01*
X167701600Y-108373423D01*
X167585041Y-108713707D01*
X167527460Y-108786485D01*
X167451407Y-108588260D01*
X167328169Y-108134583D01*
X167177534Y-107501981D01*
X167078068Y-107048803D01*
X166729470Y-105410000D01*
X166039178Y-105358880D01*
X165348887Y-105307761D01*
X166169917Y-108491547D01*
G36*
X124140045Y-121129017D02*
X124017576Y-121363362D01*
X123992758Y-121847495D01*
X123992667Y-121920000D01*
X123992667Y-122766667D01*
X125516667Y-122766667D01*
X125516667Y-122025833D01*
X125496697Y-121559406D01*
X125392002Y-121323708D01*
X125135406Y-121211259D01*
X124987500Y-121179167D01*
X124437557Y-121086828D01*
X124140045Y-121129017D01*
X124140045Y-121129017D01*
G37*
X124140045Y-121129017D02*
X124017576Y-121363362D01*
X123992758Y-121847495D01*
X123992667Y-121920000D01*
X123992667Y-122766667D01*
X125516667Y-122766667D01*
X125516667Y-122025833D01*
X125496697Y-121559406D01*
X125392002Y-121323708D01*
X125135406Y-121211259D01*
X124987500Y-121179167D01*
X124437557Y-121086828D01*
X124140045Y-121129017D01*
G36*
X120127552Y-123551482D02*
X119543157Y-123770512D01*
X119414530Y-123867333D01*
X118892210Y-124541231D01*
X118561340Y-125404834D01*
X118422317Y-126371549D01*
X118475535Y-127354784D01*
X118721390Y-128267944D01*
X119160278Y-129024439D01*
X119389881Y-129263692D01*
X119955433Y-129564867D01*
X120661674Y-129663580D01*
X121373125Y-129553394D01*
X121759190Y-129376239D01*
X122291239Y-128856314D01*
X122664842Y-128115550D01*
X122875875Y-127234571D01*
X122920215Y-126294000D01*
X122903620Y-126173340D01*
X121415566Y-126173340D01*
X121410104Y-126867211D01*
X121348923Y-127527471D01*
X121236020Y-128040977D01*
X121133495Y-128246510D01*
X120759130Y-128500319D01*
X120382878Y-128451699D01*
X120104138Y-128115646D01*
X120093809Y-128089643D01*
X119989167Y-127598314D01*
X119938914Y-126909076D01*
X119942849Y-126158258D01*
X120000771Y-125482191D01*
X120098273Y-125051949D01*
X120355181Y-124720190D01*
X120707007Y-124666143D01*
X121064715Y-124883168D01*
X121243342Y-125137333D01*
X121361311Y-125559000D01*
X121415566Y-126173340D01*
X122903620Y-126173340D01*
X122793740Y-125374460D01*
X122492327Y-124556575D01*
X122036989Y-123944160D01*
X121507030Y-123642190D01*
X120826364Y-123510003D01*
X120127552Y-123551482D01*
X120127552Y-123551482D01*
G37*
X120127552Y-123551482D02*
X119543157Y-123770512D01*
X119414530Y-123867333D01*
X118892210Y-124541231D01*
X118561340Y-125404834D01*
X118422317Y-126371549D01*
X118475535Y-127354784D01*
X118721390Y-128267944D01*
X119160278Y-129024439D01*
X119389881Y-129263692D01*
X119955433Y-129564867D01*
X120661674Y-129663580D01*
X121373125Y-129553394D01*
X121759190Y-129376239D01*
X122291239Y-128856314D01*
X122664842Y-128115550D01*
X122875875Y-127234571D01*
X122920215Y-126294000D01*
X122903620Y-126173340D01*
X121415566Y-126173340D01*
X121410104Y-126867211D01*
X121348923Y-127527471D01*
X121236020Y-128040977D01*
X121133495Y-128246510D01*
X120759130Y-128500319D01*
X120382878Y-128451699D01*
X120104138Y-128115646D01*
X120093809Y-128089643D01*
X119989167Y-127598314D01*
X119938914Y-126909076D01*
X119942849Y-126158258D01*
X120000771Y-125482191D01*
X120098273Y-125051949D01*
X120355181Y-124720190D01*
X120707007Y-124666143D01*
X121064715Y-124883168D01*
X121243342Y-125137333D01*
X121361311Y-125559000D01*
X121415566Y-126173340D01*
X122903620Y-126173340D01*
X122793740Y-125374460D01*
X122492327Y-124556575D01*
X122036989Y-123944160D01*
X121507030Y-123642190D01*
X120826364Y-123510003D01*
X120127552Y-123551482D01*
G36*
X126871334Y-129540000D02*
X127452590Y-129540000D01*
X127896780Y-129479952D01*
X128115720Y-129267244D01*
X128144269Y-129192086D01*
X128232978Y-128975338D01*
X128354659Y-128978275D01*
X128598901Y-129215730D01*
X128655594Y-129276753D01*
X129192706Y-129633442D01*
X129808411Y-129686531D01*
X130390623Y-129445054D01*
X130837593Y-129007934D01*
X131132060Y-128401889D01*
X131292535Y-127572489D01*
X131337343Y-126661333D01*
X131318050Y-126153862D01*
X129873966Y-126153862D01*
X129866249Y-126845099D01*
X129805364Y-127508764D01*
X129695848Y-128032318D01*
X129585758Y-128263865D01*
X129219846Y-128497699D01*
X128830169Y-128454253D01*
X128570625Y-128196465D01*
X128465347Y-127823607D01*
X128405265Y-127250439D01*
X128388351Y-126574462D01*
X128412575Y-125893178D01*
X128475908Y-125304088D01*
X128576320Y-124904693D01*
X128641199Y-124805418D01*
X129044138Y-124652483D01*
X129443432Y-124804404D01*
X129711749Y-125138833D01*
X129823978Y-125547594D01*
X129873966Y-126153862D01*
X131318050Y-126153862D01*
X131293916Y-125519088D01*
X131137767Y-124667575D01*
X130859037Y-124074861D01*
X130447869Y-123709011D01*
X130421639Y-123695055D01*
X129805088Y-123471966D01*
X129281420Y-123529511D01*
X128841503Y-123794957D01*
X128395334Y-124145914D01*
X128395334Y-121615435D01*
X127633334Y-121554830D01*
X126871334Y-121494226D01*
X126871334Y-129540000D01*
X126871334Y-129540000D01*
G37*
X126871334Y-129540000D02*
X127452590Y-129540000D01*
X127896780Y-129479952D01*
X128115720Y-129267244D01*
X128144269Y-129192086D01*
X128232978Y-128975338D01*
X128354659Y-128978275D01*
X128598901Y-129215730D01*
X128655594Y-129276753D01*
X129192706Y-129633442D01*
X129808411Y-129686531D01*
X130390623Y-129445054D01*
X130837593Y-129007934D01*
X131132060Y-128401889D01*
X131292535Y-127572489D01*
X131337343Y-126661333D01*
X131318050Y-126153862D01*
X129873966Y-126153862D01*
X129866249Y-126845099D01*
X129805364Y-127508764D01*
X129695848Y-128032318D01*
X129585758Y-128263865D01*
X129219846Y-128497699D01*
X128830169Y-128454253D01*
X128570625Y-128196465D01*
X128465347Y-127823607D01*
X128405265Y-127250439D01*
X128388351Y-126574462D01*
X128412575Y-125893178D01*
X128475908Y-125304088D01*
X128576320Y-124904693D01*
X128641199Y-124805418D01*
X129044138Y-124652483D01*
X129443432Y-124804404D01*
X129711749Y-125138833D01*
X129823978Y-125547594D01*
X129873966Y-126153862D01*
X131318050Y-126153862D01*
X131293916Y-125519088D01*
X131137767Y-124667575D01*
X130859037Y-124074861D01*
X130447869Y-123709011D01*
X130421639Y-123695055D01*
X129805088Y-123471966D01*
X129281420Y-123529511D01*
X128841503Y-123794957D01*
X128395334Y-124145914D01*
X128395334Y-121615435D01*
X127633334Y-121554830D01*
X126871334Y-121494226D01*
X126871334Y-129540000D01*
G36*
X135300316Y-125857000D02*
X135280120Y-126803852D01*
X135256325Y-127465086D01*
X135219447Y-127893697D01*
X135159999Y-128142682D01*
X135068493Y-128265037D01*
X134935445Y-128313759D01*
X134858370Y-128325940D01*
X134430292Y-128259888D01*
X134138703Y-128088029D01*
X134003346Y-127931169D01*
X133911410Y-127708517D01*
X133854754Y-127358164D01*
X133825236Y-126818201D01*
X133814714Y-126026719D01*
X133814000Y-125619089D01*
X133814000Y-123444000D01*
X132290000Y-123444000D01*
X132290000Y-129540000D01*
X133052000Y-129540000D01*
X133554245Y-129506759D01*
X133783017Y-129393731D01*
X133814000Y-129286000D01*
X133837857Y-129091955D01*
X133957607Y-129060537D01*
X134245523Y-129200234D01*
X134529574Y-129370034D01*
X135249438Y-129666684D01*
X135894696Y-129639320D01*
X136446364Y-129293697D01*
X136601693Y-129126404D01*
X136712536Y-128946983D01*
X136786396Y-128698905D01*
X136830770Y-128325643D01*
X136853160Y-127770670D01*
X136861065Y-126977458D01*
X136862000Y-126161030D01*
X136862000Y-123444000D01*
X135347299Y-123444000D01*
X135300316Y-125857000D01*
X135300316Y-125857000D01*
G37*
X135300316Y-125857000D02*
X135280120Y-126803852D01*
X135256325Y-127465086D01*
X135219447Y-127893697D01*
X135159999Y-128142682D01*
X135068493Y-128265037D01*
X134935445Y-128313759D01*
X134858370Y-128325940D01*
X134430292Y-128259888D01*
X134138703Y-128088029D01*
X134003346Y-127931169D01*
X133911410Y-127708517D01*
X133854754Y-127358164D01*
X133825236Y-126818201D01*
X133814714Y-126026719D01*
X133814000Y-125619089D01*
X133814000Y-123444000D01*
X132290000Y-123444000D01*
X132290000Y-129540000D01*
X133052000Y-129540000D01*
X133554245Y-129506759D01*
X133783017Y-129393731D01*
X133814000Y-129286000D01*
X133837857Y-129091955D01*
X133957607Y-129060537D01*
X134245523Y-129200234D01*
X134529574Y-129370034D01*
X135249438Y-129666684D01*
X135894696Y-129639320D01*
X136446364Y-129293697D01*
X136601693Y-129126404D01*
X136712536Y-128946983D01*
X136786396Y-128698905D01*
X136830770Y-128325643D01*
X136853160Y-127770670D01*
X136861065Y-126977458D01*
X136862000Y-126161030D01*
X136862000Y-123444000D01*
X135347299Y-123444000D01*
X135300316Y-125857000D01*
G36*
X138981420Y-122006892D02*
X138901978Y-122283970D01*
X138894000Y-122682000D01*
X138881348Y-123150206D01*
X138795601Y-123371916D01*
X138565073Y-123439300D01*
X138301334Y-123444000D01*
X137904110Y-123470213D01*
X137741205Y-123618105D01*
X137708741Y-123991556D01*
X137708667Y-124036667D01*
X137734447Y-124432638D01*
X137880752Y-124595993D01*
X138251033Y-124629221D01*
X138306880Y-124629333D01*
X138905092Y-124629333D01*
X138809334Y-128439333D01*
X138249127Y-128493132D01*
X137869561Y-128560846D01*
X137733395Y-128735696D01*
X137741127Y-129085798D01*
X137795983Y-129412359D01*
X137941114Y-129578974D01*
X138271868Y-129651113D01*
X138601268Y-129676425D01*
X139140185Y-129679140D01*
X139507221Y-129563364D01*
X139863249Y-129273610D01*
X139913601Y-129223784D01*
X140125563Y-129002293D01*
X140267857Y-128793888D01*
X140354366Y-128528405D01*
X140398972Y-128135680D01*
X140415556Y-127545547D01*
X140418000Y-126687842D01*
X140418000Y-124629333D01*
X140841334Y-124629333D01*
X141127617Y-124585053D01*
X141244816Y-124385790D01*
X141264667Y-124036667D01*
X141232936Y-123635771D01*
X141090578Y-123471670D01*
X140843335Y-123444000D01*
X140557944Y-123392718D01*
X140402917Y-123176787D01*
X140316474Y-122784061D01*
X140206447Y-122337758D01*
X140006103Y-122116706D01*
X139700640Y-122022061D01*
X139218804Y-121943182D01*
X138981420Y-122006892D01*
X138981420Y-122006892D01*
G37*
X138981420Y-122006892D02*
X138901978Y-122283970D01*
X138894000Y-122682000D01*
X138881348Y-123150206D01*
X138795601Y-123371916D01*
X138565073Y-123439300D01*
X138301334Y-123444000D01*
X137904110Y-123470213D01*
X137741205Y-123618105D01*
X137708741Y-123991556D01*
X137708667Y-124036667D01*
X137734447Y-124432638D01*
X137880752Y-124595993D01*
X138251033Y-124629221D01*
X138306880Y-124629333D01*
X138905092Y-124629333D01*
X138809334Y-128439333D01*
X138249127Y-128493132D01*
X137869561Y-128560846D01*
X137733395Y-128735696D01*
X137741127Y-129085798D01*
X137795983Y-129412359D01*
X137941114Y-129578974D01*
X138271868Y-129651113D01*
X138601268Y-129676425D01*
X139140185Y-129679140D01*
X139507221Y-129563364D01*
X139863249Y-129273610D01*
X139913601Y-129223784D01*
X140125563Y-129002293D01*
X140267857Y-128793888D01*
X140354366Y-128528405D01*
X140398972Y-128135680D01*
X140415556Y-127545547D01*
X140418000Y-126687842D01*
X140418000Y-124629333D01*
X140841334Y-124629333D01*
X141127617Y-124585053D01*
X141244816Y-124385790D01*
X141264667Y-124036667D01*
X141232936Y-123635771D01*
X141090578Y-123471670D01*
X140843335Y-123444000D01*
X140557944Y-123392718D01*
X140402917Y-123176787D01*
X140316474Y-122784061D01*
X140206447Y-122337758D01*
X140006103Y-122116706D01*
X139700640Y-122022061D01*
X139218804Y-121943182D01*
X138981420Y-122006892D01*
G36*
X143085636Y-123645370D02*
X142841808Y-123774238D01*
X142399514Y-124119963D01*
X142098699Y-124498607D01*
X141993461Y-124827842D01*
X142053313Y-124974197D01*
X142495127Y-125208418D01*
X142992410Y-125201512D01*
X143372654Y-124977591D01*
X143802083Y-124675081D01*
X144226642Y-124681730D01*
X144448134Y-124832533D01*
X144609036Y-125045346D01*
X144583397Y-125230755D01*
X144331977Y-125432506D01*
X143815541Y-125694338D01*
X143578270Y-125802282D01*
X142689443Y-126285959D01*
X142112635Y-126811321D01*
X141821409Y-127408083D01*
X141772667Y-127831825D01*
X141920478Y-128581019D01*
X142356921Y-129155990D01*
X142890026Y-129473220D01*
X143782448Y-129690777D01*
X144628060Y-129595536D01*
X145106193Y-129379095D01*
X145545061Y-129033880D01*
X145875906Y-128635896D01*
X146006000Y-128297697D01*
X145864658Y-128194017D01*
X145521418Y-128049671D01*
X145491469Y-128039097D01*
X145084912Y-127946791D01*
X144795737Y-128056155D01*
X144644802Y-128191865D01*
X144194778Y-128463929D01*
X143707773Y-128497427D01*
X143310877Y-128285829D01*
X143289614Y-128261501D01*
X143182852Y-128018074D01*
X143312470Y-127783258D01*
X143710402Y-127525573D01*
X144312667Y-127252914D01*
X145125561Y-126837210D01*
X145644622Y-126368737D01*
X145914545Y-125804437D01*
X145941121Y-125684080D01*
X145931345Y-124948514D01*
X145652182Y-124320157D01*
X145165829Y-123837335D01*
X144534487Y-123538378D01*
X143820356Y-123461613D01*
X143085636Y-123645370D01*
X143085636Y-123645370D01*
G37*
X143085636Y-123645370D02*
X142841808Y-123774238D01*
X142399514Y-124119963D01*
X142098699Y-124498607D01*
X141993461Y-124827842D01*
X142053313Y-124974197D01*
X142495127Y-125208418D01*
X142992410Y-125201512D01*
X143372654Y-124977591D01*
X143802083Y-124675081D01*
X144226642Y-124681730D01*
X144448134Y-124832533D01*
X144609036Y-125045346D01*
X144583397Y-125230755D01*
X144331977Y-125432506D01*
X143815541Y-125694338D01*
X143578270Y-125802282D01*
X142689443Y-126285959D01*
X142112635Y-126811321D01*
X141821409Y-127408083D01*
X141772667Y-127831825D01*
X141920478Y-128581019D01*
X142356921Y-129155990D01*
X142890026Y-129473220D01*
X143782448Y-129690777D01*
X144628060Y-129595536D01*
X145106193Y-129379095D01*
X145545061Y-129033880D01*
X145875906Y-128635896D01*
X146006000Y-128297697D01*
X145864658Y-128194017D01*
X145521418Y-128049671D01*
X145491469Y-128039097D01*
X145084912Y-127946791D01*
X144795737Y-128056155D01*
X144644802Y-128191865D01*
X144194778Y-128463929D01*
X143707773Y-128497427D01*
X143310877Y-128285829D01*
X143289614Y-128261501D01*
X143182852Y-128018074D01*
X143312470Y-127783258D01*
X143710402Y-127525573D01*
X144312667Y-127252914D01*
X145125561Y-126837210D01*
X145644622Y-126368737D01*
X145914545Y-125804437D01*
X145941121Y-125684080D01*
X145931345Y-124948514D01*
X145652182Y-124320157D01*
X145165829Y-123837335D01*
X144534487Y-123538378D01*
X143820356Y-123461613D01*
X143085636Y-123645370D01*
G36*
X123992667Y-126661333D02*
X123993632Y-127744028D01*
X124000367Y-128534177D01*
X124018634Y-129077903D01*
X124054192Y-129421328D01*
X124112804Y-129610572D01*
X124200229Y-129691759D01*
X124322228Y-129711008D01*
X124373667Y-129711645D01*
X124864070Y-129759714D01*
X125135667Y-129816062D01*
X125516667Y-129918166D01*
X125516667Y-126868533D01*
X125515564Y-125744148D01*
X125502859Y-124913863D01*
X125464453Y-124333121D01*
X125386251Y-123957365D01*
X125254156Y-123742038D01*
X125054071Y-123642582D01*
X124771901Y-123614441D01*
X124486818Y-123613333D01*
X123992667Y-123613333D01*
X123992667Y-126661333D01*
X123992667Y-126661333D01*
G37*
X123992667Y-126661333D02*
X123993632Y-127744028D01*
X124000367Y-128534177D01*
X124018634Y-129077903D01*
X124054192Y-129421328D01*
X124112804Y-129610572D01*
X124200229Y-129691759D01*
X124322228Y-129711008D01*
X124373667Y-129711645D01*
X124864070Y-129759714D01*
X125135667Y-129816062D01*
X125516667Y-129918166D01*
X125516667Y-126868533D01*
X125515564Y-125744148D01*
X125502859Y-124913863D01*
X125464453Y-124333121D01*
X125386251Y-123957365D01*
X125254156Y-123742038D01*
X125054071Y-123642582D01*
X124771901Y-123614441D01*
X124486818Y-123613333D01*
X123992667Y-123613333D01*
X123992667Y-126661333D01*
G04 #@! TO.C,U1*
D12*
X136280952Y-90541285D02*
X136447619Y-90184142D01*
X136566666Y-90541285D02*
X136566666Y-89791285D01*
X136376190Y-89791285D01*
X136328571Y-89827000D01*
X136304761Y-89862714D01*
X136280952Y-89934142D01*
X136280952Y-90041285D01*
X136304761Y-90112714D01*
X136328571Y-90148428D01*
X136376190Y-90184142D01*
X136566666Y-90184142D01*
X135971428Y-89791285D02*
X135876190Y-89791285D01*
X135828571Y-89827000D01*
X135780952Y-89898428D01*
X135757142Y-90041285D01*
X135757142Y-90291285D01*
X135780952Y-90434142D01*
X135828571Y-90505571D01*
X135876190Y-90541285D01*
X135971428Y-90541285D01*
X136019047Y-90505571D01*
X136066666Y-90434142D01*
X136090476Y-90291285D01*
X136090476Y-90041285D01*
X136066666Y-89898428D01*
X136019047Y-89827000D01*
X135971428Y-89791285D01*
X135590476Y-89791285D02*
X135471428Y-90541285D01*
X135376190Y-90005571D01*
X135280952Y-90541285D01*
X135161904Y-89791285D01*
X134709523Y-90541285D02*
X134995238Y-90541285D01*
X134852380Y-90541285D02*
X134852380Y-89791285D01*
X134900000Y-89898428D01*
X134947619Y-89969857D01*
X134995238Y-90005571D01*
X151397619Y-93017857D02*
X151421428Y-93053571D01*
X151492857Y-93089285D01*
X151540476Y-93089285D01*
X151611904Y-93053571D01*
X151659523Y-92982142D01*
X151683333Y-92910714D01*
X151707142Y-92767857D01*
X151707142Y-92660714D01*
X151683333Y-92517857D01*
X151659523Y-92446428D01*
X151611904Y-92375000D01*
X151540476Y-92339285D01*
X151492857Y-92339285D01*
X151421428Y-92375000D01*
X151397619Y-92410714D01*
X151088095Y-92339285D02*
X150992857Y-92339285D01*
X150945238Y-92375000D01*
X150897619Y-92446428D01*
X150873809Y-92589285D01*
X150873809Y-92839285D01*
X150897619Y-92982142D01*
X150945238Y-93053571D01*
X150992857Y-93089285D01*
X151088095Y-93089285D01*
X151135714Y-93053571D01*
X151183333Y-92982142D01*
X151207142Y-92839285D01*
X151207142Y-92589285D01*
X151183333Y-92446428D01*
X151135714Y-92375000D01*
X151088095Y-92339285D01*
X150421428Y-93089285D02*
X150659523Y-93089285D01*
X150659523Y-92339285D01*
X150040476Y-92589285D02*
X150040476Y-93089285D01*
X150159523Y-92303571D02*
X150278571Y-92839285D01*
X149969047Y-92839285D01*
X136330952Y-93089285D02*
X136497619Y-92732142D01*
X136616666Y-93089285D02*
X136616666Y-92339285D01*
X136426190Y-92339285D01*
X136378571Y-92375000D01*
X136354761Y-92410714D01*
X136330952Y-92482142D01*
X136330952Y-92589285D01*
X136354761Y-92660714D01*
X136378571Y-92696428D01*
X136426190Y-92732142D01*
X136616666Y-92732142D01*
X136021428Y-92339285D02*
X135926190Y-92339285D01*
X135878571Y-92375000D01*
X135830952Y-92446428D01*
X135807142Y-92589285D01*
X135807142Y-92839285D01*
X135830952Y-92982142D01*
X135878571Y-93053571D01*
X135926190Y-93089285D01*
X136021428Y-93089285D01*
X136069047Y-93053571D01*
X136116666Y-92982142D01*
X136140476Y-92839285D01*
X136140476Y-92589285D01*
X136116666Y-92446428D01*
X136069047Y-92375000D01*
X136021428Y-92339285D01*
X135640476Y-92339285D02*
X135521428Y-93089285D01*
X135426190Y-92553571D01*
X135330952Y-93089285D01*
X135211904Y-92339285D01*
X135045238Y-92410714D02*
X135021428Y-92375000D01*
X134973809Y-92339285D01*
X134854761Y-92339285D01*
X134807142Y-92375000D01*
X134783333Y-92410714D01*
X134759523Y-92482142D01*
X134759523Y-92553571D01*
X134783333Y-92660714D01*
X135069047Y-93089285D01*
X134759523Y-93089285D01*
X151397619Y-95613357D02*
X151421428Y-95649071D01*
X151492857Y-95684785D01*
X151540476Y-95684785D01*
X151611904Y-95649071D01*
X151659523Y-95577642D01*
X151683333Y-95506214D01*
X151707142Y-95363357D01*
X151707142Y-95256214D01*
X151683333Y-95113357D01*
X151659523Y-95041928D01*
X151611904Y-94970500D01*
X151540476Y-94934785D01*
X151492857Y-94934785D01*
X151421428Y-94970500D01*
X151397619Y-95006214D01*
X151088095Y-94934785D02*
X150992857Y-94934785D01*
X150945238Y-94970500D01*
X150897619Y-95041928D01*
X150873809Y-95184785D01*
X150873809Y-95434785D01*
X150897619Y-95577642D01*
X150945238Y-95649071D01*
X150992857Y-95684785D01*
X151088095Y-95684785D01*
X151135714Y-95649071D01*
X151183333Y-95577642D01*
X151207142Y-95434785D01*
X151207142Y-95184785D01*
X151183333Y-95041928D01*
X151135714Y-94970500D01*
X151088095Y-94934785D01*
X150421428Y-95684785D02*
X150659523Y-95684785D01*
X150659523Y-94934785D01*
X150016666Y-94934785D02*
X150254761Y-94934785D01*
X150278571Y-95291928D01*
X150254761Y-95256214D01*
X150207142Y-95220500D01*
X150088095Y-95220500D01*
X150040476Y-95256214D01*
X150016666Y-95291928D01*
X149992857Y-95363357D01*
X149992857Y-95541928D01*
X150016666Y-95613357D01*
X150040476Y-95649071D01*
X150088095Y-95684785D01*
X150207142Y-95684785D01*
X150254761Y-95649071D01*
X150278571Y-95613357D01*
X136330952Y-95684785D02*
X136497619Y-95327642D01*
X136616666Y-95684785D02*
X136616666Y-94934785D01*
X136426190Y-94934785D01*
X136378571Y-94970500D01*
X136354761Y-95006214D01*
X136330952Y-95077642D01*
X136330952Y-95184785D01*
X136354761Y-95256214D01*
X136378571Y-95291928D01*
X136426190Y-95327642D01*
X136616666Y-95327642D01*
X136021428Y-94934785D02*
X135926190Y-94934785D01*
X135878571Y-94970500D01*
X135830952Y-95041928D01*
X135807142Y-95184785D01*
X135807142Y-95434785D01*
X135830952Y-95577642D01*
X135878571Y-95649071D01*
X135926190Y-95684785D01*
X136021428Y-95684785D01*
X136069047Y-95649071D01*
X136116666Y-95577642D01*
X136140476Y-95434785D01*
X136140476Y-95184785D01*
X136116666Y-95041928D01*
X136069047Y-94970500D01*
X136021428Y-94934785D01*
X135640476Y-94934785D02*
X135521428Y-95684785D01*
X135426190Y-95149071D01*
X135330952Y-95684785D01*
X135211904Y-94934785D01*
X135069047Y-94934785D02*
X134759523Y-94934785D01*
X134926190Y-95220500D01*
X134854761Y-95220500D01*
X134807142Y-95256214D01*
X134783333Y-95291928D01*
X134759523Y-95363357D01*
X134759523Y-95541928D01*
X134783333Y-95613357D01*
X134807142Y-95649071D01*
X134854761Y-95684785D01*
X134997619Y-95684785D01*
X135045238Y-95649071D01*
X135069047Y-95613357D01*
X151052380Y-97796428D02*
X150980952Y-97832142D01*
X150957142Y-97867857D01*
X150933333Y-97939285D01*
X150933333Y-98046428D01*
X150957142Y-98117857D01*
X150980952Y-98153571D01*
X151028571Y-98189285D01*
X151219047Y-98189285D01*
X151219047Y-97439285D01*
X151052380Y-97439285D01*
X151004761Y-97475000D01*
X150980952Y-97510714D01*
X150957142Y-97582142D01*
X150957142Y-97653571D01*
X150980952Y-97725000D01*
X151004761Y-97760714D01*
X151052380Y-97796428D01*
X151219047Y-97796428D01*
X150742857Y-97510714D02*
X150719047Y-97475000D01*
X150671428Y-97439285D01*
X150552380Y-97439285D01*
X150504761Y-97475000D01*
X150480952Y-97510714D01*
X150457142Y-97582142D01*
X150457142Y-97653571D01*
X150480952Y-97760714D01*
X150766666Y-98189285D01*
X150457142Y-98189285D01*
X135902380Y-97768428D02*
X135830952Y-97804142D01*
X135807142Y-97839857D01*
X135783333Y-97911285D01*
X135783333Y-98018428D01*
X135807142Y-98089857D01*
X135830952Y-98125571D01*
X135878571Y-98161285D01*
X136069047Y-98161285D01*
X136069047Y-97411285D01*
X135902380Y-97411285D01*
X135854761Y-97447000D01*
X135830952Y-97482714D01*
X135807142Y-97554142D01*
X135807142Y-97625571D01*
X135830952Y-97697000D01*
X135854761Y-97732714D01*
X135902380Y-97768428D01*
X136069047Y-97768428D01*
X135354761Y-97661285D02*
X135354761Y-98161285D01*
X135473809Y-97375571D02*
X135592857Y-97911285D01*
X135283333Y-97911285D01*
X135902380Y-100371928D02*
X135830952Y-100407642D01*
X135807142Y-100443357D01*
X135783333Y-100514785D01*
X135783333Y-100621928D01*
X135807142Y-100693357D01*
X135830952Y-100729071D01*
X135878571Y-100764785D01*
X136069047Y-100764785D01*
X136069047Y-100014785D01*
X135902380Y-100014785D01*
X135854761Y-100050500D01*
X135830952Y-100086214D01*
X135807142Y-100157642D01*
X135807142Y-100229071D01*
X135830952Y-100300500D01*
X135854761Y-100336214D01*
X135902380Y-100371928D01*
X136069047Y-100371928D01*
X135330952Y-100014785D02*
X135569047Y-100014785D01*
X135592857Y-100371928D01*
X135569047Y-100336214D01*
X135521428Y-100300500D01*
X135402380Y-100300500D01*
X135354761Y-100336214D01*
X135330952Y-100371928D01*
X135307142Y-100443357D01*
X135307142Y-100621928D01*
X135330952Y-100693357D01*
X135354761Y-100729071D01*
X135402380Y-100764785D01*
X135521428Y-100764785D01*
X135569047Y-100729071D01*
X135592857Y-100693357D01*
X151152380Y-100346428D02*
X151080952Y-100382142D01*
X151057142Y-100417857D01*
X151033333Y-100489285D01*
X151033333Y-100596428D01*
X151057142Y-100667857D01*
X151080952Y-100703571D01*
X151128571Y-100739285D01*
X151319047Y-100739285D01*
X151319047Y-99989285D01*
X151152380Y-99989285D01*
X151104761Y-100025000D01*
X151080952Y-100060714D01*
X151057142Y-100132142D01*
X151057142Y-100203571D01*
X151080952Y-100275000D01*
X151104761Y-100310714D01*
X151152380Y-100346428D01*
X151319047Y-100346428D01*
X150604761Y-99989285D02*
X150700000Y-99989285D01*
X150747619Y-100025000D01*
X150771428Y-100060714D01*
X150819047Y-100167857D01*
X150842857Y-100310714D01*
X150842857Y-100596428D01*
X150819047Y-100667857D01*
X150795238Y-100703571D01*
X150747619Y-100739285D01*
X150652380Y-100739285D01*
X150604761Y-100703571D01*
X150580952Y-100667857D01*
X150557142Y-100596428D01*
X150557142Y-100417857D01*
X150580952Y-100346428D01*
X150604761Y-100310714D01*
X150652380Y-100275000D01*
X150747619Y-100275000D01*
X150795238Y-100310714D01*
X150819047Y-100346428D01*
X150842857Y-100417857D01*
X151347619Y-82867857D02*
X151371428Y-82903571D01*
X151442857Y-82939285D01*
X151490476Y-82939285D01*
X151561904Y-82903571D01*
X151609523Y-82832142D01*
X151633333Y-82760714D01*
X151657142Y-82617857D01*
X151657142Y-82510714D01*
X151633333Y-82367857D01*
X151609523Y-82296428D01*
X151561904Y-82225000D01*
X151490476Y-82189285D01*
X151442857Y-82189285D01*
X151371428Y-82225000D01*
X151347619Y-82260714D01*
X151038095Y-82189285D02*
X150942857Y-82189285D01*
X150895238Y-82225000D01*
X150847619Y-82296428D01*
X150823809Y-82439285D01*
X150823809Y-82689285D01*
X150847619Y-82832142D01*
X150895238Y-82903571D01*
X150942857Y-82939285D01*
X151038095Y-82939285D01*
X151085714Y-82903571D01*
X151133333Y-82832142D01*
X151157142Y-82689285D01*
X151157142Y-82439285D01*
X151133333Y-82296428D01*
X151085714Y-82225000D01*
X151038095Y-82189285D01*
X150371428Y-82939285D02*
X150609523Y-82939285D01*
X150609523Y-82189285D01*
X150109523Y-82189285D02*
X150061904Y-82189285D01*
X150014285Y-82225000D01*
X149990476Y-82260714D01*
X149966666Y-82332142D01*
X149942857Y-82475000D01*
X149942857Y-82653571D01*
X149966666Y-82796428D01*
X149990476Y-82867857D01*
X150014285Y-82903571D01*
X150061904Y-82939285D01*
X150109523Y-82939285D01*
X150157142Y-82903571D01*
X150180952Y-82867857D01*
X150204761Y-82796428D01*
X150228571Y-82653571D01*
X150228571Y-82475000D01*
X150204761Y-82332142D01*
X150180952Y-82260714D01*
X150157142Y-82225000D01*
X150109523Y-82189285D01*
X136046142Y-82885571D02*
X135974714Y-82921285D01*
X135855666Y-82921285D01*
X135808047Y-82885571D01*
X135784238Y-82849857D01*
X135760428Y-82778428D01*
X135760428Y-82707000D01*
X135784238Y-82635571D01*
X135808047Y-82599857D01*
X135855666Y-82564142D01*
X135950904Y-82528428D01*
X135998523Y-82492714D01*
X136022333Y-82457000D01*
X136046142Y-82385571D01*
X136046142Y-82314142D01*
X136022333Y-82242714D01*
X135998523Y-82207000D01*
X135950904Y-82171285D01*
X135831857Y-82171285D01*
X135760428Y-82207000D01*
X135546142Y-82921285D02*
X135546142Y-82171285D01*
X135427095Y-82171285D01*
X135355666Y-82207000D01*
X135308047Y-82278428D01*
X135284238Y-82349857D01*
X135260428Y-82492714D01*
X135260428Y-82599857D01*
X135284238Y-82742714D01*
X135308047Y-82814142D01*
X135355666Y-82885571D01*
X135427095Y-82921285D01*
X135546142Y-82921285D01*
X135069952Y-82707000D02*
X134831857Y-82707000D01*
X135117571Y-82921285D02*
X134950904Y-82171285D01*
X134784238Y-82921285D01*
X151297619Y-85389857D02*
X151321428Y-85425571D01*
X151392857Y-85461285D01*
X151440476Y-85461285D01*
X151511904Y-85425571D01*
X151559523Y-85354142D01*
X151583333Y-85282714D01*
X151607142Y-85139857D01*
X151607142Y-85032714D01*
X151583333Y-84889857D01*
X151559523Y-84818428D01*
X151511904Y-84747000D01*
X151440476Y-84711285D01*
X151392857Y-84711285D01*
X151321428Y-84747000D01*
X151297619Y-84782714D01*
X150988095Y-84711285D02*
X150892857Y-84711285D01*
X150845238Y-84747000D01*
X150797619Y-84818428D01*
X150773809Y-84961285D01*
X150773809Y-85211285D01*
X150797619Y-85354142D01*
X150845238Y-85425571D01*
X150892857Y-85461285D01*
X150988095Y-85461285D01*
X151035714Y-85425571D01*
X151083333Y-85354142D01*
X151107142Y-85211285D01*
X151107142Y-84961285D01*
X151083333Y-84818428D01*
X151035714Y-84747000D01*
X150988095Y-84711285D01*
X150321428Y-85461285D02*
X150559523Y-85461285D01*
X150559523Y-84711285D01*
X149892857Y-85461285D02*
X150178571Y-85461285D01*
X150035714Y-85461285D02*
X150035714Y-84711285D01*
X150083333Y-84818428D01*
X150130952Y-84889857D01*
X150178571Y-84925571D01*
X136034238Y-85425571D02*
X135962809Y-85461285D01*
X135843761Y-85461285D01*
X135796142Y-85425571D01*
X135772333Y-85389857D01*
X135748523Y-85318428D01*
X135748523Y-85247000D01*
X135772333Y-85175571D01*
X135796142Y-85139857D01*
X135843761Y-85104142D01*
X135939000Y-85068428D01*
X135986619Y-85032714D01*
X136010428Y-84997000D01*
X136034238Y-84925571D01*
X136034238Y-84854142D01*
X136010428Y-84782714D01*
X135986619Y-84747000D01*
X135939000Y-84711285D01*
X135819952Y-84711285D01*
X135748523Y-84747000D01*
X135248523Y-85389857D02*
X135272333Y-85425571D01*
X135343761Y-85461285D01*
X135391380Y-85461285D01*
X135462809Y-85425571D01*
X135510428Y-85354142D01*
X135534238Y-85282714D01*
X135558047Y-85139857D01*
X135558047Y-85032714D01*
X135534238Y-84889857D01*
X135510428Y-84818428D01*
X135462809Y-84747000D01*
X135391380Y-84711285D01*
X135343761Y-84711285D01*
X135272333Y-84747000D01*
X135248523Y-84782714D01*
X134796142Y-85461285D02*
X135034238Y-85461285D01*
X135034238Y-84711285D01*
X151347619Y-87929857D02*
X151371428Y-87965571D01*
X151442857Y-88001285D01*
X151490476Y-88001285D01*
X151561904Y-87965571D01*
X151609523Y-87894142D01*
X151633333Y-87822714D01*
X151657142Y-87679857D01*
X151657142Y-87572714D01*
X151633333Y-87429857D01*
X151609523Y-87358428D01*
X151561904Y-87287000D01*
X151490476Y-87251285D01*
X151442857Y-87251285D01*
X151371428Y-87287000D01*
X151347619Y-87322714D01*
X151038095Y-87251285D02*
X150942857Y-87251285D01*
X150895238Y-87287000D01*
X150847619Y-87358428D01*
X150823809Y-87501285D01*
X150823809Y-87751285D01*
X150847619Y-87894142D01*
X150895238Y-87965571D01*
X150942857Y-88001285D01*
X151038095Y-88001285D01*
X151085714Y-87965571D01*
X151133333Y-87894142D01*
X151157142Y-87751285D01*
X151157142Y-87501285D01*
X151133333Y-87358428D01*
X151085714Y-87287000D01*
X151038095Y-87251285D01*
X150371428Y-88001285D02*
X150609523Y-88001285D01*
X150609523Y-87251285D01*
X150228571Y-87322714D02*
X150204761Y-87287000D01*
X150157142Y-87251285D01*
X150038095Y-87251285D01*
X149990476Y-87287000D01*
X149966666Y-87322714D01*
X149942857Y-87394142D01*
X149942857Y-87465571D01*
X149966666Y-87572714D01*
X150252380Y-88001285D01*
X149942857Y-88001285D01*
X136330952Y-88039285D02*
X136497619Y-87682142D01*
X136616666Y-88039285D02*
X136616666Y-87289285D01*
X136426190Y-87289285D01*
X136378571Y-87325000D01*
X136354761Y-87360714D01*
X136330952Y-87432142D01*
X136330952Y-87539285D01*
X136354761Y-87610714D01*
X136378571Y-87646428D01*
X136426190Y-87682142D01*
X136616666Y-87682142D01*
X136021428Y-87289285D02*
X135926190Y-87289285D01*
X135878571Y-87325000D01*
X135830952Y-87396428D01*
X135807142Y-87539285D01*
X135807142Y-87789285D01*
X135830952Y-87932142D01*
X135878571Y-88003571D01*
X135926190Y-88039285D01*
X136021428Y-88039285D01*
X136069047Y-88003571D01*
X136116666Y-87932142D01*
X136140476Y-87789285D01*
X136140476Y-87539285D01*
X136116666Y-87396428D01*
X136069047Y-87325000D01*
X136021428Y-87289285D01*
X135640476Y-87289285D02*
X135521428Y-88039285D01*
X135426190Y-87503571D01*
X135330952Y-88039285D01*
X135211904Y-87289285D01*
X134926190Y-87289285D02*
X134878571Y-87289285D01*
X134830952Y-87325000D01*
X134807142Y-87360714D01*
X134783333Y-87432142D01*
X134759523Y-87575000D01*
X134759523Y-87753571D01*
X134783333Y-87896428D01*
X134807142Y-87967857D01*
X134830952Y-88003571D01*
X134878571Y-88039285D01*
X134926190Y-88039285D01*
X134973809Y-88003571D01*
X134997619Y-87967857D01*
X135021428Y-87896428D01*
X135045238Y-87753571D01*
X135045238Y-87575000D01*
X135021428Y-87432142D01*
X134997619Y-87360714D01*
X134973809Y-87325000D01*
X134926190Y-87289285D01*
X151447619Y-90517857D02*
X151471428Y-90553571D01*
X151542857Y-90589285D01*
X151590476Y-90589285D01*
X151661904Y-90553571D01*
X151709523Y-90482142D01*
X151733333Y-90410714D01*
X151757142Y-90267857D01*
X151757142Y-90160714D01*
X151733333Y-90017857D01*
X151709523Y-89946428D01*
X151661904Y-89875000D01*
X151590476Y-89839285D01*
X151542857Y-89839285D01*
X151471428Y-89875000D01*
X151447619Y-89910714D01*
X151138095Y-89839285D02*
X151042857Y-89839285D01*
X150995238Y-89875000D01*
X150947619Y-89946428D01*
X150923809Y-90089285D01*
X150923809Y-90339285D01*
X150947619Y-90482142D01*
X150995238Y-90553571D01*
X151042857Y-90589285D01*
X151138095Y-90589285D01*
X151185714Y-90553571D01*
X151233333Y-90482142D01*
X151257142Y-90339285D01*
X151257142Y-90089285D01*
X151233333Y-89946428D01*
X151185714Y-89875000D01*
X151138095Y-89839285D01*
X150471428Y-90589285D02*
X150709523Y-90589285D01*
X150709523Y-89839285D01*
X150352380Y-89839285D02*
X150042857Y-89839285D01*
X150209523Y-90125000D01*
X150138095Y-90125000D01*
X150090476Y-90160714D01*
X150066666Y-90196428D01*
X150042857Y-90267857D01*
X150042857Y-90446428D01*
X150066666Y-90517857D01*
X150090476Y-90553571D01*
X150138095Y-90589285D01*
X150280952Y-90589285D01*
X150328571Y-90553571D01*
X150352380Y-90517857D01*
X135819952Y-79730500D02*
X135867571Y-79694785D01*
X135939000Y-79694785D01*
X136010428Y-79730500D01*
X136058047Y-79801928D01*
X136081857Y-79873357D01*
X136105666Y-80016214D01*
X136105666Y-80123357D01*
X136081857Y-80266214D01*
X136058047Y-80337642D01*
X136010428Y-80409071D01*
X135939000Y-80444785D01*
X135891380Y-80444785D01*
X135819952Y-80409071D01*
X135796142Y-80373357D01*
X135796142Y-80123357D01*
X135891380Y-80123357D01*
X135581857Y-80444785D02*
X135581857Y-79694785D01*
X135296142Y-80444785D01*
X135296142Y-79694785D01*
X135058047Y-80444785D02*
X135058047Y-79694785D01*
X134939000Y-79694785D01*
X134867571Y-79730500D01*
X134819952Y-79801928D01*
X134796142Y-79873357D01*
X134772333Y-80016214D01*
X134772333Y-80123357D01*
X134796142Y-80266214D01*
X134819952Y-80337642D01*
X134867571Y-80409071D01*
X134939000Y-80444785D01*
X135058047Y-80444785D01*
X151282166Y-79631285D02*
X151115500Y-80381285D01*
X150948833Y-79631285D01*
X150496452Y-80309857D02*
X150520261Y-80345571D01*
X150591690Y-80381285D01*
X150639309Y-80381285D01*
X150710738Y-80345571D01*
X150758357Y-80274142D01*
X150782166Y-80202714D01*
X150805976Y-80059857D01*
X150805976Y-79952714D01*
X150782166Y-79809857D01*
X150758357Y-79738428D01*
X150710738Y-79667000D01*
X150639309Y-79631285D01*
X150591690Y-79631285D01*
X150520261Y-79667000D01*
X150496452Y-79702714D01*
X149996452Y-80309857D02*
X150020261Y-80345571D01*
X150091690Y-80381285D01*
X150139309Y-80381285D01*
X150210738Y-80345571D01*
X150258357Y-80274142D01*
X150282166Y-80202714D01*
X150305976Y-80059857D01*
X150305976Y-79952714D01*
X150282166Y-79809857D01*
X150258357Y-79738428D01*
X150210738Y-79667000D01*
X150139309Y-79631285D01*
X150091690Y-79631285D01*
X150020261Y-79667000D01*
X149996452Y-79702714D01*
X135756452Y-77190500D02*
X135804071Y-77154785D01*
X135875500Y-77154785D01*
X135946928Y-77190500D01*
X135994547Y-77261928D01*
X136018357Y-77333357D01*
X136042166Y-77476214D01*
X136042166Y-77583357D01*
X136018357Y-77726214D01*
X135994547Y-77797642D01*
X135946928Y-77869071D01*
X135875500Y-77904785D01*
X135827880Y-77904785D01*
X135756452Y-77869071D01*
X135732642Y-77833357D01*
X135732642Y-77583357D01*
X135827880Y-77583357D01*
X135518357Y-77904785D02*
X135518357Y-77154785D01*
X135232642Y-77904785D01*
X135232642Y-77154785D01*
X134994547Y-77904785D02*
X134994547Y-77154785D01*
X134875500Y-77154785D01*
X134804071Y-77190500D01*
X134756452Y-77261928D01*
X134732642Y-77333357D01*
X134708833Y-77476214D01*
X134708833Y-77583357D01*
X134732642Y-77726214D01*
X134756452Y-77797642D01*
X134804071Y-77869071D01*
X134875500Y-77904785D01*
X134994547Y-77904785D01*
X150889309Y-77904785D02*
X151055976Y-77547642D01*
X151175023Y-77904785D02*
X151175023Y-77154785D01*
X150984547Y-77154785D01*
X150936928Y-77190500D01*
X150913119Y-77226214D01*
X150889309Y-77297642D01*
X150889309Y-77404785D01*
X150913119Y-77476214D01*
X150936928Y-77511928D01*
X150984547Y-77547642D01*
X151175023Y-77547642D01*
X150698833Y-77869071D02*
X150627404Y-77904785D01*
X150508357Y-77904785D01*
X150460738Y-77869071D01*
X150436928Y-77833357D01*
X150413119Y-77761928D01*
X150413119Y-77690500D01*
X150436928Y-77619071D01*
X150460738Y-77583357D01*
X150508357Y-77547642D01*
X150603595Y-77511928D01*
X150651214Y-77476214D01*
X150675023Y-77440500D01*
X150698833Y-77369071D01*
X150698833Y-77297642D01*
X150675023Y-77226214D01*
X150651214Y-77190500D01*
X150603595Y-77154785D01*
X150484547Y-77154785D01*
X150413119Y-77190500D01*
X150270261Y-77154785D02*
X149984547Y-77154785D01*
X150127404Y-77904785D02*
X150127404Y-77154785D01*
X136300000Y-75289285D02*
X136300000Y-74539285D01*
X136180952Y-74539285D01*
X136109523Y-74575000D01*
X136061904Y-74646428D01*
X136038095Y-74717857D01*
X136014285Y-74860714D01*
X136014285Y-74967857D01*
X136038095Y-75110714D01*
X136061904Y-75182142D01*
X136109523Y-75253571D01*
X136180952Y-75289285D01*
X136300000Y-75289285D01*
X135823809Y-75075000D02*
X135585714Y-75075000D01*
X135871428Y-75289285D02*
X135704761Y-74539285D01*
X135538095Y-75289285D01*
X135442857Y-74539285D02*
X135157142Y-74539285D01*
X135300000Y-75289285D02*
X135300000Y-74539285D01*
X135014285Y-75075000D02*
X134776190Y-75075000D01*
X135061904Y-75289285D02*
X134895238Y-74539285D01*
X134728571Y-75289285D01*
X150996452Y-74587000D02*
X151044071Y-74551285D01*
X151115500Y-74551285D01*
X151186928Y-74587000D01*
X151234547Y-74658428D01*
X151258357Y-74729857D01*
X151282166Y-74872714D01*
X151282166Y-74979857D01*
X151258357Y-75122714D01*
X151234547Y-75194142D01*
X151186928Y-75265571D01*
X151115500Y-75301285D01*
X151067880Y-75301285D01*
X150996452Y-75265571D01*
X150972642Y-75229857D01*
X150972642Y-74979857D01*
X151067880Y-74979857D01*
X150758357Y-75301285D02*
X150758357Y-74551285D01*
X150472642Y-75301285D01*
X150472642Y-74551285D01*
X150234547Y-75301285D02*
X150234547Y-74551285D01*
X150115500Y-74551285D01*
X150044071Y-74587000D01*
X149996452Y-74658428D01*
X149972642Y-74729857D01*
X149948833Y-74872714D01*
X149948833Y-74979857D01*
X149972642Y-75122714D01*
X149996452Y-75194142D01*
X150044071Y-75265571D01*
X150115500Y-75301285D01*
X150234547Y-75301285D01*
X135721428Y-72761285D02*
X135959523Y-72761285D01*
X135959523Y-72011285D01*
X135554761Y-72368428D02*
X135388095Y-72368428D01*
X135316666Y-72761285D02*
X135554761Y-72761285D01*
X135554761Y-72011285D01*
X135316666Y-72011285D01*
X135102380Y-72761285D02*
X135102380Y-72011285D01*
X134983333Y-72011285D01*
X134911904Y-72047000D01*
X134864285Y-72118428D01*
X134840476Y-72189857D01*
X134816666Y-72332714D01*
X134816666Y-72439857D01*
X134840476Y-72582714D01*
X134864285Y-72654142D01*
X134911904Y-72725571D01*
X134983333Y-72761285D01*
X135102380Y-72761285D01*
X150960738Y-72761285D02*
X151127404Y-72404142D01*
X151246452Y-72761285D02*
X151246452Y-72011285D01*
X151055976Y-72011285D01*
X151008357Y-72047000D01*
X150984547Y-72082714D01*
X150960738Y-72154142D01*
X150960738Y-72261285D01*
X150984547Y-72332714D01*
X151008357Y-72368428D01*
X151055976Y-72404142D01*
X151246452Y-72404142D01*
X150770261Y-72547000D02*
X150532166Y-72547000D01*
X150817880Y-72761285D02*
X150651214Y-72011285D01*
X150484547Y-72761285D01*
X150365500Y-72011285D02*
X150246452Y-72761285D01*
X150151214Y-72225571D01*
X150055976Y-72761285D01*
X149936928Y-72011285D01*
D10*
G04 #@! TO.C,U2*
G04 #@! TO.C,J1*
X214696404Y-103195880D02*
X214124976Y-103195880D01*
X214410690Y-104195880D02*
X214410690Y-103195880D01*
X213220214Y-104195880D02*
X213553547Y-103719690D01*
X213791642Y-104195880D02*
X213791642Y-103195880D01*
X213410690Y-103195880D01*
X213315452Y-103243500D01*
X213267833Y-103291119D01*
X213220214Y-103386357D01*
X213220214Y-103529214D01*
X213267833Y-103624452D01*
X213315452Y-103672071D01*
X213410690Y-103719690D01*
X213791642Y-103719690D01*
X212220214Y-104195880D02*
X212553547Y-103719690D01*
X212791642Y-104195880D02*
X212791642Y-103195880D01*
X212410690Y-103195880D01*
X212315452Y-103243500D01*
X212267833Y-103291119D01*
X212220214Y-103386357D01*
X212220214Y-103529214D01*
X212267833Y-103624452D01*
X212315452Y-103672071D01*
X212410690Y-103719690D01*
X212791642Y-103719690D01*
X211839261Y-104148261D02*
X211696404Y-104195880D01*
X211458309Y-104195880D01*
X211363071Y-104148261D01*
X211315452Y-104100642D01*
X211267833Y-104005404D01*
X211267833Y-103910166D01*
X211315452Y-103814928D01*
X211363071Y-103767309D01*
X211458309Y-103719690D01*
X211648785Y-103672071D01*
X211744023Y-103624452D01*
X211791642Y-103576833D01*
X211839261Y-103481595D01*
X211839261Y-103386357D01*
X211791642Y-103291119D01*
X211744023Y-103243500D01*
X211648785Y-103195880D01*
X211410690Y-103195880D01*
X211267833Y-103243500D01*
G04 #@! TO.C,SW20*
X215762380Y-115534619D02*
X215286190Y-115201285D01*
X215762380Y-114963190D02*
X214762380Y-114963190D01*
X214762380Y-115344142D01*
X214810000Y-115439380D01*
X214857619Y-115487000D01*
X214952857Y-115534619D01*
X215095714Y-115534619D01*
X215190952Y-115487000D01*
X215238571Y-115439380D01*
X215286190Y-115344142D01*
X215286190Y-114963190D01*
X215238571Y-115963190D02*
X215238571Y-116296523D01*
X215762380Y-116439380D02*
X215762380Y-115963190D01*
X214762380Y-115963190D01*
X214762380Y-116439380D01*
X215714761Y-116820333D02*
X215762380Y-116963190D01*
X215762380Y-117201285D01*
X215714761Y-117296523D01*
X215667142Y-117344142D01*
X215571904Y-117391761D01*
X215476666Y-117391761D01*
X215381428Y-117344142D01*
X215333809Y-117296523D01*
X215286190Y-117201285D01*
X215238571Y-117010809D01*
X215190952Y-116915571D01*
X215143333Y-116867952D01*
X215048095Y-116820333D01*
X214952857Y-116820333D01*
X214857619Y-116867952D01*
X214810000Y-116915571D01*
X214762380Y-117010809D01*
X214762380Y-117248904D01*
X214810000Y-117391761D01*
X215238571Y-117820333D02*
X215238571Y-118153666D01*
X215762380Y-118296523D02*
X215762380Y-117820333D01*
X214762380Y-117820333D01*
X214762380Y-118296523D01*
X214762380Y-118582238D02*
X214762380Y-119153666D01*
X215762380Y-118867952D02*
X214762380Y-118867952D01*
G04 #@! TD*
M02*
