G04 #@! TF.GenerationSoftware,KiCad,Pcbnew,(5.0.0)*
G04 #@! TF.CreationDate,2019-03-06T00:57:05+08:00*
G04 #@! TF.ProjectId,Shinonome,5368696E6F6E6F6D652E6B696361645F,rev?*
G04 #@! TF.SameCoordinates,Original*
G04 #@! TF.FileFunction,Legend,Top*
G04 #@! TF.FilePolarity,Positive*
%FSLAX46Y46*%
G04 Gerber Fmt 4.6, Leading zero omitted, Abs format (unit mm)*
G04 Created by KiCad (PCBNEW (5.0.0)) date 03/06/19 00:57:05*
%MOMM*%
%LPD*%
G01*
G04 APERTURE LIST*
%ADD10C,0.300000*%
%ADD11C,0.150000*%
%ADD12C,0.010000*%
%ADD13C,0.125000*%
G04 APERTURE END LIST*
D10*
X259788571Y-106481428D02*
X259860000Y-106338571D01*
X259931428Y-106267142D01*
X260074285Y-106195714D01*
X260145714Y-106195714D01*
X260288571Y-106267142D01*
X260360000Y-106338571D01*
X260431428Y-106481428D01*
X260431428Y-106767142D01*
X260360000Y-106910000D01*
X260288571Y-106981428D01*
X260145714Y-107052857D01*
X260074285Y-107052857D01*
X259931428Y-106981428D01*
X259860000Y-106910000D01*
X259788571Y-106767142D01*
X259788571Y-106481428D01*
X259717142Y-106338571D01*
X259645714Y-106267142D01*
X259502857Y-106195714D01*
X259217142Y-106195714D01*
X259074285Y-106267142D01*
X259002857Y-106338571D01*
X258931428Y-106481428D01*
X258931428Y-106767142D01*
X259002857Y-106910000D01*
X259074285Y-106981428D01*
X259217142Y-107052857D01*
X259502857Y-107052857D01*
X259645714Y-106981428D01*
X259717142Y-106910000D01*
X259788571Y-106767142D01*
X259788571Y-107910000D02*
X259860000Y-107767142D01*
X259931428Y-107695714D01*
X260074285Y-107624285D01*
X260145714Y-107624285D01*
X260288571Y-107695714D01*
X260360000Y-107767142D01*
X260431428Y-107910000D01*
X260431428Y-108195714D01*
X260360000Y-108338571D01*
X260288571Y-108410000D01*
X260145714Y-108481428D01*
X260074285Y-108481428D01*
X259931428Y-108410000D01*
X259860000Y-108338571D01*
X259788571Y-108195714D01*
X259788571Y-107910000D01*
X259717142Y-107767142D01*
X259645714Y-107695714D01*
X259502857Y-107624285D01*
X259217142Y-107624285D01*
X259074285Y-107695714D01*
X259002857Y-107767142D01*
X258931428Y-107910000D01*
X258931428Y-108195714D01*
X259002857Y-108338571D01*
X259074285Y-108410000D01*
X259217142Y-108481428D01*
X259502857Y-108481428D01*
X259645714Y-108410000D01*
X259717142Y-108338571D01*
X259788571Y-108195714D01*
X259074285Y-109124285D02*
X259002857Y-109195714D01*
X258931428Y-109124285D01*
X259002857Y-109052857D01*
X259074285Y-109124285D01*
X258931428Y-109124285D01*
X260288571Y-109767142D02*
X260360000Y-109838571D01*
X260431428Y-109981428D01*
X260431428Y-110338571D01*
X260360000Y-110481428D01*
X260288571Y-110552857D01*
X260145714Y-110624285D01*
X260002857Y-110624285D01*
X259788571Y-110552857D01*
X258931428Y-109695714D01*
X258931428Y-110624285D01*
X260288571Y-111195714D02*
X260360000Y-111267142D01*
X260431428Y-111410000D01*
X260431428Y-111767142D01*
X260360000Y-111910000D01*
X260288571Y-111981428D01*
X260145714Y-112052857D01*
X260002857Y-112052857D01*
X259788571Y-111981428D01*
X258931428Y-111124285D01*
X258931428Y-112052857D01*
X260431428Y-112981428D02*
X260431428Y-113124285D01*
X260360000Y-113267142D01*
X260288571Y-113338571D01*
X260145714Y-113410000D01*
X259860000Y-113481428D01*
X259502857Y-113481428D01*
X259217142Y-113410000D01*
X259074285Y-113338571D01*
X259002857Y-113267142D01*
X258931428Y-113124285D01*
X258931428Y-112981428D01*
X259002857Y-112838571D01*
X259074285Y-112767142D01*
X259217142Y-112695714D01*
X259502857Y-112624285D01*
X259860000Y-112624285D01*
X260145714Y-112695714D01*
X260288571Y-112767142D01*
X260360000Y-112838571D01*
X260431428Y-112981428D01*
X258931428Y-115267142D02*
X259931428Y-115267142D01*
X259788571Y-115267142D02*
X259860000Y-115338571D01*
X259931428Y-115481428D01*
X259931428Y-115695714D01*
X259860000Y-115838571D01*
X259717142Y-115910000D01*
X258931428Y-115910000D01*
X259717142Y-115910000D02*
X259860000Y-115981428D01*
X259931428Y-116124285D01*
X259931428Y-116338571D01*
X259860000Y-116481428D01*
X259717142Y-116552857D01*
X258931428Y-116552857D01*
X258931428Y-117267142D02*
X259931428Y-117267142D01*
X259788571Y-117267142D02*
X259860000Y-117338571D01*
X259931428Y-117481428D01*
X259931428Y-117695714D01*
X259860000Y-117838571D01*
X259717142Y-117910000D01*
X258931428Y-117910000D01*
X259717142Y-117910000D02*
X259860000Y-117981428D01*
X259931428Y-118124285D01*
X259931428Y-118338571D01*
X259860000Y-118481428D01*
X259717142Y-118552857D01*
X258931428Y-118552857D01*
X257510000Y-68300000D02*
X257510000Y-156520000D01*
X153080000Y-68300000D02*
X258096421Y-68300000D01*
X153080000Y-156520000D02*
X258096421Y-156520000D01*
X257510000Y-156520000D02*
X256923579Y-155393496D01*
X257510000Y-156520000D02*
X258096421Y-155393496D01*
X257510000Y-68300000D02*
X256923579Y-69426504D01*
X257510000Y-68300000D02*
X258096421Y-69426504D01*
X147668706Y-52152035D02*
X146811563Y-52151028D01*
X147240135Y-52151531D02*
X147241897Y-50651532D01*
X147098788Y-50865650D01*
X146955763Y-51008339D01*
X146812822Y-51079600D01*
X148241729Y-50795565D02*
X148313241Y-50724220D01*
X148456182Y-50652959D01*
X148813325Y-50653379D01*
X148956098Y-50724975D01*
X149027442Y-50796488D01*
X149098703Y-50939429D01*
X149098535Y-51082286D01*
X149026855Y-51296487D01*
X148168705Y-52152623D01*
X149097276Y-52153714D01*
X149599038Y-50654302D02*
X150599038Y-50655477D01*
X149954418Y-52154721D01*
X151168871Y-52013291D02*
X151240216Y-52084803D01*
X151168703Y-52156148D01*
X151097359Y-52084635D01*
X151168871Y-52013291D01*
X151168703Y-52156148D01*
X152527608Y-50657744D02*
X152241894Y-50657408D01*
X152098953Y-50728669D01*
X152027440Y-50800013D01*
X151884332Y-51014131D01*
X151812567Y-51299761D01*
X151811896Y-51871189D01*
X151883156Y-52014130D01*
X151954501Y-52085643D01*
X152097274Y-52157239D01*
X152382988Y-52157575D01*
X152525929Y-52086314D01*
X152597442Y-52014969D01*
X152669038Y-51872196D01*
X152669458Y-51515054D01*
X152598197Y-51372113D01*
X152526852Y-51300600D01*
X152384079Y-51229004D01*
X152098365Y-51228668D01*
X151955424Y-51299929D01*
X151883912Y-51371273D01*
X151812315Y-51514047D01*
X154027607Y-50659506D02*
X153313322Y-50658667D01*
X153241054Y-51372868D01*
X153312566Y-51301524D01*
X153455507Y-51230263D01*
X153812650Y-51230683D01*
X153955423Y-51302279D01*
X154026767Y-51373791D01*
X154098028Y-51516732D01*
X154097608Y-51873875D01*
X154026012Y-52016648D01*
X153954500Y-52087993D01*
X153811559Y-52159253D01*
X153454416Y-52158834D01*
X153311643Y-52087237D01*
X153240298Y-52015725D01*
X155027606Y-50660681D02*
X155170463Y-50660849D01*
X155313236Y-50732446D01*
X155384581Y-50803958D01*
X155455842Y-50946899D01*
X155526934Y-51232697D01*
X155526515Y-51589840D01*
X155454750Y-51875470D01*
X155383154Y-52018243D01*
X155311642Y-52089588D01*
X155168701Y-52160848D01*
X155025844Y-52160680D01*
X154883070Y-52089084D01*
X154811726Y-52017571D01*
X154740465Y-51874630D01*
X154669372Y-51588832D01*
X154669792Y-51231690D01*
X154741556Y-50946060D01*
X154813153Y-50803287D01*
X154884665Y-50731942D01*
X155027606Y-50660681D01*
X157311556Y-52163366D02*
X157312731Y-51163367D01*
X157312563Y-51306224D02*
X157384076Y-51234879D01*
X157527017Y-51163619D01*
X157741302Y-51163871D01*
X157884076Y-51235467D01*
X157955336Y-51378408D01*
X157954413Y-52164122D01*
X157955336Y-51378408D02*
X158026933Y-51235635D01*
X158169874Y-51164374D01*
X158384159Y-51164626D01*
X158526932Y-51236222D01*
X158598193Y-51379163D01*
X158597270Y-52164877D01*
X159311555Y-52165716D02*
X159312730Y-51165717D01*
X159312562Y-51308574D02*
X159384075Y-51237230D01*
X159527015Y-51165969D01*
X159741301Y-51166221D01*
X159884074Y-51237817D01*
X159955335Y-51380758D01*
X159954412Y-52166472D01*
X159955335Y-51380758D02*
X160026931Y-51237985D01*
X160169872Y-51166724D01*
X160384158Y-51166976D01*
X160526931Y-51238572D01*
X160598192Y-51381513D01*
X160597268Y-52167227D01*
X89913460Y-53505598D02*
X217563460Y-53655598D01*
X89880000Y-81980000D02*
X89914149Y-52919177D01*
X217530000Y-82130000D02*
X217564149Y-53069177D01*
X217563460Y-53655598D02*
X216436268Y-54240695D01*
X217563460Y-53655598D02*
X216437646Y-53067854D01*
X89913460Y-53505598D02*
X91039274Y-54093342D01*
X89913460Y-53505598D02*
X91040652Y-52920501D01*
X209642142Y-145460000D02*
X209713571Y-145245714D01*
X209713571Y-144888571D01*
X209642142Y-144745714D01*
X209570714Y-144674285D01*
X209427857Y-144602857D01*
X209285000Y-144602857D01*
X209142142Y-144674285D01*
X209070714Y-144745714D01*
X208999285Y-144888571D01*
X208927857Y-145174285D01*
X208856428Y-145317142D01*
X208785000Y-145388571D01*
X208642142Y-145460000D01*
X208499285Y-145460000D01*
X208356428Y-145388571D01*
X208285000Y-145317142D01*
X208213571Y-145174285D01*
X208213571Y-144817142D01*
X208285000Y-144602857D01*
X209713571Y-143960000D02*
X208213571Y-143960000D01*
X209713571Y-143317142D02*
X208927857Y-143317142D01*
X208785000Y-143388571D01*
X208713571Y-143531428D01*
X208713571Y-143745714D01*
X208785000Y-143888571D01*
X208856428Y-143960000D01*
X209713571Y-142602857D02*
X208713571Y-142602857D01*
X208213571Y-142602857D02*
X208285000Y-142674285D01*
X208356428Y-142602857D01*
X208285000Y-142531428D01*
X208213571Y-142602857D01*
X208356428Y-142602857D01*
X208713571Y-141888571D02*
X209713571Y-141888571D01*
X208856428Y-141888571D02*
X208785000Y-141817142D01*
X208713571Y-141674285D01*
X208713571Y-141460000D01*
X208785000Y-141317142D01*
X208927857Y-141245714D01*
X209713571Y-141245714D01*
X209713571Y-140317142D02*
X209642142Y-140460000D01*
X209570714Y-140531428D01*
X209427857Y-140602857D01*
X208999285Y-140602857D01*
X208856428Y-140531428D01*
X208785000Y-140460000D01*
X208713571Y-140317142D01*
X208713571Y-140102857D01*
X208785000Y-139960000D01*
X208856428Y-139888571D01*
X208999285Y-139817142D01*
X209427857Y-139817142D01*
X209570714Y-139888571D01*
X209642142Y-139960000D01*
X209713571Y-140102857D01*
X209713571Y-140317142D01*
X208713571Y-139174285D02*
X209713571Y-139174285D01*
X208856428Y-139174285D02*
X208785000Y-139102857D01*
X208713571Y-138960000D01*
X208713571Y-138745714D01*
X208785000Y-138602857D01*
X208927857Y-138531428D01*
X209713571Y-138531428D01*
X209713571Y-137602857D02*
X209642142Y-137745714D01*
X209570714Y-137817142D01*
X209427857Y-137888571D01*
X208999285Y-137888571D01*
X208856428Y-137817142D01*
X208785000Y-137745714D01*
X208713571Y-137602857D01*
X208713571Y-137388571D01*
X208785000Y-137245714D01*
X208856428Y-137174285D01*
X208999285Y-137102857D01*
X209427857Y-137102857D01*
X209570714Y-137174285D01*
X209642142Y-137245714D01*
X209713571Y-137388571D01*
X209713571Y-137602857D01*
X209713571Y-136460000D02*
X208713571Y-136460000D01*
X208856428Y-136460000D02*
X208785000Y-136388571D01*
X208713571Y-136245714D01*
X208713571Y-136031428D01*
X208785000Y-135888571D01*
X208927857Y-135817142D01*
X209713571Y-135817142D01*
X208927857Y-135817142D02*
X208785000Y-135745714D01*
X208713571Y-135602857D01*
X208713571Y-135388571D01*
X208785000Y-135245714D01*
X208927857Y-135174285D01*
X209713571Y-135174285D01*
X209642142Y-133888571D02*
X209713571Y-134031428D01*
X209713571Y-134317142D01*
X209642142Y-134460000D01*
X209499285Y-134531428D01*
X208927857Y-134531428D01*
X208785000Y-134460000D01*
X208713571Y-134317142D01*
X208713571Y-134031428D01*
X208785000Y-133888571D01*
X208927857Y-133817142D01*
X209070714Y-133817142D01*
X209213571Y-134531428D01*
X209713571Y-132031428D02*
X208213571Y-132031428D01*
X208785000Y-132031428D02*
X208713571Y-131888571D01*
X208713571Y-131602857D01*
X208785000Y-131460000D01*
X208856428Y-131388571D01*
X208999285Y-131317142D01*
X209427857Y-131317142D01*
X209570714Y-131388571D01*
X209642142Y-131460000D01*
X209713571Y-131602857D01*
X209713571Y-131888571D01*
X209642142Y-132031428D01*
X208713571Y-130817142D02*
X209713571Y-130460000D01*
X208713571Y-130102857D02*
X209713571Y-130460000D01*
X210070714Y-130602857D01*
X210142142Y-130674285D01*
X210213571Y-130817142D01*
X209642142Y-127817142D02*
X209713571Y-127960000D01*
X209713571Y-128245714D01*
X209642142Y-128388571D01*
X209499285Y-128460000D01*
X208927857Y-128460000D01*
X208785000Y-128388571D01*
X208713571Y-128245714D01*
X208713571Y-127960000D01*
X208785000Y-127817142D01*
X208927857Y-127745714D01*
X209070714Y-127745714D01*
X209213571Y-128460000D01*
X209713571Y-127102857D02*
X208713571Y-127102857D01*
X208856428Y-127102857D02*
X208785000Y-127031428D01*
X208713571Y-126888571D01*
X208713571Y-126674285D01*
X208785000Y-126531428D01*
X208927857Y-126460000D01*
X209713571Y-126460000D01*
X208927857Y-126460000D02*
X208785000Y-126388571D01*
X208713571Y-126245714D01*
X208713571Y-126031428D01*
X208785000Y-125888571D01*
X208927857Y-125817142D01*
X209713571Y-125817142D01*
X208713571Y-125102857D02*
X210213571Y-125102857D01*
X208785000Y-125102857D02*
X208713571Y-124960000D01*
X208713571Y-124674285D01*
X208785000Y-124531428D01*
X208856428Y-124460000D01*
X208999285Y-124388571D01*
X209427857Y-124388571D01*
X209570714Y-124460000D01*
X209642142Y-124531428D01*
X209713571Y-124674285D01*
X209713571Y-124960000D01*
X209642142Y-125102857D01*
X208713571Y-123960000D02*
X208713571Y-123388571D01*
X208213571Y-123745714D02*
X209499285Y-123745714D01*
X209642142Y-123674285D01*
X209713571Y-123531428D01*
X209713571Y-123388571D01*
X208713571Y-123031428D02*
X209713571Y-122674285D01*
X208713571Y-122317142D02*
X209713571Y-122674285D01*
X210070714Y-122817142D01*
X210142142Y-122888571D01*
X210213571Y-123031428D01*
X209642142Y-121817142D02*
X209713571Y-121674285D01*
X209713571Y-121388571D01*
X209642142Y-121245714D01*
X209499285Y-121174285D01*
X209427857Y-121174285D01*
X209285000Y-121245714D01*
X209213571Y-121388571D01*
X209213571Y-121602857D01*
X209142142Y-121745714D01*
X208999285Y-121817142D01*
X208927857Y-121817142D01*
X208785000Y-121745714D01*
X208713571Y-121602857D01*
X208713571Y-121388571D01*
X208785000Y-121245714D01*
X208713571Y-120745714D02*
X208713571Y-120174285D01*
X208213571Y-120531428D02*
X209499285Y-120531428D01*
X209642142Y-120460000D01*
X209713571Y-120317142D01*
X209713571Y-120174285D01*
X209713571Y-119674285D02*
X208713571Y-119674285D01*
X208999285Y-119674285D02*
X208856428Y-119602857D01*
X208785000Y-119531428D01*
X208713571Y-119388571D01*
X208713571Y-119245714D01*
X209713571Y-118745714D02*
X208713571Y-118745714D01*
X208213571Y-118745714D02*
X208285000Y-118817142D01*
X208356428Y-118745714D01*
X208285000Y-118674285D01*
X208213571Y-118745714D01*
X208356428Y-118745714D01*
X208713571Y-118031428D02*
X209713571Y-118031428D01*
X208856428Y-118031428D02*
X208785000Y-117960000D01*
X208713571Y-117817142D01*
X208713571Y-117602857D01*
X208785000Y-117460000D01*
X208927857Y-117388571D01*
X209713571Y-117388571D01*
X208713571Y-116031428D02*
X209927857Y-116031428D01*
X210070714Y-116102857D01*
X210142142Y-116174285D01*
X210213571Y-116317142D01*
X210213571Y-116531428D01*
X210142142Y-116674285D01*
X209642142Y-116031428D02*
X209713571Y-116174285D01*
X209713571Y-116460000D01*
X209642142Y-116602857D01*
X209570714Y-116674285D01*
X209427857Y-116745714D01*
X208999285Y-116745714D01*
X208856428Y-116674285D01*
X208785000Y-116602857D01*
X208713571Y-116460000D01*
X208713571Y-116174285D01*
X208785000Y-116031428D01*
X211549285Y-139674285D02*
X211477857Y-139745714D01*
X211406428Y-139888571D01*
X211406428Y-140031428D01*
X211477857Y-140174285D01*
X211549285Y-140245714D01*
X211692142Y-140317142D01*
X211835000Y-140317142D01*
X211977857Y-140245714D01*
X212049285Y-140174285D01*
X212120714Y-140031428D01*
X212120714Y-139888571D01*
X212049285Y-139745714D01*
X211977857Y-139674285D01*
X211406428Y-139674285D02*
X211977857Y-139674285D01*
X212049285Y-139602857D01*
X212049285Y-139531428D01*
X211977857Y-139388571D01*
X211835000Y-139317142D01*
X211477857Y-139317142D01*
X211263571Y-139460000D01*
X211120714Y-139674285D01*
X211049285Y-139960000D01*
X211120714Y-140245714D01*
X211263571Y-140460000D01*
X211477857Y-140602857D01*
X211763571Y-140674285D01*
X212049285Y-140602857D01*
X212263571Y-140460000D01*
X212406428Y-140245714D01*
X212477857Y-139960000D01*
X212406428Y-139674285D01*
X212263571Y-139460000D01*
X212192142Y-138745714D02*
X212263571Y-138531428D01*
X212263571Y-138174285D01*
X212192142Y-138031428D01*
X212120714Y-137960000D01*
X211977857Y-137888571D01*
X211835000Y-137888571D01*
X211692142Y-137960000D01*
X211620714Y-138031428D01*
X211549285Y-138174285D01*
X211477857Y-138460000D01*
X211406428Y-138602857D01*
X211335000Y-138674285D01*
X211192142Y-138745714D01*
X211049285Y-138745714D01*
X210906428Y-138674285D01*
X210835000Y-138602857D01*
X210763571Y-138460000D01*
X210763571Y-138102857D01*
X210835000Y-137888571D01*
X211835000Y-137317142D02*
X211835000Y-136602857D01*
X212263571Y-137460000D02*
X210763571Y-136960000D01*
X212263571Y-136460000D01*
X212406428Y-136317142D02*
X212406428Y-135174285D01*
X211477857Y-134817142D02*
X211477857Y-134317142D01*
X212263571Y-134102857D02*
X212263571Y-134817142D01*
X210763571Y-134817142D01*
X210763571Y-134102857D01*
X211263571Y-133460000D02*
X212263571Y-133460000D01*
X211406428Y-133460000D02*
X211335000Y-133388571D01*
X211263571Y-133245714D01*
X211263571Y-133031428D01*
X211335000Y-132888571D01*
X211477857Y-132817142D01*
X212263571Y-132817142D01*
X212263571Y-131460000D02*
X210763571Y-131460000D01*
X212192142Y-131460000D02*
X212263571Y-131602857D01*
X212263571Y-131888571D01*
X212192142Y-132031428D01*
X212120714Y-132102857D01*
X211977857Y-132174285D01*
X211549285Y-132174285D01*
X211406428Y-132102857D01*
X211335000Y-132031428D01*
X211263571Y-131888571D01*
X211263571Y-131602857D01*
X211335000Y-131460000D01*
X212263571Y-130531428D02*
X212192142Y-130674285D01*
X212049285Y-130745714D01*
X210763571Y-130745714D01*
X212192142Y-129388571D02*
X212263571Y-129531428D01*
X212263571Y-129817142D01*
X212192142Y-129960000D01*
X212049285Y-130031428D01*
X211477857Y-130031428D01*
X211335000Y-129960000D01*
X211263571Y-129817142D01*
X211263571Y-129531428D01*
X211335000Y-129388571D01*
X211477857Y-129317142D01*
X211620714Y-129317142D01*
X211763571Y-130031428D01*
X212192142Y-128745714D02*
X212263571Y-128602857D01*
X212263571Y-128317142D01*
X212192142Y-128174285D01*
X212049285Y-128102857D01*
X211977857Y-128102857D01*
X211835000Y-128174285D01*
X211763571Y-128317142D01*
X211763571Y-128531428D01*
X211692142Y-128674285D01*
X211549285Y-128745714D01*
X211477857Y-128745714D01*
X211335000Y-128674285D01*
X211263571Y-128531428D01*
X211263571Y-128317142D01*
X211335000Y-128174285D01*
X212192142Y-127531428D02*
X212263571Y-127388571D01*
X212263571Y-127102857D01*
X212192142Y-126960000D01*
X212049285Y-126888571D01*
X211977857Y-126888571D01*
X211835000Y-126960000D01*
X211763571Y-127102857D01*
X211763571Y-127317142D01*
X211692142Y-127460000D01*
X211549285Y-127531428D01*
X211477857Y-127531428D01*
X211335000Y-127460000D01*
X211263571Y-127317142D01*
X211263571Y-127102857D01*
X211335000Y-126960000D01*
X210835000Y-125460000D02*
X210763571Y-125602857D01*
X210763571Y-125817142D01*
X210835000Y-126031428D01*
X210977857Y-126174285D01*
X211120714Y-126245714D01*
X211406428Y-126317142D01*
X211620714Y-126317142D01*
X211906428Y-126245714D01*
X212049285Y-126174285D01*
X212192142Y-126031428D01*
X212263571Y-125817142D01*
X212263571Y-125674285D01*
X212192142Y-125460000D01*
X212120714Y-125388571D01*
X211620714Y-125388571D01*
X211620714Y-125674285D01*
X212263571Y-124102857D02*
X211477857Y-124102857D01*
X211335000Y-124174285D01*
X211263571Y-124317142D01*
X211263571Y-124602857D01*
X211335000Y-124745714D01*
X212192142Y-124102857D02*
X212263571Y-124245714D01*
X212263571Y-124602857D01*
X212192142Y-124745714D01*
X212049285Y-124817142D01*
X211906428Y-124817142D01*
X211763571Y-124745714D01*
X211692142Y-124602857D01*
X211692142Y-124245714D01*
X211620714Y-124102857D01*
X212263571Y-123388571D02*
X211263571Y-123388571D01*
X211406428Y-123388571D02*
X211335000Y-123317142D01*
X211263571Y-123174285D01*
X211263571Y-122960000D01*
X211335000Y-122817142D01*
X211477857Y-122745714D01*
X212263571Y-122745714D01*
X211477857Y-122745714D02*
X211335000Y-122674285D01*
X211263571Y-122531428D01*
X211263571Y-122317142D01*
X211335000Y-122174285D01*
X211477857Y-122102857D01*
X212263571Y-122102857D01*
X212192142Y-120817142D02*
X212263571Y-120960000D01*
X212263571Y-121245714D01*
X212192142Y-121388571D01*
X212049285Y-121460000D01*
X211477857Y-121460000D01*
X211335000Y-121388571D01*
X211263571Y-121245714D01*
X211263571Y-120960000D01*
X211335000Y-120817142D01*
X211477857Y-120745714D01*
X211620714Y-120745714D01*
X211763571Y-121460000D01*
D11*
G04 #@! TO.C,U2*
X128156400Y-101652000D02*
X128156400Y-71172000D01*
X130696400Y-101652000D02*
X128156400Y-101652000D01*
X130696400Y-71172000D02*
X130696400Y-101652000D01*
X128156400Y-71172000D02*
X130696400Y-71172000D01*
X112936400Y-101652000D02*
X112936400Y-71172000D01*
X115476400Y-101652000D02*
X112936400Y-101652000D01*
X115476400Y-71172000D02*
X115476400Y-101652000D01*
X112936400Y-71172000D02*
X115476400Y-71172000D01*
G04 #@! TO.C,D1*
X102370000Y-103870000D02*
X103270000Y-103370000D01*
X103270000Y-103370000D02*
X103270000Y-104370000D01*
X103270000Y-104370000D02*
X102370000Y-103870000D01*
X102270000Y-103370000D02*
X102270000Y-104370000D01*
X105470000Y-103120000D02*
X100070000Y-103120000D01*
X100070000Y-103120000D02*
X100070000Y-104620000D01*
X100070000Y-104620000D02*
X105470000Y-104620000D01*
X105470000Y-104620000D02*
X105470000Y-103120000D01*
G04 #@! TO.C,D2*
X102370000Y-122820000D02*
X103270000Y-122320000D01*
X103270000Y-122320000D02*
X103270000Y-123320000D01*
X103270000Y-123320000D02*
X102370000Y-122820000D01*
X102270000Y-122320000D02*
X102270000Y-123320000D01*
X105470000Y-122070000D02*
X100070000Y-122070000D01*
X100070000Y-122070000D02*
X100070000Y-123570000D01*
X100070000Y-123570000D02*
X105470000Y-123570000D01*
X105470000Y-123570000D02*
X105470000Y-122070000D01*
G04 #@! TO.C,D3*
X102370000Y-141930000D02*
X103270000Y-141430000D01*
X103270000Y-141430000D02*
X103270000Y-142430000D01*
X103270000Y-142430000D02*
X102370000Y-141930000D01*
X102270000Y-141430000D02*
X102270000Y-142430000D01*
X105470000Y-141180000D02*
X100070000Y-141180000D01*
X100070000Y-141180000D02*
X100070000Y-142680000D01*
X100070000Y-142680000D02*
X105470000Y-142680000D01*
X105470000Y-142680000D02*
X105470000Y-141180000D01*
G04 #@! TO.C,D4*
X124490000Y-92660000D02*
X124490000Y-91160000D01*
X119090000Y-92660000D02*
X124490000Y-92660000D01*
X119090000Y-91160000D02*
X119090000Y-92660000D01*
X124490000Y-91160000D02*
X119090000Y-91160000D01*
X121290000Y-91410000D02*
X121290000Y-92410000D01*
X122290000Y-92410000D02*
X121390000Y-91910000D01*
X122290000Y-91410000D02*
X122290000Y-92410000D01*
X121390000Y-91910000D02*
X122290000Y-91410000D01*
G04 #@! TO.C,D5*
X124520000Y-111730000D02*
X124520000Y-110230000D01*
X119120000Y-111730000D02*
X124520000Y-111730000D01*
X119120000Y-110230000D02*
X119120000Y-111730000D01*
X124520000Y-110230000D02*
X119120000Y-110230000D01*
X121320000Y-110480000D02*
X121320000Y-111480000D01*
X122320000Y-111480000D02*
X121420000Y-110980000D01*
X122320000Y-110480000D02*
X122320000Y-111480000D01*
X121420000Y-110980000D02*
X122320000Y-110480000D01*
G04 #@! TO.C,D6*
X124530000Y-130820000D02*
X124530000Y-129320000D01*
X119130000Y-130820000D02*
X124530000Y-130820000D01*
X119130000Y-129320000D02*
X119130000Y-130820000D01*
X124530000Y-129320000D02*
X119130000Y-129320000D01*
X121330000Y-129570000D02*
X121330000Y-130570000D01*
X122330000Y-130570000D02*
X121430000Y-130070000D01*
X122330000Y-129570000D02*
X122330000Y-130570000D01*
X121430000Y-130070000D02*
X122330000Y-129570000D01*
G04 #@! TO.C,D7*
X140480000Y-89670000D02*
X141380000Y-89170000D01*
X141380000Y-89170000D02*
X141380000Y-90170000D01*
X141380000Y-90170000D02*
X140480000Y-89670000D01*
X140380000Y-89170000D02*
X140380000Y-90170000D01*
X143580000Y-88920000D02*
X138180000Y-88920000D01*
X138180000Y-88920000D02*
X138180000Y-90420000D01*
X138180000Y-90420000D02*
X143580000Y-90420000D01*
X143580000Y-90420000D02*
X143580000Y-88920000D01*
G04 #@! TO.C,D8*
X140490000Y-108620000D02*
X141390000Y-108120000D01*
X141390000Y-108120000D02*
X141390000Y-109120000D01*
X141390000Y-109120000D02*
X140490000Y-108620000D01*
X140390000Y-108120000D02*
X140390000Y-109120000D01*
X143590000Y-107870000D02*
X138190000Y-107870000D01*
X138190000Y-107870000D02*
X138190000Y-109370000D01*
X138190000Y-109370000D02*
X143590000Y-109370000D01*
X143590000Y-109370000D02*
X143590000Y-107870000D01*
G04 #@! TO.C,D9*
X140500000Y-127690000D02*
X141400000Y-127190000D01*
X141400000Y-127190000D02*
X141400000Y-128190000D01*
X141400000Y-128190000D02*
X140500000Y-127690000D01*
X140400000Y-127190000D02*
X140400000Y-128190000D01*
X143600000Y-126940000D02*
X138200000Y-126940000D01*
X138200000Y-126940000D02*
X138200000Y-128440000D01*
X138200000Y-128440000D02*
X143600000Y-128440000D01*
X143600000Y-128440000D02*
X143600000Y-126940000D01*
G04 #@! TO.C,D10*
X162630000Y-95040000D02*
X162630000Y-93540000D01*
X157230000Y-95040000D02*
X162630000Y-95040000D01*
X157230000Y-93540000D02*
X157230000Y-95040000D01*
X162630000Y-93540000D02*
X157230000Y-93540000D01*
X159430000Y-93790000D02*
X159430000Y-94790000D01*
X160430000Y-94790000D02*
X159530000Y-94290000D01*
X160430000Y-93790000D02*
X160430000Y-94790000D01*
X159530000Y-94290000D02*
X160430000Y-93790000D01*
G04 #@! TO.C,D11*
X162620000Y-114110000D02*
X162620000Y-112610000D01*
X157220000Y-114110000D02*
X162620000Y-114110000D01*
X157220000Y-112610000D02*
X157220000Y-114110000D01*
X162620000Y-112610000D02*
X157220000Y-112610000D01*
X159420000Y-112860000D02*
X159420000Y-113860000D01*
X160420000Y-113860000D02*
X159520000Y-113360000D01*
X160420000Y-112860000D02*
X160420000Y-113860000D01*
X159520000Y-113360000D02*
X160420000Y-112860000D01*
G04 #@! TO.C,D12*
X162600000Y-133190000D02*
X162600000Y-131690000D01*
X157200000Y-133190000D02*
X162600000Y-133190000D01*
X157200000Y-131690000D02*
X157200000Y-133190000D01*
X162600000Y-131690000D02*
X157200000Y-131690000D01*
X159400000Y-131940000D02*
X159400000Y-132940000D01*
X160400000Y-132940000D02*
X159500000Y-132440000D01*
X160400000Y-131940000D02*
X160400000Y-132940000D01*
X159500000Y-132440000D02*
X160400000Y-131940000D01*
G04 #@! TO.C,D13*
X159540000Y-151450000D02*
X160440000Y-150950000D01*
X160440000Y-150950000D02*
X160440000Y-151950000D01*
X160440000Y-151950000D02*
X159540000Y-151450000D01*
X159440000Y-150950000D02*
X159440000Y-151950000D01*
X162640000Y-150700000D02*
X157240000Y-150700000D01*
X157240000Y-150700000D02*
X157240000Y-152200000D01*
X157240000Y-152200000D02*
X162640000Y-152200000D01*
X162640000Y-152200000D02*
X162640000Y-150700000D01*
G04 #@! TO.C,D14*
X178580000Y-94310000D02*
X179480000Y-93810000D01*
X179480000Y-93810000D02*
X179480000Y-94810000D01*
X179480000Y-94810000D02*
X178580000Y-94310000D01*
X178480000Y-93810000D02*
X178480000Y-94810000D01*
X181680000Y-93560000D02*
X176280000Y-93560000D01*
X176280000Y-93560000D02*
X176280000Y-95060000D01*
X176280000Y-95060000D02*
X181680000Y-95060000D01*
X181680000Y-95060000D02*
X181680000Y-93560000D01*
G04 #@! TO.C,D15*
X181690000Y-114150000D02*
X181690000Y-112650000D01*
X176290000Y-114150000D02*
X181690000Y-114150000D01*
X176290000Y-112650000D02*
X176290000Y-114150000D01*
X181690000Y-112650000D02*
X176290000Y-112650000D01*
X178490000Y-112900000D02*
X178490000Y-113900000D01*
X179490000Y-113900000D02*
X178590000Y-113400000D01*
X179490000Y-112900000D02*
X179490000Y-113900000D01*
X178590000Y-113400000D02*
X179490000Y-112900000D01*
G04 #@! TO.C,D16*
X178610000Y-132440000D02*
X179510000Y-131940000D01*
X179510000Y-131940000D02*
X179510000Y-132940000D01*
X179510000Y-132940000D02*
X178610000Y-132440000D01*
X178510000Y-131940000D02*
X178510000Y-132940000D01*
X181710000Y-131690000D02*
X176310000Y-131690000D01*
X176310000Y-131690000D02*
X176310000Y-133190000D01*
X176310000Y-133190000D02*
X181710000Y-133190000D01*
X181710000Y-133190000D02*
X181710000Y-131690000D01*
G04 #@! TO.C,D17*
X178560000Y-151440000D02*
X179460000Y-150940000D01*
X179460000Y-150940000D02*
X179460000Y-151940000D01*
X179460000Y-151940000D02*
X178560000Y-151440000D01*
X178460000Y-150940000D02*
X178460000Y-151940000D01*
X181660000Y-150690000D02*
X176260000Y-150690000D01*
X176260000Y-150690000D02*
X176260000Y-152190000D01*
X176260000Y-152190000D02*
X181660000Y-152190000D01*
X181660000Y-152190000D02*
X181660000Y-150690000D01*
G04 #@! TO.C,D18*
X197610000Y-118170000D02*
X198510000Y-117670000D01*
X198510000Y-117670000D02*
X198510000Y-118670000D01*
X198510000Y-118670000D02*
X197610000Y-118170000D01*
X197510000Y-117670000D02*
X197510000Y-118670000D01*
X200710000Y-117420000D02*
X195310000Y-117420000D01*
X195310000Y-117420000D02*
X195310000Y-118920000D01*
X195310000Y-118920000D02*
X200710000Y-118920000D01*
X200710000Y-118920000D02*
X200710000Y-117420000D01*
G04 #@! TO.C,D19*
X197630000Y-141940000D02*
X198530000Y-141440000D01*
X198530000Y-141440000D02*
X198530000Y-142440000D01*
X198530000Y-142440000D02*
X197630000Y-141940000D01*
X197530000Y-141440000D02*
X197530000Y-142440000D01*
X200730000Y-141190000D02*
X195330000Y-141190000D01*
X195330000Y-141190000D02*
X195330000Y-142690000D01*
X195330000Y-142690000D02*
X200730000Y-142690000D01*
X200730000Y-142690000D02*
X200730000Y-141190000D01*
G04 #@! TO.C,J1*
X210760000Y-109330000D02*
X210760000Y-97330000D01*
X216760000Y-109330000D02*
X210760000Y-109330000D01*
X216760000Y-97330000D02*
X216760000Y-109330000D01*
X210760000Y-97330000D02*
X216760000Y-97330000D01*
G04 #@! TO.C,SW20*
X213560000Y-113860000D02*
X213560000Y-119860000D01*
X213560000Y-119860000D02*
X213810000Y-119860000D01*
X213560000Y-113860000D02*
X213810000Y-113860000D01*
X217060000Y-113860000D02*
X216810000Y-113860000D01*
X217060000Y-113860000D02*
X217060000Y-119860000D01*
X217060000Y-119860000D02*
X216810000Y-119860000D01*
D12*
G04 #@! TO.C,G\002A\002A\002A*
G36*
X128226667Y-107508666D02*
X128142000Y-107593333D01*
X128057334Y-107508666D01*
X128142000Y-107424000D01*
X128226667Y-107508666D01*
X128226667Y-107508666D01*
G37*
X128226667Y-107508666D02*
X128142000Y-107593333D01*
X128057334Y-107508666D01*
X128142000Y-107424000D01*
X128226667Y-107508666D01*
G36*
X178857334Y-80923333D02*
X178772667Y-81008000D01*
X178688000Y-80923333D01*
X178772667Y-80838666D01*
X178857334Y-80923333D01*
X178857334Y-80923333D01*
G37*
X178857334Y-80923333D02*
X178772667Y-81008000D01*
X178688000Y-80923333D01*
X178772667Y-80838666D01*
X178857334Y-80923333D01*
G36*
X155150667Y-80923333D02*
X155066000Y-81008000D01*
X154981334Y-80923333D01*
X155066000Y-80838666D01*
X155150667Y-80923333D01*
X155150667Y-80923333D01*
G37*
X155150667Y-80923333D02*
X155066000Y-81008000D01*
X154981334Y-80923333D01*
X155066000Y-80838666D01*
X155150667Y-80923333D01*
G36*
X202733334Y-81262000D02*
X202648667Y-81346666D01*
X202564000Y-81262000D01*
X202648667Y-81177333D01*
X202733334Y-81262000D01*
X202733334Y-81262000D01*
G37*
X202733334Y-81262000D02*
X202648667Y-81346666D01*
X202564000Y-81262000D01*
X202648667Y-81177333D01*
X202733334Y-81262000D01*
G36*
X191049334Y-82447333D02*
X190964667Y-82532000D01*
X190880000Y-82447333D01*
X190964667Y-82362666D01*
X191049334Y-82447333D01*
X191049334Y-82447333D01*
G37*
X191049334Y-82447333D02*
X190964667Y-82532000D01*
X190880000Y-82447333D01*
X190964667Y-82362666D01*
X191049334Y-82447333D01*
G36*
X113833334Y-82786000D02*
X113748667Y-82870666D01*
X113664000Y-82786000D01*
X113748667Y-82701333D01*
X113833334Y-82786000D01*
X113833334Y-82786000D01*
G37*
X113833334Y-82786000D02*
X113748667Y-82870666D01*
X113664000Y-82786000D01*
X113748667Y-82701333D01*
X113833334Y-82786000D01*
G36*
X204426667Y-83463333D02*
X204342000Y-83548000D01*
X204257334Y-83463333D01*
X204342000Y-83378666D01*
X204426667Y-83463333D01*
X204426667Y-83463333D01*
G37*
X204426667Y-83463333D02*
X204342000Y-83548000D01*
X204257334Y-83463333D01*
X204342000Y-83378666D01*
X204426667Y-83463333D01*
G36*
X200193334Y-83632666D02*
X200108667Y-83717333D01*
X200024000Y-83632666D01*
X200108667Y-83548000D01*
X200193334Y-83632666D01*
X200193334Y-83632666D01*
G37*
X200193334Y-83632666D02*
X200108667Y-83717333D01*
X200024000Y-83632666D01*
X200108667Y-83548000D01*
X200193334Y-83632666D01*
G36*
X184784000Y-83802000D02*
X184699334Y-83886666D01*
X184614667Y-83802000D01*
X184699334Y-83717333D01*
X184784000Y-83802000D01*
X184784000Y-83802000D01*
G37*
X184784000Y-83802000D02*
X184699334Y-83886666D01*
X184614667Y-83802000D01*
X184699334Y-83717333D01*
X184784000Y-83802000D01*
G36*
X148546667Y-84140666D02*
X148462000Y-84225333D01*
X148377334Y-84140666D01*
X148462000Y-84056000D01*
X148546667Y-84140666D01*
X148546667Y-84140666D01*
G37*
X148546667Y-84140666D02*
X148462000Y-84225333D01*
X148377334Y-84140666D01*
X148462000Y-84056000D01*
X148546667Y-84140666D01*
G36*
X193758667Y-84818000D02*
X193674000Y-84902666D01*
X193589334Y-84818000D01*
X193674000Y-84733333D01*
X193758667Y-84818000D01*
X193758667Y-84818000D01*
G37*
X193758667Y-84818000D02*
X193674000Y-84902666D01*
X193589334Y-84818000D01*
X193674000Y-84733333D01*
X193758667Y-84818000D01*
G36*
X130766667Y-84818000D02*
X130682000Y-84902666D01*
X130597334Y-84818000D01*
X130682000Y-84733333D01*
X130766667Y-84818000D01*
X130766667Y-84818000D01*
G37*
X130766667Y-84818000D02*
X130682000Y-84902666D01*
X130597334Y-84818000D01*
X130682000Y-84733333D01*
X130766667Y-84818000D01*
G36*
X191218667Y-84987333D02*
X191134000Y-85072000D01*
X191049334Y-84987333D01*
X191134000Y-84902666D01*
X191218667Y-84987333D01*
X191218667Y-84987333D01*
G37*
X191218667Y-84987333D02*
X191134000Y-85072000D01*
X191049334Y-84987333D01*
X191134000Y-84902666D01*
X191218667Y-84987333D01*
G36*
X166326667Y-85156666D02*
X166242000Y-85241333D01*
X166157334Y-85156666D01*
X166242000Y-85072000D01*
X166326667Y-85156666D01*
X166326667Y-85156666D01*
G37*
X166326667Y-85156666D02*
X166242000Y-85241333D01*
X166157334Y-85156666D01*
X166242000Y-85072000D01*
X166326667Y-85156666D01*
G36*
X165818667Y-85326000D02*
X165734000Y-85410666D01*
X165649334Y-85326000D01*
X165734000Y-85241333D01*
X165818667Y-85326000D01*
X165818667Y-85326000D01*
G37*
X165818667Y-85326000D02*
X165734000Y-85410666D01*
X165649334Y-85326000D01*
X165734000Y-85241333D01*
X165818667Y-85326000D01*
G36*
X108076000Y-86511333D02*
X107991334Y-86596000D01*
X107906667Y-86511333D01*
X107991334Y-86426666D01*
X108076000Y-86511333D01*
X108076000Y-86511333D01*
G37*
X108076000Y-86511333D02*
X107991334Y-86596000D01*
X107906667Y-86511333D01*
X107991334Y-86426666D01*
X108076000Y-86511333D01*
G36*
X114849334Y-86850000D02*
X114764667Y-86934666D01*
X114680000Y-86850000D01*
X114764667Y-86765333D01*
X114849334Y-86850000D01*
X114849334Y-86850000D01*
G37*
X114849334Y-86850000D02*
X114764667Y-86934666D01*
X114680000Y-86850000D01*
X114764667Y-86765333D01*
X114849334Y-86850000D01*
G36*
X199685334Y-87527333D02*
X199600667Y-87612000D01*
X199516000Y-87527333D01*
X199600667Y-87442666D01*
X199685334Y-87527333D01*
X199685334Y-87527333D01*
G37*
X199685334Y-87527333D02*
X199600667Y-87612000D01*
X199516000Y-87527333D01*
X199600667Y-87442666D01*
X199685334Y-87527333D01*
G36*
X146176000Y-87527333D02*
X146091334Y-87612000D01*
X146006667Y-87527333D01*
X146091334Y-87442666D01*
X146176000Y-87527333D01*
X146176000Y-87527333D01*
G37*
X146176000Y-87527333D02*
X146091334Y-87612000D01*
X146006667Y-87527333D01*
X146091334Y-87442666D01*
X146176000Y-87527333D01*
G36*
X113833334Y-89051333D02*
X113748667Y-89136000D01*
X113664000Y-89051333D01*
X113748667Y-88966666D01*
X113833334Y-89051333D01*
X113833334Y-89051333D01*
G37*
X113833334Y-89051333D02*
X113748667Y-89136000D01*
X113664000Y-89051333D01*
X113748667Y-88966666D01*
X113833334Y-89051333D01*
G36*
X200870667Y-89728666D02*
X200786000Y-89813333D01*
X200701334Y-89728666D01*
X200786000Y-89644000D01*
X200870667Y-89728666D01*
X200870667Y-89728666D01*
G37*
X200870667Y-89728666D02*
X200786000Y-89813333D01*
X200701334Y-89728666D01*
X200786000Y-89644000D01*
X200870667Y-89728666D01*
G36*
X202394667Y-90067333D02*
X202310000Y-90152000D01*
X202225334Y-90067333D01*
X202310000Y-89982666D01*
X202394667Y-90067333D01*
X202394667Y-90067333D01*
G37*
X202394667Y-90067333D02*
X202310000Y-90152000D01*
X202225334Y-90067333D01*
X202310000Y-89982666D01*
X202394667Y-90067333D01*
G36*
X199854667Y-90067333D02*
X199770000Y-90152000D01*
X199685334Y-90067333D01*
X199770000Y-89982666D01*
X199854667Y-90067333D01*
X199854667Y-90067333D01*
G37*
X199854667Y-90067333D02*
X199770000Y-90152000D01*
X199685334Y-90067333D01*
X199770000Y-89982666D01*
X199854667Y-90067333D01*
G36*
X142450667Y-90406000D02*
X142366000Y-90490666D01*
X142281334Y-90406000D01*
X142366000Y-90321333D01*
X142450667Y-90406000D01*
X142450667Y-90406000D01*
G37*
X142450667Y-90406000D02*
X142366000Y-90490666D01*
X142281334Y-90406000D01*
X142366000Y-90321333D01*
X142450667Y-90406000D01*
G36*
X108922667Y-90406000D02*
X108838000Y-90490666D01*
X108753334Y-90406000D01*
X108838000Y-90321333D01*
X108922667Y-90406000D01*
X108922667Y-90406000D01*
G37*
X108922667Y-90406000D02*
X108838000Y-90490666D01*
X108753334Y-90406000D01*
X108838000Y-90321333D01*
X108922667Y-90406000D01*
G36*
X204088000Y-91252666D02*
X204003334Y-91337333D01*
X203918667Y-91252666D01*
X204003334Y-91168000D01*
X204088000Y-91252666D01*
X204088000Y-91252666D01*
G37*
X204088000Y-91252666D02*
X204003334Y-91337333D01*
X203918667Y-91252666D01*
X204003334Y-91168000D01*
X204088000Y-91252666D01*
G36*
X112140000Y-91252666D02*
X112055334Y-91337333D01*
X111970667Y-91252666D01*
X112055334Y-91168000D01*
X112140000Y-91252666D01*
X112140000Y-91252666D01*
G37*
X112140000Y-91252666D02*
X112055334Y-91337333D01*
X111970667Y-91252666D01*
X112055334Y-91168000D01*
X112140000Y-91252666D01*
G36*
X203580000Y-91760666D02*
X203495334Y-91845333D01*
X203410667Y-91760666D01*
X203495334Y-91676000D01*
X203580000Y-91760666D01*
X203580000Y-91760666D01*
G37*
X203580000Y-91760666D02*
X203495334Y-91845333D01*
X203410667Y-91760666D01*
X203495334Y-91676000D01*
X203580000Y-91760666D01*
G36*
X148038667Y-91760666D02*
X147954000Y-91845333D01*
X147869334Y-91760666D01*
X147954000Y-91676000D01*
X148038667Y-91760666D01*
X148038667Y-91760666D01*
G37*
X148038667Y-91760666D02*
X147954000Y-91845333D01*
X147869334Y-91760666D01*
X147954000Y-91676000D01*
X148038667Y-91760666D01*
G36*
X201209334Y-91930000D02*
X201124667Y-92014666D01*
X201040000Y-91930000D01*
X201124667Y-91845333D01*
X201209334Y-91930000D01*
X201209334Y-91930000D01*
G37*
X201209334Y-91930000D02*
X201124667Y-92014666D01*
X201040000Y-91930000D01*
X201124667Y-91845333D01*
X201209334Y-91930000D01*
G36*
X202225334Y-92946000D02*
X202140667Y-93030666D01*
X202056000Y-92946000D01*
X202140667Y-92861333D01*
X202225334Y-92946000D01*
X202225334Y-92946000D01*
G37*
X202225334Y-92946000D02*
X202140667Y-93030666D01*
X202056000Y-92946000D01*
X202140667Y-92861333D01*
X202225334Y-92946000D01*
G36*
X191896000Y-93284666D02*
X191811334Y-93369333D01*
X191726667Y-93284666D01*
X191811334Y-93200000D01*
X191896000Y-93284666D01*
X191896000Y-93284666D01*
G37*
X191896000Y-93284666D02*
X191811334Y-93369333D01*
X191726667Y-93284666D01*
X191811334Y-93200000D01*
X191896000Y-93284666D01*
G36*
X203918667Y-93792666D02*
X203834000Y-93877333D01*
X203749334Y-93792666D01*
X203834000Y-93708000D01*
X203918667Y-93792666D01*
X203918667Y-93792666D01*
G37*
X203918667Y-93792666D02*
X203834000Y-93877333D01*
X203749334Y-93792666D01*
X203834000Y-93708000D01*
X203918667Y-93792666D01*
G36*
X197484000Y-94131333D02*
X197399334Y-94216000D01*
X197314667Y-94131333D01*
X197399334Y-94046666D01*
X197484000Y-94131333D01*
X197484000Y-94131333D01*
G37*
X197484000Y-94131333D02*
X197399334Y-94216000D01*
X197314667Y-94131333D01*
X197399334Y-94046666D01*
X197484000Y-94131333D01*
G36*
X195621334Y-94808666D02*
X195536667Y-94893333D01*
X195452000Y-94808666D01*
X195536667Y-94724000D01*
X195621334Y-94808666D01*
X195621334Y-94808666D01*
G37*
X195621334Y-94808666D02*
X195536667Y-94893333D01*
X195452000Y-94808666D01*
X195536667Y-94724000D01*
X195621334Y-94808666D01*
G36*
X202225334Y-95316666D02*
X202140667Y-95401333D01*
X202056000Y-95316666D01*
X202140667Y-95232000D01*
X202225334Y-95316666D01*
X202225334Y-95316666D01*
G37*
X202225334Y-95316666D02*
X202140667Y-95401333D01*
X202056000Y-95316666D01*
X202140667Y-95232000D01*
X202225334Y-95316666D01*
G36*
X200870667Y-95486000D02*
X200786000Y-95570666D01*
X200701334Y-95486000D01*
X200786000Y-95401333D01*
X200870667Y-95486000D01*
X200870667Y-95486000D01*
G37*
X200870667Y-95486000D02*
X200786000Y-95570666D01*
X200701334Y-95486000D01*
X200786000Y-95401333D01*
X200870667Y-95486000D01*
G36*
X98254667Y-95486000D02*
X98170000Y-95570666D01*
X98085334Y-95486000D01*
X98170000Y-95401333D01*
X98254667Y-95486000D01*
X98254667Y-95486000D01*
G37*
X98254667Y-95486000D02*
X98170000Y-95570666D01*
X98085334Y-95486000D01*
X98170000Y-95401333D01*
X98254667Y-95486000D01*
G36*
X134153334Y-96502000D02*
X134068667Y-96586666D01*
X133984000Y-96502000D01*
X134068667Y-96417333D01*
X134153334Y-96502000D01*
X134153334Y-96502000D01*
G37*
X134153334Y-96502000D02*
X134068667Y-96586666D01*
X133984000Y-96502000D01*
X134068667Y-96417333D01*
X134153334Y-96502000D01*
G36*
X204088000Y-97179333D02*
X204003334Y-97264000D01*
X203918667Y-97179333D01*
X204003334Y-97094666D01*
X204088000Y-97179333D01*
X204088000Y-97179333D01*
G37*
X204088000Y-97179333D02*
X204003334Y-97264000D01*
X203918667Y-97179333D01*
X204003334Y-97094666D01*
X204088000Y-97179333D01*
G36*
X188848000Y-97179333D02*
X188763334Y-97264000D01*
X188678667Y-97179333D01*
X188763334Y-97094666D01*
X188848000Y-97179333D01*
X188848000Y-97179333D01*
G37*
X188848000Y-97179333D02*
X188763334Y-97264000D01*
X188678667Y-97179333D01*
X188763334Y-97094666D01*
X188848000Y-97179333D01*
G36*
X118066667Y-97179333D02*
X117982000Y-97264000D01*
X117897334Y-97179333D01*
X117982000Y-97094666D01*
X118066667Y-97179333D01*
X118066667Y-97179333D01*
G37*
X118066667Y-97179333D02*
X117982000Y-97264000D01*
X117897334Y-97179333D01*
X117982000Y-97094666D01*
X118066667Y-97179333D01*
G36*
X202902667Y-97348666D02*
X202818000Y-97433333D01*
X202733334Y-97348666D01*
X202818000Y-97264000D01*
X202902667Y-97348666D01*
X202902667Y-97348666D01*
G37*
X202902667Y-97348666D02*
X202818000Y-97433333D01*
X202733334Y-97348666D01*
X202818000Y-97264000D01*
X202902667Y-97348666D01*
G36*
X163617334Y-97518000D02*
X163532667Y-97602666D01*
X163448000Y-97518000D01*
X163532667Y-97433333D01*
X163617334Y-97518000D01*
X163617334Y-97518000D01*
G37*
X163617334Y-97518000D02*
X163532667Y-97602666D01*
X163448000Y-97518000D01*
X163532667Y-97433333D01*
X163617334Y-97518000D01*
G36*
X201717334Y-98534000D02*
X201632667Y-98618666D01*
X201548000Y-98534000D01*
X201632667Y-98449333D01*
X201717334Y-98534000D01*
X201717334Y-98534000D01*
G37*
X201717334Y-98534000D02*
X201632667Y-98618666D01*
X201548000Y-98534000D01*
X201632667Y-98449333D01*
X201717334Y-98534000D01*
G36*
X193081334Y-98703333D02*
X192996667Y-98788000D01*
X192912000Y-98703333D01*
X192996667Y-98618666D01*
X193081334Y-98703333D01*
X193081334Y-98703333D01*
G37*
X193081334Y-98703333D02*
X192996667Y-98788000D01*
X192912000Y-98703333D01*
X192996667Y-98618666D01*
X193081334Y-98703333D01*
G36*
X116542667Y-99380666D02*
X116458000Y-99465333D01*
X116373334Y-99380666D01*
X116458000Y-99296000D01*
X116542667Y-99380666D01*
X116542667Y-99380666D01*
G37*
X116542667Y-99380666D02*
X116458000Y-99465333D01*
X116373334Y-99380666D01*
X116458000Y-99296000D01*
X116542667Y-99380666D01*
G36*
X189017334Y-99888666D02*
X188932667Y-99973333D01*
X188848000Y-99888666D01*
X188932667Y-99804000D01*
X189017334Y-99888666D01*
X189017334Y-99888666D01*
G37*
X189017334Y-99888666D02*
X188932667Y-99973333D01*
X188848000Y-99888666D01*
X188932667Y-99804000D01*
X189017334Y-99888666D01*
G36*
X117558667Y-100566000D02*
X117474000Y-100650666D01*
X117389334Y-100566000D01*
X117474000Y-100481333D01*
X117558667Y-100566000D01*
X117558667Y-100566000D01*
G37*
X117558667Y-100566000D02*
X117474000Y-100650666D01*
X117389334Y-100566000D01*
X117474000Y-100481333D01*
X117558667Y-100566000D01*
G36*
X203241334Y-100735333D02*
X203156667Y-100820000D01*
X203072000Y-100735333D01*
X203156667Y-100650666D01*
X203241334Y-100735333D01*
X203241334Y-100735333D01*
G37*
X203241334Y-100735333D02*
X203156667Y-100820000D01*
X203072000Y-100735333D01*
X203156667Y-100650666D01*
X203241334Y-100735333D01*
G36*
X197822667Y-100904666D02*
X197738000Y-100989333D01*
X197653334Y-100904666D01*
X197738000Y-100820000D01*
X197822667Y-100904666D01*
X197822667Y-100904666D01*
G37*
X197822667Y-100904666D02*
X197738000Y-100989333D01*
X197653334Y-100904666D01*
X197738000Y-100820000D01*
X197822667Y-100904666D01*
G36*
X191049334Y-100904666D02*
X190964667Y-100989333D01*
X190880000Y-100904666D01*
X190964667Y-100820000D01*
X191049334Y-100904666D01*
X191049334Y-100904666D01*
G37*
X191049334Y-100904666D02*
X190964667Y-100989333D01*
X190880000Y-100904666D01*
X190964667Y-100820000D01*
X191049334Y-100904666D01*
G36*
X117897334Y-101074000D02*
X117812667Y-101158666D01*
X117728000Y-101074000D01*
X117812667Y-100989333D01*
X117897334Y-101074000D01*
X117897334Y-101074000D01*
G37*
X117897334Y-101074000D02*
X117812667Y-101158666D01*
X117728000Y-101074000D01*
X117812667Y-100989333D01*
X117897334Y-101074000D01*
G36*
X151086667Y-101582000D02*
X151002000Y-101666666D01*
X150917334Y-101582000D01*
X151002000Y-101497333D01*
X151086667Y-101582000D01*
X151086667Y-101582000D01*
G37*
X151086667Y-101582000D02*
X151002000Y-101666666D01*
X150917334Y-101582000D01*
X151002000Y-101497333D01*
X151086667Y-101582000D01*
G36*
X201378667Y-101920666D02*
X201294000Y-102005333D01*
X201209334Y-101920666D01*
X201294000Y-101836000D01*
X201378667Y-101920666D01*
X201378667Y-101920666D01*
G37*
X201378667Y-101920666D02*
X201294000Y-102005333D01*
X201209334Y-101920666D01*
X201294000Y-101836000D01*
X201378667Y-101920666D01*
G36*
X197484000Y-104122000D02*
X197399334Y-104206666D01*
X197314667Y-104122000D01*
X197399334Y-104037333D01*
X197484000Y-104122000D01*
X197484000Y-104122000D01*
G37*
X197484000Y-104122000D02*
X197399334Y-104206666D01*
X197314667Y-104122000D01*
X197399334Y-104037333D01*
X197484000Y-104122000D01*
G36*
X102657334Y-104460666D02*
X102572667Y-104545333D01*
X102488000Y-104460666D01*
X102572667Y-104376000D01*
X102657334Y-104460666D01*
X102657334Y-104460666D01*
G37*
X102657334Y-104460666D02*
X102572667Y-104545333D01*
X102488000Y-104460666D01*
X102572667Y-104376000D01*
X102657334Y-104460666D01*
G36*
X193250667Y-104630000D02*
X193166000Y-104714666D01*
X193081334Y-104630000D01*
X193166000Y-104545333D01*
X193250667Y-104630000D01*
X193250667Y-104630000D01*
G37*
X193250667Y-104630000D02*
X193166000Y-104714666D01*
X193081334Y-104630000D01*
X193166000Y-104545333D01*
X193250667Y-104630000D01*
G36*
X107737334Y-107508666D02*
X107652667Y-107593333D01*
X107568000Y-107508666D01*
X107652667Y-107424000D01*
X107737334Y-107508666D01*
X107737334Y-107508666D01*
G37*
X107737334Y-107508666D02*
X107652667Y-107593333D01*
X107568000Y-107508666D01*
X107652667Y-107424000D01*
X107737334Y-107508666D01*
G36*
X190033334Y-107678000D02*
X189948667Y-107762666D01*
X189864000Y-107678000D01*
X189948667Y-107593333D01*
X190033334Y-107678000D01*
X190033334Y-107678000D01*
G37*
X190033334Y-107678000D02*
X189948667Y-107762666D01*
X189864000Y-107678000D01*
X189948667Y-107593333D01*
X190033334Y-107678000D01*
G36*
X183429334Y-109540666D02*
X183344667Y-109625333D01*
X183260000Y-109540666D01*
X183344667Y-109456000D01*
X183429334Y-109540666D01*
X183429334Y-109540666D01*
G37*
X183429334Y-109540666D02*
X183344667Y-109625333D01*
X183260000Y-109540666D01*
X183344667Y-109456000D01*
X183429334Y-109540666D01*
G36*
X97069334Y-110387333D02*
X96984667Y-110472000D01*
X96900000Y-110387333D01*
X96984667Y-110302666D01*
X97069334Y-110387333D01*
X97069334Y-110387333D01*
G37*
X97069334Y-110387333D02*
X96984667Y-110472000D01*
X96900000Y-110387333D01*
X96984667Y-110302666D01*
X97069334Y-110387333D01*
G36*
X158481443Y-104580482D02*
X158932498Y-104860524D01*
X159108723Y-104976784D01*
X159712082Y-105426314D01*
X160128568Y-105885105D01*
X160385411Y-106424478D01*
X160509841Y-107115753D01*
X160529090Y-108030252D01*
X160505664Y-108635580D01*
X160452195Y-109423661D01*
X160380615Y-110124656D01*
X160301830Y-110644017D01*
X160251256Y-110841179D01*
X160030261Y-111208429D01*
X159765922Y-111383993D01*
X159544900Y-111323446D01*
X159490931Y-111230958D01*
X159293473Y-111009489D01*
X158908908Y-110740497D01*
X158757250Y-110655172D01*
X158131056Y-110226347D01*
X157679513Y-109655649D01*
X157343313Y-108905666D01*
X157168404Y-108504846D01*
X157013055Y-108285008D01*
X156979316Y-108270666D01*
X156861938Y-108139507D01*
X156874055Y-107835977D01*
X157002809Y-107495003D01*
X157061702Y-107406307D01*
X157390384Y-107133836D01*
X157645482Y-107015007D01*
X157932638Y-106773897D01*
X158187074Y-106315402D01*
X158368049Y-105760707D01*
X158434822Y-105230999D01*
X158364256Y-104877004D01*
X158232310Y-104593412D01*
X158259709Y-104493008D01*
X158481443Y-104580482D01*
X158481443Y-104580482D01*
G37*
X158481443Y-104580482D02*
X158932498Y-104860524D01*
X159108723Y-104976784D01*
X159712082Y-105426314D01*
X160128568Y-105885105D01*
X160385411Y-106424478D01*
X160509841Y-107115753D01*
X160529090Y-108030252D01*
X160505664Y-108635580D01*
X160452195Y-109423661D01*
X160380615Y-110124656D01*
X160301830Y-110644017D01*
X160251256Y-110841179D01*
X160030261Y-111208429D01*
X159765922Y-111383993D01*
X159544900Y-111323446D01*
X159490931Y-111230958D01*
X159293473Y-111009489D01*
X158908908Y-110740497D01*
X158757250Y-110655172D01*
X158131056Y-110226347D01*
X157679513Y-109655649D01*
X157343313Y-108905666D01*
X157168404Y-108504846D01*
X157013055Y-108285008D01*
X156979316Y-108270666D01*
X156861938Y-108139507D01*
X156874055Y-107835977D01*
X157002809Y-107495003D01*
X157061702Y-107406307D01*
X157390384Y-107133836D01*
X157645482Y-107015007D01*
X157932638Y-106773897D01*
X158187074Y-106315402D01*
X158368049Y-105760707D01*
X158434822Y-105230999D01*
X158364256Y-104877004D01*
X158232310Y-104593412D01*
X158259709Y-104493008D01*
X158481443Y-104580482D01*
G36*
X204426667Y-112080666D02*
X204342000Y-112165333D01*
X204257334Y-112080666D01*
X204342000Y-111996000D01*
X204426667Y-112080666D01*
X204426667Y-112080666D01*
G37*
X204426667Y-112080666D02*
X204342000Y-112165333D01*
X204257334Y-112080666D01*
X204342000Y-111996000D01*
X204426667Y-112080666D01*
G36*
X96900000Y-112419333D02*
X96815334Y-112504000D01*
X96730667Y-112419333D01*
X96815334Y-112334666D01*
X96900000Y-112419333D01*
X96900000Y-112419333D01*
G37*
X96900000Y-112419333D02*
X96815334Y-112504000D01*
X96730667Y-112419333D01*
X96815334Y-112334666D01*
X96900000Y-112419333D01*
G36*
X98932000Y-113096666D02*
X98847334Y-113181333D01*
X98762667Y-113096666D01*
X98847334Y-113012000D01*
X98932000Y-113096666D01*
X98932000Y-113096666D01*
G37*
X98932000Y-113096666D02*
X98847334Y-113181333D01*
X98762667Y-113096666D01*
X98847334Y-113012000D01*
X98932000Y-113096666D01*
G36*
X203580000Y-113604666D02*
X203495334Y-113689333D01*
X203410667Y-113604666D01*
X203495334Y-113520000D01*
X203580000Y-113604666D01*
X203580000Y-113604666D01*
G37*
X203580000Y-113604666D02*
X203495334Y-113689333D01*
X203410667Y-113604666D01*
X203495334Y-113520000D01*
X203580000Y-113604666D01*
G36*
X156844000Y-114112666D02*
X156759334Y-114197333D01*
X156674667Y-114112666D01*
X156759334Y-114028000D01*
X156844000Y-114112666D01*
X156844000Y-114112666D01*
G37*
X156844000Y-114112666D02*
X156759334Y-114197333D01*
X156674667Y-114112666D01*
X156759334Y-114028000D01*
X156844000Y-114112666D01*
G36*
X201886667Y-115467333D02*
X201802000Y-115552000D01*
X201717334Y-115467333D01*
X201802000Y-115382666D01*
X201886667Y-115467333D01*
X201886667Y-115467333D01*
G37*
X201886667Y-115467333D02*
X201802000Y-115552000D01*
X201717334Y-115467333D01*
X201802000Y-115382666D01*
X201886667Y-115467333D01*
G36*
X114285489Y-108678684D02*
X114696096Y-108863406D01*
X115256331Y-109128506D01*
X115468453Y-109231327D01*
X116500978Y-109791691D01*
X117301269Y-110380831D01*
X117942477Y-111076800D01*
X118497755Y-111957649D01*
X118992585Y-112991503D01*
X119300532Y-113721074D01*
X119548522Y-114354962D01*
X119708587Y-114818591D01*
X119754615Y-115023503D01*
X119647237Y-115387423D01*
X119407833Y-115723253D01*
X119141038Y-115888925D01*
X119115934Y-115890666D01*
X118876685Y-115768594D01*
X118711269Y-115594333D01*
X118468161Y-115359219D01*
X118028651Y-115009658D01*
X117480773Y-114615023D01*
X117389334Y-114552602D01*
X116630156Y-113993626D01*
X116004274Y-113445822D01*
X115550337Y-112951242D01*
X115306990Y-112551939D01*
X115311510Y-112291702D01*
X115470473Y-111830666D01*
X115417410Y-111192516D01*
X115168877Y-110450027D01*
X114741433Y-109675971D01*
X114703684Y-109620218D01*
X114379693Y-109131370D01*
X114163719Y-108772486D01*
X114096569Y-108612057D01*
X114101424Y-108609333D01*
X114285489Y-108678684D01*
X114285489Y-108678684D01*
G37*
X114285489Y-108678684D02*
X114696096Y-108863406D01*
X115256331Y-109128506D01*
X115468453Y-109231327D01*
X116500978Y-109791691D01*
X117301269Y-110380831D01*
X117942477Y-111076800D01*
X118497755Y-111957649D01*
X118992585Y-112991503D01*
X119300532Y-113721074D01*
X119548522Y-114354962D01*
X119708587Y-114818591D01*
X119754615Y-115023503D01*
X119647237Y-115387423D01*
X119407833Y-115723253D01*
X119141038Y-115888925D01*
X119115934Y-115890666D01*
X118876685Y-115768594D01*
X118711269Y-115594333D01*
X118468161Y-115359219D01*
X118028651Y-115009658D01*
X117480773Y-114615023D01*
X117389334Y-114552602D01*
X116630156Y-113993626D01*
X116004274Y-113445822D01*
X115550337Y-112951242D01*
X115306990Y-112551939D01*
X115311510Y-112291702D01*
X115470473Y-111830666D01*
X115417410Y-111192516D01*
X115168877Y-110450027D01*
X114741433Y-109675971D01*
X114703684Y-109620218D01*
X114379693Y-109131370D01*
X114163719Y-108772486D01*
X114096569Y-108612057D01*
X114101424Y-108609333D01*
X114285489Y-108678684D01*
G36*
X203410667Y-116483333D02*
X203326000Y-116568000D01*
X203241334Y-116483333D01*
X203326000Y-116398666D01*
X203410667Y-116483333D01*
X203410667Y-116483333D01*
G37*
X203410667Y-116483333D02*
X203326000Y-116568000D01*
X203241334Y-116483333D01*
X203326000Y-116398666D01*
X203410667Y-116483333D01*
G36*
X185461334Y-117668666D02*
X185376667Y-117753333D01*
X185292000Y-117668666D01*
X185376667Y-117584000D01*
X185461334Y-117668666D01*
X185461334Y-117668666D01*
G37*
X185461334Y-117668666D02*
X185376667Y-117753333D01*
X185292000Y-117668666D01*
X185376667Y-117584000D01*
X185461334Y-117668666D01*
G36*
X179534667Y-118007333D02*
X179450000Y-118092000D01*
X179365334Y-118007333D01*
X179450000Y-117922666D01*
X179534667Y-118007333D01*
X179534667Y-118007333D01*
G37*
X179534667Y-118007333D02*
X179450000Y-118092000D01*
X179365334Y-118007333D01*
X179450000Y-117922666D01*
X179534667Y-118007333D01*
G36*
X181905334Y-118854000D02*
X181820667Y-118938666D01*
X181736000Y-118854000D01*
X181820667Y-118769333D01*
X181905334Y-118854000D01*
X181905334Y-118854000D01*
G37*
X181905334Y-118854000D02*
X181820667Y-118938666D01*
X181736000Y-118854000D01*
X181820667Y-118769333D01*
X181905334Y-118854000D01*
G36*
X190202667Y-119192666D02*
X190118000Y-119277333D01*
X190033334Y-119192666D01*
X190118000Y-119108000D01*
X190202667Y-119192666D01*
X190202667Y-119192666D01*
G37*
X190202667Y-119192666D02*
X190118000Y-119277333D01*
X190033334Y-119192666D01*
X190118000Y-119108000D01*
X190202667Y-119192666D01*
G36*
X111462667Y-119362000D02*
X111378000Y-119446666D01*
X111293334Y-119362000D01*
X111378000Y-119277333D01*
X111462667Y-119362000D01*
X111462667Y-119362000D01*
G37*
X111462667Y-119362000D02*
X111378000Y-119446666D01*
X111293334Y-119362000D01*
X111378000Y-119277333D01*
X111462667Y-119362000D01*
G36*
X198161334Y-120886000D02*
X198076667Y-120970666D01*
X197992000Y-120886000D01*
X198076667Y-120801333D01*
X198161334Y-120886000D01*
X198161334Y-120886000D01*
G37*
X198161334Y-120886000D02*
X198076667Y-120970666D01*
X197992000Y-120886000D01*
X198076667Y-120801333D01*
X198161334Y-120886000D01*
G36*
X197822667Y-121224666D02*
X197738000Y-121309333D01*
X197653334Y-121224666D01*
X197738000Y-121140000D01*
X197822667Y-121224666D01*
X197822667Y-121224666D01*
G37*
X197822667Y-121224666D02*
X197738000Y-121309333D01*
X197653334Y-121224666D01*
X197738000Y-121140000D01*
X197822667Y-121224666D01*
G36*
X185461334Y-121394000D02*
X185376667Y-121478666D01*
X185292000Y-121394000D01*
X185376667Y-121309333D01*
X185461334Y-121394000D01*
X185461334Y-121394000D01*
G37*
X185461334Y-121394000D02*
X185376667Y-121478666D01*
X185292000Y-121394000D01*
X185376667Y-121309333D01*
X185461334Y-121394000D01*
G36*
X127718667Y-121732666D02*
X127634000Y-121817333D01*
X127549334Y-121732666D01*
X127634000Y-121648000D01*
X127718667Y-121732666D01*
X127718667Y-121732666D01*
G37*
X127718667Y-121732666D02*
X127634000Y-121817333D01*
X127549334Y-121732666D01*
X127634000Y-121648000D01*
X127718667Y-121732666D01*
G36*
X191388000Y-122579333D02*
X191303334Y-122664000D01*
X191218667Y-122579333D01*
X191303334Y-122494666D01*
X191388000Y-122579333D01*
X191388000Y-122579333D01*
G37*
X191388000Y-122579333D02*
X191303334Y-122664000D01*
X191218667Y-122579333D01*
X191303334Y-122494666D01*
X191388000Y-122579333D01*
G36*
X116712000Y-122918000D02*
X116627334Y-123002666D01*
X116542667Y-122918000D01*
X116627334Y-122833333D01*
X116712000Y-122918000D01*
X116712000Y-122918000D01*
G37*
X116712000Y-122918000D02*
X116627334Y-123002666D01*
X116542667Y-122918000D01*
X116627334Y-122833333D01*
X116712000Y-122918000D01*
G36*
X203918667Y-123087333D02*
X203834000Y-123172000D01*
X203749334Y-123087333D01*
X203834000Y-123002666D01*
X203918667Y-123087333D01*
X203918667Y-123087333D01*
G37*
X203918667Y-123087333D02*
X203834000Y-123172000D01*
X203749334Y-123087333D01*
X203834000Y-123002666D01*
X203918667Y-123087333D01*
G36*
X184614667Y-123087333D02*
X184530000Y-123172000D01*
X184445334Y-123087333D01*
X184530000Y-123002666D01*
X184614667Y-123087333D01*
X184614667Y-123087333D01*
G37*
X184614667Y-123087333D02*
X184530000Y-123172000D01*
X184445334Y-123087333D01*
X184530000Y-123002666D01*
X184614667Y-123087333D01*
G36*
X140080000Y-123934000D02*
X139995334Y-124018666D01*
X139910667Y-123934000D01*
X139995334Y-123849333D01*
X140080000Y-123934000D01*
X140080000Y-123934000D01*
G37*
X140080000Y-123934000D02*
X139995334Y-124018666D01*
X139910667Y-123934000D01*
X139995334Y-123849333D01*
X140080000Y-123934000D01*
G36*
X113156000Y-124442000D02*
X113071334Y-124526666D01*
X112986667Y-124442000D01*
X113071334Y-124357333D01*
X113156000Y-124442000D01*
X113156000Y-124442000D01*
G37*
X113156000Y-124442000D02*
X113071334Y-124526666D01*
X112986667Y-124442000D01*
X113071334Y-124357333D01*
X113156000Y-124442000D01*
G36*
X110277334Y-124780666D02*
X110192667Y-124865333D01*
X110108000Y-124780666D01*
X110192667Y-124696000D01*
X110277334Y-124780666D01*
X110277334Y-124780666D01*
G37*
X110277334Y-124780666D02*
X110192667Y-124865333D01*
X110108000Y-124780666D01*
X110192667Y-124696000D01*
X110277334Y-124780666D01*
G36*
X187662667Y-125288666D02*
X187578000Y-125373333D01*
X187493334Y-125288666D01*
X187578000Y-125204000D01*
X187662667Y-125288666D01*
X187662667Y-125288666D01*
G37*
X187662667Y-125288666D02*
X187578000Y-125373333D01*
X187493334Y-125288666D01*
X187578000Y-125204000D01*
X187662667Y-125288666D01*
G36*
X115188000Y-125627333D02*
X115103334Y-125712000D01*
X115018667Y-125627333D01*
X115103334Y-125542666D01*
X115188000Y-125627333D01*
X115188000Y-125627333D01*
G37*
X115188000Y-125627333D02*
X115103334Y-125712000D01*
X115018667Y-125627333D01*
X115103334Y-125542666D01*
X115188000Y-125627333D01*
G36*
X203749334Y-126135333D02*
X203664667Y-126220000D01*
X203580000Y-126135333D01*
X203664667Y-126050666D01*
X203749334Y-126135333D01*
X203749334Y-126135333D01*
G37*
X203749334Y-126135333D02*
X203664667Y-126220000D01*
X203580000Y-126135333D01*
X203664667Y-126050666D01*
X203749334Y-126135333D01*
G36*
X108076000Y-126474000D02*
X107991334Y-126558666D01*
X107906667Y-126474000D01*
X107991334Y-126389333D01*
X108076000Y-126474000D01*
X108076000Y-126474000D01*
G37*
X108076000Y-126474000D02*
X107991334Y-126558666D01*
X107906667Y-126474000D01*
X107991334Y-126389333D01*
X108076000Y-126474000D01*
G36*
X188509334Y-126643333D02*
X188424667Y-126728000D01*
X188340000Y-126643333D01*
X188424667Y-126558666D01*
X188509334Y-126643333D01*
X188509334Y-126643333D01*
G37*
X188509334Y-126643333D02*
X188424667Y-126728000D01*
X188340000Y-126643333D01*
X188424667Y-126558666D01*
X188509334Y-126643333D01*
G36*
X187832000Y-126643333D02*
X187747334Y-126728000D01*
X187662667Y-126643333D01*
X187747334Y-126558666D01*
X187832000Y-126643333D01*
X187832000Y-126643333D01*
G37*
X187832000Y-126643333D02*
X187747334Y-126728000D01*
X187662667Y-126643333D01*
X187747334Y-126558666D01*
X187832000Y-126643333D01*
G36*
X202564000Y-126812666D02*
X202479334Y-126897333D01*
X202394667Y-126812666D01*
X202479334Y-126728000D01*
X202564000Y-126812666D01*
X202564000Y-126812666D01*
G37*
X202564000Y-126812666D02*
X202479334Y-126897333D01*
X202394667Y-126812666D01*
X202479334Y-126728000D01*
X202564000Y-126812666D01*
G36*
X113325334Y-126812666D02*
X113240667Y-126897333D01*
X113156000Y-126812666D01*
X113240667Y-126728000D01*
X113325334Y-126812666D01*
X113325334Y-126812666D01*
G37*
X113325334Y-126812666D02*
X113240667Y-126897333D01*
X113156000Y-126812666D01*
X113240667Y-126728000D01*
X113325334Y-126812666D01*
G36*
X158706667Y-126982000D02*
X158622000Y-127066666D01*
X158537334Y-126982000D01*
X158622000Y-126897333D01*
X158706667Y-126982000D01*
X158706667Y-126982000D01*
G37*
X158706667Y-126982000D02*
X158622000Y-127066666D01*
X158537334Y-126982000D01*
X158622000Y-126897333D01*
X158706667Y-126982000D01*
G36*
X177595634Y-120873623D02*
X178011749Y-121057073D01*
X178567159Y-121380782D01*
X179199601Y-121808702D01*
X179800770Y-122267337D01*
X180371522Y-122729015D01*
X180755876Y-123038100D01*
X181030597Y-123255165D01*
X181272451Y-123440784D01*
X181558202Y-123655531D01*
X181593814Y-123682188D01*
X181917805Y-123979896D01*
X182355940Y-124453507D01*
X182820205Y-125007215D01*
X182877273Y-125079301D01*
X183296105Y-125631270D01*
X183528300Y-126006683D01*
X183609152Y-126284804D01*
X183573951Y-126544897D01*
X183555681Y-126602956D01*
X183401351Y-126936104D01*
X183259738Y-127066666D01*
X182982211Y-127118325D01*
X182892850Y-127146778D01*
X182563553Y-127137349D01*
X182399242Y-127069502D01*
X182048840Y-126930976D01*
X181572775Y-126813783D01*
X181556942Y-126810953D01*
X181144633Y-126710773D01*
X180903547Y-126601091D01*
X180893701Y-126590384D01*
X180708522Y-126430005D01*
X180347473Y-126167171D01*
X180176307Y-126050431D01*
X179735702Y-125700690D01*
X179403259Y-125341297D01*
X179343360Y-125247609D01*
X179142330Y-124959066D01*
X179004011Y-124865333D01*
X178799923Y-124713310D01*
X178610208Y-124324193D01*
X178477069Y-123798410D01*
X178446461Y-123538547D01*
X178337723Y-123059159D01*
X178100845Y-122443807D01*
X177846973Y-121936625D01*
X177578879Y-121428347D01*
X177411554Y-121043377D01*
X177381077Y-120866479D01*
X177595634Y-120873623D01*
X177595634Y-120873623D01*
G37*
X177595634Y-120873623D02*
X178011749Y-121057073D01*
X178567159Y-121380782D01*
X179199601Y-121808702D01*
X179800770Y-122267337D01*
X180371522Y-122729015D01*
X180755876Y-123038100D01*
X181030597Y-123255165D01*
X181272451Y-123440784D01*
X181558202Y-123655531D01*
X181593814Y-123682188D01*
X181917805Y-123979896D01*
X182355940Y-124453507D01*
X182820205Y-125007215D01*
X182877273Y-125079301D01*
X183296105Y-125631270D01*
X183528300Y-126006683D01*
X183609152Y-126284804D01*
X183573951Y-126544897D01*
X183555681Y-126602956D01*
X183401351Y-126936104D01*
X183259738Y-127066666D01*
X182982211Y-127118325D01*
X182892850Y-127146778D01*
X182563553Y-127137349D01*
X182399242Y-127069502D01*
X182048840Y-126930976D01*
X181572775Y-126813783D01*
X181556942Y-126810953D01*
X181144633Y-126710773D01*
X180903547Y-126601091D01*
X180893701Y-126590384D01*
X180708522Y-126430005D01*
X180347473Y-126167171D01*
X180176307Y-126050431D01*
X179735702Y-125700690D01*
X179403259Y-125341297D01*
X179343360Y-125247609D01*
X179142330Y-124959066D01*
X179004011Y-124865333D01*
X178799923Y-124713310D01*
X178610208Y-124324193D01*
X178477069Y-123798410D01*
X178446461Y-123538547D01*
X178337723Y-123059159D01*
X178100845Y-122443807D01*
X177846973Y-121936625D01*
X177578879Y-121428347D01*
X177411554Y-121043377D01*
X177381077Y-120866479D01*
X177595634Y-120873623D01*
G36*
X145668000Y-127320666D02*
X145583334Y-127405333D01*
X145498667Y-127320666D01*
X145583334Y-127236000D01*
X145668000Y-127320666D01*
X145668000Y-127320666D01*
G37*
X145668000Y-127320666D02*
X145583334Y-127405333D01*
X145498667Y-127320666D01*
X145583334Y-127236000D01*
X145668000Y-127320666D01*
G36*
X145329334Y-127320666D02*
X145244667Y-127405333D01*
X145160000Y-127320666D01*
X145244667Y-127236000D01*
X145329334Y-127320666D01*
X145329334Y-127320666D01*
G37*
X145329334Y-127320666D02*
X145244667Y-127405333D01*
X145160000Y-127320666D01*
X145244667Y-127236000D01*
X145329334Y-127320666D01*
G36*
X111293334Y-127659333D02*
X111208667Y-127744000D01*
X111124000Y-127659333D01*
X111208667Y-127574666D01*
X111293334Y-127659333D01*
X111293334Y-127659333D01*
G37*
X111293334Y-127659333D02*
X111208667Y-127744000D01*
X111124000Y-127659333D01*
X111208667Y-127574666D01*
X111293334Y-127659333D01*
G36*
X175056194Y-94711302D02*
X175724667Y-94900478D01*
X176228934Y-95048360D01*
X176827145Y-95207202D01*
X176944713Y-95236382D01*
X177644633Y-95498622D01*
X178060085Y-95858950D01*
X178173196Y-96290442D01*
X177966095Y-96766176D01*
X177962948Y-96770284D01*
X177710158Y-96974390D01*
X177258365Y-97157629D01*
X176561507Y-97334386D01*
X175573522Y-97519044D01*
X175555334Y-97522101D01*
X175176114Y-97592120D01*
X174562906Y-97712194D01*
X173813216Y-97863036D01*
X173299928Y-97968237D01*
X171552523Y-98329097D01*
X171641333Y-99193548D01*
X171695848Y-99806043D01*
X171731432Y-100359498D01*
X171737739Y-100543416D01*
X171779298Y-100879461D01*
X171943629Y-100959183D01*
X172126334Y-100919870D01*
X172616031Y-100801295D01*
X173317632Y-100657470D01*
X174107950Y-100512236D01*
X174863798Y-100389434D01*
X174878000Y-100387329D01*
X175518084Y-100323427D01*
X176399716Y-100276587D01*
X177429023Y-100247569D01*
X178512131Y-100237136D01*
X179555167Y-100246048D01*
X180464257Y-100275067D01*
X181145529Y-100324954D01*
X181233552Y-100335782D01*
X182201423Y-100467042D01*
X182911672Y-100567996D01*
X183442527Y-100651918D01*
X183872218Y-100732083D01*
X184278972Y-100821764D01*
X184699334Y-100923878D01*
X186074484Y-101305698D01*
X187260156Y-101716527D01*
X188224283Y-102141103D01*
X188934797Y-102564163D01*
X189359631Y-102970445D01*
X189462119Y-103190666D01*
X189561217Y-103620674D01*
X189621227Y-103868000D01*
X189512237Y-104112443D01*
X189088713Y-104409520D01*
X188885822Y-104515066D01*
X188400456Y-104738227D01*
X188084235Y-104813647D01*
X187808024Y-104753968D01*
X187578000Y-104643109D01*
X187142767Y-104457914D01*
X186794173Y-104377157D01*
X186786689Y-104377043D01*
X186549828Y-104461505D01*
X186082924Y-104695133D01*
X185442841Y-105047153D01*
X184686446Y-105486792D01*
X184246689Y-105751600D01*
X183143133Y-106400660D01*
X182141316Y-106944724D01*
X181266916Y-107374557D01*
X180545613Y-107680927D01*
X180003086Y-107854598D01*
X179665012Y-107886339D01*
X179557071Y-107766915D01*
X179704942Y-107487092D01*
X179831208Y-107339333D01*
X180413735Y-106658782D01*
X180914034Y-105958921D01*
X181394590Y-105142327D01*
X181917886Y-104111577D01*
X181967600Y-104008339D01*
X182288171Y-103332845D01*
X182545451Y-102776301D01*
X182709026Y-102405417D01*
X182752000Y-102287795D01*
X182594556Y-102204042D01*
X182167396Y-102100930D01*
X181538282Y-101987472D01*
X180774974Y-101872681D01*
X179945234Y-101765572D01*
X179116822Y-101675157D01*
X178357500Y-101610450D01*
X177735027Y-101580465D01*
X177453454Y-101582981D01*
X177259017Y-101589130D01*
X177111469Y-101616676D01*
X176988321Y-101710893D01*
X176867089Y-101917057D01*
X176725283Y-102280442D01*
X176540419Y-102846321D01*
X176290010Y-103659971D01*
X176079672Y-104348946D01*
X175292560Y-106569109D01*
X174355542Y-108597782D01*
X173455287Y-110133333D01*
X173052008Y-110749852D01*
X172721944Y-111261857D01*
X172507698Y-111602833D01*
X172450086Y-111702656D01*
X172565219Y-111827007D01*
X172922223Y-112039439D01*
X173449946Y-112298757D01*
X173582728Y-112358379D01*
X174167611Y-112644950D01*
X174623719Y-112921032D01*
X174865181Y-113133577D01*
X174878401Y-113158771D01*
X174826598Y-113447198D01*
X174543060Y-113781670D01*
X174112046Y-114086403D01*
X173628422Y-114282993D01*
X173181472Y-114460616D01*
X172745522Y-114716592D01*
X172396480Y-114940952D01*
X172170133Y-115043366D01*
X172161500Y-115044000D01*
X171948850Y-115136061D01*
X171540711Y-115381174D01*
X171003475Y-115732736D01*
X170403536Y-116144140D01*
X169807288Y-116568782D01*
X169281124Y-116960056D01*
X168891438Y-117271359D01*
X168704624Y-117456085D01*
X168697334Y-117475667D01*
X168773608Y-117567552D01*
X169028294Y-117547945D01*
X169500181Y-117407179D01*
X170228061Y-117135587D01*
X170510766Y-117023709D01*
X171252589Y-116705448D01*
X171762599Y-116419235D01*
X172134280Y-116102907D01*
X172416828Y-115756265D01*
X172725206Y-115353914D01*
X172955626Y-115095667D01*
X173028894Y-115044000D01*
X173237317Y-115088874D01*
X173696863Y-115209498D01*
X174334097Y-115384877D01*
X175075589Y-115594014D01*
X175847906Y-115815912D01*
X176577616Y-116029576D01*
X177191286Y-116214008D01*
X177615485Y-116348213D01*
X177726292Y-116387118D01*
X178199679Y-116567099D01*
X177899202Y-117075767D01*
X177541183Y-117510986D01*
X177151072Y-117720770D01*
X176838549Y-117676834D01*
X176619684Y-117697161D01*
X176573041Y-117750571D01*
X176341296Y-117877552D01*
X175997705Y-117922666D01*
X175485268Y-118054912D01*
X174820016Y-118426100D01*
X174043601Y-118997904D01*
X173197677Y-119732001D01*
X172323897Y-120590066D01*
X171463915Y-121533773D01*
X170659384Y-122524798D01*
X170017475Y-123425001D01*
X169750918Y-123868081D01*
X169605563Y-124192342D01*
X169600359Y-124300803D01*
X169788719Y-124283130D01*
X170217883Y-124156960D01*
X170816456Y-123945036D01*
X171272203Y-123768210D01*
X172071060Y-123451670D01*
X172651696Y-123236663D01*
X173108975Y-123095592D01*
X173537759Y-123000860D01*
X174032912Y-122924872D01*
X174285334Y-122891670D01*
X174755193Y-122821119D01*
X175059589Y-122756602D01*
X175111136Y-122735498D01*
X175300997Y-122755873D01*
X175623279Y-122909807D01*
X175945781Y-123119502D01*
X176136306Y-123307160D01*
X176148000Y-123345681D01*
X176031183Y-123506652D01*
X175998416Y-123510666D01*
X175836697Y-123650509D01*
X175768276Y-123818717D01*
X175572027Y-124093825D01*
X175192922Y-124373545D01*
X175113526Y-124416065D01*
X174663736Y-124652302D01*
X174316340Y-124850891D01*
X174285334Y-124870559D01*
X173971243Y-125044044D01*
X173414324Y-125322324D01*
X172681941Y-125674268D01*
X171841460Y-126068747D01*
X170960243Y-126474630D01*
X170105656Y-126860785D01*
X169345063Y-127196083D01*
X168745827Y-127449391D01*
X168479315Y-127553662D01*
X167901295Y-127761831D01*
X167540644Y-127864674D01*
X167296520Y-127872775D01*
X167068078Y-127796720D01*
X166904544Y-127718953D01*
X166621279Y-127474541D01*
X166269398Y-127031642D01*
X165917418Y-126496700D01*
X165633859Y-125976158D01*
X165487237Y-125576458D01*
X165480000Y-125505921D01*
X165590943Y-125235925D01*
X165875438Y-124840059D01*
X166115000Y-124570110D01*
X166550285Y-124055902D01*
X167024693Y-123404369D01*
X167347644Y-122900536D01*
X167685075Y-122290211D01*
X168002842Y-121644738D01*
X168268485Y-121039936D01*
X168449541Y-120551622D01*
X168513550Y-120255616D01*
X168500046Y-120208934D01*
X168323456Y-120233723D01*
X167904234Y-120353727D01*
X167317331Y-120546527D01*
X167000445Y-120657496D01*
X165921575Y-121026647D01*
X165109322Y-121262334D01*
X164521335Y-121369779D01*
X164115265Y-121354208D01*
X163848760Y-121220844D01*
X163723457Y-121061748D01*
X163514253Y-120703052D01*
X163233141Y-120227468D01*
X163160406Y-120105289D01*
X162788144Y-119481083D01*
X163837739Y-118865735D01*
X164457440Y-118480808D01*
X165037470Y-118084363D01*
X165418099Y-117790193D01*
X165886188Y-117385417D01*
X166334569Y-116999284D01*
X166384362Y-116956557D01*
X166755175Y-116574567D01*
X167151424Y-116074891D01*
X167260867Y-115916707D01*
X167701874Y-115250300D01*
X167225937Y-114378543D01*
X166966679Y-113884751D01*
X166862446Y-113595087D01*
X166898941Y-113420380D01*
X167049875Y-113280469D01*
X167415225Y-113103116D01*
X167918747Y-112964347D01*
X167994974Y-112950976D01*
X168626839Y-112746556D01*
X169044584Y-112404813D01*
X169214397Y-111983952D01*
X169102461Y-111542178D01*
X168933781Y-111335003D01*
X168681339Y-111034704D01*
X168606932Y-110823327D01*
X168612316Y-110811235D01*
X168556010Y-110647475D01*
X168431628Y-110575606D01*
X168253725Y-110413064D01*
X168266030Y-110315563D01*
X168245511Y-110096990D01*
X168192096Y-110050373D01*
X168061745Y-109817736D01*
X168014367Y-109488339D01*
X168008733Y-109032666D01*
X167694411Y-109409318D01*
X167370869Y-109795895D01*
X166989010Y-110250722D01*
X166936133Y-110313582D01*
X166582904Y-110661726D01*
X166260381Y-110867194D01*
X166197755Y-110884506D01*
X165689098Y-110816496D01*
X165079250Y-110524799D01*
X164455251Y-110067267D01*
X163904139Y-109501752D01*
X163701884Y-109225588D01*
X163552872Y-108940005D01*
X163496309Y-108691454D01*
X168321126Y-108691454D01*
X168411826Y-108933426D01*
X168598870Y-109012851D01*
X168748754Y-108813168D01*
X168876165Y-108308996D01*
X168917693Y-108059000D01*
X168943076Y-107652311D01*
X168884534Y-107435507D01*
X168856021Y-107424000D01*
X168707797Y-107558015D01*
X168696290Y-107635666D01*
X168621730Y-107930848D01*
X168460471Y-108297313D01*
X168321126Y-108691454D01*
X163496309Y-108691454D01*
X163474540Y-108595801D01*
X163457431Y-108103275D01*
X163492083Y-107372727D01*
X163497642Y-107288901D01*
X163596846Y-105815333D01*
X162904124Y-105476666D01*
X162864820Y-105452660D01*
X165319771Y-105452660D01*
X165338630Y-105943741D01*
X165378697Y-106452930D01*
X165456461Y-107253195D01*
X165536256Y-107762736D01*
X165628412Y-108029390D01*
X165734649Y-108101333D01*
X165870423Y-107987492D01*
X166198714Y-107674785D01*
X166675212Y-107206433D01*
X167255607Y-106625659D01*
X167479139Y-106399723D01*
X167559069Y-106317850D01*
X171171312Y-106317850D01*
X171179569Y-107108178D01*
X171207377Y-108168277D01*
X171256964Y-108951888D01*
X171325220Y-109447377D01*
X171409038Y-109643109D01*
X171505309Y-109527450D01*
X171610925Y-109088765D01*
X171648507Y-108863333D01*
X171851300Y-107612846D01*
X172060632Y-106429552D01*
X172261222Y-105395013D01*
X172437787Y-104590794D01*
X172482835Y-104410292D01*
X172606465Y-103897546D01*
X172630956Y-103636916D01*
X172553465Y-103555829D01*
X172449709Y-103564514D01*
X172206514Y-103724671D01*
X171874825Y-104078543D01*
X171668095Y-104350402D01*
X171450318Y-104672511D01*
X171305493Y-104952733D01*
X171219879Y-105268647D01*
X171179733Y-105697827D01*
X171171312Y-106317850D01*
X167559069Y-106317850D01*
X168149588Y-105712982D01*
X168612455Y-105207639D01*
X168901759Y-104827772D01*
X169051522Y-104517453D01*
X169095765Y-104220758D01*
X169068507Y-103881762D01*
X169057611Y-103804932D01*
X168936707Y-103768439D01*
X168800706Y-103852475D01*
X168526469Y-103980837D01*
X168022361Y-104137604D01*
X167391803Y-104291089D01*
X167319039Y-104306437D01*
X166648673Y-104469222D01*
X166062764Y-104653018D01*
X165682355Y-104819565D01*
X165668891Y-104828054D01*
X165470170Y-104977301D01*
X165358707Y-105158009D01*
X165319771Y-105452660D01*
X162864820Y-105452660D01*
X162439399Y-105192824D01*
X162134353Y-104823352D01*
X161898505Y-104291333D01*
X161671567Y-103638727D01*
X161601514Y-103237332D01*
X161718469Y-103024309D01*
X162052558Y-102936818D01*
X162559000Y-102913572D01*
X163401506Y-102813650D01*
X164408492Y-102536496D01*
X165097633Y-102286741D01*
X165818329Y-102012470D01*
X166301002Y-101851405D01*
X166622175Y-101791235D01*
X166858372Y-101819649D01*
X167086117Y-101924337D01*
X167144538Y-101957443D01*
X167492625Y-102117616D01*
X167835306Y-102142461D01*
X168322894Y-102038712D01*
X168411635Y-102014208D01*
X169196792Y-101794377D01*
X169137702Y-100792272D01*
X169093068Y-100243275D01*
X169037848Y-99845864D01*
X168995133Y-99706688D01*
X168791030Y-99656564D01*
X168365137Y-99622552D01*
X168084827Y-99615035D01*
X167336527Y-99582071D01*
X166740781Y-99472452D01*
X166218225Y-99244845D01*
X165689498Y-98857922D01*
X165075236Y-98270351D01*
X164656005Y-97829375D01*
X164130207Y-97249337D01*
X163712186Y-96755425D01*
X163444602Y-96400417D01*
X163369625Y-96237820D01*
X163562304Y-96207027D01*
X163987261Y-96253194D01*
X164506956Y-96356360D01*
X165336506Y-96502486D01*
X166078763Y-96505954D01*
X166832863Y-96350231D01*
X167697941Y-96018785D01*
X168332224Y-95718423D01*
X169280378Y-95260158D01*
X170003668Y-94952215D01*
X170573619Y-94781064D01*
X171061757Y-94733175D01*
X171539608Y-94795018D01*
X172078700Y-94953064D01*
X172184837Y-94989663D01*
X173258954Y-95364989D01*
X173725487Y-94964109D01*
X174092502Y-94723095D01*
X174506333Y-94639772D01*
X175056194Y-94711302D01*
X175056194Y-94711302D01*
G37*
X175056194Y-94711302D02*
X175724667Y-94900478D01*
X176228934Y-95048360D01*
X176827145Y-95207202D01*
X176944713Y-95236382D01*
X177644633Y-95498622D01*
X178060085Y-95858950D01*
X178173196Y-96290442D01*
X177966095Y-96766176D01*
X177962948Y-96770284D01*
X177710158Y-96974390D01*
X177258365Y-97157629D01*
X176561507Y-97334386D01*
X175573522Y-97519044D01*
X175555334Y-97522101D01*
X175176114Y-97592120D01*
X174562906Y-97712194D01*
X173813216Y-97863036D01*
X173299928Y-97968237D01*
X171552523Y-98329097D01*
X171641333Y-99193548D01*
X171695848Y-99806043D01*
X171731432Y-100359498D01*
X171737739Y-100543416D01*
X171779298Y-100879461D01*
X171943629Y-100959183D01*
X172126334Y-100919870D01*
X172616031Y-100801295D01*
X173317632Y-100657470D01*
X174107950Y-100512236D01*
X174863798Y-100389434D01*
X174878000Y-100387329D01*
X175518084Y-100323427D01*
X176399716Y-100276587D01*
X177429023Y-100247569D01*
X178512131Y-100237136D01*
X179555167Y-100246048D01*
X180464257Y-100275067D01*
X181145529Y-100324954D01*
X181233552Y-100335782D01*
X182201423Y-100467042D01*
X182911672Y-100567996D01*
X183442527Y-100651918D01*
X183872218Y-100732083D01*
X184278972Y-100821764D01*
X184699334Y-100923878D01*
X186074484Y-101305698D01*
X187260156Y-101716527D01*
X188224283Y-102141103D01*
X188934797Y-102564163D01*
X189359631Y-102970445D01*
X189462119Y-103190666D01*
X189561217Y-103620674D01*
X189621227Y-103868000D01*
X189512237Y-104112443D01*
X189088713Y-104409520D01*
X188885822Y-104515066D01*
X188400456Y-104738227D01*
X188084235Y-104813647D01*
X187808024Y-104753968D01*
X187578000Y-104643109D01*
X187142767Y-104457914D01*
X186794173Y-104377157D01*
X186786689Y-104377043D01*
X186549828Y-104461505D01*
X186082924Y-104695133D01*
X185442841Y-105047153D01*
X184686446Y-105486792D01*
X184246689Y-105751600D01*
X183143133Y-106400660D01*
X182141316Y-106944724D01*
X181266916Y-107374557D01*
X180545613Y-107680927D01*
X180003086Y-107854598D01*
X179665012Y-107886339D01*
X179557071Y-107766915D01*
X179704942Y-107487092D01*
X179831208Y-107339333D01*
X180413735Y-106658782D01*
X180914034Y-105958921D01*
X181394590Y-105142327D01*
X181917886Y-104111577D01*
X181967600Y-104008339D01*
X182288171Y-103332845D01*
X182545451Y-102776301D01*
X182709026Y-102405417D01*
X182752000Y-102287795D01*
X182594556Y-102204042D01*
X182167396Y-102100930D01*
X181538282Y-101987472D01*
X180774974Y-101872681D01*
X179945234Y-101765572D01*
X179116822Y-101675157D01*
X178357500Y-101610450D01*
X177735027Y-101580465D01*
X177453454Y-101582981D01*
X177259017Y-101589130D01*
X177111469Y-101616676D01*
X176988321Y-101710893D01*
X176867089Y-101917057D01*
X176725283Y-102280442D01*
X176540419Y-102846321D01*
X176290010Y-103659971D01*
X176079672Y-104348946D01*
X175292560Y-106569109D01*
X174355542Y-108597782D01*
X173455287Y-110133333D01*
X173052008Y-110749852D01*
X172721944Y-111261857D01*
X172507698Y-111602833D01*
X172450086Y-111702656D01*
X172565219Y-111827007D01*
X172922223Y-112039439D01*
X173449946Y-112298757D01*
X173582728Y-112358379D01*
X174167611Y-112644950D01*
X174623719Y-112921032D01*
X174865181Y-113133577D01*
X174878401Y-113158771D01*
X174826598Y-113447198D01*
X174543060Y-113781670D01*
X174112046Y-114086403D01*
X173628422Y-114282993D01*
X173181472Y-114460616D01*
X172745522Y-114716592D01*
X172396480Y-114940952D01*
X172170133Y-115043366D01*
X172161500Y-115044000D01*
X171948850Y-115136061D01*
X171540711Y-115381174D01*
X171003475Y-115732736D01*
X170403536Y-116144140D01*
X169807288Y-116568782D01*
X169281124Y-116960056D01*
X168891438Y-117271359D01*
X168704624Y-117456085D01*
X168697334Y-117475667D01*
X168773608Y-117567552D01*
X169028294Y-117547945D01*
X169500181Y-117407179D01*
X170228061Y-117135587D01*
X170510766Y-117023709D01*
X171252589Y-116705448D01*
X171762599Y-116419235D01*
X172134280Y-116102907D01*
X172416828Y-115756265D01*
X172725206Y-115353914D01*
X172955626Y-115095667D01*
X173028894Y-115044000D01*
X173237317Y-115088874D01*
X173696863Y-115209498D01*
X174334097Y-115384877D01*
X175075589Y-115594014D01*
X175847906Y-115815912D01*
X176577616Y-116029576D01*
X177191286Y-116214008D01*
X177615485Y-116348213D01*
X177726292Y-116387118D01*
X178199679Y-116567099D01*
X177899202Y-117075767D01*
X177541183Y-117510986D01*
X177151072Y-117720770D01*
X176838549Y-117676834D01*
X176619684Y-117697161D01*
X176573041Y-117750571D01*
X176341296Y-117877552D01*
X175997705Y-117922666D01*
X175485268Y-118054912D01*
X174820016Y-118426100D01*
X174043601Y-118997904D01*
X173197677Y-119732001D01*
X172323897Y-120590066D01*
X171463915Y-121533773D01*
X170659384Y-122524798D01*
X170017475Y-123425001D01*
X169750918Y-123868081D01*
X169605563Y-124192342D01*
X169600359Y-124300803D01*
X169788719Y-124283130D01*
X170217883Y-124156960D01*
X170816456Y-123945036D01*
X171272203Y-123768210D01*
X172071060Y-123451670D01*
X172651696Y-123236663D01*
X173108975Y-123095592D01*
X173537759Y-123000860D01*
X174032912Y-122924872D01*
X174285334Y-122891670D01*
X174755193Y-122821119D01*
X175059589Y-122756602D01*
X175111136Y-122735498D01*
X175300997Y-122755873D01*
X175623279Y-122909807D01*
X175945781Y-123119502D01*
X176136306Y-123307160D01*
X176148000Y-123345681D01*
X176031183Y-123506652D01*
X175998416Y-123510666D01*
X175836697Y-123650509D01*
X175768276Y-123818717D01*
X175572027Y-124093825D01*
X175192922Y-124373545D01*
X175113526Y-124416065D01*
X174663736Y-124652302D01*
X174316340Y-124850891D01*
X174285334Y-124870559D01*
X173971243Y-125044044D01*
X173414324Y-125322324D01*
X172681941Y-125674268D01*
X171841460Y-126068747D01*
X170960243Y-126474630D01*
X170105656Y-126860785D01*
X169345063Y-127196083D01*
X168745827Y-127449391D01*
X168479315Y-127553662D01*
X167901295Y-127761831D01*
X167540644Y-127864674D01*
X167296520Y-127872775D01*
X167068078Y-127796720D01*
X166904544Y-127718953D01*
X166621279Y-127474541D01*
X166269398Y-127031642D01*
X165917418Y-126496700D01*
X165633859Y-125976158D01*
X165487237Y-125576458D01*
X165480000Y-125505921D01*
X165590943Y-125235925D01*
X165875438Y-124840059D01*
X166115000Y-124570110D01*
X166550285Y-124055902D01*
X167024693Y-123404369D01*
X167347644Y-122900536D01*
X167685075Y-122290211D01*
X168002842Y-121644738D01*
X168268485Y-121039936D01*
X168449541Y-120551622D01*
X168513550Y-120255616D01*
X168500046Y-120208934D01*
X168323456Y-120233723D01*
X167904234Y-120353727D01*
X167317331Y-120546527D01*
X167000445Y-120657496D01*
X165921575Y-121026647D01*
X165109322Y-121262334D01*
X164521335Y-121369779D01*
X164115265Y-121354208D01*
X163848760Y-121220844D01*
X163723457Y-121061748D01*
X163514253Y-120703052D01*
X163233141Y-120227468D01*
X163160406Y-120105289D01*
X162788144Y-119481083D01*
X163837739Y-118865735D01*
X164457440Y-118480808D01*
X165037470Y-118084363D01*
X165418099Y-117790193D01*
X165886188Y-117385417D01*
X166334569Y-116999284D01*
X166384362Y-116956557D01*
X166755175Y-116574567D01*
X167151424Y-116074891D01*
X167260867Y-115916707D01*
X167701874Y-115250300D01*
X167225937Y-114378543D01*
X166966679Y-113884751D01*
X166862446Y-113595087D01*
X166898941Y-113420380D01*
X167049875Y-113280469D01*
X167415225Y-113103116D01*
X167918747Y-112964347D01*
X167994974Y-112950976D01*
X168626839Y-112746556D01*
X169044584Y-112404813D01*
X169214397Y-111983952D01*
X169102461Y-111542178D01*
X168933781Y-111335003D01*
X168681339Y-111034704D01*
X168606932Y-110823327D01*
X168612316Y-110811235D01*
X168556010Y-110647475D01*
X168431628Y-110575606D01*
X168253725Y-110413064D01*
X168266030Y-110315563D01*
X168245511Y-110096990D01*
X168192096Y-110050373D01*
X168061745Y-109817736D01*
X168014367Y-109488339D01*
X168008733Y-109032666D01*
X167694411Y-109409318D01*
X167370869Y-109795895D01*
X166989010Y-110250722D01*
X166936133Y-110313582D01*
X166582904Y-110661726D01*
X166260381Y-110867194D01*
X166197755Y-110884506D01*
X165689098Y-110816496D01*
X165079250Y-110524799D01*
X164455251Y-110067267D01*
X163904139Y-109501752D01*
X163701884Y-109225588D01*
X163552872Y-108940005D01*
X163496309Y-108691454D01*
X168321126Y-108691454D01*
X168411826Y-108933426D01*
X168598870Y-109012851D01*
X168748754Y-108813168D01*
X168876165Y-108308996D01*
X168917693Y-108059000D01*
X168943076Y-107652311D01*
X168884534Y-107435507D01*
X168856021Y-107424000D01*
X168707797Y-107558015D01*
X168696290Y-107635666D01*
X168621730Y-107930848D01*
X168460471Y-108297313D01*
X168321126Y-108691454D01*
X163496309Y-108691454D01*
X163474540Y-108595801D01*
X163457431Y-108103275D01*
X163492083Y-107372727D01*
X163497642Y-107288901D01*
X163596846Y-105815333D01*
X162904124Y-105476666D01*
X162864820Y-105452660D01*
X165319771Y-105452660D01*
X165338630Y-105943741D01*
X165378697Y-106452930D01*
X165456461Y-107253195D01*
X165536256Y-107762736D01*
X165628412Y-108029390D01*
X165734649Y-108101333D01*
X165870423Y-107987492D01*
X166198714Y-107674785D01*
X166675212Y-107206433D01*
X167255607Y-106625659D01*
X167479139Y-106399723D01*
X167559069Y-106317850D01*
X171171312Y-106317850D01*
X171179569Y-107108178D01*
X171207377Y-108168277D01*
X171256964Y-108951888D01*
X171325220Y-109447377D01*
X171409038Y-109643109D01*
X171505309Y-109527450D01*
X171610925Y-109088765D01*
X171648507Y-108863333D01*
X171851300Y-107612846D01*
X172060632Y-106429552D01*
X172261222Y-105395013D01*
X172437787Y-104590794D01*
X172482835Y-104410292D01*
X172606465Y-103897546D01*
X172630956Y-103636916D01*
X172553465Y-103555829D01*
X172449709Y-103564514D01*
X172206514Y-103724671D01*
X171874825Y-104078543D01*
X171668095Y-104350402D01*
X171450318Y-104672511D01*
X171305493Y-104952733D01*
X171219879Y-105268647D01*
X171179733Y-105697827D01*
X171171312Y-106317850D01*
X167559069Y-106317850D01*
X168149588Y-105712982D01*
X168612455Y-105207639D01*
X168901759Y-104827772D01*
X169051522Y-104517453D01*
X169095765Y-104220758D01*
X169068507Y-103881762D01*
X169057611Y-103804932D01*
X168936707Y-103768439D01*
X168800706Y-103852475D01*
X168526469Y-103980837D01*
X168022361Y-104137604D01*
X167391803Y-104291089D01*
X167319039Y-104306437D01*
X166648673Y-104469222D01*
X166062764Y-104653018D01*
X165682355Y-104819565D01*
X165668891Y-104828054D01*
X165470170Y-104977301D01*
X165358707Y-105158009D01*
X165319771Y-105452660D01*
X162864820Y-105452660D01*
X162439399Y-105192824D01*
X162134353Y-104823352D01*
X161898505Y-104291333D01*
X161671567Y-103638727D01*
X161601514Y-103237332D01*
X161718469Y-103024309D01*
X162052558Y-102936818D01*
X162559000Y-102913572D01*
X163401506Y-102813650D01*
X164408492Y-102536496D01*
X165097633Y-102286741D01*
X165818329Y-102012470D01*
X166301002Y-101851405D01*
X166622175Y-101791235D01*
X166858372Y-101819649D01*
X167086117Y-101924337D01*
X167144538Y-101957443D01*
X167492625Y-102117616D01*
X167835306Y-102142461D01*
X168322894Y-102038712D01*
X168411635Y-102014208D01*
X169196792Y-101794377D01*
X169137702Y-100792272D01*
X169093068Y-100243275D01*
X169037848Y-99845864D01*
X168995133Y-99706688D01*
X168791030Y-99656564D01*
X168365137Y-99622552D01*
X168084827Y-99615035D01*
X167336527Y-99582071D01*
X166740781Y-99472452D01*
X166218225Y-99244845D01*
X165689498Y-98857922D01*
X165075236Y-98270351D01*
X164656005Y-97829375D01*
X164130207Y-97249337D01*
X163712186Y-96755425D01*
X163444602Y-96400417D01*
X163369625Y-96237820D01*
X163562304Y-96207027D01*
X163987261Y-96253194D01*
X164506956Y-96356360D01*
X165336506Y-96502486D01*
X166078763Y-96505954D01*
X166832863Y-96350231D01*
X167697941Y-96018785D01*
X168332224Y-95718423D01*
X169280378Y-95260158D01*
X170003668Y-94952215D01*
X170573619Y-94781064D01*
X171061757Y-94733175D01*
X171539608Y-94795018D01*
X172078700Y-94953064D01*
X172184837Y-94989663D01*
X173258954Y-95364989D01*
X173725487Y-94964109D01*
X174092502Y-94723095D01*
X174506333Y-94639772D01*
X175056194Y-94711302D01*
G36*
X191896000Y-129014000D02*
X191811334Y-129098666D01*
X191726667Y-129014000D01*
X191811334Y-128929333D01*
X191896000Y-129014000D01*
X191896000Y-129014000D01*
G37*
X191896000Y-129014000D02*
X191811334Y-129098666D01*
X191726667Y-129014000D01*
X191811334Y-128929333D01*
X191896000Y-129014000D01*
G36*
X124480256Y-93800784D02*
X124942913Y-93963716D01*
X125519711Y-94092429D01*
X125637020Y-94109866D01*
X126355967Y-94269985D01*
X126873710Y-94574384D01*
X127321208Y-95101316D01*
X127338336Y-95126413D01*
X127546876Y-95510580D01*
X127640817Y-95941881D01*
X127644473Y-96549764D01*
X127636068Y-96711582D01*
X127623526Y-97274590D01*
X127651817Y-97687902D01*
X127705820Y-97848726D01*
X127908486Y-97804470D01*
X128201059Y-97590180D01*
X128351531Y-97458459D01*
X128508135Y-97373755D01*
X128725397Y-97338971D01*
X129057840Y-97357009D01*
X129559989Y-97430772D01*
X130286370Y-97563164D01*
X131274667Y-97753819D01*
X131726721Y-97921850D01*
X132035894Y-98256816D01*
X132236194Y-98816438D01*
X132354268Y-99586205D01*
X132446735Y-100469077D01*
X131818368Y-100642989D01*
X131364728Y-100764717D01*
X130701645Y-100938045D01*
X129948113Y-101131962D01*
X129683096Y-101199450D01*
X128896368Y-101417657D01*
X128372618Y-101640583D01*
X128042389Y-101937622D01*
X127836227Y-102378171D01*
X127684675Y-103031626D01*
X127647787Y-103233000D01*
X127533987Y-103868000D01*
X128176660Y-103865354D01*
X128856842Y-103811007D01*
X129606735Y-103672154D01*
X130315404Y-103477567D01*
X130871916Y-103256018D01*
X131105691Y-103105676D01*
X131335944Y-102937505D01*
X131605814Y-102851116D01*
X131969436Y-102853350D01*
X132480944Y-102951053D01*
X133194472Y-103151067D01*
X134164154Y-103460237D01*
X134322667Y-103512369D01*
X135410646Y-103888830D01*
X136216209Y-104218756D01*
X136786386Y-104534093D01*
X137168210Y-104866788D01*
X137408710Y-105248787D01*
X137553833Y-105707184D01*
X137634203Y-106338212D01*
X137508303Y-106714468D01*
X137144044Y-106871621D01*
X136527692Y-106847806D01*
X136082566Y-106807192D01*
X135728535Y-106844018D01*
X135436406Y-106997143D01*
X135176988Y-107305427D01*
X134921091Y-107807728D01*
X134639522Y-108542907D01*
X134303091Y-109549821D01*
X134157672Y-110002757D01*
X133831552Y-111017449D01*
X133507079Y-112015681D01*
X133212389Y-112911670D01*
X132975620Y-113619629D01*
X132877062Y-113907018D01*
X132626608Y-114534028D01*
X132311245Y-115195623D01*
X131972637Y-115818734D01*
X131652448Y-116330292D01*
X131392342Y-116657226D01*
X131263223Y-116737333D01*
X131090952Y-116630693D01*
X130733551Y-116345126D01*
X130254054Y-115932160D01*
X129999843Y-115704546D01*
X129408848Y-115187136D01*
X128968125Y-114881228D01*
X128585556Y-114761804D01*
X128169024Y-114803843D01*
X127626411Y-114982327D01*
X127507000Y-115027487D01*
X127164987Y-115221495D01*
X127045433Y-115416527D01*
X127176833Y-115539422D01*
X127302707Y-115552000D01*
X127598157Y-115683569D01*
X128035345Y-116043550D01*
X128566241Y-116579849D01*
X129142812Y-117240372D01*
X129717027Y-117973027D01*
X130240855Y-118725720D01*
X130268455Y-118768544D01*
X130502852Y-119133157D01*
X130714989Y-119445960D01*
X130933601Y-119728455D01*
X131187425Y-120002143D01*
X131505195Y-120288527D01*
X131915646Y-120609107D01*
X132447514Y-120985386D01*
X133129534Y-121438866D01*
X133990440Y-121991047D01*
X135058968Y-122663433D01*
X136363854Y-123477524D01*
X137540000Y-124209637D01*
X138529336Y-124827846D01*
X139437434Y-125399772D01*
X140219755Y-125897003D01*
X140831759Y-126291132D01*
X141228907Y-126553747D01*
X141350000Y-126639876D01*
X141555747Y-126818291D01*
X141507199Y-126864839D01*
X141166380Y-126810736D01*
X141146662Y-126807020D01*
X140779227Y-126701378D01*
X140185315Y-126490582D01*
X139448512Y-126205700D01*
X138691328Y-125894318D01*
X136164058Y-124752570D01*
X133966995Y-123606758D01*
X132091685Y-122451212D01*
X130529674Y-121280261D01*
X129272505Y-120088236D01*
X128390107Y-118985998D01*
X127838823Y-118224199D01*
X127310065Y-117571897D01*
X126847892Y-117077730D01*
X126496362Y-116790339D01*
X126353251Y-116737333D01*
X126254094Y-116795536D01*
X126180712Y-116997255D01*
X126129331Y-117383158D01*
X126096177Y-117993913D01*
X126077477Y-118870185D01*
X126070406Y-119785333D01*
X126093291Y-121435042D01*
X126183592Y-122852311D01*
X126350902Y-124138389D01*
X126599831Y-125373333D01*
X126696789Y-125875856D01*
X126794950Y-126533428D01*
X126886923Y-127271770D01*
X126965316Y-128016601D01*
X127022737Y-128693643D01*
X127051797Y-129228614D01*
X127045104Y-129547234D01*
X127020772Y-129603655D01*
X126879961Y-129491958D01*
X126554535Y-129194460D01*
X126100815Y-128763358D01*
X125812750Y-128484078D01*
X125230245Y-127873199D01*
X124812816Y-127348163D01*
X124605897Y-126967291D01*
X124594872Y-126920756D01*
X124461506Y-126101595D01*
X124388023Y-125562949D01*
X124378961Y-125251220D01*
X124438860Y-125112810D01*
X124572258Y-125094120D01*
X124746337Y-125132206D01*
X124969987Y-125180626D01*
X125108016Y-125147986D01*
X125181543Y-124973368D01*
X125211688Y-124595854D01*
X125219570Y-123954526D01*
X125220448Y-123764666D01*
X125210811Y-123263584D01*
X125181875Y-122514727D01*
X125138488Y-121608123D01*
X125085502Y-120633801D01*
X125027768Y-119681791D01*
X124970134Y-118842121D01*
X124925655Y-118292846D01*
X124845153Y-117820967D01*
X124724248Y-117579507D01*
X124610567Y-117598111D01*
X124416514Y-117844890D01*
X124074174Y-118297556D01*
X123633953Y-118887737D01*
X123146252Y-119547064D01*
X122661477Y-120207163D01*
X122230030Y-120799665D01*
X121902316Y-121256199D01*
X121734079Y-121499970D01*
X121482330Y-121829181D01*
X121283113Y-121984793D01*
X121268413Y-121986666D01*
X121131940Y-122124050D01*
X121114667Y-122240666D01*
X120994804Y-122465505D01*
X120891118Y-122494666D01*
X120659093Y-122617778D01*
X120331159Y-122928948D01*
X120177914Y-123108811D01*
X119776084Y-123541812D01*
X119238912Y-124027087D01*
X118640332Y-124508658D01*
X118054278Y-124930546D01*
X117554686Y-125236773D01*
X117215490Y-125371362D01*
X117186991Y-125373333D01*
X117065950Y-125318809D01*
X117097632Y-125133790D01*
X117300282Y-124786106D01*
X117692148Y-124243585D01*
X118195445Y-123595333D01*
X118687305Y-122895608D01*
X119250528Y-121971479D01*
X119836343Y-120915188D01*
X120395979Y-119818973D01*
X120880665Y-118775074D01*
X121241630Y-117875732D01*
X121283378Y-117755179D01*
X121469841Y-117182143D01*
X121548179Y-116831956D01*
X121521268Y-116607506D01*
X121391983Y-116411684D01*
X121325432Y-116334616D01*
X121018396Y-115900021D01*
X120803176Y-115490417D01*
X120718790Y-115253745D01*
X120723678Y-115047883D01*
X120855195Y-114809003D01*
X121149904Y-114474175D01*
X123402330Y-114474175D01*
X123508092Y-114533203D01*
X123583772Y-114536000D01*
X123982712Y-114440562D01*
X124273218Y-114287180D01*
X124549450Y-114008729D01*
X124715453Y-113690248D01*
X124728587Y-113512814D01*
X126536571Y-113512814D01*
X128116745Y-112926108D01*
X128137572Y-111950149D01*
X128131081Y-111253476D01*
X128056425Y-110867517D01*
X127885920Y-110766752D01*
X127591880Y-110925656D01*
X127298722Y-111176808D01*
X126903886Y-111588471D01*
X126700960Y-111985542D01*
X126611417Y-112532434D01*
X126603260Y-112632924D01*
X126536571Y-113512814D01*
X124728587Y-113512814D01*
X124734220Y-113436716D01*
X124603365Y-113350666D01*
X124373369Y-113463991D01*
X124020577Y-113751901D01*
X123824000Y-113943333D01*
X123500138Y-114296042D01*
X123402330Y-114474175D01*
X121149904Y-114474175D01*
X121150698Y-114473273D01*
X121647544Y-113976866D01*
X121744659Y-113881750D01*
X122335255Y-113274804D01*
X122904149Y-112640954D01*
X123353830Y-112090300D01*
X123459476Y-111945559D01*
X124026021Y-111133119D01*
X122592705Y-111245904D01*
X121814735Y-111290417D01*
X121323535Y-111274629D01*
X121072126Y-111195745D01*
X121032325Y-111153095D01*
X121032973Y-110885820D01*
X121136964Y-110746373D01*
X121344941Y-110621686D01*
X121779333Y-110392181D01*
X122360164Y-110097328D01*
X123007458Y-109776597D01*
X123641238Y-109469458D01*
X124181527Y-109215380D01*
X124548349Y-109053834D01*
X124624097Y-109025416D01*
X124690331Y-108864648D01*
X124746123Y-108519639D01*
X124778389Y-108130295D01*
X124774047Y-107836522D01*
X124742173Y-107762666D01*
X124542577Y-107844798D01*
X124156374Y-108055912D01*
X123840941Y-108244153D01*
X122928822Y-108741846D01*
X122200901Y-108991242D01*
X121622079Y-109002119D01*
X121390002Y-108926910D01*
X121069679Y-108737157D01*
X120945334Y-108582152D01*
X120837373Y-108365489D01*
X120643262Y-108137928D01*
X120392685Y-107796667D01*
X120282301Y-107591633D01*
X127296424Y-107591633D01*
X127331532Y-107921279D01*
X127362290Y-107980718D01*
X127592738Y-108095852D01*
X128033244Y-108240963D01*
X128326185Y-108319385D01*
X128846368Y-108478696D01*
X129114381Y-108662251D01*
X129214670Y-108925196D01*
X129188422Y-109311682D01*
X129087670Y-109509396D01*
X128914634Y-109890252D01*
X128992398Y-110317098D01*
X129200334Y-110567116D01*
X129396210Y-110678417D01*
X129541131Y-110643414D01*
X129660955Y-110414244D01*
X129781541Y-109943045D01*
X129918472Y-109237868D01*
X130022900Y-108610158D01*
X130047329Y-108218570D01*
X129987724Y-107969187D01*
X129856053Y-107785561D01*
X129680526Y-107510580D01*
X129556621Y-107091620D01*
X129463686Y-106447412D01*
X129430929Y-106112588D01*
X129286325Y-105979737D01*
X128867970Y-105989051D01*
X128791071Y-106000525D01*
X128108789Y-106134776D01*
X127690150Y-106308750D01*
X127460565Y-106579276D01*
X127345442Y-107003185D01*
X127329191Y-107114317D01*
X127296424Y-107591633D01*
X120282301Y-107591633D01*
X120122311Y-107294460D01*
X119877033Y-106736531D01*
X119701746Y-106228104D01*
X119641346Y-105874405D01*
X119652097Y-105814825D01*
X119862442Y-105631798D01*
X120259735Y-105484841D01*
X120298892Y-105476192D01*
X120866812Y-105309033D01*
X121542830Y-105038124D01*
X122248165Y-104704455D01*
X122904035Y-104349017D01*
X123431661Y-104012799D01*
X123752259Y-103736794D01*
X123805088Y-103651885D01*
X124020103Y-103030356D01*
X124075902Y-102638729D01*
X123934038Y-102390504D01*
X123556064Y-102199181D01*
X123088163Y-102038913D01*
X122611254Y-101863695D01*
X121973046Y-101603385D01*
X121232735Y-101285178D01*
X120449518Y-100936273D01*
X119682591Y-100583868D01*
X118991151Y-100255159D01*
X118434394Y-99977344D01*
X118071518Y-99777620D01*
X117961422Y-99683467D01*
X118156091Y-99607033D01*
X118371432Y-99556528D01*
X118808102Y-99419916D01*
X119093193Y-99290366D01*
X119453359Y-99177095D01*
X120020683Y-99080452D01*
X120585849Y-99027598D01*
X121512205Y-98968177D01*
X122177971Y-98896215D01*
X122660946Y-98785470D01*
X123038929Y-98609695D01*
X123389718Y-98342647D01*
X123791113Y-97958082D01*
X123808836Y-97940370D01*
X124234669Y-97480741D01*
X124542698Y-97083810D01*
X124670131Y-96831101D01*
X124670667Y-96821470D01*
X124561498Y-96389694D01*
X124301287Y-95922951D01*
X124055349Y-95655333D01*
X123926372Y-95418874D01*
X123902042Y-94951012D01*
X123934931Y-94535915D01*
X124035846Y-93585831D01*
X124480256Y-93800784D01*
X124480256Y-93800784D01*
G37*
X124480256Y-93800784D02*
X124942913Y-93963716D01*
X125519711Y-94092429D01*
X125637020Y-94109866D01*
X126355967Y-94269985D01*
X126873710Y-94574384D01*
X127321208Y-95101316D01*
X127338336Y-95126413D01*
X127546876Y-95510580D01*
X127640817Y-95941881D01*
X127644473Y-96549764D01*
X127636068Y-96711582D01*
X127623526Y-97274590D01*
X127651817Y-97687902D01*
X127705820Y-97848726D01*
X127908486Y-97804470D01*
X128201059Y-97590180D01*
X128351531Y-97458459D01*
X128508135Y-97373755D01*
X128725397Y-97338971D01*
X129057840Y-97357009D01*
X129559989Y-97430772D01*
X130286370Y-97563164D01*
X131274667Y-97753819D01*
X131726721Y-97921850D01*
X132035894Y-98256816D01*
X132236194Y-98816438D01*
X132354268Y-99586205D01*
X132446735Y-100469077D01*
X131818368Y-100642989D01*
X131364728Y-100764717D01*
X130701645Y-100938045D01*
X129948113Y-101131962D01*
X129683096Y-101199450D01*
X128896368Y-101417657D01*
X128372618Y-101640583D01*
X128042389Y-101937622D01*
X127836227Y-102378171D01*
X127684675Y-103031626D01*
X127647787Y-103233000D01*
X127533987Y-103868000D01*
X128176660Y-103865354D01*
X128856842Y-103811007D01*
X129606735Y-103672154D01*
X130315404Y-103477567D01*
X130871916Y-103256018D01*
X131105691Y-103105676D01*
X131335944Y-102937505D01*
X131605814Y-102851116D01*
X131969436Y-102853350D01*
X132480944Y-102951053D01*
X133194472Y-103151067D01*
X134164154Y-103460237D01*
X134322667Y-103512369D01*
X135410646Y-103888830D01*
X136216209Y-104218756D01*
X136786386Y-104534093D01*
X137168210Y-104866788D01*
X137408710Y-105248787D01*
X137553833Y-105707184D01*
X137634203Y-106338212D01*
X137508303Y-106714468D01*
X137144044Y-106871621D01*
X136527692Y-106847806D01*
X136082566Y-106807192D01*
X135728535Y-106844018D01*
X135436406Y-106997143D01*
X135176988Y-107305427D01*
X134921091Y-107807728D01*
X134639522Y-108542907D01*
X134303091Y-109549821D01*
X134157672Y-110002757D01*
X133831552Y-111017449D01*
X133507079Y-112015681D01*
X133212389Y-112911670D01*
X132975620Y-113619629D01*
X132877062Y-113907018D01*
X132626608Y-114534028D01*
X132311245Y-115195623D01*
X131972637Y-115818734D01*
X131652448Y-116330292D01*
X131392342Y-116657226D01*
X131263223Y-116737333D01*
X131090952Y-116630693D01*
X130733551Y-116345126D01*
X130254054Y-115932160D01*
X129999843Y-115704546D01*
X129408848Y-115187136D01*
X128968125Y-114881228D01*
X128585556Y-114761804D01*
X128169024Y-114803843D01*
X127626411Y-114982327D01*
X127507000Y-115027487D01*
X127164987Y-115221495D01*
X127045433Y-115416527D01*
X127176833Y-115539422D01*
X127302707Y-115552000D01*
X127598157Y-115683569D01*
X128035345Y-116043550D01*
X128566241Y-116579849D01*
X129142812Y-117240372D01*
X129717027Y-117973027D01*
X130240855Y-118725720D01*
X130268455Y-118768544D01*
X130502852Y-119133157D01*
X130714989Y-119445960D01*
X130933601Y-119728455D01*
X131187425Y-120002143D01*
X131505195Y-120288527D01*
X131915646Y-120609107D01*
X132447514Y-120985386D01*
X133129534Y-121438866D01*
X133990440Y-121991047D01*
X135058968Y-122663433D01*
X136363854Y-123477524D01*
X137540000Y-124209637D01*
X138529336Y-124827846D01*
X139437434Y-125399772D01*
X140219755Y-125897003D01*
X140831759Y-126291132D01*
X141228907Y-126553747D01*
X141350000Y-126639876D01*
X141555747Y-126818291D01*
X141507199Y-126864839D01*
X141166380Y-126810736D01*
X141146662Y-126807020D01*
X140779227Y-126701378D01*
X140185315Y-126490582D01*
X139448512Y-126205700D01*
X138691328Y-125894318D01*
X136164058Y-124752570D01*
X133966995Y-123606758D01*
X132091685Y-122451212D01*
X130529674Y-121280261D01*
X129272505Y-120088236D01*
X128390107Y-118985998D01*
X127838823Y-118224199D01*
X127310065Y-117571897D01*
X126847892Y-117077730D01*
X126496362Y-116790339D01*
X126353251Y-116737333D01*
X126254094Y-116795536D01*
X126180712Y-116997255D01*
X126129331Y-117383158D01*
X126096177Y-117993913D01*
X126077477Y-118870185D01*
X126070406Y-119785333D01*
X126093291Y-121435042D01*
X126183592Y-122852311D01*
X126350902Y-124138389D01*
X126599831Y-125373333D01*
X126696789Y-125875856D01*
X126794950Y-126533428D01*
X126886923Y-127271770D01*
X126965316Y-128016601D01*
X127022737Y-128693643D01*
X127051797Y-129228614D01*
X127045104Y-129547234D01*
X127020772Y-129603655D01*
X126879961Y-129491958D01*
X126554535Y-129194460D01*
X126100815Y-128763358D01*
X125812750Y-128484078D01*
X125230245Y-127873199D01*
X124812816Y-127348163D01*
X124605897Y-126967291D01*
X124594872Y-126920756D01*
X124461506Y-126101595D01*
X124388023Y-125562949D01*
X124378961Y-125251220D01*
X124438860Y-125112810D01*
X124572258Y-125094120D01*
X124746337Y-125132206D01*
X124969987Y-125180626D01*
X125108016Y-125147986D01*
X125181543Y-124973368D01*
X125211688Y-124595854D01*
X125219570Y-123954526D01*
X125220448Y-123764666D01*
X125210811Y-123263584D01*
X125181875Y-122514727D01*
X125138488Y-121608123D01*
X125085502Y-120633801D01*
X125027768Y-119681791D01*
X124970134Y-118842121D01*
X124925655Y-118292846D01*
X124845153Y-117820967D01*
X124724248Y-117579507D01*
X124610567Y-117598111D01*
X124416514Y-117844890D01*
X124074174Y-118297556D01*
X123633953Y-118887737D01*
X123146252Y-119547064D01*
X122661477Y-120207163D01*
X122230030Y-120799665D01*
X121902316Y-121256199D01*
X121734079Y-121499970D01*
X121482330Y-121829181D01*
X121283113Y-121984793D01*
X121268413Y-121986666D01*
X121131940Y-122124050D01*
X121114667Y-122240666D01*
X120994804Y-122465505D01*
X120891118Y-122494666D01*
X120659093Y-122617778D01*
X120331159Y-122928948D01*
X120177914Y-123108811D01*
X119776084Y-123541812D01*
X119238912Y-124027087D01*
X118640332Y-124508658D01*
X118054278Y-124930546D01*
X117554686Y-125236773D01*
X117215490Y-125371362D01*
X117186991Y-125373333D01*
X117065950Y-125318809D01*
X117097632Y-125133790D01*
X117300282Y-124786106D01*
X117692148Y-124243585D01*
X118195445Y-123595333D01*
X118687305Y-122895608D01*
X119250528Y-121971479D01*
X119836343Y-120915188D01*
X120395979Y-119818973D01*
X120880665Y-118775074D01*
X121241630Y-117875732D01*
X121283378Y-117755179D01*
X121469841Y-117182143D01*
X121548179Y-116831956D01*
X121521268Y-116607506D01*
X121391983Y-116411684D01*
X121325432Y-116334616D01*
X121018396Y-115900021D01*
X120803176Y-115490417D01*
X120718790Y-115253745D01*
X120723678Y-115047883D01*
X120855195Y-114809003D01*
X121149904Y-114474175D01*
X123402330Y-114474175D01*
X123508092Y-114533203D01*
X123583772Y-114536000D01*
X123982712Y-114440562D01*
X124273218Y-114287180D01*
X124549450Y-114008729D01*
X124715453Y-113690248D01*
X124728587Y-113512814D01*
X126536571Y-113512814D01*
X128116745Y-112926108D01*
X128137572Y-111950149D01*
X128131081Y-111253476D01*
X128056425Y-110867517D01*
X127885920Y-110766752D01*
X127591880Y-110925656D01*
X127298722Y-111176808D01*
X126903886Y-111588471D01*
X126700960Y-111985542D01*
X126611417Y-112532434D01*
X126603260Y-112632924D01*
X126536571Y-113512814D01*
X124728587Y-113512814D01*
X124734220Y-113436716D01*
X124603365Y-113350666D01*
X124373369Y-113463991D01*
X124020577Y-113751901D01*
X123824000Y-113943333D01*
X123500138Y-114296042D01*
X123402330Y-114474175D01*
X121149904Y-114474175D01*
X121150698Y-114473273D01*
X121647544Y-113976866D01*
X121744659Y-113881750D01*
X122335255Y-113274804D01*
X122904149Y-112640954D01*
X123353830Y-112090300D01*
X123459476Y-111945559D01*
X124026021Y-111133119D01*
X122592705Y-111245904D01*
X121814735Y-111290417D01*
X121323535Y-111274629D01*
X121072126Y-111195745D01*
X121032325Y-111153095D01*
X121032973Y-110885820D01*
X121136964Y-110746373D01*
X121344941Y-110621686D01*
X121779333Y-110392181D01*
X122360164Y-110097328D01*
X123007458Y-109776597D01*
X123641238Y-109469458D01*
X124181527Y-109215380D01*
X124548349Y-109053834D01*
X124624097Y-109025416D01*
X124690331Y-108864648D01*
X124746123Y-108519639D01*
X124778389Y-108130295D01*
X124774047Y-107836522D01*
X124742173Y-107762666D01*
X124542577Y-107844798D01*
X124156374Y-108055912D01*
X123840941Y-108244153D01*
X122928822Y-108741846D01*
X122200901Y-108991242D01*
X121622079Y-109002119D01*
X121390002Y-108926910D01*
X121069679Y-108737157D01*
X120945334Y-108582152D01*
X120837373Y-108365489D01*
X120643262Y-108137928D01*
X120392685Y-107796667D01*
X120282301Y-107591633D01*
X127296424Y-107591633D01*
X127331532Y-107921279D01*
X127362290Y-107980718D01*
X127592738Y-108095852D01*
X128033244Y-108240963D01*
X128326185Y-108319385D01*
X128846368Y-108478696D01*
X129114381Y-108662251D01*
X129214670Y-108925196D01*
X129188422Y-109311682D01*
X129087670Y-109509396D01*
X128914634Y-109890252D01*
X128992398Y-110317098D01*
X129200334Y-110567116D01*
X129396210Y-110678417D01*
X129541131Y-110643414D01*
X129660955Y-110414244D01*
X129781541Y-109943045D01*
X129918472Y-109237868D01*
X130022900Y-108610158D01*
X130047329Y-108218570D01*
X129987724Y-107969187D01*
X129856053Y-107785561D01*
X129680526Y-107510580D01*
X129556621Y-107091620D01*
X129463686Y-106447412D01*
X129430929Y-106112588D01*
X129286325Y-105979737D01*
X128867970Y-105989051D01*
X128791071Y-106000525D01*
X128108789Y-106134776D01*
X127690150Y-106308750D01*
X127460565Y-106579276D01*
X127345442Y-107003185D01*
X127329191Y-107114317D01*
X127296424Y-107591633D01*
X120282301Y-107591633D01*
X120122311Y-107294460D01*
X119877033Y-106736531D01*
X119701746Y-106228104D01*
X119641346Y-105874405D01*
X119652097Y-105814825D01*
X119862442Y-105631798D01*
X120259735Y-105484841D01*
X120298892Y-105476192D01*
X120866812Y-105309033D01*
X121542830Y-105038124D01*
X122248165Y-104704455D01*
X122904035Y-104349017D01*
X123431661Y-104012799D01*
X123752259Y-103736794D01*
X123805088Y-103651885D01*
X124020103Y-103030356D01*
X124075902Y-102638729D01*
X123934038Y-102390504D01*
X123556064Y-102199181D01*
X123088163Y-102038913D01*
X122611254Y-101863695D01*
X121973046Y-101603385D01*
X121232735Y-101285178D01*
X120449518Y-100936273D01*
X119682591Y-100583868D01*
X118991151Y-100255159D01*
X118434394Y-99977344D01*
X118071518Y-99777620D01*
X117961422Y-99683467D01*
X118156091Y-99607033D01*
X118371432Y-99556528D01*
X118808102Y-99419916D01*
X119093193Y-99290366D01*
X119453359Y-99177095D01*
X120020683Y-99080452D01*
X120585849Y-99027598D01*
X121512205Y-98968177D01*
X122177971Y-98896215D01*
X122660946Y-98785470D01*
X123038929Y-98609695D01*
X123389718Y-98342647D01*
X123791113Y-97958082D01*
X123808836Y-97940370D01*
X124234669Y-97480741D01*
X124542698Y-97083810D01*
X124670131Y-96831101D01*
X124670667Y-96821470D01*
X124561498Y-96389694D01*
X124301287Y-95922951D01*
X124055349Y-95655333D01*
X123926372Y-95418874D01*
X123902042Y-94951012D01*
X123934931Y-94535915D01*
X124035846Y-93585831D01*
X124480256Y-93800784D01*
G36*
X111124000Y-129691333D02*
X111039334Y-129776000D01*
X110954667Y-129691333D01*
X111039334Y-129606666D01*
X111124000Y-129691333D01*
X111124000Y-129691333D01*
G37*
X111124000Y-129691333D02*
X111039334Y-129776000D01*
X110954667Y-129691333D01*
X111039334Y-129606666D01*
X111124000Y-129691333D01*
G36*
X136354667Y-131046000D02*
X136270000Y-131130666D01*
X136185334Y-131046000D01*
X136270000Y-130961333D01*
X136354667Y-131046000D01*
X136354667Y-131046000D01*
G37*
X136354667Y-131046000D02*
X136270000Y-131130666D01*
X136185334Y-131046000D01*
X136270000Y-130961333D01*
X136354667Y-131046000D01*
G36*
X107060000Y-131554000D02*
X106975334Y-131638666D01*
X106890667Y-131554000D01*
X106975334Y-131469333D01*
X107060000Y-131554000D01*
X107060000Y-131554000D01*
G37*
X107060000Y-131554000D02*
X106975334Y-131638666D01*
X106890667Y-131554000D01*
X106975334Y-131469333D01*
X107060000Y-131554000D01*
G36*
X130089334Y-132570000D02*
X130004667Y-132654666D01*
X129920000Y-132570000D01*
X130004667Y-132485333D01*
X130089334Y-132570000D01*
X130089334Y-132570000D01*
G37*
X130089334Y-132570000D02*
X130004667Y-132654666D01*
X129920000Y-132570000D01*
X130004667Y-132485333D01*
X130089334Y-132570000D01*
G36*
X197484000Y-132739333D02*
X197399334Y-132824000D01*
X197314667Y-132739333D01*
X197399334Y-132654666D01*
X197484000Y-132739333D01*
X197484000Y-132739333D01*
G37*
X197484000Y-132739333D02*
X197399334Y-132824000D01*
X197314667Y-132739333D01*
X197399334Y-132654666D01*
X197484000Y-132739333D01*
G36*
X132798667Y-132908666D02*
X132714000Y-132993333D01*
X132629334Y-132908666D01*
X132714000Y-132824000D01*
X132798667Y-132908666D01*
X132798667Y-132908666D01*
G37*
X132798667Y-132908666D02*
X132714000Y-132993333D01*
X132629334Y-132908666D01*
X132714000Y-132824000D01*
X132798667Y-132908666D01*
G36*
X105536000Y-133247333D02*
X105451334Y-133332000D01*
X105366667Y-133247333D01*
X105451334Y-133162666D01*
X105536000Y-133247333D01*
X105536000Y-133247333D01*
G37*
X105536000Y-133247333D02*
X105451334Y-133332000D01*
X105366667Y-133247333D01*
X105451334Y-133162666D01*
X105536000Y-133247333D01*
G36*
X104520000Y-135110000D02*
X104435334Y-135194666D01*
X104350667Y-135110000D01*
X104435334Y-135025333D01*
X104520000Y-135110000D01*
X104520000Y-135110000D01*
G37*
X104520000Y-135110000D02*
X104435334Y-135194666D01*
X104350667Y-135110000D01*
X104435334Y-135025333D01*
X104520000Y-135110000D01*
G36*
X200362667Y-135787333D02*
X200278000Y-135872000D01*
X200193334Y-135787333D01*
X200278000Y-135702666D01*
X200362667Y-135787333D01*
X200362667Y-135787333D01*
G37*
X200362667Y-135787333D02*
X200278000Y-135872000D01*
X200193334Y-135787333D01*
X200278000Y-135702666D01*
X200362667Y-135787333D01*
G36*
X119082667Y-136972666D02*
X118998000Y-137057333D01*
X118913334Y-136972666D01*
X118998000Y-136888000D01*
X119082667Y-136972666D01*
X119082667Y-136972666D01*
G37*
X119082667Y-136972666D02*
X118998000Y-137057333D01*
X118913334Y-136972666D01*
X118998000Y-136888000D01*
X119082667Y-136972666D01*
G36*
X106382667Y-137650000D02*
X106298000Y-137734666D01*
X106213334Y-137650000D01*
X106298000Y-137565333D01*
X106382667Y-137650000D01*
X106382667Y-137650000D01*
G37*
X106382667Y-137650000D02*
X106298000Y-137734666D01*
X106213334Y-137650000D01*
X106298000Y-137565333D01*
X106382667Y-137650000D01*
G36*
X119590667Y-139512666D02*
X119506000Y-139597333D01*
X119421334Y-139512666D01*
X119506000Y-139428000D01*
X119590667Y-139512666D01*
X119590667Y-139512666D01*
G37*
X119590667Y-139512666D02*
X119506000Y-139597333D01*
X119421334Y-139512666D01*
X119506000Y-139428000D01*
X119590667Y-139512666D01*
G36*
X99440000Y-139512666D02*
X99355334Y-139597333D01*
X99270667Y-139512666D01*
X99355334Y-139428000D01*
X99440000Y-139512666D01*
X99440000Y-139512666D01*
G37*
X99440000Y-139512666D02*
X99355334Y-139597333D01*
X99270667Y-139512666D01*
X99355334Y-139428000D01*
X99440000Y-139512666D01*
G36*
X102657334Y-139851333D02*
X102572667Y-139936000D01*
X102488000Y-139851333D01*
X102572667Y-139766666D01*
X102657334Y-139851333D01*
X102657334Y-139851333D01*
G37*
X102657334Y-139851333D02*
X102572667Y-139936000D01*
X102488000Y-139851333D01*
X102572667Y-139766666D01*
X102657334Y-139851333D01*
G36*
X156166667Y-140190000D02*
X156082000Y-140274666D01*
X155997334Y-140190000D01*
X156082000Y-140105333D01*
X156166667Y-140190000D01*
X156166667Y-140190000D01*
G37*
X156166667Y-140190000D02*
X156082000Y-140274666D01*
X155997334Y-140190000D01*
X156082000Y-140105333D01*
X156166667Y-140190000D01*
G36*
X188340000Y-140359333D02*
X188255334Y-140444000D01*
X188170667Y-140359333D01*
X188255334Y-140274666D01*
X188340000Y-140359333D01*
X188340000Y-140359333D01*
G37*
X188340000Y-140359333D02*
X188255334Y-140444000D01*
X188170667Y-140359333D01*
X188255334Y-140274666D01*
X188340000Y-140359333D01*
G36*
X204426667Y-140698000D02*
X204342000Y-140782666D01*
X204257334Y-140698000D01*
X204342000Y-140613333D01*
X204426667Y-140698000D01*
X204426667Y-140698000D01*
G37*
X204426667Y-140698000D02*
X204342000Y-140782666D01*
X204257334Y-140698000D01*
X204342000Y-140613333D01*
X204426667Y-140698000D01*
G36*
X118574667Y-141375333D02*
X118490000Y-141460000D01*
X118405334Y-141375333D01*
X118490000Y-141290666D01*
X118574667Y-141375333D01*
X118574667Y-141375333D01*
G37*
X118574667Y-141375333D02*
X118490000Y-141460000D01*
X118405334Y-141375333D01*
X118490000Y-141290666D01*
X118574667Y-141375333D01*
G04 #@! TO.C,U1*
D11*
G04 #@! TO.C,U2*
D13*
X126389047Y-90561285D02*
X126222380Y-90204142D01*
X126103333Y-90561285D02*
X126103333Y-89811285D01*
X126293809Y-89811285D01*
X126341428Y-89847000D01*
X126365238Y-89882714D01*
X126389047Y-89954142D01*
X126389047Y-90061285D01*
X126365238Y-90132714D01*
X126341428Y-90168428D01*
X126293809Y-90204142D01*
X126103333Y-90204142D01*
X126698571Y-89811285D02*
X126793809Y-89811285D01*
X126841428Y-89847000D01*
X126889047Y-89918428D01*
X126912857Y-90061285D01*
X126912857Y-90311285D01*
X126889047Y-90454142D01*
X126841428Y-90525571D01*
X126793809Y-90561285D01*
X126698571Y-90561285D01*
X126650952Y-90525571D01*
X126603333Y-90454142D01*
X126579523Y-90311285D01*
X126579523Y-90061285D01*
X126603333Y-89918428D01*
X126650952Y-89847000D01*
X126698571Y-89811285D01*
X127079523Y-89811285D02*
X127198571Y-90561285D01*
X127293809Y-90025571D01*
X127389047Y-90561285D01*
X127508095Y-89811285D01*
X127960476Y-90561285D02*
X127674761Y-90561285D01*
X127817619Y-90561285D02*
X127817619Y-89811285D01*
X127770000Y-89918428D01*
X127722380Y-89989857D01*
X127674761Y-90025571D01*
X111272380Y-93037857D02*
X111248571Y-93073571D01*
X111177142Y-93109285D01*
X111129523Y-93109285D01*
X111058095Y-93073571D01*
X111010476Y-93002142D01*
X110986666Y-92930714D01*
X110962857Y-92787857D01*
X110962857Y-92680714D01*
X110986666Y-92537857D01*
X111010476Y-92466428D01*
X111058095Y-92395000D01*
X111129523Y-92359285D01*
X111177142Y-92359285D01*
X111248571Y-92395000D01*
X111272380Y-92430714D01*
X111581904Y-92359285D02*
X111677142Y-92359285D01*
X111724761Y-92395000D01*
X111772380Y-92466428D01*
X111796190Y-92609285D01*
X111796190Y-92859285D01*
X111772380Y-93002142D01*
X111724761Y-93073571D01*
X111677142Y-93109285D01*
X111581904Y-93109285D01*
X111534285Y-93073571D01*
X111486666Y-93002142D01*
X111462857Y-92859285D01*
X111462857Y-92609285D01*
X111486666Y-92466428D01*
X111534285Y-92395000D01*
X111581904Y-92359285D01*
X112248571Y-93109285D02*
X112010476Y-93109285D01*
X112010476Y-92359285D01*
X112629523Y-92609285D02*
X112629523Y-93109285D01*
X112510476Y-92323571D02*
X112391428Y-92859285D01*
X112700952Y-92859285D01*
X126339047Y-93109285D02*
X126172380Y-92752142D01*
X126053333Y-93109285D02*
X126053333Y-92359285D01*
X126243809Y-92359285D01*
X126291428Y-92395000D01*
X126315238Y-92430714D01*
X126339047Y-92502142D01*
X126339047Y-92609285D01*
X126315238Y-92680714D01*
X126291428Y-92716428D01*
X126243809Y-92752142D01*
X126053333Y-92752142D01*
X126648571Y-92359285D02*
X126743809Y-92359285D01*
X126791428Y-92395000D01*
X126839047Y-92466428D01*
X126862857Y-92609285D01*
X126862857Y-92859285D01*
X126839047Y-93002142D01*
X126791428Y-93073571D01*
X126743809Y-93109285D01*
X126648571Y-93109285D01*
X126600952Y-93073571D01*
X126553333Y-93002142D01*
X126529523Y-92859285D01*
X126529523Y-92609285D01*
X126553333Y-92466428D01*
X126600952Y-92395000D01*
X126648571Y-92359285D01*
X127029523Y-92359285D02*
X127148571Y-93109285D01*
X127243809Y-92573571D01*
X127339047Y-93109285D01*
X127458095Y-92359285D01*
X127624761Y-92430714D02*
X127648571Y-92395000D01*
X127696190Y-92359285D01*
X127815238Y-92359285D01*
X127862857Y-92395000D01*
X127886666Y-92430714D01*
X127910476Y-92502142D01*
X127910476Y-92573571D01*
X127886666Y-92680714D01*
X127600952Y-93109285D01*
X127910476Y-93109285D01*
X111272380Y-95633357D02*
X111248571Y-95669071D01*
X111177142Y-95704785D01*
X111129523Y-95704785D01*
X111058095Y-95669071D01*
X111010476Y-95597642D01*
X110986666Y-95526214D01*
X110962857Y-95383357D01*
X110962857Y-95276214D01*
X110986666Y-95133357D01*
X111010476Y-95061928D01*
X111058095Y-94990500D01*
X111129523Y-94954785D01*
X111177142Y-94954785D01*
X111248571Y-94990500D01*
X111272380Y-95026214D01*
X111581904Y-94954785D02*
X111677142Y-94954785D01*
X111724761Y-94990500D01*
X111772380Y-95061928D01*
X111796190Y-95204785D01*
X111796190Y-95454785D01*
X111772380Y-95597642D01*
X111724761Y-95669071D01*
X111677142Y-95704785D01*
X111581904Y-95704785D01*
X111534285Y-95669071D01*
X111486666Y-95597642D01*
X111462857Y-95454785D01*
X111462857Y-95204785D01*
X111486666Y-95061928D01*
X111534285Y-94990500D01*
X111581904Y-94954785D01*
X112248571Y-95704785D02*
X112010476Y-95704785D01*
X112010476Y-94954785D01*
X112653333Y-94954785D02*
X112415238Y-94954785D01*
X112391428Y-95311928D01*
X112415238Y-95276214D01*
X112462857Y-95240500D01*
X112581904Y-95240500D01*
X112629523Y-95276214D01*
X112653333Y-95311928D01*
X112677142Y-95383357D01*
X112677142Y-95561928D01*
X112653333Y-95633357D01*
X112629523Y-95669071D01*
X112581904Y-95704785D01*
X112462857Y-95704785D01*
X112415238Y-95669071D01*
X112391428Y-95633357D01*
X126339047Y-95704785D02*
X126172380Y-95347642D01*
X126053333Y-95704785D02*
X126053333Y-94954785D01*
X126243809Y-94954785D01*
X126291428Y-94990500D01*
X126315238Y-95026214D01*
X126339047Y-95097642D01*
X126339047Y-95204785D01*
X126315238Y-95276214D01*
X126291428Y-95311928D01*
X126243809Y-95347642D01*
X126053333Y-95347642D01*
X126648571Y-94954785D02*
X126743809Y-94954785D01*
X126791428Y-94990500D01*
X126839047Y-95061928D01*
X126862857Y-95204785D01*
X126862857Y-95454785D01*
X126839047Y-95597642D01*
X126791428Y-95669071D01*
X126743809Y-95704785D01*
X126648571Y-95704785D01*
X126600952Y-95669071D01*
X126553333Y-95597642D01*
X126529523Y-95454785D01*
X126529523Y-95204785D01*
X126553333Y-95061928D01*
X126600952Y-94990500D01*
X126648571Y-94954785D01*
X127029523Y-94954785D02*
X127148571Y-95704785D01*
X127243809Y-95169071D01*
X127339047Y-95704785D01*
X127458095Y-94954785D01*
X127600952Y-94954785D02*
X127910476Y-94954785D01*
X127743809Y-95240500D01*
X127815238Y-95240500D01*
X127862857Y-95276214D01*
X127886666Y-95311928D01*
X127910476Y-95383357D01*
X127910476Y-95561928D01*
X127886666Y-95633357D01*
X127862857Y-95669071D01*
X127815238Y-95704785D01*
X127672380Y-95704785D01*
X127624761Y-95669071D01*
X127600952Y-95633357D01*
X111617619Y-97816428D02*
X111689047Y-97852142D01*
X111712857Y-97887857D01*
X111736666Y-97959285D01*
X111736666Y-98066428D01*
X111712857Y-98137857D01*
X111689047Y-98173571D01*
X111641428Y-98209285D01*
X111450952Y-98209285D01*
X111450952Y-97459285D01*
X111617619Y-97459285D01*
X111665238Y-97495000D01*
X111689047Y-97530714D01*
X111712857Y-97602142D01*
X111712857Y-97673571D01*
X111689047Y-97745000D01*
X111665238Y-97780714D01*
X111617619Y-97816428D01*
X111450952Y-97816428D01*
X111927142Y-97530714D02*
X111950952Y-97495000D01*
X111998571Y-97459285D01*
X112117619Y-97459285D01*
X112165238Y-97495000D01*
X112189047Y-97530714D01*
X112212857Y-97602142D01*
X112212857Y-97673571D01*
X112189047Y-97780714D01*
X111903333Y-98209285D01*
X112212857Y-98209285D01*
X126767619Y-97788428D02*
X126839047Y-97824142D01*
X126862857Y-97859857D01*
X126886666Y-97931285D01*
X126886666Y-98038428D01*
X126862857Y-98109857D01*
X126839047Y-98145571D01*
X126791428Y-98181285D01*
X126600952Y-98181285D01*
X126600952Y-97431285D01*
X126767619Y-97431285D01*
X126815238Y-97467000D01*
X126839047Y-97502714D01*
X126862857Y-97574142D01*
X126862857Y-97645571D01*
X126839047Y-97717000D01*
X126815238Y-97752714D01*
X126767619Y-97788428D01*
X126600952Y-97788428D01*
X127315238Y-97681285D02*
X127315238Y-98181285D01*
X127196190Y-97395571D02*
X127077142Y-97931285D01*
X127386666Y-97931285D01*
X126767619Y-100391928D02*
X126839047Y-100427642D01*
X126862857Y-100463357D01*
X126886666Y-100534785D01*
X126886666Y-100641928D01*
X126862857Y-100713357D01*
X126839047Y-100749071D01*
X126791428Y-100784785D01*
X126600952Y-100784785D01*
X126600952Y-100034785D01*
X126767619Y-100034785D01*
X126815238Y-100070500D01*
X126839047Y-100106214D01*
X126862857Y-100177642D01*
X126862857Y-100249071D01*
X126839047Y-100320500D01*
X126815238Y-100356214D01*
X126767619Y-100391928D01*
X126600952Y-100391928D01*
X127339047Y-100034785D02*
X127100952Y-100034785D01*
X127077142Y-100391928D01*
X127100952Y-100356214D01*
X127148571Y-100320500D01*
X127267619Y-100320500D01*
X127315238Y-100356214D01*
X127339047Y-100391928D01*
X127362857Y-100463357D01*
X127362857Y-100641928D01*
X127339047Y-100713357D01*
X127315238Y-100749071D01*
X127267619Y-100784785D01*
X127148571Y-100784785D01*
X127100952Y-100749071D01*
X127077142Y-100713357D01*
X111517619Y-100366428D02*
X111589047Y-100402142D01*
X111612857Y-100437857D01*
X111636666Y-100509285D01*
X111636666Y-100616428D01*
X111612857Y-100687857D01*
X111589047Y-100723571D01*
X111541428Y-100759285D01*
X111350952Y-100759285D01*
X111350952Y-100009285D01*
X111517619Y-100009285D01*
X111565238Y-100045000D01*
X111589047Y-100080714D01*
X111612857Y-100152142D01*
X111612857Y-100223571D01*
X111589047Y-100295000D01*
X111565238Y-100330714D01*
X111517619Y-100366428D01*
X111350952Y-100366428D01*
X112065238Y-100009285D02*
X111970000Y-100009285D01*
X111922380Y-100045000D01*
X111898571Y-100080714D01*
X111850952Y-100187857D01*
X111827142Y-100330714D01*
X111827142Y-100616428D01*
X111850952Y-100687857D01*
X111874761Y-100723571D01*
X111922380Y-100759285D01*
X112017619Y-100759285D01*
X112065238Y-100723571D01*
X112089047Y-100687857D01*
X112112857Y-100616428D01*
X112112857Y-100437857D01*
X112089047Y-100366428D01*
X112065238Y-100330714D01*
X112017619Y-100295000D01*
X111922380Y-100295000D01*
X111874761Y-100330714D01*
X111850952Y-100366428D01*
X111827142Y-100437857D01*
X111322380Y-82887857D02*
X111298571Y-82923571D01*
X111227142Y-82959285D01*
X111179523Y-82959285D01*
X111108095Y-82923571D01*
X111060476Y-82852142D01*
X111036666Y-82780714D01*
X111012857Y-82637857D01*
X111012857Y-82530714D01*
X111036666Y-82387857D01*
X111060476Y-82316428D01*
X111108095Y-82245000D01*
X111179523Y-82209285D01*
X111227142Y-82209285D01*
X111298571Y-82245000D01*
X111322380Y-82280714D01*
X111631904Y-82209285D02*
X111727142Y-82209285D01*
X111774761Y-82245000D01*
X111822380Y-82316428D01*
X111846190Y-82459285D01*
X111846190Y-82709285D01*
X111822380Y-82852142D01*
X111774761Y-82923571D01*
X111727142Y-82959285D01*
X111631904Y-82959285D01*
X111584285Y-82923571D01*
X111536666Y-82852142D01*
X111512857Y-82709285D01*
X111512857Y-82459285D01*
X111536666Y-82316428D01*
X111584285Y-82245000D01*
X111631904Y-82209285D01*
X112298571Y-82959285D02*
X112060476Y-82959285D01*
X112060476Y-82209285D01*
X112560476Y-82209285D02*
X112608095Y-82209285D01*
X112655714Y-82245000D01*
X112679523Y-82280714D01*
X112703333Y-82352142D01*
X112727142Y-82495000D01*
X112727142Y-82673571D01*
X112703333Y-82816428D01*
X112679523Y-82887857D01*
X112655714Y-82923571D01*
X112608095Y-82959285D01*
X112560476Y-82959285D01*
X112512857Y-82923571D01*
X112489047Y-82887857D01*
X112465238Y-82816428D01*
X112441428Y-82673571D01*
X112441428Y-82495000D01*
X112465238Y-82352142D01*
X112489047Y-82280714D01*
X112512857Y-82245000D01*
X112560476Y-82209285D01*
X126623857Y-82905571D02*
X126695285Y-82941285D01*
X126814333Y-82941285D01*
X126861952Y-82905571D01*
X126885761Y-82869857D01*
X126909571Y-82798428D01*
X126909571Y-82727000D01*
X126885761Y-82655571D01*
X126861952Y-82619857D01*
X126814333Y-82584142D01*
X126719095Y-82548428D01*
X126671476Y-82512714D01*
X126647666Y-82477000D01*
X126623857Y-82405571D01*
X126623857Y-82334142D01*
X126647666Y-82262714D01*
X126671476Y-82227000D01*
X126719095Y-82191285D01*
X126838142Y-82191285D01*
X126909571Y-82227000D01*
X127123857Y-82941285D02*
X127123857Y-82191285D01*
X127242904Y-82191285D01*
X127314333Y-82227000D01*
X127361952Y-82298428D01*
X127385761Y-82369857D01*
X127409571Y-82512714D01*
X127409571Y-82619857D01*
X127385761Y-82762714D01*
X127361952Y-82834142D01*
X127314333Y-82905571D01*
X127242904Y-82941285D01*
X127123857Y-82941285D01*
X127600047Y-82727000D02*
X127838142Y-82727000D01*
X127552428Y-82941285D02*
X127719095Y-82191285D01*
X127885761Y-82941285D01*
X111372380Y-85409857D02*
X111348571Y-85445571D01*
X111277142Y-85481285D01*
X111229523Y-85481285D01*
X111158095Y-85445571D01*
X111110476Y-85374142D01*
X111086666Y-85302714D01*
X111062857Y-85159857D01*
X111062857Y-85052714D01*
X111086666Y-84909857D01*
X111110476Y-84838428D01*
X111158095Y-84767000D01*
X111229523Y-84731285D01*
X111277142Y-84731285D01*
X111348571Y-84767000D01*
X111372380Y-84802714D01*
X111681904Y-84731285D02*
X111777142Y-84731285D01*
X111824761Y-84767000D01*
X111872380Y-84838428D01*
X111896190Y-84981285D01*
X111896190Y-85231285D01*
X111872380Y-85374142D01*
X111824761Y-85445571D01*
X111777142Y-85481285D01*
X111681904Y-85481285D01*
X111634285Y-85445571D01*
X111586666Y-85374142D01*
X111562857Y-85231285D01*
X111562857Y-84981285D01*
X111586666Y-84838428D01*
X111634285Y-84767000D01*
X111681904Y-84731285D01*
X112348571Y-85481285D02*
X112110476Y-85481285D01*
X112110476Y-84731285D01*
X112777142Y-85481285D02*
X112491428Y-85481285D01*
X112634285Y-85481285D02*
X112634285Y-84731285D01*
X112586666Y-84838428D01*
X112539047Y-84909857D01*
X112491428Y-84945571D01*
X126635761Y-85445571D02*
X126707190Y-85481285D01*
X126826238Y-85481285D01*
X126873857Y-85445571D01*
X126897666Y-85409857D01*
X126921476Y-85338428D01*
X126921476Y-85267000D01*
X126897666Y-85195571D01*
X126873857Y-85159857D01*
X126826238Y-85124142D01*
X126731000Y-85088428D01*
X126683380Y-85052714D01*
X126659571Y-85017000D01*
X126635761Y-84945571D01*
X126635761Y-84874142D01*
X126659571Y-84802714D01*
X126683380Y-84767000D01*
X126731000Y-84731285D01*
X126850047Y-84731285D01*
X126921476Y-84767000D01*
X127421476Y-85409857D02*
X127397666Y-85445571D01*
X127326238Y-85481285D01*
X127278619Y-85481285D01*
X127207190Y-85445571D01*
X127159571Y-85374142D01*
X127135761Y-85302714D01*
X127111952Y-85159857D01*
X127111952Y-85052714D01*
X127135761Y-84909857D01*
X127159571Y-84838428D01*
X127207190Y-84767000D01*
X127278619Y-84731285D01*
X127326238Y-84731285D01*
X127397666Y-84767000D01*
X127421476Y-84802714D01*
X127873857Y-85481285D02*
X127635761Y-85481285D01*
X127635761Y-84731285D01*
X111322380Y-87949857D02*
X111298571Y-87985571D01*
X111227142Y-88021285D01*
X111179523Y-88021285D01*
X111108095Y-87985571D01*
X111060476Y-87914142D01*
X111036666Y-87842714D01*
X111012857Y-87699857D01*
X111012857Y-87592714D01*
X111036666Y-87449857D01*
X111060476Y-87378428D01*
X111108095Y-87307000D01*
X111179523Y-87271285D01*
X111227142Y-87271285D01*
X111298571Y-87307000D01*
X111322380Y-87342714D01*
X111631904Y-87271285D02*
X111727142Y-87271285D01*
X111774761Y-87307000D01*
X111822380Y-87378428D01*
X111846190Y-87521285D01*
X111846190Y-87771285D01*
X111822380Y-87914142D01*
X111774761Y-87985571D01*
X111727142Y-88021285D01*
X111631904Y-88021285D01*
X111584285Y-87985571D01*
X111536666Y-87914142D01*
X111512857Y-87771285D01*
X111512857Y-87521285D01*
X111536666Y-87378428D01*
X111584285Y-87307000D01*
X111631904Y-87271285D01*
X112298571Y-88021285D02*
X112060476Y-88021285D01*
X112060476Y-87271285D01*
X112441428Y-87342714D02*
X112465238Y-87307000D01*
X112512857Y-87271285D01*
X112631904Y-87271285D01*
X112679523Y-87307000D01*
X112703333Y-87342714D01*
X112727142Y-87414142D01*
X112727142Y-87485571D01*
X112703333Y-87592714D01*
X112417619Y-88021285D01*
X112727142Y-88021285D01*
X126339047Y-88059285D02*
X126172380Y-87702142D01*
X126053333Y-88059285D02*
X126053333Y-87309285D01*
X126243809Y-87309285D01*
X126291428Y-87345000D01*
X126315238Y-87380714D01*
X126339047Y-87452142D01*
X126339047Y-87559285D01*
X126315238Y-87630714D01*
X126291428Y-87666428D01*
X126243809Y-87702142D01*
X126053333Y-87702142D01*
X126648571Y-87309285D02*
X126743809Y-87309285D01*
X126791428Y-87345000D01*
X126839047Y-87416428D01*
X126862857Y-87559285D01*
X126862857Y-87809285D01*
X126839047Y-87952142D01*
X126791428Y-88023571D01*
X126743809Y-88059285D01*
X126648571Y-88059285D01*
X126600952Y-88023571D01*
X126553333Y-87952142D01*
X126529523Y-87809285D01*
X126529523Y-87559285D01*
X126553333Y-87416428D01*
X126600952Y-87345000D01*
X126648571Y-87309285D01*
X127029523Y-87309285D02*
X127148571Y-88059285D01*
X127243809Y-87523571D01*
X127339047Y-88059285D01*
X127458095Y-87309285D01*
X127743809Y-87309285D02*
X127791428Y-87309285D01*
X127839047Y-87345000D01*
X127862857Y-87380714D01*
X127886666Y-87452142D01*
X127910476Y-87595000D01*
X127910476Y-87773571D01*
X127886666Y-87916428D01*
X127862857Y-87987857D01*
X127839047Y-88023571D01*
X127791428Y-88059285D01*
X127743809Y-88059285D01*
X127696190Y-88023571D01*
X127672380Y-87987857D01*
X127648571Y-87916428D01*
X127624761Y-87773571D01*
X127624761Y-87595000D01*
X127648571Y-87452142D01*
X127672380Y-87380714D01*
X127696190Y-87345000D01*
X127743809Y-87309285D01*
X111222380Y-90537857D02*
X111198571Y-90573571D01*
X111127142Y-90609285D01*
X111079523Y-90609285D01*
X111008095Y-90573571D01*
X110960476Y-90502142D01*
X110936666Y-90430714D01*
X110912857Y-90287857D01*
X110912857Y-90180714D01*
X110936666Y-90037857D01*
X110960476Y-89966428D01*
X111008095Y-89895000D01*
X111079523Y-89859285D01*
X111127142Y-89859285D01*
X111198571Y-89895000D01*
X111222380Y-89930714D01*
X111531904Y-89859285D02*
X111627142Y-89859285D01*
X111674761Y-89895000D01*
X111722380Y-89966428D01*
X111746190Y-90109285D01*
X111746190Y-90359285D01*
X111722380Y-90502142D01*
X111674761Y-90573571D01*
X111627142Y-90609285D01*
X111531904Y-90609285D01*
X111484285Y-90573571D01*
X111436666Y-90502142D01*
X111412857Y-90359285D01*
X111412857Y-90109285D01*
X111436666Y-89966428D01*
X111484285Y-89895000D01*
X111531904Y-89859285D01*
X112198571Y-90609285D02*
X111960476Y-90609285D01*
X111960476Y-89859285D01*
X112317619Y-89859285D02*
X112627142Y-89859285D01*
X112460476Y-90145000D01*
X112531904Y-90145000D01*
X112579523Y-90180714D01*
X112603333Y-90216428D01*
X112627142Y-90287857D01*
X112627142Y-90466428D01*
X112603333Y-90537857D01*
X112579523Y-90573571D01*
X112531904Y-90609285D01*
X112389047Y-90609285D01*
X112341428Y-90573571D01*
X112317619Y-90537857D01*
X126850047Y-79750500D02*
X126802428Y-79714785D01*
X126731000Y-79714785D01*
X126659571Y-79750500D01*
X126611952Y-79821928D01*
X126588142Y-79893357D01*
X126564333Y-80036214D01*
X126564333Y-80143357D01*
X126588142Y-80286214D01*
X126611952Y-80357642D01*
X126659571Y-80429071D01*
X126731000Y-80464785D01*
X126778619Y-80464785D01*
X126850047Y-80429071D01*
X126873857Y-80393357D01*
X126873857Y-80143357D01*
X126778619Y-80143357D01*
X127088142Y-80464785D02*
X127088142Y-79714785D01*
X127373857Y-80464785D01*
X127373857Y-79714785D01*
X127611952Y-80464785D02*
X127611952Y-79714785D01*
X127731000Y-79714785D01*
X127802428Y-79750500D01*
X127850047Y-79821928D01*
X127873857Y-79893357D01*
X127897666Y-80036214D01*
X127897666Y-80143357D01*
X127873857Y-80286214D01*
X127850047Y-80357642D01*
X127802428Y-80429071D01*
X127731000Y-80464785D01*
X127611952Y-80464785D01*
X111387833Y-79651285D02*
X111554500Y-80401285D01*
X111721166Y-79651285D01*
X112173547Y-80329857D02*
X112149738Y-80365571D01*
X112078309Y-80401285D01*
X112030690Y-80401285D01*
X111959261Y-80365571D01*
X111911642Y-80294142D01*
X111887833Y-80222714D01*
X111864023Y-80079857D01*
X111864023Y-79972714D01*
X111887833Y-79829857D01*
X111911642Y-79758428D01*
X111959261Y-79687000D01*
X112030690Y-79651285D01*
X112078309Y-79651285D01*
X112149738Y-79687000D01*
X112173547Y-79722714D01*
X112673547Y-80329857D02*
X112649738Y-80365571D01*
X112578309Y-80401285D01*
X112530690Y-80401285D01*
X112459261Y-80365571D01*
X112411642Y-80294142D01*
X112387833Y-80222714D01*
X112364023Y-80079857D01*
X112364023Y-79972714D01*
X112387833Y-79829857D01*
X112411642Y-79758428D01*
X112459261Y-79687000D01*
X112530690Y-79651285D01*
X112578309Y-79651285D01*
X112649738Y-79687000D01*
X112673547Y-79722714D01*
X126913547Y-77210500D02*
X126865928Y-77174785D01*
X126794500Y-77174785D01*
X126723071Y-77210500D01*
X126675452Y-77281928D01*
X126651642Y-77353357D01*
X126627833Y-77496214D01*
X126627833Y-77603357D01*
X126651642Y-77746214D01*
X126675452Y-77817642D01*
X126723071Y-77889071D01*
X126794500Y-77924785D01*
X126842119Y-77924785D01*
X126913547Y-77889071D01*
X126937357Y-77853357D01*
X126937357Y-77603357D01*
X126842119Y-77603357D01*
X127151642Y-77924785D02*
X127151642Y-77174785D01*
X127437357Y-77924785D01*
X127437357Y-77174785D01*
X127675452Y-77924785D02*
X127675452Y-77174785D01*
X127794500Y-77174785D01*
X127865928Y-77210500D01*
X127913547Y-77281928D01*
X127937357Y-77353357D01*
X127961166Y-77496214D01*
X127961166Y-77603357D01*
X127937357Y-77746214D01*
X127913547Y-77817642D01*
X127865928Y-77889071D01*
X127794500Y-77924785D01*
X127675452Y-77924785D01*
X111780690Y-77924785D02*
X111614023Y-77567642D01*
X111494976Y-77924785D02*
X111494976Y-77174785D01*
X111685452Y-77174785D01*
X111733071Y-77210500D01*
X111756880Y-77246214D01*
X111780690Y-77317642D01*
X111780690Y-77424785D01*
X111756880Y-77496214D01*
X111733071Y-77531928D01*
X111685452Y-77567642D01*
X111494976Y-77567642D01*
X111971166Y-77889071D02*
X112042595Y-77924785D01*
X112161642Y-77924785D01*
X112209261Y-77889071D01*
X112233071Y-77853357D01*
X112256880Y-77781928D01*
X112256880Y-77710500D01*
X112233071Y-77639071D01*
X112209261Y-77603357D01*
X112161642Y-77567642D01*
X112066404Y-77531928D01*
X112018785Y-77496214D01*
X111994976Y-77460500D01*
X111971166Y-77389071D01*
X111971166Y-77317642D01*
X111994976Y-77246214D01*
X112018785Y-77210500D01*
X112066404Y-77174785D01*
X112185452Y-77174785D01*
X112256880Y-77210500D01*
X112399738Y-77174785D02*
X112685452Y-77174785D01*
X112542595Y-77924785D02*
X112542595Y-77174785D01*
X126370000Y-75309285D02*
X126370000Y-74559285D01*
X126489047Y-74559285D01*
X126560476Y-74595000D01*
X126608095Y-74666428D01*
X126631904Y-74737857D01*
X126655714Y-74880714D01*
X126655714Y-74987857D01*
X126631904Y-75130714D01*
X126608095Y-75202142D01*
X126560476Y-75273571D01*
X126489047Y-75309285D01*
X126370000Y-75309285D01*
X126846190Y-75095000D02*
X127084285Y-75095000D01*
X126798571Y-75309285D02*
X126965238Y-74559285D01*
X127131904Y-75309285D01*
X127227142Y-74559285D02*
X127512857Y-74559285D01*
X127370000Y-75309285D02*
X127370000Y-74559285D01*
X127655714Y-75095000D02*
X127893809Y-75095000D01*
X127608095Y-75309285D02*
X127774761Y-74559285D01*
X127941428Y-75309285D01*
X111673547Y-74607000D02*
X111625928Y-74571285D01*
X111554500Y-74571285D01*
X111483071Y-74607000D01*
X111435452Y-74678428D01*
X111411642Y-74749857D01*
X111387833Y-74892714D01*
X111387833Y-74999857D01*
X111411642Y-75142714D01*
X111435452Y-75214142D01*
X111483071Y-75285571D01*
X111554500Y-75321285D01*
X111602119Y-75321285D01*
X111673547Y-75285571D01*
X111697357Y-75249857D01*
X111697357Y-74999857D01*
X111602119Y-74999857D01*
X111911642Y-75321285D02*
X111911642Y-74571285D01*
X112197357Y-75321285D01*
X112197357Y-74571285D01*
X112435452Y-75321285D02*
X112435452Y-74571285D01*
X112554500Y-74571285D01*
X112625928Y-74607000D01*
X112673547Y-74678428D01*
X112697357Y-74749857D01*
X112721166Y-74892714D01*
X112721166Y-74999857D01*
X112697357Y-75142714D01*
X112673547Y-75214142D01*
X112625928Y-75285571D01*
X112554500Y-75321285D01*
X112435452Y-75321285D01*
X126948571Y-72781285D02*
X126710476Y-72781285D01*
X126710476Y-72031285D01*
X127115238Y-72388428D02*
X127281904Y-72388428D01*
X127353333Y-72781285D02*
X127115238Y-72781285D01*
X127115238Y-72031285D01*
X127353333Y-72031285D01*
X127567619Y-72781285D02*
X127567619Y-72031285D01*
X127686666Y-72031285D01*
X127758095Y-72067000D01*
X127805714Y-72138428D01*
X127829523Y-72209857D01*
X127853333Y-72352714D01*
X127853333Y-72459857D01*
X127829523Y-72602714D01*
X127805714Y-72674142D01*
X127758095Y-72745571D01*
X127686666Y-72781285D01*
X127567619Y-72781285D01*
X111709261Y-72781285D02*
X111542595Y-72424142D01*
X111423547Y-72781285D02*
X111423547Y-72031285D01*
X111614023Y-72031285D01*
X111661642Y-72067000D01*
X111685452Y-72102714D01*
X111709261Y-72174142D01*
X111709261Y-72281285D01*
X111685452Y-72352714D01*
X111661642Y-72388428D01*
X111614023Y-72424142D01*
X111423547Y-72424142D01*
X111899738Y-72567000D02*
X112137833Y-72567000D01*
X111852119Y-72781285D02*
X112018785Y-72031285D01*
X112185452Y-72781285D01*
X112304500Y-72031285D02*
X112423547Y-72781285D01*
X112518785Y-72245571D01*
X112614023Y-72781285D01*
X112733071Y-72031285D01*
D11*
G04 #@! TO.C,J1*
X211248095Y-103232380D02*
X211819523Y-103232380D01*
X211533809Y-104232380D02*
X211533809Y-103232380D01*
X212724285Y-104232380D02*
X212390952Y-103756190D01*
X212152857Y-104232380D02*
X212152857Y-103232380D01*
X212533809Y-103232380D01*
X212629047Y-103280000D01*
X212676666Y-103327619D01*
X212724285Y-103422857D01*
X212724285Y-103565714D01*
X212676666Y-103660952D01*
X212629047Y-103708571D01*
X212533809Y-103756190D01*
X212152857Y-103756190D01*
X213724285Y-104232380D02*
X213390952Y-103756190D01*
X213152857Y-104232380D02*
X213152857Y-103232380D01*
X213533809Y-103232380D01*
X213629047Y-103280000D01*
X213676666Y-103327619D01*
X213724285Y-103422857D01*
X213724285Y-103565714D01*
X213676666Y-103660952D01*
X213629047Y-103708571D01*
X213533809Y-103756190D01*
X213152857Y-103756190D01*
X214105238Y-104184761D02*
X214248095Y-104232380D01*
X214486190Y-104232380D01*
X214581428Y-104184761D01*
X214629047Y-104137142D01*
X214676666Y-104041904D01*
X214676666Y-103946666D01*
X214629047Y-103851428D01*
X214581428Y-103803809D01*
X214486190Y-103756190D01*
X214295714Y-103708571D01*
X214200476Y-103660952D01*
X214152857Y-103613333D01*
X214105238Y-103518095D01*
X214105238Y-103422857D01*
X214152857Y-103327619D01*
X214200476Y-103280000D01*
X214295714Y-103232380D01*
X214533809Y-103232380D01*
X214676666Y-103280000D01*
G04 #@! TO.C,SW20*
X215762380Y-118312380D02*
X215286190Y-118645714D01*
X215762380Y-118883809D02*
X214762380Y-118883809D01*
X214762380Y-118502857D01*
X214810000Y-118407619D01*
X214857619Y-118360000D01*
X214952857Y-118312380D01*
X215095714Y-118312380D01*
X215190952Y-118360000D01*
X215238571Y-118407619D01*
X215286190Y-118502857D01*
X215286190Y-118883809D01*
X215238571Y-117883809D02*
X215238571Y-117550476D01*
X215762380Y-117407619D02*
X215762380Y-117883809D01*
X214762380Y-117883809D01*
X214762380Y-117407619D01*
X215714761Y-117026666D02*
X215762380Y-116883809D01*
X215762380Y-116645714D01*
X215714761Y-116550476D01*
X215667142Y-116502857D01*
X215571904Y-116455238D01*
X215476666Y-116455238D01*
X215381428Y-116502857D01*
X215333809Y-116550476D01*
X215286190Y-116645714D01*
X215238571Y-116836190D01*
X215190952Y-116931428D01*
X215143333Y-116979047D01*
X215048095Y-117026666D01*
X214952857Y-117026666D01*
X214857619Y-116979047D01*
X214810000Y-116931428D01*
X214762380Y-116836190D01*
X214762380Y-116598095D01*
X214810000Y-116455238D01*
X215238571Y-116026666D02*
X215238571Y-115693333D01*
X215762380Y-115550476D02*
X215762380Y-116026666D01*
X214762380Y-116026666D01*
X214762380Y-115550476D01*
X214762380Y-115264761D02*
X214762380Y-114693333D01*
X215762380Y-114979047D02*
X214762380Y-114979047D01*
G04 #@! TD*
M02*
