G04 #@! TF.GenerationSoftware,KiCad,Pcbnew,(5.0.0)*
G04 #@! TF.CreationDate,2019-03-05T23:50:30+08:00*
G04 #@! TF.ProjectId,Shinonome,5368696E6F6E6F6D652E6B696361645F,rev?*
G04 #@! TF.SameCoordinates,Original*
G04 #@! TF.FileFunction,Legend,Bot*
G04 #@! TF.FilePolarity,Positive*
%FSLAX46Y46*%
G04 Gerber Fmt 4.6, Leading zero omitted, Abs format (unit mm)*
G04 Created by KiCad (PCBNEW (5.0.0)) date 03/05/19 23:50:30*
%MOMM*%
%LPD*%
G01*
G04 APERTURE LIST*
%ADD10C,0.150000*%
%ADD11C,0.125000*%
G04 APERTURE END LIST*
D10*
G04 #@! TO.C,U1*
X134513600Y-101632000D02*
X134513600Y-71152000D01*
X131973600Y-101632000D02*
X134513600Y-101632000D01*
X131973600Y-71152000D02*
X131973600Y-101632000D01*
X134513600Y-71152000D02*
X131973600Y-71152000D01*
X149733600Y-101632000D02*
X149733600Y-71152000D01*
X147193600Y-101632000D02*
X149733600Y-101632000D01*
X147193600Y-71152000D02*
X147193600Y-101632000D01*
X149733600Y-71152000D02*
X147193600Y-71152000D01*
G04 #@! TO.C,D1*
X102370000Y-103870000D02*
X103270000Y-103370000D01*
X103270000Y-103370000D02*
X103270000Y-104370000D01*
X103270000Y-104370000D02*
X102370000Y-103870000D01*
X102270000Y-103370000D02*
X102270000Y-104370000D01*
X105470000Y-103120000D02*
X100070000Y-103120000D01*
X100070000Y-103120000D02*
X100070000Y-104620000D01*
X100070000Y-104620000D02*
X105470000Y-104620000D01*
X105470000Y-104620000D02*
X105470000Y-103120000D01*
G04 #@! TO.C,D2*
X102370000Y-122820000D02*
X103270000Y-122320000D01*
X103270000Y-122320000D02*
X103270000Y-123320000D01*
X103270000Y-123320000D02*
X102370000Y-122820000D01*
X102270000Y-122320000D02*
X102270000Y-123320000D01*
X105470000Y-122070000D02*
X100070000Y-122070000D01*
X100070000Y-122070000D02*
X100070000Y-123570000D01*
X100070000Y-123570000D02*
X105470000Y-123570000D01*
X105470000Y-123570000D02*
X105470000Y-122070000D01*
G04 #@! TO.C,D3*
X102370000Y-141930000D02*
X103270000Y-141430000D01*
X103270000Y-141430000D02*
X103270000Y-142430000D01*
X103270000Y-142430000D02*
X102370000Y-141930000D01*
X102270000Y-141430000D02*
X102270000Y-142430000D01*
X105470000Y-141180000D02*
X100070000Y-141180000D01*
X100070000Y-141180000D02*
X100070000Y-142680000D01*
X100070000Y-142680000D02*
X105470000Y-142680000D01*
X105470000Y-142680000D02*
X105470000Y-141180000D01*
G04 #@! TO.C,D4*
X124490000Y-92660000D02*
X124490000Y-91160000D01*
X119090000Y-92660000D02*
X124490000Y-92660000D01*
X119090000Y-91160000D02*
X119090000Y-92660000D01*
X124490000Y-91160000D02*
X119090000Y-91160000D01*
X121290000Y-91410000D02*
X121290000Y-92410000D01*
X122290000Y-92410000D02*
X121390000Y-91910000D01*
X122290000Y-91410000D02*
X122290000Y-92410000D01*
X121390000Y-91910000D02*
X122290000Y-91410000D01*
G04 #@! TO.C,D5*
X124520000Y-111730000D02*
X124520000Y-110230000D01*
X119120000Y-111730000D02*
X124520000Y-111730000D01*
X119120000Y-110230000D02*
X119120000Y-111730000D01*
X124520000Y-110230000D02*
X119120000Y-110230000D01*
X121320000Y-110480000D02*
X121320000Y-111480000D01*
X122320000Y-111480000D02*
X121420000Y-110980000D01*
X122320000Y-110480000D02*
X122320000Y-111480000D01*
X121420000Y-110980000D02*
X122320000Y-110480000D01*
G04 #@! TO.C,D6*
X124530000Y-130820000D02*
X124530000Y-129320000D01*
X119130000Y-130820000D02*
X124530000Y-130820000D01*
X119130000Y-129320000D02*
X119130000Y-130820000D01*
X124530000Y-129320000D02*
X119130000Y-129320000D01*
X121330000Y-129570000D02*
X121330000Y-130570000D01*
X122330000Y-130570000D02*
X121430000Y-130070000D01*
X122330000Y-129570000D02*
X122330000Y-130570000D01*
X121430000Y-130070000D02*
X122330000Y-129570000D01*
G04 #@! TO.C,D7*
X140480000Y-89670000D02*
X141380000Y-89170000D01*
X141380000Y-89170000D02*
X141380000Y-90170000D01*
X141380000Y-90170000D02*
X140480000Y-89670000D01*
X140380000Y-89170000D02*
X140380000Y-90170000D01*
X143580000Y-88920000D02*
X138180000Y-88920000D01*
X138180000Y-88920000D02*
X138180000Y-90420000D01*
X138180000Y-90420000D02*
X143580000Y-90420000D01*
X143580000Y-90420000D02*
X143580000Y-88920000D01*
G04 #@! TO.C,D8*
X140490000Y-108620000D02*
X141390000Y-108120000D01*
X141390000Y-108120000D02*
X141390000Y-109120000D01*
X141390000Y-109120000D02*
X140490000Y-108620000D01*
X140390000Y-108120000D02*
X140390000Y-109120000D01*
X143590000Y-107870000D02*
X138190000Y-107870000D01*
X138190000Y-107870000D02*
X138190000Y-109370000D01*
X138190000Y-109370000D02*
X143590000Y-109370000D01*
X143590000Y-109370000D02*
X143590000Y-107870000D01*
G04 #@! TO.C,D9*
X140500000Y-127690000D02*
X141400000Y-127190000D01*
X141400000Y-127190000D02*
X141400000Y-128190000D01*
X141400000Y-128190000D02*
X140500000Y-127690000D01*
X140400000Y-127190000D02*
X140400000Y-128190000D01*
X143600000Y-126940000D02*
X138200000Y-126940000D01*
X138200000Y-126940000D02*
X138200000Y-128440000D01*
X138200000Y-128440000D02*
X143600000Y-128440000D01*
X143600000Y-128440000D02*
X143600000Y-126940000D01*
G04 #@! TO.C,D10*
X162630000Y-95040000D02*
X162630000Y-93540000D01*
X157230000Y-95040000D02*
X162630000Y-95040000D01*
X157230000Y-93540000D02*
X157230000Y-95040000D01*
X162630000Y-93540000D02*
X157230000Y-93540000D01*
X159430000Y-93790000D02*
X159430000Y-94790000D01*
X160430000Y-94790000D02*
X159530000Y-94290000D01*
X160430000Y-93790000D02*
X160430000Y-94790000D01*
X159530000Y-94290000D02*
X160430000Y-93790000D01*
G04 #@! TO.C,D11*
X162620000Y-114110000D02*
X162620000Y-112610000D01*
X157220000Y-114110000D02*
X162620000Y-114110000D01*
X157220000Y-112610000D02*
X157220000Y-114110000D01*
X162620000Y-112610000D02*
X157220000Y-112610000D01*
X159420000Y-112860000D02*
X159420000Y-113860000D01*
X160420000Y-113860000D02*
X159520000Y-113360000D01*
X160420000Y-112860000D02*
X160420000Y-113860000D01*
X159520000Y-113360000D02*
X160420000Y-112860000D01*
G04 #@! TO.C,D12*
X162600000Y-133190000D02*
X162600000Y-131690000D01*
X157200000Y-133190000D02*
X162600000Y-133190000D01*
X157200000Y-131690000D02*
X157200000Y-133190000D01*
X162600000Y-131690000D02*
X157200000Y-131690000D01*
X159400000Y-131940000D02*
X159400000Y-132940000D01*
X160400000Y-132940000D02*
X159500000Y-132440000D01*
X160400000Y-131940000D02*
X160400000Y-132940000D01*
X159500000Y-132440000D02*
X160400000Y-131940000D01*
G04 #@! TO.C,D13*
X159540000Y-151450000D02*
X160440000Y-150950000D01*
X160440000Y-150950000D02*
X160440000Y-151950000D01*
X160440000Y-151950000D02*
X159540000Y-151450000D01*
X159440000Y-150950000D02*
X159440000Y-151950000D01*
X162640000Y-150700000D02*
X157240000Y-150700000D01*
X157240000Y-150700000D02*
X157240000Y-152200000D01*
X157240000Y-152200000D02*
X162640000Y-152200000D01*
X162640000Y-152200000D02*
X162640000Y-150700000D01*
G04 #@! TO.C,D14*
X178580000Y-94310000D02*
X179480000Y-93810000D01*
X179480000Y-93810000D02*
X179480000Y-94810000D01*
X179480000Y-94810000D02*
X178580000Y-94310000D01*
X178480000Y-93810000D02*
X178480000Y-94810000D01*
X181680000Y-93560000D02*
X176280000Y-93560000D01*
X176280000Y-93560000D02*
X176280000Y-95060000D01*
X176280000Y-95060000D02*
X181680000Y-95060000D01*
X181680000Y-95060000D02*
X181680000Y-93560000D01*
G04 #@! TO.C,D15*
X181690000Y-114150000D02*
X181690000Y-112650000D01*
X176290000Y-114150000D02*
X181690000Y-114150000D01*
X176290000Y-112650000D02*
X176290000Y-114150000D01*
X181690000Y-112650000D02*
X176290000Y-112650000D01*
X178490000Y-112900000D02*
X178490000Y-113900000D01*
X179490000Y-113900000D02*
X178590000Y-113400000D01*
X179490000Y-112900000D02*
X179490000Y-113900000D01*
X178590000Y-113400000D02*
X179490000Y-112900000D01*
G04 #@! TO.C,D16*
X178610000Y-132440000D02*
X179510000Y-131940000D01*
X179510000Y-131940000D02*
X179510000Y-132940000D01*
X179510000Y-132940000D02*
X178610000Y-132440000D01*
X178510000Y-131940000D02*
X178510000Y-132940000D01*
X181710000Y-131690000D02*
X176310000Y-131690000D01*
X176310000Y-131690000D02*
X176310000Y-133190000D01*
X176310000Y-133190000D02*
X181710000Y-133190000D01*
X181710000Y-133190000D02*
X181710000Y-131690000D01*
G04 #@! TO.C,D17*
X178560000Y-151440000D02*
X179460000Y-150940000D01*
X179460000Y-150940000D02*
X179460000Y-151940000D01*
X179460000Y-151940000D02*
X178560000Y-151440000D01*
X178460000Y-150940000D02*
X178460000Y-151940000D01*
X181660000Y-150690000D02*
X176260000Y-150690000D01*
X176260000Y-150690000D02*
X176260000Y-152190000D01*
X176260000Y-152190000D02*
X181660000Y-152190000D01*
X181660000Y-152190000D02*
X181660000Y-150690000D01*
G04 #@! TO.C,D18*
X197610000Y-118170000D02*
X198510000Y-117670000D01*
X198510000Y-117670000D02*
X198510000Y-118670000D01*
X198510000Y-118670000D02*
X197610000Y-118170000D01*
X197510000Y-117670000D02*
X197510000Y-118670000D01*
X200710000Y-117420000D02*
X195310000Y-117420000D01*
X195310000Y-117420000D02*
X195310000Y-118920000D01*
X195310000Y-118920000D02*
X200710000Y-118920000D01*
X200710000Y-118920000D02*
X200710000Y-117420000D01*
G04 #@! TO.C,D19*
X197630000Y-141940000D02*
X198530000Y-141440000D01*
X198530000Y-141440000D02*
X198530000Y-142440000D01*
X198530000Y-142440000D02*
X197630000Y-141940000D01*
X197530000Y-141440000D02*
X197530000Y-142440000D01*
X200730000Y-141190000D02*
X195330000Y-141190000D01*
X195330000Y-141190000D02*
X195330000Y-142690000D01*
X195330000Y-142690000D02*
X200730000Y-142690000D01*
X200730000Y-142690000D02*
X200730000Y-141190000D01*
G04 #@! TO.C,J1*
X209010000Y-97330000D02*
X215010000Y-97330000D01*
X215010000Y-97330000D02*
X215010000Y-109330000D01*
X215010000Y-109330000D02*
X209010000Y-109330000D01*
X209010000Y-109330000D02*
X209010000Y-97330000D01*
G04 #@! TO.C,SW20*
X213810000Y-119860000D02*
X213560000Y-119860000D01*
X213560000Y-119860000D02*
X213560000Y-113860000D01*
X213560000Y-113860000D02*
X213810000Y-113860000D01*
X216810000Y-113860000D02*
X217060000Y-113860000D01*
X217060000Y-113860000D02*
X217060000Y-119860000D01*
X217060000Y-119860000D02*
X216810000Y-119860000D01*
G04 #@! TO.C,U1*
D11*
X136280952Y-90541285D02*
X136447619Y-90184142D01*
X136566666Y-90541285D02*
X136566666Y-89791285D01*
X136376190Y-89791285D01*
X136328571Y-89827000D01*
X136304761Y-89862714D01*
X136280952Y-89934142D01*
X136280952Y-90041285D01*
X136304761Y-90112714D01*
X136328571Y-90148428D01*
X136376190Y-90184142D01*
X136566666Y-90184142D01*
X135971428Y-89791285D02*
X135876190Y-89791285D01*
X135828571Y-89827000D01*
X135780952Y-89898428D01*
X135757142Y-90041285D01*
X135757142Y-90291285D01*
X135780952Y-90434142D01*
X135828571Y-90505571D01*
X135876190Y-90541285D01*
X135971428Y-90541285D01*
X136019047Y-90505571D01*
X136066666Y-90434142D01*
X136090476Y-90291285D01*
X136090476Y-90041285D01*
X136066666Y-89898428D01*
X136019047Y-89827000D01*
X135971428Y-89791285D01*
X135590476Y-89791285D02*
X135471428Y-90541285D01*
X135376190Y-90005571D01*
X135280952Y-90541285D01*
X135161904Y-89791285D01*
X134709523Y-90541285D02*
X134995238Y-90541285D01*
X134852380Y-90541285D02*
X134852380Y-89791285D01*
X134900000Y-89898428D01*
X134947619Y-89969857D01*
X134995238Y-90005571D01*
X151397619Y-93017857D02*
X151421428Y-93053571D01*
X151492857Y-93089285D01*
X151540476Y-93089285D01*
X151611904Y-93053571D01*
X151659523Y-92982142D01*
X151683333Y-92910714D01*
X151707142Y-92767857D01*
X151707142Y-92660714D01*
X151683333Y-92517857D01*
X151659523Y-92446428D01*
X151611904Y-92375000D01*
X151540476Y-92339285D01*
X151492857Y-92339285D01*
X151421428Y-92375000D01*
X151397619Y-92410714D01*
X151088095Y-92339285D02*
X150992857Y-92339285D01*
X150945238Y-92375000D01*
X150897619Y-92446428D01*
X150873809Y-92589285D01*
X150873809Y-92839285D01*
X150897619Y-92982142D01*
X150945238Y-93053571D01*
X150992857Y-93089285D01*
X151088095Y-93089285D01*
X151135714Y-93053571D01*
X151183333Y-92982142D01*
X151207142Y-92839285D01*
X151207142Y-92589285D01*
X151183333Y-92446428D01*
X151135714Y-92375000D01*
X151088095Y-92339285D01*
X150421428Y-93089285D02*
X150659523Y-93089285D01*
X150659523Y-92339285D01*
X150040476Y-92589285D02*
X150040476Y-93089285D01*
X150159523Y-92303571D02*
X150278571Y-92839285D01*
X149969047Y-92839285D01*
X136330952Y-93089285D02*
X136497619Y-92732142D01*
X136616666Y-93089285D02*
X136616666Y-92339285D01*
X136426190Y-92339285D01*
X136378571Y-92375000D01*
X136354761Y-92410714D01*
X136330952Y-92482142D01*
X136330952Y-92589285D01*
X136354761Y-92660714D01*
X136378571Y-92696428D01*
X136426190Y-92732142D01*
X136616666Y-92732142D01*
X136021428Y-92339285D02*
X135926190Y-92339285D01*
X135878571Y-92375000D01*
X135830952Y-92446428D01*
X135807142Y-92589285D01*
X135807142Y-92839285D01*
X135830952Y-92982142D01*
X135878571Y-93053571D01*
X135926190Y-93089285D01*
X136021428Y-93089285D01*
X136069047Y-93053571D01*
X136116666Y-92982142D01*
X136140476Y-92839285D01*
X136140476Y-92589285D01*
X136116666Y-92446428D01*
X136069047Y-92375000D01*
X136021428Y-92339285D01*
X135640476Y-92339285D02*
X135521428Y-93089285D01*
X135426190Y-92553571D01*
X135330952Y-93089285D01*
X135211904Y-92339285D01*
X135045238Y-92410714D02*
X135021428Y-92375000D01*
X134973809Y-92339285D01*
X134854761Y-92339285D01*
X134807142Y-92375000D01*
X134783333Y-92410714D01*
X134759523Y-92482142D01*
X134759523Y-92553571D01*
X134783333Y-92660714D01*
X135069047Y-93089285D01*
X134759523Y-93089285D01*
X151397619Y-95613357D02*
X151421428Y-95649071D01*
X151492857Y-95684785D01*
X151540476Y-95684785D01*
X151611904Y-95649071D01*
X151659523Y-95577642D01*
X151683333Y-95506214D01*
X151707142Y-95363357D01*
X151707142Y-95256214D01*
X151683333Y-95113357D01*
X151659523Y-95041928D01*
X151611904Y-94970500D01*
X151540476Y-94934785D01*
X151492857Y-94934785D01*
X151421428Y-94970500D01*
X151397619Y-95006214D01*
X151088095Y-94934785D02*
X150992857Y-94934785D01*
X150945238Y-94970500D01*
X150897619Y-95041928D01*
X150873809Y-95184785D01*
X150873809Y-95434785D01*
X150897619Y-95577642D01*
X150945238Y-95649071D01*
X150992857Y-95684785D01*
X151088095Y-95684785D01*
X151135714Y-95649071D01*
X151183333Y-95577642D01*
X151207142Y-95434785D01*
X151207142Y-95184785D01*
X151183333Y-95041928D01*
X151135714Y-94970500D01*
X151088095Y-94934785D01*
X150421428Y-95684785D02*
X150659523Y-95684785D01*
X150659523Y-94934785D01*
X150016666Y-94934785D02*
X150254761Y-94934785D01*
X150278571Y-95291928D01*
X150254761Y-95256214D01*
X150207142Y-95220500D01*
X150088095Y-95220500D01*
X150040476Y-95256214D01*
X150016666Y-95291928D01*
X149992857Y-95363357D01*
X149992857Y-95541928D01*
X150016666Y-95613357D01*
X150040476Y-95649071D01*
X150088095Y-95684785D01*
X150207142Y-95684785D01*
X150254761Y-95649071D01*
X150278571Y-95613357D01*
X136330952Y-95684785D02*
X136497619Y-95327642D01*
X136616666Y-95684785D02*
X136616666Y-94934785D01*
X136426190Y-94934785D01*
X136378571Y-94970500D01*
X136354761Y-95006214D01*
X136330952Y-95077642D01*
X136330952Y-95184785D01*
X136354761Y-95256214D01*
X136378571Y-95291928D01*
X136426190Y-95327642D01*
X136616666Y-95327642D01*
X136021428Y-94934785D02*
X135926190Y-94934785D01*
X135878571Y-94970500D01*
X135830952Y-95041928D01*
X135807142Y-95184785D01*
X135807142Y-95434785D01*
X135830952Y-95577642D01*
X135878571Y-95649071D01*
X135926190Y-95684785D01*
X136021428Y-95684785D01*
X136069047Y-95649071D01*
X136116666Y-95577642D01*
X136140476Y-95434785D01*
X136140476Y-95184785D01*
X136116666Y-95041928D01*
X136069047Y-94970500D01*
X136021428Y-94934785D01*
X135640476Y-94934785D02*
X135521428Y-95684785D01*
X135426190Y-95149071D01*
X135330952Y-95684785D01*
X135211904Y-94934785D01*
X135069047Y-94934785D02*
X134759523Y-94934785D01*
X134926190Y-95220500D01*
X134854761Y-95220500D01*
X134807142Y-95256214D01*
X134783333Y-95291928D01*
X134759523Y-95363357D01*
X134759523Y-95541928D01*
X134783333Y-95613357D01*
X134807142Y-95649071D01*
X134854761Y-95684785D01*
X134997619Y-95684785D01*
X135045238Y-95649071D01*
X135069047Y-95613357D01*
X151052380Y-97796428D02*
X150980952Y-97832142D01*
X150957142Y-97867857D01*
X150933333Y-97939285D01*
X150933333Y-98046428D01*
X150957142Y-98117857D01*
X150980952Y-98153571D01*
X151028571Y-98189285D01*
X151219047Y-98189285D01*
X151219047Y-97439285D01*
X151052380Y-97439285D01*
X151004761Y-97475000D01*
X150980952Y-97510714D01*
X150957142Y-97582142D01*
X150957142Y-97653571D01*
X150980952Y-97725000D01*
X151004761Y-97760714D01*
X151052380Y-97796428D01*
X151219047Y-97796428D01*
X150742857Y-97510714D02*
X150719047Y-97475000D01*
X150671428Y-97439285D01*
X150552380Y-97439285D01*
X150504761Y-97475000D01*
X150480952Y-97510714D01*
X150457142Y-97582142D01*
X150457142Y-97653571D01*
X150480952Y-97760714D01*
X150766666Y-98189285D01*
X150457142Y-98189285D01*
X135902380Y-97768428D02*
X135830952Y-97804142D01*
X135807142Y-97839857D01*
X135783333Y-97911285D01*
X135783333Y-98018428D01*
X135807142Y-98089857D01*
X135830952Y-98125571D01*
X135878571Y-98161285D01*
X136069047Y-98161285D01*
X136069047Y-97411285D01*
X135902380Y-97411285D01*
X135854761Y-97447000D01*
X135830952Y-97482714D01*
X135807142Y-97554142D01*
X135807142Y-97625571D01*
X135830952Y-97697000D01*
X135854761Y-97732714D01*
X135902380Y-97768428D01*
X136069047Y-97768428D01*
X135354761Y-97661285D02*
X135354761Y-98161285D01*
X135473809Y-97375571D02*
X135592857Y-97911285D01*
X135283333Y-97911285D01*
X135902380Y-100371928D02*
X135830952Y-100407642D01*
X135807142Y-100443357D01*
X135783333Y-100514785D01*
X135783333Y-100621928D01*
X135807142Y-100693357D01*
X135830952Y-100729071D01*
X135878571Y-100764785D01*
X136069047Y-100764785D01*
X136069047Y-100014785D01*
X135902380Y-100014785D01*
X135854761Y-100050500D01*
X135830952Y-100086214D01*
X135807142Y-100157642D01*
X135807142Y-100229071D01*
X135830952Y-100300500D01*
X135854761Y-100336214D01*
X135902380Y-100371928D01*
X136069047Y-100371928D01*
X135330952Y-100014785D02*
X135569047Y-100014785D01*
X135592857Y-100371928D01*
X135569047Y-100336214D01*
X135521428Y-100300500D01*
X135402380Y-100300500D01*
X135354761Y-100336214D01*
X135330952Y-100371928D01*
X135307142Y-100443357D01*
X135307142Y-100621928D01*
X135330952Y-100693357D01*
X135354761Y-100729071D01*
X135402380Y-100764785D01*
X135521428Y-100764785D01*
X135569047Y-100729071D01*
X135592857Y-100693357D01*
X151152380Y-100346428D02*
X151080952Y-100382142D01*
X151057142Y-100417857D01*
X151033333Y-100489285D01*
X151033333Y-100596428D01*
X151057142Y-100667857D01*
X151080952Y-100703571D01*
X151128571Y-100739285D01*
X151319047Y-100739285D01*
X151319047Y-99989285D01*
X151152380Y-99989285D01*
X151104761Y-100025000D01*
X151080952Y-100060714D01*
X151057142Y-100132142D01*
X151057142Y-100203571D01*
X151080952Y-100275000D01*
X151104761Y-100310714D01*
X151152380Y-100346428D01*
X151319047Y-100346428D01*
X150604761Y-99989285D02*
X150700000Y-99989285D01*
X150747619Y-100025000D01*
X150771428Y-100060714D01*
X150819047Y-100167857D01*
X150842857Y-100310714D01*
X150842857Y-100596428D01*
X150819047Y-100667857D01*
X150795238Y-100703571D01*
X150747619Y-100739285D01*
X150652380Y-100739285D01*
X150604761Y-100703571D01*
X150580952Y-100667857D01*
X150557142Y-100596428D01*
X150557142Y-100417857D01*
X150580952Y-100346428D01*
X150604761Y-100310714D01*
X150652380Y-100275000D01*
X150747619Y-100275000D01*
X150795238Y-100310714D01*
X150819047Y-100346428D01*
X150842857Y-100417857D01*
X151347619Y-82867857D02*
X151371428Y-82903571D01*
X151442857Y-82939285D01*
X151490476Y-82939285D01*
X151561904Y-82903571D01*
X151609523Y-82832142D01*
X151633333Y-82760714D01*
X151657142Y-82617857D01*
X151657142Y-82510714D01*
X151633333Y-82367857D01*
X151609523Y-82296428D01*
X151561904Y-82225000D01*
X151490476Y-82189285D01*
X151442857Y-82189285D01*
X151371428Y-82225000D01*
X151347619Y-82260714D01*
X151038095Y-82189285D02*
X150942857Y-82189285D01*
X150895238Y-82225000D01*
X150847619Y-82296428D01*
X150823809Y-82439285D01*
X150823809Y-82689285D01*
X150847619Y-82832142D01*
X150895238Y-82903571D01*
X150942857Y-82939285D01*
X151038095Y-82939285D01*
X151085714Y-82903571D01*
X151133333Y-82832142D01*
X151157142Y-82689285D01*
X151157142Y-82439285D01*
X151133333Y-82296428D01*
X151085714Y-82225000D01*
X151038095Y-82189285D01*
X150371428Y-82939285D02*
X150609523Y-82939285D01*
X150609523Y-82189285D01*
X150109523Y-82189285D02*
X150061904Y-82189285D01*
X150014285Y-82225000D01*
X149990476Y-82260714D01*
X149966666Y-82332142D01*
X149942857Y-82475000D01*
X149942857Y-82653571D01*
X149966666Y-82796428D01*
X149990476Y-82867857D01*
X150014285Y-82903571D01*
X150061904Y-82939285D01*
X150109523Y-82939285D01*
X150157142Y-82903571D01*
X150180952Y-82867857D01*
X150204761Y-82796428D01*
X150228571Y-82653571D01*
X150228571Y-82475000D01*
X150204761Y-82332142D01*
X150180952Y-82260714D01*
X150157142Y-82225000D01*
X150109523Y-82189285D01*
X136046142Y-82885571D02*
X135974714Y-82921285D01*
X135855666Y-82921285D01*
X135808047Y-82885571D01*
X135784238Y-82849857D01*
X135760428Y-82778428D01*
X135760428Y-82707000D01*
X135784238Y-82635571D01*
X135808047Y-82599857D01*
X135855666Y-82564142D01*
X135950904Y-82528428D01*
X135998523Y-82492714D01*
X136022333Y-82457000D01*
X136046142Y-82385571D01*
X136046142Y-82314142D01*
X136022333Y-82242714D01*
X135998523Y-82207000D01*
X135950904Y-82171285D01*
X135831857Y-82171285D01*
X135760428Y-82207000D01*
X135546142Y-82921285D02*
X135546142Y-82171285D01*
X135427095Y-82171285D01*
X135355666Y-82207000D01*
X135308047Y-82278428D01*
X135284238Y-82349857D01*
X135260428Y-82492714D01*
X135260428Y-82599857D01*
X135284238Y-82742714D01*
X135308047Y-82814142D01*
X135355666Y-82885571D01*
X135427095Y-82921285D01*
X135546142Y-82921285D01*
X135069952Y-82707000D02*
X134831857Y-82707000D01*
X135117571Y-82921285D02*
X134950904Y-82171285D01*
X134784238Y-82921285D01*
X151297619Y-85389857D02*
X151321428Y-85425571D01*
X151392857Y-85461285D01*
X151440476Y-85461285D01*
X151511904Y-85425571D01*
X151559523Y-85354142D01*
X151583333Y-85282714D01*
X151607142Y-85139857D01*
X151607142Y-85032714D01*
X151583333Y-84889857D01*
X151559523Y-84818428D01*
X151511904Y-84747000D01*
X151440476Y-84711285D01*
X151392857Y-84711285D01*
X151321428Y-84747000D01*
X151297619Y-84782714D01*
X150988095Y-84711285D02*
X150892857Y-84711285D01*
X150845238Y-84747000D01*
X150797619Y-84818428D01*
X150773809Y-84961285D01*
X150773809Y-85211285D01*
X150797619Y-85354142D01*
X150845238Y-85425571D01*
X150892857Y-85461285D01*
X150988095Y-85461285D01*
X151035714Y-85425571D01*
X151083333Y-85354142D01*
X151107142Y-85211285D01*
X151107142Y-84961285D01*
X151083333Y-84818428D01*
X151035714Y-84747000D01*
X150988095Y-84711285D01*
X150321428Y-85461285D02*
X150559523Y-85461285D01*
X150559523Y-84711285D01*
X149892857Y-85461285D02*
X150178571Y-85461285D01*
X150035714Y-85461285D02*
X150035714Y-84711285D01*
X150083333Y-84818428D01*
X150130952Y-84889857D01*
X150178571Y-84925571D01*
X136034238Y-85425571D02*
X135962809Y-85461285D01*
X135843761Y-85461285D01*
X135796142Y-85425571D01*
X135772333Y-85389857D01*
X135748523Y-85318428D01*
X135748523Y-85247000D01*
X135772333Y-85175571D01*
X135796142Y-85139857D01*
X135843761Y-85104142D01*
X135939000Y-85068428D01*
X135986619Y-85032714D01*
X136010428Y-84997000D01*
X136034238Y-84925571D01*
X136034238Y-84854142D01*
X136010428Y-84782714D01*
X135986619Y-84747000D01*
X135939000Y-84711285D01*
X135819952Y-84711285D01*
X135748523Y-84747000D01*
X135248523Y-85389857D02*
X135272333Y-85425571D01*
X135343761Y-85461285D01*
X135391380Y-85461285D01*
X135462809Y-85425571D01*
X135510428Y-85354142D01*
X135534238Y-85282714D01*
X135558047Y-85139857D01*
X135558047Y-85032714D01*
X135534238Y-84889857D01*
X135510428Y-84818428D01*
X135462809Y-84747000D01*
X135391380Y-84711285D01*
X135343761Y-84711285D01*
X135272333Y-84747000D01*
X135248523Y-84782714D01*
X134796142Y-85461285D02*
X135034238Y-85461285D01*
X135034238Y-84711285D01*
X151347619Y-87929857D02*
X151371428Y-87965571D01*
X151442857Y-88001285D01*
X151490476Y-88001285D01*
X151561904Y-87965571D01*
X151609523Y-87894142D01*
X151633333Y-87822714D01*
X151657142Y-87679857D01*
X151657142Y-87572714D01*
X151633333Y-87429857D01*
X151609523Y-87358428D01*
X151561904Y-87287000D01*
X151490476Y-87251285D01*
X151442857Y-87251285D01*
X151371428Y-87287000D01*
X151347619Y-87322714D01*
X151038095Y-87251285D02*
X150942857Y-87251285D01*
X150895238Y-87287000D01*
X150847619Y-87358428D01*
X150823809Y-87501285D01*
X150823809Y-87751285D01*
X150847619Y-87894142D01*
X150895238Y-87965571D01*
X150942857Y-88001285D01*
X151038095Y-88001285D01*
X151085714Y-87965571D01*
X151133333Y-87894142D01*
X151157142Y-87751285D01*
X151157142Y-87501285D01*
X151133333Y-87358428D01*
X151085714Y-87287000D01*
X151038095Y-87251285D01*
X150371428Y-88001285D02*
X150609523Y-88001285D01*
X150609523Y-87251285D01*
X150228571Y-87322714D02*
X150204761Y-87287000D01*
X150157142Y-87251285D01*
X150038095Y-87251285D01*
X149990476Y-87287000D01*
X149966666Y-87322714D01*
X149942857Y-87394142D01*
X149942857Y-87465571D01*
X149966666Y-87572714D01*
X150252380Y-88001285D01*
X149942857Y-88001285D01*
X136330952Y-88039285D02*
X136497619Y-87682142D01*
X136616666Y-88039285D02*
X136616666Y-87289285D01*
X136426190Y-87289285D01*
X136378571Y-87325000D01*
X136354761Y-87360714D01*
X136330952Y-87432142D01*
X136330952Y-87539285D01*
X136354761Y-87610714D01*
X136378571Y-87646428D01*
X136426190Y-87682142D01*
X136616666Y-87682142D01*
X136021428Y-87289285D02*
X135926190Y-87289285D01*
X135878571Y-87325000D01*
X135830952Y-87396428D01*
X135807142Y-87539285D01*
X135807142Y-87789285D01*
X135830952Y-87932142D01*
X135878571Y-88003571D01*
X135926190Y-88039285D01*
X136021428Y-88039285D01*
X136069047Y-88003571D01*
X136116666Y-87932142D01*
X136140476Y-87789285D01*
X136140476Y-87539285D01*
X136116666Y-87396428D01*
X136069047Y-87325000D01*
X136021428Y-87289285D01*
X135640476Y-87289285D02*
X135521428Y-88039285D01*
X135426190Y-87503571D01*
X135330952Y-88039285D01*
X135211904Y-87289285D01*
X134926190Y-87289285D02*
X134878571Y-87289285D01*
X134830952Y-87325000D01*
X134807142Y-87360714D01*
X134783333Y-87432142D01*
X134759523Y-87575000D01*
X134759523Y-87753571D01*
X134783333Y-87896428D01*
X134807142Y-87967857D01*
X134830952Y-88003571D01*
X134878571Y-88039285D01*
X134926190Y-88039285D01*
X134973809Y-88003571D01*
X134997619Y-87967857D01*
X135021428Y-87896428D01*
X135045238Y-87753571D01*
X135045238Y-87575000D01*
X135021428Y-87432142D01*
X134997619Y-87360714D01*
X134973809Y-87325000D01*
X134926190Y-87289285D01*
X151447619Y-90517857D02*
X151471428Y-90553571D01*
X151542857Y-90589285D01*
X151590476Y-90589285D01*
X151661904Y-90553571D01*
X151709523Y-90482142D01*
X151733333Y-90410714D01*
X151757142Y-90267857D01*
X151757142Y-90160714D01*
X151733333Y-90017857D01*
X151709523Y-89946428D01*
X151661904Y-89875000D01*
X151590476Y-89839285D01*
X151542857Y-89839285D01*
X151471428Y-89875000D01*
X151447619Y-89910714D01*
X151138095Y-89839285D02*
X151042857Y-89839285D01*
X150995238Y-89875000D01*
X150947619Y-89946428D01*
X150923809Y-90089285D01*
X150923809Y-90339285D01*
X150947619Y-90482142D01*
X150995238Y-90553571D01*
X151042857Y-90589285D01*
X151138095Y-90589285D01*
X151185714Y-90553571D01*
X151233333Y-90482142D01*
X151257142Y-90339285D01*
X151257142Y-90089285D01*
X151233333Y-89946428D01*
X151185714Y-89875000D01*
X151138095Y-89839285D01*
X150471428Y-90589285D02*
X150709523Y-90589285D01*
X150709523Y-89839285D01*
X150352380Y-89839285D02*
X150042857Y-89839285D01*
X150209523Y-90125000D01*
X150138095Y-90125000D01*
X150090476Y-90160714D01*
X150066666Y-90196428D01*
X150042857Y-90267857D01*
X150042857Y-90446428D01*
X150066666Y-90517857D01*
X150090476Y-90553571D01*
X150138095Y-90589285D01*
X150280952Y-90589285D01*
X150328571Y-90553571D01*
X150352380Y-90517857D01*
X135819952Y-79730500D02*
X135867571Y-79694785D01*
X135939000Y-79694785D01*
X136010428Y-79730500D01*
X136058047Y-79801928D01*
X136081857Y-79873357D01*
X136105666Y-80016214D01*
X136105666Y-80123357D01*
X136081857Y-80266214D01*
X136058047Y-80337642D01*
X136010428Y-80409071D01*
X135939000Y-80444785D01*
X135891380Y-80444785D01*
X135819952Y-80409071D01*
X135796142Y-80373357D01*
X135796142Y-80123357D01*
X135891380Y-80123357D01*
X135581857Y-80444785D02*
X135581857Y-79694785D01*
X135296142Y-80444785D01*
X135296142Y-79694785D01*
X135058047Y-80444785D02*
X135058047Y-79694785D01*
X134939000Y-79694785D01*
X134867571Y-79730500D01*
X134819952Y-79801928D01*
X134796142Y-79873357D01*
X134772333Y-80016214D01*
X134772333Y-80123357D01*
X134796142Y-80266214D01*
X134819952Y-80337642D01*
X134867571Y-80409071D01*
X134939000Y-80444785D01*
X135058047Y-80444785D01*
X151282166Y-79631285D02*
X151115500Y-80381285D01*
X150948833Y-79631285D01*
X150496452Y-80309857D02*
X150520261Y-80345571D01*
X150591690Y-80381285D01*
X150639309Y-80381285D01*
X150710738Y-80345571D01*
X150758357Y-80274142D01*
X150782166Y-80202714D01*
X150805976Y-80059857D01*
X150805976Y-79952714D01*
X150782166Y-79809857D01*
X150758357Y-79738428D01*
X150710738Y-79667000D01*
X150639309Y-79631285D01*
X150591690Y-79631285D01*
X150520261Y-79667000D01*
X150496452Y-79702714D01*
X149996452Y-80309857D02*
X150020261Y-80345571D01*
X150091690Y-80381285D01*
X150139309Y-80381285D01*
X150210738Y-80345571D01*
X150258357Y-80274142D01*
X150282166Y-80202714D01*
X150305976Y-80059857D01*
X150305976Y-79952714D01*
X150282166Y-79809857D01*
X150258357Y-79738428D01*
X150210738Y-79667000D01*
X150139309Y-79631285D01*
X150091690Y-79631285D01*
X150020261Y-79667000D01*
X149996452Y-79702714D01*
X135756452Y-77190500D02*
X135804071Y-77154785D01*
X135875500Y-77154785D01*
X135946928Y-77190500D01*
X135994547Y-77261928D01*
X136018357Y-77333357D01*
X136042166Y-77476214D01*
X136042166Y-77583357D01*
X136018357Y-77726214D01*
X135994547Y-77797642D01*
X135946928Y-77869071D01*
X135875500Y-77904785D01*
X135827880Y-77904785D01*
X135756452Y-77869071D01*
X135732642Y-77833357D01*
X135732642Y-77583357D01*
X135827880Y-77583357D01*
X135518357Y-77904785D02*
X135518357Y-77154785D01*
X135232642Y-77904785D01*
X135232642Y-77154785D01*
X134994547Y-77904785D02*
X134994547Y-77154785D01*
X134875500Y-77154785D01*
X134804071Y-77190500D01*
X134756452Y-77261928D01*
X134732642Y-77333357D01*
X134708833Y-77476214D01*
X134708833Y-77583357D01*
X134732642Y-77726214D01*
X134756452Y-77797642D01*
X134804071Y-77869071D01*
X134875500Y-77904785D01*
X134994547Y-77904785D01*
X150889309Y-77904785D02*
X151055976Y-77547642D01*
X151175023Y-77904785D02*
X151175023Y-77154785D01*
X150984547Y-77154785D01*
X150936928Y-77190500D01*
X150913119Y-77226214D01*
X150889309Y-77297642D01*
X150889309Y-77404785D01*
X150913119Y-77476214D01*
X150936928Y-77511928D01*
X150984547Y-77547642D01*
X151175023Y-77547642D01*
X150698833Y-77869071D02*
X150627404Y-77904785D01*
X150508357Y-77904785D01*
X150460738Y-77869071D01*
X150436928Y-77833357D01*
X150413119Y-77761928D01*
X150413119Y-77690500D01*
X150436928Y-77619071D01*
X150460738Y-77583357D01*
X150508357Y-77547642D01*
X150603595Y-77511928D01*
X150651214Y-77476214D01*
X150675023Y-77440500D01*
X150698833Y-77369071D01*
X150698833Y-77297642D01*
X150675023Y-77226214D01*
X150651214Y-77190500D01*
X150603595Y-77154785D01*
X150484547Y-77154785D01*
X150413119Y-77190500D01*
X150270261Y-77154785D02*
X149984547Y-77154785D01*
X150127404Y-77904785D02*
X150127404Y-77154785D01*
X136300000Y-75289285D02*
X136300000Y-74539285D01*
X136180952Y-74539285D01*
X136109523Y-74575000D01*
X136061904Y-74646428D01*
X136038095Y-74717857D01*
X136014285Y-74860714D01*
X136014285Y-74967857D01*
X136038095Y-75110714D01*
X136061904Y-75182142D01*
X136109523Y-75253571D01*
X136180952Y-75289285D01*
X136300000Y-75289285D01*
X135823809Y-75075000D02*
X135585714Y-75075000D01*
X135871428Y-75289285D02*
X135704761Y-74539285D01*
X135538095Y-75289285D01*
X135442857Y-74539285D02*
X135157142Y-74539285D01*
X135300000Y-75289285D02*
X135300000Y-74539285D01*
X135014285Y-75075000D02*
X134776190Y-75075000D01*
X135061904Y-75289285D02*
X134895238Y-74539285D01*
X134728571Y-75289285D01*
X150996452Y-74587000D02*
X151044071Y-74551285D01*
X151115500Y-74551285D01*
X151186928Y-74587000D01*
X151234547Y-74658428D01*
X151258357Y-74729857D01*
X151282166Y-74872714D01*
X151282166Y-74979857D01*
X151258357Y-75122714D01*
X151234547Y-75194142D01*
X151186928Y-75265571D01*
X151115500Y-75301285D01*
X151067880Y-75301285D01*
X150996452Y-75265571D01*
X150972642Y-75229857D01*
X150972642Y-74979857D01*
X151067880Y-74979857D01*
X150758357Y-75301285D02*
X150758357Y-74551285D01*
X150472642Y-75301285D01*
X150472642Y-74551285D01*
X150234547Y-75301285D02*
X150234547Y-74551285D01*
X150115500Y-74551285D01*
X150044071Y-74587000D01*
X149996452Y-74658428D01*
X149972642Y-74729857D01*
X149948833Y-74872714D01*
X149948833Y-74979857D01*
X149972642Y-75122714D01*
X149996452Y-75194142D01*
X150044071Y-75265571D01*
X150115500Y-75301285D01*
X150234547Y-75301285D01*
X135721428Y-72761285D02*
X135959523Y-72761285D01*
X135959523Y-72011285D01*
X135554761Y-72368428D02*
X135388095Y-72368428D01*
X135316666Y-72761285D02*
X135554761Y-72761285D01*
X135554761Y-72011285D01*
X135316666Y-72011285D01*
X135102380Y-72761285D02*
X135102380Y-72011285D01*
X134983333Y-72011285D01*
X134911904Y-72047000D01*
X134864285Y-72118428D01*
X134840476Y-72189857D01*
X134816666Y-72332714D01*
X134816666Y-72439857D01*
X134840476Y-72582714D01*
X134864285Y-72654142D01*
X134911904Y-72725571D01*
X134983333Y-72761285D01*
X135102380Y-72761285D01*
X150960738Y-72761285D02*
X151127404Y-72404142D01*
X151246452Y-72761285D02*
X151246452Y-72011285D01*
X151055976Y-72011285D01*
X151008357Y-72047000D01*
X150984547Y-72082714D01*
X150960738Y-72154142D01*
X150960738Y-72261285D01*
X150984547Y-72332714D01*
X151008357Y-72368428D01*
X151055976Y-72404142D01*
X151246452Y-72404142D01*
X150770261Y-72547000D02*
X150532166Y-72547000D01*
X150817880Y-72761285D02*
X150651214Y-72011285D01*
X150484547Y-72761285D01*
X150365500Y-72011285D02*
X150246452Y-72761285D01*
X150151214Y-72225571D01*
X150055976Y-72761285D01*
X149936928Y-72011285D01*
D10*
G04 #@! TO.C,U2*
G04 #@! TO.C,J1*
X214696404Y-103195880D02*
X214124976Y-103195880D01*
X214410690Y-104195880D02*
X214410690Y-103195880D01*
X213220214Y-104195880D02*
X213553547Y-103719690D01*
X213791642Y-104195880D02*
X213791642Y-103195880D01*
X213410690Y-103195880D01*
X213315452Y-103243500D01*
X213267833Y-103291119D01*
X213220214Y-103386357D01*
X213220214Y-103529214D01*
X213267833Y-103624452D01*
X213315452Y-103672071D01*
X213410690Y-103719690D01*
X213791642Y-103719690D01*
X212220214Y-104195880D02*
X212553547Y-103719690D01*
X212791642Y-104195880D02*
X212791642Y-103195880D01*
X212410690Y-103195880D01*
X212315452Y-103243500D01*
X212267833Y-103291119D01*
X212220214Y-103386357D01*
X212220214Y-103529214D01*
X212267833Y-103624452D01*
X212315452Y-103672071D01*
X212410690Y-103719690D01*
X212791642Y-103719690D01*
X211839261Y-104148261D02*
X211696404Y-104195880D01*
X211458309Y-104195880D01*
X211363071Y-104148261D01*
X211315452Y-104100642D01*
X211267833Y-104005404D01*
X211267833Y-103910166D01*
X211315452Y-103814928D01*
X211363071Y-103767309D01*
X211458309Y-103719690D01*
X211648785Y-103672071D01*
X211744023Y-103624452D01*
X211791642Y-103576833D01*
X211839261Y-103481595D01*
X211839261Y-103386357D01*
X211791642Y-103291119D01*
X211744023Y-103243500D01*
X211648785Y-103195880D01*
X211410690Y-103195880D01*
X211267833Y-103243500D01*
G04 #@! TO.C,SW20*
X215762380Y-115534619D02*
X215286190Y-115201285D01*
X215762380Y-114963190D02*
X214762380Y-114963190D01*
X214762380Y-115344142D01*
X214810000Y-115439380D01*
X214857619Y-115487000D01*
X214952857Y-115534619D01*
X215095714Y-115534619D01*
X215190952Y-115487000D01*
X215238571Y-115439380D01*
X215286190Y-115344142D01*
X215286190Y-114963190D01*
X215238571Y-115963190D02*
X215238571Y-116296523D01*
X215762380Y-116439380D02*
X215762380Y-115963190D01*
X214762380Y-115963190D01*
X214762380Y-116439380D01*
X215714761Y-116820333D02*
X215762380Y-116963190D01*
X215762380Y-117201285D01*
X215714761Y-117296523D01*
X215667142Y-117344142D01*
X215571904Y-117391761D01*
X215476666Y-117391761D01*
X215381428Y-117344142D01*
X215333809Y-117296523D01*
X215286190Y-117201285D01*
X215238571Y-117010809D01*
X215190952Y-116915571D01*
X215143333Y-116867952D01*
X215048095Y-116820333D01*
X214952857Y-116820333D01*
X214857619Y-116867952D01*
X214810000Y-116915571D01*
X214762380Y-117010809D01*
X214762380Y-117248904D01*
X214810000Y-117391761D01*
X215238571Y-117820333D02*
X215238571Y-118153666D01*
X215762380Y-118296523D02*
X215762380Y-117820333D01*
X214762380Y-117820333D01*
X214762380Y-118296523D01*
X214762380Y-118582238D02*
X214762380Y-119153666D01*
X215762380Y-118867952D02*
X214762380Y-118867952D01*
G04 #@! TD*
M02*
