G04 #@! TF.GenerationSoftware,KiCad,Pcbnew,(5.0.2)-1*
G04 #@! TF.CreationDate,2019-02-18T16:39:31+08:00*
G04 #@! TF.ProjectId,Shinonome,5368696e-6f6e-46f6-9d65-2e6b69636164,rev?*
G04 #@! TF.SameCoordinates,Original*
G04 #@! TF.FileFunction,Legend,Bot*
G04 #@! TF.FilePolarity,Positive*
%FSLAX46Y46*%
G04 Gerber Fmt 4.6, Leading zero omitted, Abs format (unit mm)*
G04 Created by KiCad (PCBNEW (5.0.2)-1) date 18/02/2019 16:39:31*
%MOMM*%
%LPD*%
G01*
G04 APERTURE LIST*
%ADD10C,0.150000*%
%ADD11C,0.010000*%
%ADD12C,0.125000*%
G04 APERTURE END LIST*
D10*
G04 #@! TO.C,U1*
X134513600Y-101632000D02*
X134513600Y-71152000D01*
X131973600Y-101632000D02*
X134513600Y-101632000D01*
X131973600Y-71152000D02*
X131973600Y-101632000D01*
X134513600Y-71152000D02*
X131973600Y-71152000D01*
X149733600Y-101632000D02*
X149733600Y-71152000D01*
X147193600Y-101632000D02*
X149733600Y-101632000D01*
X147193600Y-71152000D02*
X147193600Y-101632000D01*
X149733600Y-71152000D02*
X147193600Y-71152000D01*
G04 #@! TO.C,D1*
X102370000Y-103870000D02*
X103270000Y-103370000D01*
X103270000Y-103370000D02*
X103270000Y-104370000D01*
X103270000Y-104370000D02*
X102370000Y-103870000D01*
X102270000Y-103370000D02*
X102270000Y-104370000D01*
X105470000Y-103120000D02*
X100070000Y-103120000D01*
X100070000Y-103120000D02*
X100070000Y-104620000D01*
X100070000Y-104620000D02*
X105470000Y-104620000D01*
X105470000Y-104620000D02*
X105470000Y-103120000D01*
G04 #@! TO.C,D2*
X102370000Y-122820000D02*
X103270000Y-122320000D01*
X103270000Y-122320000D02*
X103270000Y-123320000D01*
X103270000Y-123320000D02*
X102370000Y-122820000D01*
X102270000Y-122320000D02*
X102270000Y-123320000D01*
X105470000Y-122070000D02*
X100070000Y-122070000D01*
X100070000Y-122070000D02*
X100070000Y-123570000D01*
X100070000Y-123570000D02*
X105470000Y-123570000D01*
X105470000Y-123570000D02*
X105470000Y-122070000D01*
G04 #@! TO.C,D3*
X102370000Y-141930000D02*
X103270000Y-141430000D01*
X103270000Y-141430000D02*
X103270000Y-142430000D01*
X103270000Y-142430000D02*
X102370000Y-141930000D01*
X102270000Y-141430000D02*
X102270000Y-142430000D01*
X105470000Y-141180000D02*
X100070000Y-141180000D01*
X100070000Y-141180000D02*
X100070000Y-142680000D01*
X100070000Y-142680000D02*
X105470000Y-142680000D01*
X105470000Y-142680000D02*
X105470000Y-141180000D01*
G04 #@! TO.C,D4*
X124490000Y-92660000D02*
X124490000Y-91160000D01*
X119090000Y-92660000D02*
X124490000Y-92660000D01*
X119090000Y-91160000D02*
X119090000Y-92660000D01*
X124490000Y-91160000D02*
X119090000Y-91160000D01*
X121290000Y-91410000D02*
X121290000Y-92410000D01*
X122290000Y-92410000D02*
X121390000Y-91910000D01*
X122290000Y-91410000D02*
X122290000Y-92410000D01*
X121390000Y-91910000D02*
X122290000Y-91410000D01*
G04 #@! TO.C,D5*
X124520000Y-111730000D02*
X124520000Y-110230000D01*
X119120000Y-111730000D02*
X124520000Y-111730000D01*
X119120000Y-110230000D02*
X119120000Y-111730000D01*
X124520000Y-110230000D02*
X119120000Y-110230000D01*
X121320000Y-110480000D02*
X121320000Y-111480000D01*
X122320000Y-111480000D02*
X121420000Y-110980000D01*
X122320000Y-110480000D02*
X122320000Y-111480000D01*
X121420000Y-110980000D02*
X122320000Y-110480000D01*
G04 #@! TO.C,D6*
X124530000Y-130820000D02*
X124530000Y-129320000D01*
X119130000Y-130820000D02*
X124530000Y-130820000D01*
X119130000Y-129320000D02*
X119130000Y-130820000D01*
X124530000Y-129320000D02*
X119130000Y-129320000D01*
X121330000Y-129570000D02*
X121330000Y-130570000D01*
X122330000Y-130570000D02*
X121430000Y-130070000D01*
X122330000Y-129570000D02*
X122330000Y-130570000D01*
X121430000Y-130070000D02*
X122330000Y-129570000D01*
G04 #@! TO.C,D7*
X140480000Y-89670000D02*
X141380000Y-89170000D01*
X141380000Y-89170000D02*
X141380000Y-90170000D01*
X141380000Y-90170000D02*
X140480000Y-89670000D01*
X140380000Y-89170000D02*
X140380000Y-90170000D01*
X143580000Y-88920000D02*
X138180000Y-88920000D01*
X138180000Y-88920000D02*
X138180000Y-90420000D01*
X138180000Y-90420000D02*
X143580000Y-90420000D01*
X143580000Y-90420000D02*
X143580000Y-88920000D01*
G04 #@! TO.C,D8*
X140490000Y-108620000D02*
X141390000Y-108120000D01*
X141390000Y-108120000D02*
X141390000Y-109120000D01*
X141390000Y-109120000D02*
X140490000Y-108620000D01*
X140390000Y-108120000D02*
X140390000Y-109120000D01*
X143590000Y-107870000D02*
X138190000Y-107870000D01*
X138190000Y-107870000D02*
X138190000Y-109370000D01*
X138190000Y-109370000D02*
X143590000Y-109370000D01*
X143590000Y-109370000D02*
X143590000Y-107870000D01*
G04 #@! TO.C,D9*
X140500000Y-127690000D02*
X141400000Y-127190000D01*
X141400000Y-127190000D02*
X141400000Y-128190000D01*
X141400000Y-128190000D02*
X140500000Y-127690000D01*
X140400000Y-127190000D02*
X140400000Y-128190000D01*
X143600000Y-126940000D02*
X138200000Y-126940000D01*
X138200000Y-126940000D02*
X138200000Y-128440000D01*
X138200000Y-128440000D02*
X143600000Y-128440000D01*
X143600000Y-128440000D02*
X143600000Y-126940000D01*
G04 #@! TO.C,D10*
X162630000Y-95040000D02*
X162630000Y-93540000D01*
X157230000Y-95040000D02*
X162630000Y-95040000D01*
X157230000Y-93540000D02*
X157230000Y-95040000D01*
X162630000Y-93540000D02*
X157230000Y-93540000D01*
X159430000Y-93790000D02*
X159430000Y-94790000D01*
X160430000Y-94790000D02*
X159530000Y-94290000D01*
X160430000Y-93790000D02*
X160430000Y-94790000D01*
X159530000Y-94290000D02*
X160430000Y-93790000D01*
G04 #@! TO.C,D11*
X162620000Y-114110000D02*
X162620000Y-112610000D01*
X157220000Y-114110000D02*
X162620000Y-114110000D01*
X157220000Y-112610000D02*
X157220000Y-114110000D01*
X162620000Y-112610000D02*
X157220000Y-112610000D01*
X159420000Y-112860000D02*
X159420000Y-113860000D01*
X160420000Y-113860000D02*
X159520000Y-113360000D01*
X160420000Y-112860000D02*
X160420000Y-113860000D01*
X159520000Y-113360000D02*
X160420000Y-112860000D01*
G04 #@! TO.C,D12*
X162600000Y-133190000D02*
X162600000Y-131690000D01*
X157200000Y-133190000D02*
X162600000Y-133190000D01*
X157200000Y-131690000D02*
X157200000Y-133190000D01*
X162600000Y-131690000D02*
X157200000Y-131690000D01*
X159400000Y-131940000D02*
X159400000Y-132940000D01*
X160400000Y-132940000D02*
X159500000Y-132440000D01*
X160400000Y-131940000D02*
X160400000Y-132940000D01*
X159500000Y-132440000D02*
X160400000Y-131940000D01*
G04 #@! TO.C,D13*
X159540000Y-151450000D02*
X160440000Y-150950000D01*
X160440000Y-150950000D02*
X160440000Y-151950000D01*
X160440000Y-151950000D02*
X159540000Y-151450000D01*
X159440000Y-150950000D02*
X159440000Y-151950000D01*
X162640000Y-150700000D02*
X157240000Y-150700000D01*
X157240000Y-150700000D02*
X157240000Y-152200000D01*
X157240000Y-152200000D02*
X162640000Y-152200000D01*
X162640000Y-152200000D02*
X162640000Y-150700000D01*
G04 #@! TO.C,D14*
X178580000Y-94310000D02*
X179480000Y-93810000D01*
X179480000Y-93810000D02*
X179480000Y-94810000D01*
X179480000Y-94810000D02*
X178580000Y-94310000D01*
X178480000Y-93810000D02*
X178480000Y-94810000D01*
X181680000Y-93560000D02*
X176280000Y-93560000D01*
X176280000Y-93560000D02*
X176280000Y-95060000D01*
X176280000Y-95060000D02*
X181680000Y-95060000D01*
X181680000Y-95060000D02*
X181680000Y-93560000D01*
G04 #@! TO.C,D15*
X181690000Y-114150000D02*
X181690000Y-112650000D01*
X176290000Y-114150000D02*
X181690000Y-114150000D01*
X176290000Y-112650000D02*
X176290000Y-114150000D01*
X181690000Y-112650000D02*
X176290000Y-112650000D01*
X178490000Y-112900000D02*
X178490000Y-113900000D01*
X179490000Y-113900000D02*
X178590000Y-113400000D01*
X179490000Y-112900000D02*
X179490000Y-113900000D01*
X178590000Y-113400000D02*
X179490000Y-112900000D01*
G04 #@! TO.C,D16*
X178610000Y-132440000D02*
X179510000Y-131940000D01*
X179510000Y-131940000D02*
X179510000Y-132940000D01*
X179510000Y-132940000D02*
X178610000Y-132440000D01*
X178510000Y-131940000D02*
X178510000Y-132940000D01*
X181710000Y-131690000D02*
X176310000Y-131690000D01*
X176310000Y-131690000D02*
X176310000Y-133190000D01*
X176310000Y-133190000D02*
X181710000Y-133190000D01*
X181710000Y-133190000D02*
X181710000Y-131690000D01*
G04 #@! TO.C,D17*
X178560000Y-151440000D02*
X179460000Y-150940000D01*
X179460000Y-150940000D02*
X179460000Y-151940000D01*
X179460000Y-151940000D02*
X178560000Y-151440000D01*
X178460000Y-150940000D02*
X178460000Y-151940000D01*
X181660000Y-150690000D02*
X176260000Y-150690000D01*
X176260000Y-150690000D02*
X176260000Y-152190000D01*
X176260000Y-152190000D02*
X181660000Y-152190000D01*
X181660000Y-152190000D02*
X181660000Y-150690000D01*
G04 #@! TO.C,D18*
X197610000Y-118170000D02*
X198510000Y-117670000D01*
X198510000Y-117670000D02*
X198510000Y-118670000D01*
X198510000Y-118670000D02*
X197610000Y-118170000D01*
X197510000Y-117670000D02*
X197510000Y-118670000D01*
X200710000Y-117420000D02*
X195310000Y-117420000D01*
X195310000Y-117420000D02*
X195310000Y-118920000D01*
X195310000Y-118920000D02*
X200710000Y-118920000D01*
X200710000Y-118920000D02*
X200710000Y-117420000D01*
G04 #@! TO.C,D19*
X197630000Y-141940000D02*
X198530000Y-141440000D01*
X198530000Y-141440000D02*
X198530000Y-142440000D01*
X198530000Y-142440000D02*
X197630000Y-141940000D01*
X197530000Y-141440000D02*
X197530000Y-142440000D01*
X200730000Y-141190000D02*
X195330000Y-141190000D01*
X195330000Y-141190000D02*
X195330000Y-142690000D01*
X195330000Y-142690000D02*
X200730000Y-142690000D01*
X200730000Y-142690000D02*
X200730000Y-141190000D01*
G04 #@! TO.C,J1*
X209010000Y-97330000D02*
X215010000Y-97330000D01*
X215010000Y-97330000D02*
X215010000Y-109330000D01*
X215010000Y-109330000D02*
X209010000Y-109330000D01*
X209010000Y-109330000D02*
X209010000Y-97330000D01*
G04 #@! TO.C,SW20*
X213810000Y-119860000D02*
X213560000Y-119860000D01*
X213560000Y-119860000D02*
X213560000Y-113860000D01*
X213560000Y-113860000D02*
X213810000Y-113860000D01*
X216810000Y-113860000D02*
X217060000Y-113860000D01*
X217060000Y-113860000D02*
X217060000Y-119860000D01*
X217060000Y-119860000D02*
X216810000Y-119860000D01*
D11*
G04 #@! TO.C,G\002A\002A\002A*
G36*
X142828045Y-92700350D02*
X142705576Y-92934695D01*
X142680758Y-93418828D01*
X142680667Y-93491333D01*
X142680667Y-94338000D01*
X144204667Y-94338000D01*
X144204667Y-93597167D01*
X144184697Y-93130739D01*
X144080002Y-92895042D01*
X143823406Y-92782592D01*
X143675500Y-92750500D01*
X143125557Y-92658162D01*
X142828045Y-92700350D01*
X142828045Y-92700350D01*
G37*
X142828045Y-92700350D02*
X142705576Y-92934695D01*
X142680758Y-93418828D01*
X142680667Y-93491333D01*
X142680667Y-94338000D01*
X144204667Y-94338000D01*
X144204667Y-93597167D01*
X144184697Y-93130739D01*
X144080002Y-92895042D01*
X143823406Y-92782592D01*
X143675500Y-92750500D01*
X143125557Y-92658162D01*
X142828045Y-92700350D01*
G36*
X145100707Y-95106737D02*
X145054551Y-95390596D01*
X145051334Y-95734524D01*
X145065465Y-96204799D01*
X145164244Y-96442139D01*
X145432252Y-96552275D01*
X145749875Y-96607750D01*
X146278689Y-96699721D01*
X146645156Y-96815510D01*
X146879042Y-97012312D01*
X147010115Y-97347325D01*
X147068142Y-97877744D01*
X147082888Y-98660766D01*
X147083334Y-99169958D01*
X147083334Y-101280667D01*
X148607334Y-101280667D01*
X148607334Y-95218768D01*
X147845334Y-95158164D01*
X147376382Y-95136720D01*
X147153429Y-95197531D01*
X147086540Y-95379917D01*
X147083334Y-95491310D01*
X147083334Y-95885061D01*
X146589585Y-95533481D01*
X146086774Y-95254185D01*
X145573585Y-95077450D01*
X145252647Y-95028866D01*
X145100707Y-95106737D01*
X145100707Y-95106737D01*
G37*
X145100707Y-95106737D02*
X145054551Y-95390596D01*
X145051334Y-95734524D01*
X145065465Y-96204799D01*
X145164244Y-96442139D01*
X145432252Y-96552275D01*
X145749875Y-96607750D01*
X146278689Y-96699721D01*
X146645156Y-96815510D01*
X146879042Y-97012312D01*
X147010115Y-97347325D01*
X147068142Y-97877744D01*
X147082888Y-98660766D01*
X147083334Y-99169958D01*
X147083334Y-101280667D01*
X148607334Y-101280667D01*
X148607334Y-95218768D01*
X147845334Y-95158164D01*
X147376382Y-95136720D01*
X147153429Y-95197531D01*
X147086540Y-95379917D01*
X147083334Y-95491310D01*
X147083334Y-95885061D01*
X146589585Y-95533481D01*
X146086774Y-95254185D01*
X145573585Y-95077450D01*
X145252647Y-95028866D01*
X145100707Y-95106737D01*
G36*
X150726754Y-93578225D02*
X150647311Y-93855303D01*
X150639334Y-94253333D01*
X150626682Y-94721539D01*
X150540935Y-94943250D01*
X150310406Y-95010633D01*
X150046667Y-95015333D01*
X149649443Y-95041546D01*
X149486539Y-95189439D01*
X149454074Y-95562889D01*
X149454000Y-95608000D01*
X149479780Y-96003971D01*
X149626085Y-96167326D01*
X149996366Y-96200554D01*
X150052213Y-96200667D01*
X150650426Y-96200667D01*
X150602546Y-98105667D01*
X150554667Y-100010667D01*
X149994460Y-100064465D01*
X149614895Y-100132180D01*
X149478728Y-100307029D01*
X149486460Y-100657132D01*
X149541316Y-100983693D01*
X149686447Y-101150307D01*
X150017201Y-101222446D01*
X150346601Y-101247758D01*
X150885518Y-101250474D01*
X151252554Y-101134698D01*
X151608582Y-100844943D01*
X151658934Y-100795117D01*
X151870896Y-100573626D01*
X152013190Y-100365221D01*
X152099699Y-100099739D01*
X152144305Y-99707013D01*
X152160889Y-99116880D01*
X152163334Y-98259176D01*
X152163334Y-96200667D01*
X152586667Y-96200667D01*
X152872950Y-96156386D01*
X152990149Y-95957124D01*
X153010000Y-95608000D01*
X152978269Y-95207104D01*
X152835912Y-95043003D01*
X152588668Y-95015333D01*
X152303277Y-94964052D01*
X152148250Y-94748120D01*
X152061808Y-94355394D01*
X151951780Y-93909091D01*
X151751437Y-93688039D01*
X151445973Y-93593394D01*
X150964137Y-93514516D01*
X150726754Y-93578225D01*
X150726754Y-93578225D01*
G37*
X150726754Y-93578225D02*
X150647311Y-93855303D01*
X150639334Y-94253333D01*
X150626682Y-94721539D01*
X150540935Y-94943250D01*
X150310406Y-95010633D01*
X150046667Y-95015333D01*
X149649443Y-95041546D01*
X149486539Y-95189439D01*
X149454074Y-95562889D01*
X149454000Y-95608000D01*
X149479780Y-96003971D01*
X149626085Y-96167326D01*
X149996366Y-96200554D01*
X150052213Y-96200667D01*
X150650426Y-96200667D01*
X150602546Y-98105667D01*
X150554667Y-100010667D01*
X149994460Y-100064465D01*
X149614895Y-100132180D01*
X149478728Y-100307029D01*
X149486460Y-100657132D01*
X149541316Y-100983693D01*
X149686447Y-101150307D01*
X150017201Y-101222446D01*
X150346601Y-101247758D01*
X150885518Y-101250474D01*
X151252554Y-101134698D01*
X151608582Y-100844943D01*
X151658934Y-100795117D01*
X151870896Y-100573626D01*
X152013190Y-100365221D01*
X152099699Y-100099739D01*
X152144305Y-99707013D01*
X152160889Y-99116880D01*
X152163334Y-98259176D01*
X152163334Y-96200667D01*
X152586667Y-96200667D01*
X152872950Y-96156386D01*
X152990149Y-95957124D01*
X153010000Y-95608000D01*
X152978269Y-95207104D01*
X152835912Y-95043003D01*
X152588668Y-95015333D01*
X152303277Y-94964052D01*
X152148250Y-94748120D01*
X152061808Y-94355394D01*
X151951780Y-93909091D01*
X151751437Y-93688039D01*
X151445973Y-93593394D01*
X150964137Y-93514516D01*
X150726754Y-93578225D01*
G36*
X154830969Y-95216703D02*
X154587141Y-95345572D01*
X154144847Y-95691297D01*
X153844033Y-96069940D01*
X153738795Y-96399175D01*
X153798647Y-96545530D01*
X154240460Y-96779751D01*
X154737743Y-96772845D01*
X155117987Y-96548925D01*
X155547416Y-96246414D01*
X155971975Y-96253063D01*
X156193467Y-96403867D01*
X156354370Y-96616679D01*
X156328730Y-96802089D01*
X156077310Y-97003839D01*
X155560874Y-97265672D01*
X155323603Y-97373615D01*
X154434776Y-97857293D01*
X153857968Y-98382654D01*
X153566742Y-98979416D01*
X153518000Y-99403158D01*
X153665811Y-100152352D01*
X154102255Y-100727323D01*
X154635359Y-101044554D01*
X155527782Y-101262110D01*
X156373394Y-101166870D01*
X156851527Y-100950428D01*
X157290394Y-100605213D01*
X157621239Y-100207229D01*
X157751334Y-99869030D01*
X157609992Y-99765350D01*
X157266752Y-99621004D01*
X157236802Y-99610430D01*
X156830245Y-99518125D01*
X156541070Y-99627488D01*
X156390135Y-99763198D01*
X155940111Y-100035262D01*
X155453106Y-100068760D01*
X155056211Y-99857162D01*
X155034947Y-99832835D01*
X154928185Y-99589407D01*
X155057803Y-99354591D01*
X155455735Y-99096906D01*
X156058000Y-98824247D01*
X156870895Y-98408543D01*
X157389956Y-97940071D01*
X157659879Y-97375771D01*
X157686454Y-97255413D01*
X157676679Y-96519848D01*
X157397515Y-95891490D01*
X156911162Y-95408668D01*
X156279821Y-95109711D01*
X155565690Y-95032946D01*
X154830969Y-95216703D01*
X154830969Y-95216703D01*
G37*
X154830969Y-95216703D02*
X154587141Y-95345572D01*
X154144847Y-95691297D01*
X153844033Y-96069940D01*
X153738795Y-96399175D01*
X153798647Y-96545530D01*
X154240460Y-96779751D01*
X154737743Y-96772845D01*
X155117987Y-96548925D01*
X155547416Y-96246414D01*
X155971975Y-96253063D01*
X156193467Y-96403867D01*
X156354370Y-96616679D01*
X156328730Y-96802089D01*
X156077310Y-97003839D01*
X155560874Y-97265672D01*
X155323603Y-97373615D01*
X154434776Y-97857293D01*
X153857968Y-98382654D01*
X153566742Y-98979416D01*
X153518000Y-99403158D01*
X153665811Y-100152352D01*
X154102255Y-100727323D01*
X154635359Y-101044554D01*
X155527782Y-101262110D01*
X156373394Y-101166870D01*
X156851527Y-100950428D01*
X157290394Y-100605213D01*
X157621239Y-100207229D01*
X157751334Y-99869030D01*
X157609992Y-99765350D01*
X157266752Y-99621004D01*
X157236802Y-99610430D01*
X156830245Y-99518125D01*
X156541070Y-99627488D01*
X156390135Y-99763198D01*
X155940111Y-100035262D01*
X155453106Y-100068760D01*
X155056211Y-99857162D01*
X155034947Y-99832835D01*
X154928185Y-99589407D01*
X155057803Y-99354591D01*
X155455735Y-99096906D01*
X156058000Y-98824247D01*
X156870895Y-98408543D01*
X157389956Y-97940071D01*
X157659879Y-97375771D01*
X157686454Y-97255413D01*
X157676679Y-96519848D01*
X157397515Y-95891490D01*
X156911162Y-95408668D01*
X156279821Y-95109711D01*
X155565690Y-95032946D01*
X154830969Y-95216703D01*
G36*
X164273420Y-93578225D02*
X164193978Y-93855303D01*
X164186000Y-94253333D01*
X164173348Y-94721539D01*
X164087601Y-94943250D01*
X163857073Y-95010633D01*
X163593334Y-95015333D01*
X163196110Y-95041546D01*
X163033205Y-95189439D01*
X163000741Y-95562889D01*
X163000667Y-95608000D01*
X163026447Y-96003971D01*
X163172752Y-96167326D01*
X163543033Y-96200554D01*
X163598880Y-96200667D01*
X164197092Y-96200667D01*
X164101334Y-100010667D01*
X163541127Y-100064465D01*
X163161561Y-100132180D01*
X163025395Y-100307029D01*
X163033127Y-100657132D01*
X163087983Y-100983693D01*
X163233114Y-101150307D01*
X163563868Y-101222446D01*
X163893268Y-101247758D01*
X164432185Y-101250474D01*
X164799221Y-101134698D01*
X165155249Y-100844943D01*
X165205601Y-100795117D01*
X165417563Y-100573626D01*
X165559857Y-100365221D01*
X165646366Y-100099739D01*
X165690972Y-99707013D01*
X165707556Y-99116880D01*
X165710000Y-98259176D01*
X165710000Y-96200667D01*
X166133334Y-96200667D01*
X166419617Y-96156386D01*
X166536816Y-95957124D01*
X166556667Y-95608000D01*
X166524936Y-95207104D01*
X166382578Y-95043003D01*
X166135335Y-95015333D01*
X165849944Y-94964052D01*
X165694917Y-94748120D01*
X165608474Y-94355394D01*
X165498447Y-93909091D01*
X165298103Y-93688039D01*
X164992640Y-93593394D01*
X164510804Y-93514516D01*
X164273420Y-93578225D01*
X164273420Y-93578225D01*
G37*
X164273420Y-93578225D02*
X164193978Y-93855303D01*
X164186000Y-94253333D01*
X164173348Y-94721539D01*
X164087601Y-94943250D01*
X163857073Y-95010633D01*
X163593334Y-95015333D01*
X163196110Y-95041546D01*
X163033205Y-95189439D01*
X163000741Y-95562889D01*
X163000667Y-95608000D01*
X163026447Y-96003971D01*
X163172752Y-96167326D01*
X163543033Y-96200554D01*
X163598880Y-96200667D01*
X164197092Y-96200667D01*
X164101334Y-100010667D01*
X163541127Y-100064465D01*
X163161561Y-100132180D01*
X163025395Y-100307029D01*
X163033127Y-100657132D01*
X163087983Y-100983693D01*
X163233114Y-101150307D01*
X163563868Y-101222446D01*
X163893268Y-101247758D01*
X164432185Y-101250474D01*
X164799221Y-101134698D01*
X165155249Y-100844943D01*
X165205601Y-100795117D01*
X165417563Y-100573626D01*
X165559857Y-100365221D01*
X165646366Y-100099739D01*
X165690972Y-99707013D01*
X165707556Y-99116880D01*
X165710000Y-98259176D01*
X165710000Y-96200667D01*
X166133334Y-96200667D01*
X166419617Y-96156386D01*
X166536816Y-95957124D01*
X166556667Y-95608000D01*
X166524936Y-95207104D01*
X166382578Y-95043003D01*
X166135335Y-95015333D01*
X165849944Y-94964052D01*
X165694917Y-94748120D01*
X165608474Y-94355394D01*
X165498447Y-93909091D01*
X165298103Y-93688039D01*
X164992640Y-93593394D01*
X164510804Y-93514516D01*
X164273420Y-93578225D01*
G36*
X182336457Y-95071107D02*
X181561989Y-95288437D01*
X180987063Y-95767537D01*
X180605229Y-96516720D01*
X180410038Y-97544299D01*
X180409066Y-97555333D01*
X180357334Y-98148000D01*
X181859541Y-98197225D01*
X183361747Y-98246451D01*
X183249114Y-98950824D01*
X183136160Y-99447185D01*
X182993701Y-99815126D01*
X182953839Y-99875265D01*
X182603782Y-100091549D01*
X182235607Y-100015973D01*
X181949264Y-99674099D01*
X181923383Y-99611748D01*
X181773321Y-99295051D01*
X181574671Y-99207922D01*
X181195451Y-99295566D01*
X181176092Y-99301493D01*
X180778178Y-99454992D01*
X180638308Y-99649495D01*
X180726134Y-99980482D01*
X180868200Y-100270209D01*
X181324412Y-100811516D01*
X181975197Y-101158202D01*
X182714597Y-101271778D01*
X183320667Y-101161079D01*
X183860771Y-100797589D01*
X184310327Y-100180032D01*
X184635271Y-99388264D01*
X184801540Y-98502140D01*
X184790473Y-97715443D01*
X184635387Y-97001466D01*
X183293979Y-97001466D01*
X183258673Y-97253587D01*
X182929567Y-97368400D01*
X182558667Y-97386000D01*
X182104199Y-97354552D01*
X181831610Y-97274986D01*
X181796667Y-97227690D01*
X181852357Y-96962920D01*
X181961809Y-96635023D01*
X182226558Y-96283746D01*
X182587969Y-96223038D01*
X182961465Y-96457378D01*
X183057065Y-96577011D01*
X183293979Y-97001466D01*
X184635387Y-97001466D01*
X184555996Y-96635974D01*
X184145660Y-95828794D01*
X183568318Y-95303444D01*
X182832825Y-95069466D01*
X182336457Y-95071107D01*
X182336457Y-95071107D01*
G37*
X182336457Y-95071107D02*
X181561989Y-95288437D01*
X180987063Y-95767537D01*
X180605229Y-96516720D01*
X180410038Y-97544299D01*
X180409066Y-97555333D01*
X180357334Y-98148000D01*
X181859541Y-98197225D01*
X183361747Y-98246451D01*
X183249114Y-98950824D01*
X183136160Y-99447185D01*
X182993701Y-99815126D01*
X182953839Y-99875265D01*
X182603782Y-100091549D01*
X182235607Y-100015973D01*
X181949264Y-99674099D01*
X181923383Y-99611748D01*
X181773321Y-99295051D01*
X181574671Y-99207922D01*
X181195451Y-99295566D01*
X181176092Y-99301493D01*
X180778178Y-99454992D01*
X180638308Y-99649495D01*
X180726134Y-99980482D01*
X180868200Y-100270209D01*
X181324412Y-100811516D01*
X181975197Y-101158202D01*
X182714597Y-101271778D01*
X183320667Y-101161079D01*
X183860771Y-100797589D01*
X184310327Y-100180032D01*
X184635271Y-99388264D01*
X184801540Y-98502140D01*
X184790473Y-97715443D01*
X184635387Y-97001466D01*
X183293979Y-97001466D01*
X183258673Y-97253587D01*
X182929567Y-97368400D01*
X182558667Y-97386000D01*
X182104199Y-97354552D01*
X181831610Y-97274986D01*
X181796667Y-97227690D01*
X181852357Y-96962920D01*
X181961809Y-96635023D01*
X182226558Y-96283746D01*
X182587969Y-96223038D01*
X182961465Y-96457378D01*
X183057065Y-96577011D01*
X183293979Y-97001466D01*
X184635387Y-97001466D01*
X184555996Y-96635974D01*
X184145660Y-95828794D01*
X183568318Y-95303444D01*
X182832825Y-95069466D01*
X182336457Y-95071107D01*
G36*
X137331035Y-95275662D02*
X136973056Y-95798733D01*
X136941145Y-95883694D01*
X136872848Y-96246923D01*
X136815716Y-96869566D01*
X136774771Y-97672422D01*
X136755040Y-98576293D01*
X136754000Y-98833551D01*
X136754000Y-101246565D01*
X137511604Y-101306820D01*
X138269208Y-101367074D01*
X138315937Y-99013716D01*
X138340641Y-98052318D01*
X138374933Y-97375469D01*
X138425906Y-96929063D01*
X138500652Y-96658992D01*
X138606265Y-96511148D01*
X138647977Y-96480665D01*
X138990997Y-96396605D01*
X139367643Y-96533433D01*
X139543416Y-96637138D01*
X139663929Y-96766396D01*
X139739611Y-96980577D01*
X139780890Y-97339048D01*
X139798196Y-97901179D01*
X139801955Y-98726339D01*
X139802000Y-99006230D01*
X139802000Y-101246565D01*
X140564000Y-101307169D01*
X141326000Y-101367774D01*
X141326000Y-95184667D01*
X140564000Y-95184667D01*
X140087130Y-95207217D01*
X139861729Y-95299858D01*
X139802172Y-95500069D01*
X139802000Y-95518230D01*
X139781537Y-95710264D01*
X139670072Y-95731720D01*
X139392489Y-95572279D01*
X139185704Y-95433563D01*
X138475793Y-95085370D01*
X137844759Y-95035305D01*
X137331035Y-95275662D01*
X137331035Y-95275662D01*
G37*
X137331035Y-95275662D02*
X136973056Y-95798733D01*
X136941145Y-95883694D01*
X136872848Y-96246923D01*
X136815716Y-96869566D01*
X136774771Y-97672422D01*
X136755040Y-98576293D01*
X136754000Y-98833551D01*
X136754000Y-101246565D01*
X137511604Y-101306820D01*
X138269208Y-101367074D01*
X138315937Y-99013716D01*
X138340641Y-98052318D01*
X138374933Y-97375469D01*
X138425906Y-96929063D01*
X138500652Y-96658992D01*
X138606265Y-96511148D01*
X138647977Y-96480665D01*
X138990997Y-96396605D01*
X139367643Y-96533433D01*
X139543416Y-96637138D01*
X139663929Y-96766396D01*
X139739611Y-96980577D01*
X139780890Y-97339048D01*
X139798196Y-97901179D01*
X139801955Y-98726339D01*
X139802000Y-99006230D01*
X139802000Y-101246565D01*
X140564000Y-101307169D01*
X141326000Y-101367774D01*
X141326000Y-95184667D01*
X140564000Y-95184667D01*
X140087130Y-95207217D01*
X139861729Y-95299858D01*
X139802172Y-95500069D01*
X139802000Y-95518230D01*
X139781537Y-95710264D01*
X139670072Y-95731720D01*
X139392489Y-95572279D01*
X139185704Y-95433563D01*
X138475793Y-95085370D01*
X137844759Y-95035305D01*
X137331035Y-95275662D01*
G36*
X142680667Y-98232667D02*
X142681632Y-99315361D01*
X142688367Y-100105511D01*
X142706634Y-100649237D01*
X142742192Y-100992661D01*
X142800804Y-101181906D01*
X142888229Y-101263092D01*
X143010228Y-101282342D01*
X143061667Y-101282979D01*
X143552070Y-101331048D01*
X143823667Y-101387395D01*
X144204667Y-101489499D01*
X144204667Y-98439866D01*
X144203564Y-97315481D01*
X144190859Y-96485196D01*
X144152453Y-95904454D01*
X144074251Y-95528699D01*
X143942156Y-95313371D01*
X143742071Y-95213915D01*
X143459901Y-95185774D01*
X143174818Y-95184667D01*
X142680667Y-95184667D01*
X142680667Y-98232667D01*
X142680667Y-98232667D01*
G37*
X142680667Y-98232667D02*
X142681632Y-99315361D01*
X142688367Y-100105511D01*
X142706634Y-100649237D01*
X142742192Y-100992661D01*
X142800804Y-101181906D01*
X142888229Y-101263092D01*
X143010228Y-101282342D01*
X143061667Y-101282979D01*
X143552070Y-101331048D01*
X143823667Y-101387395D01*
X144204667Y-101489499D01*
X144204667Y-98439866D01*
X144203564Y-97315481D01*
X144190859Y-96485196D01*
X144152453Y-95904454D01*
X144074251Y-95528699D01*
X143942156Y-95313371D01*
X143742071Y-95213915D01*
X143459901Y-95185774D01*
X143174818Y-95184667D01*
X142680667Y-95184667D01*
X142680667Y-98232667D01*
G36*
X173245388Y-95216765D02*
X173085602Y-95391678D01*
X172982271Y-95603337D01*
X172908661Y-95931008D01*
X172860415Y-96426183D01*
X172833175Y-97140351D01*
X172822585Y-98125004D01*
X172822000Y-98506558D01*
X172822000Y-101245094D01*
X173499334Y-101309689D01*
X174176667Y-101374283D01*
X174176667Y-99139991D01*
X174182894Y-98103908D01*
X174207096Y-97359749D01*
X174257555Y-96860907D01*
X174342554Y-96560780D01*
X174470374Y-96412760D01*
X174649297Y-96370244D01*
X174668917Y-96370000D01*
X174933971Y-96408300D01*
X175122664Y-96554712D01*
X175247398Y-96856500D01*
X175320576Y-97360932D01*
X175354600Y-98115272D01*
X175362000Y-99011482D01*
X175362000Y-101246565D01*
X176124000Y-101307169D01*
X176886000Y-101367774D01*
X176886000Y-98868887D01*
X176889053Y-97898643D01*
X176902293Y-97216843D01*
X176931842Y-96773288D01*
X176983824Y-96517782D01*
X177064362Y-96400124D01*
X177179578Y-96370117D01*
X177190801Y-96370000D01*
X177462441Y-96406588D01*
X177655782Y-96548021D01*
X177783613Y-96841800D01*
X177858725Y-97335428D01*
X177893906Y-98076407D01*
X177902000Y-99011482D01*
X177902000Y-101246565D01*
X178664000Y-101307169D01*
X179426000Y-101367774D01*
X179426000Y-95184667D01*
X178664000Y-95184667D01*
X178169514Y-95215043D01*
X177940804Y-95322285D01*
X177902000Y-95452477D01*
X177860143Y-95599186D01*
X177685830Y-95569268D01*
X177331680Y-95367811D01*
X176668583Y-95082111D01*
X176105482Y-95084665D01*
X175682492Y-95367597D01*
X175490928Y-95729217D01*
X175334404Y-95786044D01*
X174987005Y-95573316D01*
X174870150Y-95478241D01*
X174273092Y-95115171D01*
X173710734Y-95027005D01*
X173245388Y-95216765D01*
X173245388Y-95216765D01*
G37*
X173245388Y-95216765D02*
X173085602Y-95391678D01*
X172982271Y-95603337D01*
X172908661Y-95931008D01*
X172860415Y-96426183D01*
X172833175Y-97140351D01*
X172822585Y-98125004D01*
X172822000Y-98506558D01*
X172822000Y-101245094D01*
X173499334Y-101309689D01*
X174176667Y-101374283D01*
X174176667Y-99139991D01*
X174182894Y-98103908D01*
X174207096Y-97359749D01*
X174257555Y-96860907D01*
X174342554Y-96560780D01*
X174470374Y-96412760D01*
X174649297Y-96370244D01*
X174668917Y-96370000D01*
X174933971Y-96408300D01*
X175122664Y-96554712D01*
X175247398Y-96856500D01*
X175320576Y-97360932D01*
X175354600Y-98115272D01*
X175362000Y-99011482D01*
X175362000Y-101246565D01*
X176124000Y-101307169D01*
X176886000Y-101367774D01*
X176886000Y-98868887D01*
X176889053Y-97898643D01*
X176902293Y-97216843D01*
X176931842Y-96773288D01*
X176983824Y-96517782D01*
X177064362Y-96400124D01*
X177179578Y-96370117D01*
X177190801Y-96370000D01*
X177462441Y-96406588D01*
X177655782Y-96548021D01*
X177783613Y-96841800D01*
X177858725Y-97335428D01*
X177893906Y-98076407D01*
X177902000Y-99011482D01*
X177902000Y-101246565D01*
X178664000Y-101307169D01*
X179426000Y-101367774D01*
X179426000Y-95184667D01*
X178664000Y-95184667D01*
X178169514Y-95215043D01*
X177940804Y-95322285D01*
X177902000Y-95452477D01*
X177860143Y-95599186D01*
X177685830Y-95569268D01*
X177331680Y-95367811D01*
X176668583Y-95082111D01*
X176105482Y-95084665D01*
X175682492Y-95367597D01*
X175490928Y-95729217D01*
X175334404Y-95786044D01*
X174987005Y-95573316D01*
X174870150Y-95478241D01*
X174273092Y-95115171D01*
X173710734Y-95027005D01*
X173245388Y-95216765D01*
G36*
X167801150Y-95263896D02*
X167470460Y-95678803D01*
X167238310Y-96337630D01*
X167103828Y-97160549D01*
X167066140Y-98067734D01*
X167124373Y-98979357D01*
X167277656Y-99815590D01*
X167525115Y-100496607D01*
X167863212Y-100940493D01*
X168478435Y-101235469D01*
X169125923Y-101222975D01*
X169566989Y-101017065D01*
X169776194Y-100883961D01*
X169888593Y-100899038D01*
X169934263Y-101121500D01*
X169943281Y-101610554D01*
X169943334Y-101757898D01*
X169951767Y-102318358D01*
X170005319Y-102629083D01*
X170146372Y-102778997D01*
X170417307Y-102857021D01*
X170472500Y-102868167D01*
X170787991Y-102934040D01*
X171028809Y-102963690D01*
X171204999Y-102918867D01*
X171326604Y-102761323D01*
X171403666Y-102452808D01*
X171446230Y-101955073D01*
X171464337Y-101229867D01*
X171468031Y-100238943D01*
X171467334Y-99079333D01*
X171467334Y-98947793D01*
X169911105Y-98947793D01*
X169859339Y-99559990D01*
X169759847Y-99858388D01*
X169402472Y-100082269D01*
X169031540Y-100013501D01*
X168758889Y-99674028D01*
X168753809Y-99660976D01*
X168668279Y-99267830D01*
X168608602Y-98672194D01*
X168588667Y-98071069D01*
X168615385Y-97359638D01*
X168709462Y-96884642D01*
X168891788Y-96547051D01*
X168916725Y-96515759D01*
X169194365Y-96250560D01*
X169438992Y-96244511D01*
X169551725Y-96303267D01*
X169702790Y-96450300D01*
X169802147Y-96715709D01*
X169863765Y-97168298D01*
X169901614Y-97876870D01*
X169907581Y-98055988D01*
X169911105Y-98947793D01*
X171467334Y-98947793D01*
X171467334Y-95184667D01*
X170705334Y-95184667D01*
X170210106Y-95215325D01*
X169981354Y-95323132D01*
X169943334Y-95450957D01*
X169899908Y-95597784D01*
X169724124Y-95534091D01*
X169497164Y-95366290D01*
X168883070Y-95065692D01*
X168243108Y-95064257D01*
X167801150Y-95263896D01*
X167801150Y-95263896D01*
G37*
X167801150Y-95263896D02*
X167470460Y-95678803D01*
X167238310Y-96337630D01*
X167103828Y-97160549D01*
X167066140Y-98067734D01*
X167124373Y-98979357D01*
X167277656Y-99815590D01*
X167525115Y-100496607D01*
X167863212Y-100940493D01*
X168478435Y-101235469D01*
X169125923Y-101222975D01*
X169566989Y-101017065D01*
X169776194Y-100883961D01*
X169888593Y-100899038D01*
X169934263Y-101121500D01*
X169943281Y-101610554D01*
X169943334Y-101757898D01*
X169951767Y-102318358D01*
X170005319Y-102629083D01*
X170146372Y-102778997D01*
X170417307Y-102857021D01*
X170472500Y-102868167D01*
X170787991Y-102934040D01*
X171028809Y-102963690D01*
X171204999Y-102918867D01*
X171326604Y-102761323D01*
X171403666Y-102452808D01*
X171446230Y-101955073D01*
X171464337Y-101229867D01*
X171468031Y-100238943D01*
X171467334Y-99079333D01*
X171467334Y-98947793D01*
X169911105Y-98947793D01*
X169859339Y-99559990D01*
X169759847Y-99858388D01*
X169402472Y-100082269D01*
X169031540Y-100013501D01*
X168758889Y-99674028D01*
X168753809Y-99660976D01*
X168668279Y-99267830D01*
X168608602Y-98672194D01*
X168588667Y-98071069D01*
X168615385Y-97359638D01*
X168709462Y-96884642D01*
X168891788Y-96547051D01*
X168916725Y-96515759D01*
X169194365Y-96250560D01*
X169438992Y-96244511D01*
X169551725Y-96303267D01*
X169702790Y-96450300D01*
X169802147Y-96715709D01*
X169863765Y-97168298D01*
X169901614Y-97876870D01*
X169907581Y-98055988D01*
X169911105Y-98947793D01*
X171467334Y-98947793D01*
X171467334Y-95184667D01*
X170705334Y-95184667D01*
X170210106Y-95215325D01*
X169981354Y-95323132D01*
X169943334Y-95450957D01*
X169899908Y-95597784D01*
X169724124Y-95534091D01*
X169497164Y-95366290D01*
X168883070Y-95065692D01*
X168243108Y-95064257D01*
X167801150Y-95263896D01*
G36*
X130507388Y-94916255D02*
X130488667Y-95166309D01*
X130564319Y-95557158D01*
X130841042Y-95743242D01*
X130891736Y-95757116D01*
X131123767Y-95848086D01*
X131240701Y-96031472D01*
X131276694Y-96399601D01*
X131272736Y-96787027D01*
X131351610Y-97593604D01*
X131650599Y-98161923D01*
X132196594Y-98520216D01*
X133016483Y-98696713D01*
X133098761Y-98704162D01*
X133772282Y-98815911D01*
X134203382Y-99006897D01*
X134354420Y-99255320D01*
X134307305Y-99404024D01*
X134201854Y-99500062D01*
X133978516Y-99582965D01*
X133578598Y-99665638D01*
X132943406Y-99760986D01*
X132296795Y-99846091D01*
X131550498Y-100029735D01*
X131083172Y-100375192D01*
X130859435Y-100918278D01*
X130827334Y-101333403D01*
X130950079Y-102056951D01*
X131332495Y-102577592D01*
X131995847Y-102921789D01*
X132138565Y-102964792D01*
X132945566Y-103096598D01*
X133878654Y-103114097D01*
X134749728Y-103017986D01*
X135017453Y-102954115D01*
X135555358Y-102673926D01*
X135897872Y-102251652D01*
X136026411Y-101769439D01*
X135953079Y-101445139D01*
X134706223Y-101445139D01*
X134515195Y-101685603D01*
X134477969Y-101713918D01*
X134027496Y-101892022D01*
X133424271Y-101950179D01*
X132830311Y-101887231D01*
X132440852Y-101728487D01*
X132208385Y-101437188D01*
X132289357Y-101167331D01*
X132658778Y-100952961D01*
X133083588Y-100852943D01*
X133784374Y-100784566D01*
X134242789Y-100844077D01*
X134535972Y-101047080D01*
X134619184Y-101163584D01*
X134706223Y-101445139D01*
X135953079Y-101445139D01*
X135922393Y-101309436D01*
X135567235Y-100953788D01*
X135480012Y-100909372D01*
X135193812Y-100759801D01*
X135197278Y-100637400D01*
X135400017Y-100482195D01*
X135692631Y-100098506D01*
X135720387Y-99611223D01*
X135491396Y-99117210D01*
X135266156Y-98883657D01*
X134794311Y-98492889D01*
X135187206Y-98151111D01*
X135547047Y-97641877D01*
X135669773Y-97125125D01*
X134187221Y-97125125D01*
X134036728Y-97563411D01*
X133721401Y-97826219D01*
X133300235Y-97850066D01*
X133037134Y-97733483D01*
X132866004Y-97460963D01*
X132791956Y-96998412D01*
X132791600Y-96962667D01*
X132900707Y-96448080D01*
X133172183Y-96130188D01*
X133522265Y-96033560D01*
X133867188Y-96182764D01*
X134113882Y-96574844D01*
X134187221Y-97125125D01*
X135669773Y-97125125D01*
X135699026Y-97001953D01*
X135621951Y-96371146D01*
X135496424Y-96111195D01*
X134910970Y-95507823D01*
X134144120Y-95135370D01*
X133284684Y-95020581D01*
X132428990Y-95187332D01*
X132040776Y-95265940D01*
X131650827Y-95147305D01*
X131424313Y-95017998D01*
X130926325Y-94749981D01*
X130636014Y-94713636D01*
X130507388Y-94916255D01*
X130507388Y-94916255D01*
G37*
X130507388Y-94916255D02*
X130488667Y-95166309D01*
X130564319Y-95557158D01*
X130841042Y-95743242D01*
X130891736Y-95757116D01*
X131123767Y-95848086D01*
X131240701Y-96031472D01*
X131276694Y-96399601D01*
X131272736Y-96787027D01*
X131351610Y-97593604D01*
X131650599Y-98161923D01*
X132196594Y-98520216D01*
X133016483Y-98696713D01*
X133098761Y-98704162D01*
X133772282Y-98815911D01*
X134203382Y-99006897D01*
X134354420Y-99255320D01*
X134307305Y-99404024D01*
X134201854Y-99500062D01*
X133978516Y-99582965D01*
X133578598Y-99665638D01*
X132943406Y-99760986D01*
X132296795Y-99846091D01*
X131550498Y-100029735D01*
X131083172Y-100375192D01*
X130859435Y-100918278D01*
X130827334Y-101333403D01*
X130950079Y-102056951D01*
X131332495Y-102577592D01*
X131995847Y-102921789D01*
X132138565Y-102964792D01*
X132945566Y-103096598D01*
X133878654Y-103114097D01*
X134749728Y-103017986D01*
X135017453Y-102954115D01*
X135555358Y-102673926D01*
X135897872Y-102251652D01*
X136026411Y-101769439D01*
X135953079Y-101445139D01*
X134706223Y-101445139D01*
X134515195Y-101685603D01*
X134477969Y-101713918D01*
X134027496Y-101892022D01*
X133424271Y-101950179D01*
X132830311Y-101887231D01*
X132440852Y-101728487D01*
X132208385Y-101437188D01*
X132289357Y-101167331D01*
X132658778Y-100952961D01*
X133083588Y-100852943D01*
X133784374Y-100784566D01*
X134242789Y-100844077D01*
X134535972Y-101047080D01*
X134619184Y-101163584D01*
X134706223Y-101445139D01*
X135953079Y-101445139D01*
X135922393Y-101309436D01*
X135567235Y-100953788D01*
X135480012Y-100909372D01*
X135193812Y-100759801D01*
X135197278Y-100637400D01*
X135400017Y-100482195D01*
X135692631Y-100098506D01*
X135720387Y-99611223D01*
X135491396Y-99117210D01*
X135266156Y-98883657D01*
X134794311Y-98492889D01*
X135187206Y-98151111D01*
X135547047Y-97641877D01*
X135669773Y-97125125D01*
X134187221Y-97125125D01*
X134036728Y-97563411D01*
X133721401Y-97826219D01*
X133300235Y-97850066D01*
X133037134Y-97733483D01*
X132866004Y-97460963D01*
X132791956Y-96998412D01*
X132791600Y-96962667D01*
X132900707Y-96448080D01*
X133172183Y-96130188D01*
X133522265Y-96033560D01*
X133867188Y-96182764D01*
X134113882Y-96574844D01*
X134187221Y-97125125D01*
X135669773Y-97125125D01*
X135699026Y-97001953D01*
X135621951Y-96371146D01*
X135496424Y-96111195D01*
X134910970Y-95507823D01*
X134144120Y-95135370D01*
X133284684Y-95020581D01*
X132428990Y-95187332D01*
X132040776Y-95265940D01*
X131650827Y-95147305D01*
X131424313Y-95017998D01*
X130926325Y-94749981D01*
X130636014Y-94713636D01*
X130507388Y-94916255D01*
G36*
X158949917Y-98181547D02*
X159220764Y-99209408D01*
X159481364Y-100157566D01*
X159713850Y-100964066D01*
X159900354Y-101566954D01*
X160023008Y-101904275D01*
X160024448Y-101907378D01*
X160487687Y-102542944D01*
X161181402Y-102943823D01*
X161902444Y-103101765D01*
X162662000Y-103187378D01*
X162662000Y-102488022D01*
X162644881Y-102045059D01*
X162542372Y-101844631D01*
X162277753Y-101790718D01*
X162103200Y-101788667D01*
X161667743Y-101748302D01*
X161367112Y-101604407D01*
X161199564Y-101322778D01*
X161163354Y-100869209D01*
X161256736Y-100209499D01*
X161477967Y-99309441D01*
X161825301Y-98134834D01*
X161903931Y-97882503D01*
X162176702Y-97014021D01*
X162416965Y-96252489D01*
X162604996Y-95660161D01*
X162721072Y-95299290D01*
X162745283Y-95227000D01*
X162680034Y-95089992D01*
X162335463Y-95024500D01*
X162005118Y-95015333D01*
X161189531Y-95015333D01*
X160798892Y-96795348D01*
X160632343Y-97506345D01*
X160481600Y-98063423D01*
X160365041Y-98403707D01*
X160307460Y-98476485D01*
X160231407Y-98278260D01*
X160108169Y-97824583D01*
X159957534Y-97191981D01*
X159858068Y-96738803D01*
X159509470Y-95100000D01*
X158819178Y-95048880D01*
X158128887Y-94997761D01*
X158949917Y-98181547D01*
X158949917Y-98181547D01*
G37*
X158949917Y-98181547D02*
X159220764Y-99209408D01*
X159481364Y-100157566D01*
X159713850Y-100964066D01*
X159900354Y-101566954D01*
X160023008Y-101904275D01*
X160024448Y-101907378D01*
X160487687Y-102542944D01*
X161181402Y-102943823D01*
X161902444Y-103101765D01*
X162662000Y-103187378D01*
X162662000Y-102488022D01*
X162644881Y-102045059D01*
X162542372Y-101844631D01*
X162277753Y-101790718D01*
X162103200Y-101788667D01*
X161667743Y-101748302D01*
X161367112Y-101604407D01*
X161199564Y-101322778D01*
X161163354Y-100869209D01*
X161256736Y-100209499D01*
X161477967Y-99309441D01*
X161825301Y-98134834D01*
X161903931Y-97882503D01*
X162176702Y-97014021D01*
X162416965Y-96252489D01*
X162604996Y-95660161D01*
X162721072Y-95299290D01*
X162745283Y-95227000D01*
X162680034Y-95089992D01*
X162335463Y-95024500D01*
X162005118Y-95015333D01*
X161189531Y-95015333D01*
X160798892Y-96795348D01*
X160632343Y-97506345D01*
X160481600Y-98063423D01*
X160365041Y-98403707D01*
X160307460Y-98476485D01*
X160231407Y-98278260D01*
X160108169Y-97824583D01*
X159957534Y-97191981D01*
X159858068Y-96738803D01*
X159509470Y-95100000D01*
X158819178Y-95048880D01*
X158128887Y-94997761D01*
X158949917Y-98181547D01*
G36*
X116920045Y-110819017D02*
X116797576Y-111053362D01*
X116772758Y-111537495D01*
X116772667Y-111610000D01*
X116772667Y-112456667D01*
X118296667Y-112456667D01*
X118296667Y-111715833D01*
X118276697Y-111249406D01*
X118172002Y-111013708D01*
X117915406Y-110901259D01*
X117767500Y-110869167D01*
X117217557Y-110776828D01*
X116920045Y-110819017D01*
X116920045Y-110819017D01*
G37*
X116920045Y-110819017D02*
X116797576Y-111053362D01*
X116772758Y-111537495D01*
X116772667Y-111610000D01*
X116772667Y-112456667D01*
X118296667Y-112456667D01*
X118296667Y-111715833D01*
X118276697Y-111249406D01*
X118172002Y-111013708D01*
X117915406Y-110901259D01*
X117767500Y-110869167D01*
X117217557Y-110776828D01*
X116920045Y-110819017D01*
G36*
X112907552Y-113241482D02*
X112323157Y-113460512D01*
X112194530Y-113557333D01*
X111672210Y-114231231D01*
X111341340Y-115094834D01*
X111202317Y-116061549D01*
X111255535Y-117044784D01*
X111501390Y-117957944D01*
X111940278Y-118714439D01*
X112169881Y-118953692D01*
X112735433Y-119254867D01*
X113441674Y-119353580D01*
X114153125Y-119243394D01*
X114539190Y-119066239D01*
X115071239Y-118546314D01*
X115444842Y-117805550D01*
X115655875Y-116924571D01*
X115700215Y-115984000D01*
X115683620Y-115863340D01*
X114195566Y-115863340D01*
X114190104Y-116557211D01*
X114128923Y-117217471D01*
X114016020Y-117730977D01*
X113913495Y-117936510D01*
X113539130Y-118190319D01*
X113162878Y-118141699D01*
X112884138Y-117805646D01*
X112873809Y-117779643D01*
X112769167Y-117288314D01*
X112718914Y-116599076D01*
X112722849Y-115848258D01*
X112780771Y-115172191D01*
X112878273Y-114741949D01*
X113135181Y-114410190D01*
X113487007Y-114356143D01*
X113844715Y-114573168D01*
X114023342Y-114827333D01*
X114141311Y-115249000D01*
X114195566Y-115863340D01*
X115683620Y-115863340D01*
X115573740Y-115064460D01*
X115272327Y-114246575D01*
X114816989Y-113634160D01*
X114287030Y-113332190D01*
X113606364Y-113200003D01*
X112907552Y-113241482D01*
X112907552Y-113241482D01*
G37*
X112907552Y-113241482D02*
X112323157Y-113460512D01*
X112194530Y-113557333D01*
X111672210Y-114231231D01*
X111341340Y-115094834D01*
X111202317Y-116061549D01*
X111255535Y-117044784D01*
X111501390Y-117957944D01*
X111940278Y-118714439D01*
X112169881Y-118953692D01*
X112735433Y-119254867D01*
X113441674Y-119353580D01*
X114153125Y-119243394D01*
X114539190Y-119066239D01*
X115071239Y-118546314D01*
X115444842Y-117805550D01*
X115655875Y-116924571D01*
X115700215Y-115984000D01*
X115683620Y-115863340D01*
X114195566Y-115863340D01*
X114190104Y-116557211D01*
X114128923Y-117217471D01*
X114016020Y-117730977D01*
X113913495Y-117936510D01*
X113539130Y-118190319D01*
X113162878Y-118141699D01*
X112884138Y-117805646D01*
X112873809Y-117779643D01*
X112769167Y-117288314D01*
X112718914Y-116599076D01*
X112722849Y-115848258D01*
X112780771Y-115172191D01*
X112878273Y-114741949D01*
X113135181Y-114410190D01*
X113487007Y-114356143D01*
X113844715Y-114573168D01*
X114023342Y-114827333D01*
X114141311Y-115249000D01*
X114195566Y-115863340D01*
X115683620Y-115863340D01*
X115573740Y-115064460D01*
X115272327Y-114246575D01*
X114816989Y-113634160D01*
X114287030Y-113332190D01*
X113606364Y-113200003D01*
X112907552Y-113241482D01*
G36*
X119651334Y-119230000D02*
X120232590Y-119230000D01*
X120676780Y-119169952D01*
X120895720Y-118957244D01*
X120924269Y-118882086D01*
X121012978Y-118665338D01*
X121134659Y-118668275D01*
X121378901Y-118905730D01*
X121435594Y-118966753D01*
X121972706Y-119323442D01*
X122588411Y-119376531D01*
X123170623Y-119135054D01*
X123617593Y-118697934D01*
X123912060Y-118091889D01*
X124072535Y-117262489D01*
X124117343Y-116351333D01*
X124098050Y-115843862D01*
X122653966Y-115843862D01*
X122646249Y-116535099D01*
X122585364Y-117198764D01*
X122475848Y-117722318D01*
X122365758Y-117953865D01*
X121999846Y-118187699D01*
X121610169Y-118144253D01*
X121350625Y-117886465D01*
X121245347Y-117513607D01*
X121185265Y-116940439D01*
X121168351Y-116264462D01*
X121192575Y-115583178D01*
X121255908Y-114994088D01*
X121356320Y-114594693D01*
X121421199Y-114495418D01*
X121824138Y-114342483D01*
X122223432Y-114494404D01*
X122491749Y-114828833D01*
X122603978Y-115237594D01*
X122653966Y-115843862D01*
X124098050Y-115843862D01*
X124073916Y-115209088D01*
X123917767Y-114357575D01*
X123639037Y-113764861D01*
X123227869Y-113399011D01*
X123201639Y-113385055D01*
X122585088Y-113161966D01*
X122061420Y-113219511D01*
X121621503Y-113484957D01*
X121175334Y-113835914D01*
X121175334Y-111305435D01*
X120413334Y-111244830D01*
X119651334Y-111184226D01*
X119651334Y-119230000D01*
X119651334Y-119230000D01*
G37*
X119651334Y-119230000D02*
X120232590Y-119230000D01*
X120676780Y-119169952D01*
X120895720Y-118957244D01*
X120924269Y-118882086D01*
X121012978Y-118665338D01*
X121134659Y-118668275D01*
X121378901Y-118905730D01*
X121435594Y-118966753D01*
X121972706Y-119323442D01*
X122588411Y-119376531D01*
X123170623Y-119135054D01*
X123617593Y-118697934D01*
X123912060Y-118091889D01*
X124072535Y-117262489D01*
X124117343Y-116351333D01*
X124098050Y-115843862D01*
X122653966Y-115843862D01*
X122646249Y-116535099D01*
X122585364Y-117198764D01*
X122475848Y-117722318D01*
X122365758Y-117953865D01*
X121999846Y-118187699D01*
X121610169Y-118144253D01*
X121350625Y-117886465D01*
X121245347Y-117513607D01*
X121185265Y-116940439D01*
X121168351Y-116264462D01*
X121192575Y-115583178D01*
X121255908Y-114994088D01*
X121356320Y-114594693D01*
X121421199Y-114495418D01*
X121824138Y-114342483D01*
X122223432Y-114494404D01*
X122491749Y-114828833D01*
X122603978Y-115237594D01*
X122653966Y-115843862D01*
X124098050Y-115843862D01*
X124073916Y-115209088D01*
X123917767Y-114357575D01*
X123639037Y-113764861D01*
X123227869Y-113399011D01*
X123201639Y-113385055D01*
X122585088Y-113161966D01*
X122061420Y-113219511D01*
X121621503Y-113484957D01*
X121175334Y-113835914D01*
X121175334Y-111305435D01*
X120413334Y-111244830D01*
X119651334Y-111184226D01*
X119651334Y-119230000D01*
G36*
X128080316Y-115547000D02*
X128060120Y-116493852D01*
X128036325Y-117155086D01*
X127999447Y-117583697D01*
X127939999Y-117832682D01*
X127848493Y-117955037D01*
X127715445Y-118003759D01*
X127638370Y-118015940D01*
X127210292Y-117949888D01*
X126918703Y-117778029D01*
X126783346Y-117621169D01*
X126691410Y-117398517D01*
X126634754Y-117048164D01*
X126605236Y-116508201D01*
X126594714Y-115716719D01*
X126594000Y-115309089D01*
X126594000Y-113134000D01*
X125070000Y-113134000D01*
X125070000Y-119230000D01*
X125832000Y-119230000D01*
X126334245Y-119196759D01*
X126563017Y-119083731D01*
X126594000Y-118976000D01*
X126617857Y-118781955D01*
X126737607Y-118750537D01*
X127025523Y-118890234D01*
X127309574Y-119060034D01*
X128029438Y-119356684D01*
X128674696Y-119329320D01*
X129226364Y-118983697D01*
X129381693Y-118816404D01*
X129492536Y-118636983D01*
X129566396Y-118388905D01*
X129610770Y-118015643D01*
X129633160Y-117460670D01*
X129641065Y-116667458D01*
X129642000Y-115851030D01*
X129642000Y-113134000D01*
X128127299Y-113134000D01*
X128080316Y-115547000D01*
X128080316Y-115547000D01*
G37*
X128080316Y-115547000D02*
X128060120Y-116493852D01*
X128036325Y-117155086D01*
X127999447Y-117583697D01*
X127939999Y-117832682D01*
X127848493Y-117955037D01*
X127715445Y-118003759D01*
X127638370Y-118015940D01*
X127210292Y-117949888D01*
X126918703Y-117778029D01*
X126783346Y-117621169D01*
X126691410Y-117398517D01*
X126634754Y-117048164D01*
X126605236Y-116508201D01*
X126594714Y-115716719D01*
X126594000Y-115309089D01*
X126594000Y-113134000D01*
X125070000Y-113134000D01*
X125070000Y-119230000D01*
X125832000Y-119230000D01*
X126334245Y-119196759D01*
X126563017Y-119083731D01*
X126594000Y-118976000D01*
X126617857Y-118781955D01*
X126737607Y-118750537D01*
X127025523Y-118890234D01*
X127309574Y-119060034D01*
X128029438Y-119356684D01*
X128674696Y-119329320D01*
X129226364Y-118983697D01*
X129381693Y-118816404D01*
X129492536Y-118636983D01*
X129566396Y-118388905D01*
X129610770Y-118015643D01*
X129633160Y-117460670D01*
X129641065Y-116667458D01*
X129642000Y-115851030D01*
X129642000Y-113134000D01*
X128127299Y-113134000D01*
X128080316Y-115547000D01*
G36*
X131761420Y-111696892D02*
X131681978Y-111973970D01*
X131674000Y-112372000D01*
X131661348Y-112840206D01*
X131575601Y-113061916D01*
X131345073Y-113129300D01*
X131081334Y-113134000D01*
X130684110Y-113160213D01*
X130521205Y-113308105D01*
X130488741Y-113681556D01*
X130488667Y-113726667D01*
X130514447Y-114122638D01*
X130660752Y-114285993D01*
X131031033Y-114319221D01*
X131086880Y-114319333D01*
X131685092Y-114319333D01*
X131589334Y-118129333D01*
X131029127Y-118183132D01*
X130649561Y-118250846D01*
X130513395Y-118425696D01*
X130521127Y-118775798D01*
X130575983Y-119102359D01*
X130721114Y-119268974D01*
X131051868Y-119341113D01*
X131381268Y-119366425D01*
X131920185Y-119369140D01*
X132287221Y-119253364D01*
X132643249Y-118963610D01*
X132693601Y-118913784D01*
X132905563Y-118692293D01*
X133047857Y-118483888D01*
X133134366Y-118218405D01*
X133178972Y-117825680D01*
X133195556Y-117235547D01*
X133198000Y-116377842D01*
X133198000Y-114319333D01*
X133621334Y-114319333D01*
X133907617Y-114275053D01*
X134024816Y-114075790D01*
X134044667Y-113726667D01*
X134012936Y-113325771D01*
X133870578Y-113161670D01*
X133623335Y-113134000D01*
X133337944Y-113082718D01*
X133182917Y-112866787D01*
X133096474Y-112474061D01*
X132986447Y-112027758D01*
X132786103Y-111806706D01*
X132480640Y-111712061D01*
X131998804Y-111633182D01*
X131761420Y-111696892D01*
X131761420Y-111696892D01*
G37*
X131761420Y-111696892D02*
X131681978Y-111973970D01*
X131674000Y-112372000D01*
X131661348Y-112840206D01*
X131575601Y-113061916D01*
X131345073Y-113129300D01*
X131081334Y-113134000D01*
X130684110Y-113160213D01*
X130521205Y-113308105D01*
X130488741Y-113681556D01*
X130488667Y-113726667D01*
X130514447Y-114122638D01*
X130660752Y-114285993D01*
X131031033Y-114319221D01*
X131086880Y-114319333D01*
X131685092Y-114319333D01*
X131589334Y-118129333D01*
X131029127Y-118183132D01*
X130649561Y-118250846D01*
X130513395Y-118425696D01*
X130521127Y-118775798D01*
X130575983Y-119102359D01*
X130721114Y-119268974D01*
X131051868Y-119341113D01*
X131381268Y-119366425D01*
X131920185Y-119369140D01*
X132287221Y-119253364D01*
X132643249Y-118963610D01*
X132693601Y-118913784D01*
X132905563Y-118692293D01*
X133047857Y-118483888D01*
X133134366Y-118218405D01*
X133178972Y-117825680D01*
X133195556Y-117235547D01*
X133198000Y-116377842D01*
X133198000Y-114319333D01*
X133621334Y-114319333D01*
X133907617Y-114275053D01*
X134024816Y-114075790D01*
X134044667Y-113726667D01*
X134012936Y-113325771D01*
X133870578Y-113161670D01*
X133623335Y-113134000D01*
X133337944Y-113082718D01*
X133182917Y-112866787D01*
X133096474Y-112474061D01*
X132986447Y-112027758D01*
X132786103Y-111806706D01*
X132480640Y-111712061D01*
X131998804Y-111633182D01*
X131761420Y-111696892D01*
G36*
X135865636Y-113335370D02*
X135621808Y-113464238D01*
X135179514Y-113809963D01*
X134878699Y-114188607D01*
X134773461Y-114517842D01*
X134833313Y-114664197D01*
X135275127Y-114898418D01*
X135772410Y-114891512D01*
X136152654Y-114667591D01*
X136582083Y-114365081D01*
X137006642Y-114371730D01*
X137228134Y-114522533D01*
X137389036Y-114735346D01*
X137363397Y-114920755D01*
X137111977Y-115122506D01*
X136595541Y-115384338D01*
X136358270Y-115492282D01*
X135469443Y-115975959D01*
X134892635Y-116501321D01*
X134601409Y-117098083D01*
X134552667Y-117521825D01*
X134700478Y-118271019D01*
X135136921Y-118845990D01*
X135670026Y-119163220D01*
X136562448Y-119380777D01*
X137408060Y-119285536D01*
X137886193Y-119069095D01*
X138325061Y-118723880D01*
X138655906Y-118325896D01*
X138786000Y-117987697D01*
X138644658Y-117884017D01*
X138301418Y-117739671D01*
X138271469Y-117729097D01*
X137864912Y-117636791D01*
X137575737Y-117746155D01*
X137424802Y-117881865D01*
X136974778Y-118153929D01*
X136487773Y-118187427D01*
X136090877Y-117975829D01*
X136069614Y-117951501D01*
X135962852Y-117708074D01*
X136092470Y-117473258D01*
X136490402Y-117215573D01*
X137092667Y-116942914D01*
X137905561Y-116527210D01*
X138424622Y-116058737D01*
X138694545Y-115494437D01*
X138721121Y-115374080D01*
X138711345Y-114638514D01*
X138432182Y-114010157D01*
X137945829Y-113527335D01*
X137314487Y-113228378D01*
X136600356Y-113151613D01*
X135865636Y-113335370D01*
X135865636Y-113335370D01*
G37*
X135865636Y-113335370D02*
X135621808Y-113464238D01*
X135179514Y-113809963D01*
X134878699Y-114188607D01*
X134773461Y-114517842D01*
X134833313Y-114664197D01*
X135275127Y-114898418D01*
X135772410Y-114891512D01*
X136152654Y-114667591D01*
X136582083Y-114365081D01*
X137006642Y-114371730D01*
X137228134Y-114522533D01*
X137389036Y-114735346D01*
X137363397Y-114920755D01*
X137111977Y-115122506D01*
X136595541Y-115384338D01*
X136358270Y-115492282D01*
X135469443Y-115975959D01*
X134892635Y-116501321D01*
X134601409Y-117098083D01*
X134552667Y-117521825D01*
X134700478Y-118271019D01*
X135136921Y-118845990D01*
X135670026Y-119163220D01*
X136562448Y-119380777D01*
X137408060Y-119285536D01*
X137886193Y-119069095D01*
X138325061Y-118723880D01*
X138655906Y-118325896D01*
X138786000Y-117987697D01*
X138644658Y-117884017D01*
X138301418Y-117739671D01*
X138271469Y-117729097D01*
X137864912Y-117636791D01*
X137575737Y-117746155D01*
X137424802Y-117881865D01*
X136974778Y-118153929D01*
X136487773Y-118187427D01*
X136090877Y-117975829D01*
X136069614Y-117951501D01*
X135962852Y-117708074D01*
X136092470Y-117473258D01*
X136490402Y-117215573D01*
X137092667Y-116942914D01*
X137905561Y-116527210D01*
X138424622Y-116058737D01*
X138694545Y-115494437D01*
X138721121Y-115374080D01*
X138711345Y-114638514D01*
X138432182Y-114010157D01*
X137945829Y-113527335D01*
X137314487Y-113228378D01*
X136600356Y-113151613D01*
X135865636Y-113335370D01*
G36*
X116772667Y-116351333D02*
X116773632Y-117434028D01*
X116780367Y-118224177D01*
X116798634Y-118767903D01*
X116834192Y-119111328D01*
X116892804Y-119300572D01*
X116980229Y-119381759D01*
X117102228Y-119401008D01*
X117153667Y-119401645D01*
X117644070Y-119449714D01*
X117915667Y-119506062D01*
X118296667Y-119608166D01*
X118296667Y-116558533D01*
X118295564Y-115434148D01*
X118282859Y-114603863D01*
X118244453Y-114023121D01*
X118166251Y-113647365D01*
X118034156Y-113432038D01*
X117834071Y-113332582D01*
X117551901Y-113304441D01*
X117266818Y-113303333D01*
X116772667Y-113303333D01*
X116772667Y-116351333D01*
X116772667Y-116351333D01*
G37*
X116772667Y-116351333D02*
X116773632Y-117434028D01*
X116780367Y-118224177D01*
X116798634Y-118767903D01*
X116834192Y-119111328D01*
X116892804Y-119300572D01*
X116980229Y-119381759D01*
X117102228Y-119401008D01*
X117153667Y-119401645D01*
X117644070Y-119449714D01*
X117915667Y-119506062D01*
X118296667Y-119608166D01*
X118296667Y-116558533D01*
X118295564Y-115434148D01*
X118282859Y-114603863D01*
X118244453Y-114023121D01*
X118166251Y-113647365D01*
X118034156Y-113432038D01*
X117834071Y-113332582D01*
X117551901Y-113304441D01*
X117266818Y-113303333D01*
X116772667Y-113303333D01*
X116772667Y-116351333D01*
G04 #@! TO.C,U1*
D12*
X136280952Y-90541285D02*
X136447619Y-90184142D01*
X136566666Y-90541285D02*
X136566666Y-89791285D01*
X136376190Y-89791285D01*
X136328571Y-89827000D01*
X136304761Y-89862714D01*
X136280952Y-89934142D01*
X136280952Y-90041285D01*
X136304761Y-90112714D01*
X136328571Y-90148428D01*
X136376190Y-90184142D01*
X136566666Y-90184142D01*
X135971428Y-89791285D02*
X135876190Y-89791285D01*
X135828571Y-89827000D01*
X135780952Y-89898428D01*
X135757142Y-90041285D01*
X135757142Y-90291285D01*
X135780952Y-90434142D01*
X135828571Y-90505571D01*
X135876190Y-90541285D01*
X135971428Y-90541285D01*
X136019047Y-90505571D01*
X136066666Y-90434142D01*
X136090476Y-90291285D01*
X136090476Y-90041285D01*
X136066666Y-89898428D01*
X136019047Y-89827000D01*
X135971428Y-89791285D01*
X135590476Y-89791285D02*
X135471428Y-90541285D01*
X135376190Y-90005571D01*
X135280952Y-90541285D01*
X135161904Y-89791285D01*
X134709523Y-90541285D02*
X134995238Y-90541285D01*
X134852380Y-90541285D02*
X134852380Y-89791285D01*
X134900000Y-89898428D01*
X134947619Y-89969857D01*
X134995238Y-90005571D01*
X151397619Y-93017857D02*
X151421428Y-93053571D01*
X151492857Y-93089285D01*
X151540476Y-93089285D01*
X151611904Y-93053571D01*
X151659523Y-92982142D01*
X151683333Y-92910714D01*
X151707142Y-92767857D01*
X151707142Y-92660714D01*
X151683333Y-92517857D01*
X151659523Y-92446428D01*
X151611904Y-92375000D01*
X151540476Y-92339285D01*
X151492857Y-92339285D01*
X151421428Y-92375000D01*
X151397619Y-92410714D01*
X151088095Y-92339285D02*
X150992857Y-92339285D01*
X150945238Y-92375000D01*
X150897619Y-92446428D01*
X150873809Y-92589285D01*
X150873809Y-92839285D01*
X150897619Y-92982142D01*
X150945238Y-93053571D01*
X150992857Y-93089285D01*
X151088095Y-93089285D01*
X151135714Y-93053571D01*
X151183333Y-92982142D01*
X151207142Y-92839285D01*
X151207142Y-92589285D01*
X151183333Y-92446428D01*
X151135714Y-92375000D01*
X151088095Y-92339285D01*
X150421428Y-93089285D02*
X150659523Y-93089285D01*
X150659523Y-92339285D01*
X150040476Y-92589285D02*
X150040476Y-93089285D01*
X150159523Y-92303571D02*
X150278571Y-92839285D01*
X149969047Y-92839285D01*
X136330952Y-93089285D02*
X136497619Y-92732142D01*
X136616666Y-93089285D02*
X136616666Y-92339285D01*
X136426190Y-92339285D01*
X136378571Y-92375000D01*
X136354761Y-92410714D01*
X136330952Y-92482142D01*
X136330952Y-92589285D01*
X136354761Y-92660714D01*
X136378571Y-92696428D01*
X136426190Y-92732142D01*
X136616666Y-92732142D01*
X136021428Y-92339285D02*
X135926190Y-92339285D01*
X135878571Y-92375000D01*
X135830952Y-92446428D01*
X135807142Y-92589285D01*
X135807142Y-92839285D01*
X135830952Y-92982142D01*
X135878571Y-93053571D01*
X135926190Y-93089285D01*
X136021428Y-93089285D01*
X136069047Y-93053571D01*
X136116666Y-92982142D01*
X136140476Y-92839285D01*
X136140476Y-92589285D01*
X136116666Y-92446428D01*
X136069047Y-92375000D01*
X136021428Y-92339285D01*
X135640476Y-92339285D02*
X135521428Y-93089285D01*
X135426190Y-92553571D01*
X135330952Y-93089285D01*
X135211904Y-92339285D01*
X135045238Y-92410714D02*
X135021428Y-92375000D01*
X134973809Y-92339285D01*
X134854761Y-92339285D01*
X134807142Y-92375000D01*
X134783333Y-92410714D01*
X134759523Y-92482142D01*
X134759523Y-92553571D01*
X134783333Y-92660714D01*
X135069047Y-93089285D01*
X134759523Y-93089285D01*
X151397619Y-95613357D02*
X151421428Y-95649071D01*
X151492857Y-95684785D01*
X151540476Y-95684785D01*
X151611904Y-95649071D01*
X151659523Y-95577642D01*
X151683333Y-95506214D01*
X151707142Y-95363357D01*
X151707142Y-95256214D01*
X151683333Y-95113357D01*
X151659523Y-95041928D01*
X151611904Y-94970500D01*
X151540476Y-94934785D01*
X151492857Y-94934785D01*
X151421428Y-94970500D01*
X151397619Y-95006214D01*
X151088095Y-94934785D02*
X150992857Y-94934785D01*
X150945238Y-94970500D01*
X150897619Y-95041928D01*
X150873809Y-95184785D01*
X150873809Y-95434785D01*
X150897619Y-95577642D01*
X150945238Y-95649071D01*
X150992857Y-95684785D01*
X151088095Y-95684785D01*
X151135714Y-95649071D01*
X151183333Y-95577642D01*
X151207142Y-95434785D01*
X151207142Y-95184785D01*
X151183333Y-95041928D01*
X151135714Y-94970500D01*
X151088095Y-94934785D01*
X150421428Y-95684785D02*
X150659523Y-95684785D01*
X150659523Y-94934785D01*
X150016666Y-94934785D02*
X150254761Y-94934785D01*
X150278571Y-95291928D01*
X150254761Y-95256214D01*
X150207142Y-95220500D01*
X150088095Y-95220500D01*
X150040476Y-95256214D01*
X150016666Y-95291928D01*
X149992857Y-95363357D01*
X149992857Y-95541928D01*
X150016666Y-95613357D01*
X150040476Y-95649071D01*
X150088095Y-95684785D01*
X150207142Y-95684785D01*
X150254761Y-95649071D01*
X150278571Y-95613357D01*
X136330952Y-95684785D02*
X136497619Y-95327642D01*
X136616666Y-95684785D02*
X136616666Y-94934785D01*
X136426190Y-94934785D01*
X136378571Y-94970500D01*
X136354761Y-95006214D01*
X136330952Y-95077642D01*
X136330952Y-95184785D01*
X136354761Y-95256214D01*
X136378571Y-95291928D01*
X136426190Y-95327642D01*
X136616666Y-95327642D01*
X136021428Y-94934785D02*
X135926190Y-94934785D01*
X135878571Y-94970500D01*
X135830952Y-95041928D01*
X135807142Y-95184785D01*
X135807142Y-95434785D01*
X135830952Y-95577642D01*
X135878571Y-95649071D01*
X135926190Y-95684785D01*
X136021428Y-95684785D01*
X136069047Y-95649071D01*
X136116666Y-95577642D01*
X136140476Y-95434785D01*
X136140476Y-95184785D01*
X136116666Y-95041928D01*
X136069047Y-94970500D01*
X136021428Y-94934785D01*
X135640476Y-94934785D02*
X135521428Y-95684785D01*
X135426190Y-95149071D01*
X135330952Y-95684785D01*
X135211904Y-94934785D01*
X135069047Y-94934785D02*
X134759523Y-94934785D01*
X134926190Y-95220500D01*
X134854761Y-95220500D01*
X134807142Y-95256214D01*
X134783333Y-95291928D01*
X134759523Y-95363357D01*
X134759523Y-95541928D01*
X134783333Y-95613357D01*
X134807142Y-95649071D01*
X134854761Y-95684785D01*
X134997619Y-95684785D01*
X135045238Y-95649071D01*
X135069047Y-95613357D01*
X151052380Y-97796428D02*
X150980952Y-97832142D01*
X150957142Y-97867857D01*
X150933333Y-97939285D01*
X150933333Y-98046428D01*
X150957142Y-98117857D01*
X150980952Y-98153571D01*
X151028571Y-98189285D01*
X151219047Y-98189285D01*
X151219047Y-97439285D01*
X151052380Y-97439285D01*
X151004761Y-97475000D01*
X150980952Y-97510714D01*
X150957142Y-97582142D01*
X150957142Y-97653571D01*
X150980952Y-97725000D01*
X151004761Y-97760714D01*
X151052380Y-97796428D01*
X151219047Y-97796428D01*
X150742857Y-97510714D02*
X150719047Y-97475000D01*
X150671428Y-97439285D01*
X150552380Y-97439285D01*
X150504761Y-97475000D01*
X150480952Y-97510714D01*
X150457142Y-97582142D01*
X150457142Y-97653571D01*
X150480952Y-97760714D01*
X150766666Y-98189285D01*
X150457142Y-98189285D01*
X135902380Y-97768428D02*
X135830952Y-97804142D01*
X135807142Y-97839857D01*
X135783333Y-97911285D01*
X135783333Y-98018428D01*
X135807142Y-98089857D01*
X135830952Y-98125571D01*
X135878571Y-98161285D01*
X136069047Y-98161285D01*
X136069047Y-97411285D01*
X135902380Y-97411285D01*
X135854761Y-97447000D01*
X135830952Y-97482714D01*
X135807142Y-97554142D01*
X135807142Y-97625571D01*
X135830952Y-97697000D01*
X135854761Y-97732714D01*
X135902380Y-97768428D01*
X136069047Y-97768428D01*
X135354761Y-97661285D02*
X135354761Y-98161285D01*
X135473809Y-97375571D02*
X135592857Y-97911285D01*
X135283333Y-97911285D01*
X135902380Y-100371928D02*
X135830952Y-100407642D01*
X135807142Y-100443357D01*
X135783333Y-100514785D01*
X135783333Y-100621928D01*
X135807142Y-100693357D01*
X135830952Y-100729071D01*
X135878571Y-100764785D01*
X136069047Y-100764785D01*
X136069047Y-100014785D01*
X135902380Y-100014785D01*
X135854761Y-100050500D01*
X135830952Y-100086214D01*
X135807142Y-100157642D01*
X135807142Y-100229071D01*
X135830952Y-100300500D01*
X135854761Y-100336214D01*
X135902380Y-100371928D01*
X136069047Y-100371928D01*
X135330952Y-100014785D02*
X135569047Y-100014785D01*
X135592857Y-100371928D01*
X135569047Y-100336214D01*
X135521428Y-100300500D01*
X135402380Y-100300500D01*
X135354761Y-100336214D01*
X135330952Y-100371928D01*
X135307142Y-100443357D01*
X135307142Y-100621928D01*
X135330952Y-100693357D01*
X135354761Y-100729071D01*
X135402380Y-100764785D01*
X135521428Y-100764785D01*
X135569047Y-100729071D01*
X135592857Y-100693357D01*
X151152380Y-100346428D02*
X151080952Y-100382142D01*
X151057142Y-100417857D01*
X151033333Y-100489285D01*
X151033333Y-100596428D01*
X151057142Y-100667857D01*
X151080952Y-100703571D01*
X151128571Y-100739285D01*
X151319047Y-100739285D01*
X151319047Y-99989285D01*
X151152380Y-99989285D01*
X151104761Y-100025000D01*
X151080952Y-100060714D01*
X151057142Y-100132142D01*
X151057142Y-100203571D01*
X151080952Y-100275000D01*
X151104761Y-100310714D01*
X151152380Y-100346428D01*
X151319047Y-100346428D01*
X150604761Y-99989285D02*
X150700000Y-99989285D01*
X150747619Y-100025000D01*
X150771428Y-100060714D01*
X150819047Y-100167857D01*
X150842857Y-100310714D01*
X150842857Y-100596428D01*
X150819047Y-100667857D01*
X150795238Y-100703571D01*
X150747619Y-100739285D01*
X150652380Y-100739285D01*
X150604761Y-100703571D01*
X150580952Y-100667857D01*
X150557142Y-100596428D01*
X150557142Y-100417857D01*
X150580952Y-100346428D01*
X150604761Y-100310714D01*
X150652380Y-100275000D01*
X150747619Y-100275000D01*
X150795238Y-100310714D01*
X150819047Y-100346428D01*
X150842857Y-100417857D01*
X151347619Y-82867857D02*
X151371428Y-82903571D01*
X151442857Y-82939285D01*
X151490476Y-82939285D01*
X151561904Y-82903571D01*
X151609523Y-82832142D01*
X151633333Y-82760714D01*
X151657142Y-82617857D01*
X151657142Y-82510714D01*
X151633333Y-82367857D01*
X151609523Y-82296428D01*
X151561904Y-82225000D01*
X151490476Y-82189285D01*
X151442857Y-82189285D01*
X151371428Y-82225000D01*
X151347619Y-82260714D01*
X151038095Y-82189285D02*
X150942857Y-82189285D01*
X150895238Y-82225000D01*
X150847619Y-82296428D01*
X150823809Y-82439285D01*
X150823809Y-82689285D01*
X150847619Y-82832142D01*
X150895238Y-82903571D01*
X150942857Y-82939285D01*
X151038095Y-82939285D01*
X151085714Y-82903571D01*
X151133333Y-82832142D01*
X151157142Y-82689285D01*
X151157142Y-82439285D01*
X151133333Y-82296428D01*
X151085714Y-82225000D01*
X151038095Y-82189285D01*
X150371428Y-82939285D02*
X150609523Y-82939285D01*
X150609523Y-82189285D01*
X150109523Y-82189285D02*
X150061904Y-82189285D01*
X150014285Y-82225000D01*
X149990476Y-82260714D01*
X149966666Y-82332142D01*
X149942857Y-82475000D01*
X149942857Y-82653571D01*
X149966666Y-82796428D01*
X149990476Y-82867857D01*
X150014285Y-82903571D01*
X150061904Y-82939285D01*
X150109523Y-82939285D01*
X150157142Y-82903571D01*
X150180952Y-82867857D01*
X150204761Y-82796428D01*
X150228571Y-82653571D01*
X150228571Y-82475000D01*
X150204761Y-82332142D01*
X150180952Y-82260714D01*
X150157142Y-82225000D01*
X150109523Y-82189285D01*
X136046142Y-82885571D02*
X135974714Y-82921285D01*
X135855666Y-82921285D01*
X135808047Y-82885571D01*
X135784238Y-82849857D01*
X135760428Y-82778428D01*
X135760428Y-82707000D01*
X135784238Y-82635571D01*
X135808047Y-82599857D01*
X135855666Y-82564142D01*
X135950904Y-82528428D01*
X135998523Y-82492714D01*
X136022333Y-82457000D01*
X136046142Y-82385571D01*
X136046142Y-82314142D01*
X136022333Y-82242714D01*
X135998523Y-82207000D01*
X135950904Y-82171285D01*
X135831857Y-82171285D01*
X135760428Y-82207000D01*
X135546142Y-82921285D02*
X135546142Y-82171285D01*
X135427095Y-82171285D01*
X135355666Y-82207000D01*
X135308047Y-82278428D01*
X135284238Y-82349857D01*
X135260428Y-82492714D01*
X135260428Y-82599857D01*
X135284238Y-82742714D01*
X135308047Y-82814142D01*
X135355666Y-82885571D01*
X135427095Y-82921285D01*
X135546142Y-82921285D01*
X135069952Y-82707000D02*
X134831857Y-82707000D01*
X135117571Y-82921285D02*
X134950904Y-82171285D01*
X134784238Y-82921285D01*
X151297619Y-85389857D02*
X151321428Y-85425571D01*
X151392857Y-85461285D01*
X151440476Y-85461285D01*
X151511904Y-85425571D01*
X151559523Y-85354142D01*
X151583333Y-85282714D01*
X151607142Y-85139857D01*
X151607142Y-85032714D01*
X151583333Y-84889857D01*
X151559523Y-84818428D01*
X151511904Y-84747000D01*
X151440476Y-84711285D01*
X151392857Y-84711285D01*
X151321428Y-84747000D01*
X151297619Y-84782714D01*
X150988095Y-84711285D02*
X150892857Y-84711285D01*
X150845238Y-84747000D01*
X150797619Y-84818428D01*
X150773809Y-84961285D01*
X150773809Y-85211285D01*
X150797619Y-85354142D01*
X150845238Y-85425571D01*
X150892857Y-85461285D01*
X150988095Y-85461285D01*
X151035714Y-85425571D01*
X151083333Y-85354142D01*
X151107142Y-85211285D01*
X151107142Y-84961285D01*
X151083333Y-84818428D01*
X151035714Y-84747000D01*
X150988095Y-84711285D01*
X150321428Y-85461285D02*
X150559523Y-85461285D01*
X150559523Y-84711285D01*
X149892857Y-85461285D02*
X150178571Y-85461285D01*
X150035714Y-85461285D02*
X150035714Y-84711285D01*
X150083333Y-84818428D01*
X150130952Y-84889857D01*
X150178571Y-84925571D01*
X136034238Y-85425571D02*
X135962809Y-85461285D01*
X135843761Y-85461285D01*
X135796142Y-85425571D01*
X135772333Y-85389857D01*
X135748523Y-85318428D01*
X135748523Y-85247000D01*
X135772333Y-85175571D01*
X135796142Y-85139857D01*
X135843761Y-85104142D01*
X135939000Y-85068428D01*
X135986619Y-85032714D01*
X136010428Y-84997000D01*
X136034238Y-84925571D01*
X136034238Y-84854142D01*
X136010428Y-84782714D01*
X135986619Y-84747000D01*
X135939000Y-84711285D01*
X135819952Y-84711285D01*
X135748523Y-84747000D01*
X135248523Y-85389857D02*
X135272333Y-85425571D01*
X135343761Y-85461285D01*
X135391380Y-85461285D01*
X135462809Y-85425571D01*
X135510428Y-85354142D01*
X135534238Y-85282714D01*
X135558047Y-85139857D01*
X135558047Y-85032714D01*
X135534238Y-84889857D01*
X135510428Y-84818428D01*
X135462809Y-84747000D01*
X135391380Y-84711285D01*
X135343761Y-84711285D01*
X135272333Y-84747000D01*
X135248523Y-84782714D01*
X134796142Y-85461285D02*
X135034238Y-85461285D01*
X135034238Y-84711285D01*
X151347619Y-87929857D02*
X151371428Y-87965571D01*
X151442857Y-88001285D01*
X151490476Y-88001285D01*
X151561904Y-87965571D01*
X151609523Y-87894142D01*
X151633333Y-87822714D01*
X151657142Y-87679857D01*
X151657142Y-87572714D01*
X151633333Y-87429857D01*
X151609523Y-87358428D01*
X151561904Y-87287000D01*
X151490476Y-87251285D01*
X151442857Y-87251285D01*
X151371428Y-87287000D01*
X151347619Y-87322714D01*
X151038095Y-87251285D02*
X150942857Y-87251285D01*
X150895238Y-87287000D01*
X150847619Y-87358428D01*
X150823809Y-87501285D01*
X150823809Y-87751285D01*
X150847619Y-87894142D01*
X150895238Y-87965571D01*
X150942857Y-88001285D01*
X151038095Y-88001285D01*
X151085714Y-87965571D01*
X151133333Y-87894142D01*
X151157142Y-87751285D01*
X151157142Y-87501285D01*
X151133333Y-87358428D01*
X151085714Y-87287000D01*
X151038095Y-87251285D01*
X150371428Y-88001285D02*
X150609523Y-88001285D01*
X150609523Y-87251285D01*
X150228571Y-87322714D02*
X150204761Y-87287000D01*
X150157142Y-87251285D01*
X150038095Y-87251285D01*
X149990476Y-87287000D01*
X149966666Y-87322714D01*
X149942857Y-87394142D01*
X149942857Y-87465571D01*
X149966666Y-87572714D01*
X150252380Y-88001285D01*
X149942857Y-88001285D01*
X136330952Y-88039285D02*
X136497619Y-87682142D01*
X136616666Y-88039285D02*
X136616666Y-87289285D01*
X136426190Y-87289285D01*
X136378571Y-87325000D01*
X136354761Y-87360714D01*
X136330952Y-87432142D01*
X136330952Y-87539285D01*
X136354761Y-87610714D01*
X136378571Y-87646428D01*
X136426190Y-87682142D01*
X136616666Y-87682142D01*
X136021428Y-87289285D02*
X135926190Y-87289285D01*
X135878571Y-87325000D01*
X135830952Y-87396428D01*
X135807142Y-87539285D01*
X135807142Y-87789285D01*
X135830952Y-87932142D01*
X135878571Y-88003571D01*
X135926190Y-88039285D01*
X136021428Y-88039285D01*
X136069047Y-88003571D01*
X136116666Y-87932142D01*
X136140476Y-87789285D01*
X136140476Y-87539285D01*
X136116666Y-87396428D01*
X136069047Y-87325000D01*
X136021428Y-87289285D01*
X135640476Y-87289285D02*
X135521428Y-88039285D01*
X135426190Y-87503571D01*
X135330952Y-88039285D01*
X135211904Y-87289285D01*
X134926190Y-87289285D02*
X134878571Y-87289285D01*
X134830952Y-87325000D01*
X134807142Y-87360714D01*
X134783333Y-87432142D01*
X134759523Y-87575000D01*
X134759523Y-87753571D01*
X134783333Y-87896428D01*
X134807142Y-87967857D01*
X134830952Y-88003571D01*
X134878571Y-88039285D01*
X134926190Y-88039285D01*
X134973809Y-88003571D01*
X134997619Y-87967857D01*
X135021428Y-87896428D01*
X135045238Y-87753571D01*
X135045238Y-87575000D01*
X135021428Y-87432142D01*
X134997619Y-87360714D01*
X134973809Y-87325000D01*
X134926190Y-87289285D01*
X151447619Y-90517857D02*
X151471428Y-90553571D01*
X151542857Y-90589285D01*
X151590476Y-90589285D01*
X151661904Y-90553571D01*
X151709523Y-90482142D01*
X151733333Y-90410714D01*
X151757142Y-90267857D01*
X151757142Y-90160714D01*
X151733333Y-90017857D01*
X151709523Y-89946428D01*
X151661904Y-89875000D01*
X151590476Y-89839285D01*
X151542857Y-89839285D01*
X151471428Y-89875000D01*
X151447619Y-89910714D01*
X151138095Y-89839285D02*
X151042857Y-89839285D01*
X150995238Y-89875000D01*
X150947619Y-89946428D01*
X150923809Y-90089285D01*
X150923809Y-90339285D01*
X150947619Y-90482142D01*
X150995238Y-90553571D01*
X151042857Y-90589285D01*
X151138095Y-90589285D01*
X151185714Y-90553571D01*
X151233333Y-90482142D01*
X151257142Y-90339285D01*
X151257142Y-90089285D01*
X151233333Y-89946428D01*
X151185714Y-89875000D01*
X151138095Y-89839285D01*
X150471428Y-90589285D02*
X150709523Y-90589285D01*
X150709523Y-89839285D01*
X150352380Y-89839285D02*
X150042857Y-89839285D01*
X150209523Y-90125000D01*
X150138095Y-90125000D01*
X150090476Y-90160714D01*
X150066666Y-90196428D01*
X150042857Y-90267857D01*
X150042857Y-90446428D01*
X150066666Y-90517857D01*
X150090476Y-90553571D01*
X150138095Y-90589285D01*
X150280952Y-90589285D01*
X150328571Y-90553571D01*
X150352380Y-90517857D01*
X135819952Y-79730500D02*
X135867571Y-79694785D01*
X135939000Y-79694785D01*
X136010428Y-79730500D01*
X136058047Y-79801928D01*
X136081857Y-79873357D01*
X136105666Y-80016214D01*
X136105666Y-80123357D01*
X136081857Y-80266214D01*
X136058047Y-80337642D01*
X136010428Y-80409071D01*
X135939000Y-80444785D01*
X135891380Y-80444785D01*
X135819952Y-80409071D01*
X135796142Y-80373357D01*
X135796142Y-80123357D01*
X135891380Y-80123357D01*
X135581857Y-80444785D02*
X135581857Y-79694785D01*
X135296142Y-80444785D01*
X135296142Y-79694785D01*
X135058047Y-80444785D02*
X135058047Y-79694785D01*
X134939000Y-79694785D01*
X134867571Y-79730500D01*
X134819952Y-79801928D01*
X134796142Y-79873357D01*
X134772333Y-80016214D01*
X134772333Y-80123357D01*
X134796142Y-80266214D01*
X134819952Y-80337642D01*
X134867571Y-80409071D01*
X134939000Y-80444785D01*
X135058047Y-80444785D01*
X151282166Y-79631285D02*
X151115500Y-80381285D01*
X150948833Y-79631285D01*
X150496452Y-80309857D02*
X150520261Y-80345571D01*
X150591690Y-80381285D01*
X150639309Y-80381285D01*
X150710738Y-80345571D01*
X150758357Y-80274142D01*
X150782166Y-80202714D01*
X150805976Y-80059857D01*
X150805976Y-79952714D01*
X150782166Y-79809857D01*
X150758357Y-79738428D01*
X150710738Y-79667000D01*
X150639309Y-79631285D01*
X150591690Y-79631285D01*
X150520261Y-79667000D01*
X150496452Y-79702714D01*
X149996452Y-80309857D02*
X150020261Y-80345571D01*
X150091690Y-80381285D01*
X150139309Y-80381285D01*
X150210738Y-80345571D01*
X150258357Y-80274142D01*
X150282166Y-80202714D01*
X150305976Y-80059857D01*
X150305976Y-79952714D01*
X150282166Y-79809857D01*
X150258357Y-79738428D01*
X150210738Y-79667000D01*
X150139309Y-79631285D01*
X150091690Y-79631285D01*
X150020261Y-79667000D01*
X149996452Y-79702714D01*
X135756452Y-77190500D02*
X135804071Y-77154785D01*
X135875500Y-77154785D01*
X135946928Y-77190500D01*
X135994547Y-77261928D01*
X136018357Y-77333357D01*
X136042166Y-77476214D01*
X136042166Y-77583357D01*
X136018357Y-77726214D01*
X135994547Y-77797642D01*
X135946928Y-77869071D01*
X135875500Y-77904785D01*
X135827880Y-77904785D01*
X135756452Y-77869071D01*
X135732642Y-77833357D01*
X135732642Y-77583357D01*
X135827880Y-77583357D01*
X135518357Y-77904785D02*
X135518357Y-77154785D01*
X135232642Y-77904785D01*
X135232642Y-77154785D01*
X134994547Y-77904785D02*
X134994547Y-77154785D01*
X134875500Y-77154785D01*
X134804071Y-77190500D01*
X134756452Y-77261928D01*
X134732642Y-77333357D01*
X134708833Y-77476214D01*
X134708833Y-77583357D01*
X134732642Y-77726214D01*
X134756452Y-77797642D01*
X134804071Y-77869071D01*
X134875500Y-77904785D01*
X134994547Y-77904785D01*
X150889309Y-77904785D02*
X151055976Y-77547642D01*
X151175023Y-77904785D02*
X151175023Y-77154785D01*
X150984547Y-77154785D01*
X150936928Y-77190500D01*
X150913119Y-77226214D01*
X150889309Y-77297642D01*
X150889309Y-77404785D01*
X150913119Y-77476214D01*
X150936928Y-77511928D01*
X150984547Y-77547642D01*
X151175023Y-77547642D01*
X150698833Y-77869071D02*
X150627404Y-77904785D01*
X150508357Y-77904785D01*
X150460738Y-77869071D01*
X150436928Y-77833357D01*
X150413119Y-77761928D01*
X150413119Y-77690500D01*
X150436928Y-77619071D01*
X150460738Y-77583357D01*
X150508357Y-77547642D01*
X150603595Y-77511928D01*
X150651214Y-77476214D01*
X150675023Y-77440500D01*
X150698833Y-77369071D01*
X150698833Y-77297642D01*
X150675023Y-77226214D01*
X150651214Y-77190500D01*
X150603595Y-77154785D01*
X150484547Y-77154785D01*
X150413119Y-77190500D01*
X150270261Y-77154785D02*
X149984547Y-77154785D01*
X150127404Y-77904785D02*
X150127404Y-77154785D01*
X136300000Y-75289285D02*
X136300000Y-74539285D01*
X136180952Y-74539285D01*
X136109523Y-74575000D01*
X136061904Y-74646428D01*
X136038095Y-74717857D01*
X136014285Y-74860714D01*
X136014285Y-74967857D01*
X136038095Y-75110714D01*
X136061904Y-75182142D01*
X136109523Y-75253571D01*
X136180952Y-75289285D01*
X136300000Y-75289285D01*
X135823809Y-75075000D02*
X135585714Y-75075000D01*
X135871428Y-75289285D02*
X135704761Y-74539285D01*
X135538095Y-75289285D01*
X135442857Y-74539285D02*
X135157142Y-74539285D01*
X135300000Y-75289285D02*
X135300000Y-74539285D01*
X135014285Y-75075000D02*
X134776190Y-75075000D01*
X135061904Y-75289285D02*
X134895238Y-74539285D01*
X134728571Y-75289285D01*
X150996452Y-74587000D02*
X151044071Y-74551285D01*
X151115500Y-74551285D01*
X151186928Y-74587000D01*
X151234547Y-74658428D01*
X151258357Y-74729857D01*
X151282166Y-74872714D01*
X151282166Y-74979857D01*
X151258357Y-75122714D01*
X151234547Y-75194142D01*
X151186928Y-75265571D01*
X151115500Y-75301285D01*
X151067880Y-75301285D01*
X150996452Y-75265571D01*
X150972642Y-75229857D01*
X150972642Y-74979857D01*
X151067880Y-74979857D01*
X150758357Y-75301285D02*
X150758357Y-74551285D01*
X150472642Y-75301285D01*
X150472642Y-74551285D01*
X150234547Y-75301285D02*
X150234547Y-74551285D01*
X150115500Y-74551285D01*
X150044071Y-74587000D01*
X149996452Y-74658428D01*
X149972642Y-74729857D01*
X149948833Y-74872714D01*
X149948833Y-74979857D01*
X149972642Y-75122714D01*
X149996452Y-75194142D01*
X150044071Y-75265571D01*
X150115500Y-75301285D01*
X150234547Y-75301285D01*
X135721428Y-72761285D02*
X135959523Y-72761285D01*
X135959523Y-72011285D01*
X135554761Y-72368428D02*
X135388095Y-72368428D01*
X135316666Y-72761285D02*
X135554761Y-72761285D01*
X135554761Y-72011285D01*
X135316666Y-72011285D01*
X135102380Y-72761285D02*
X135102380Y-72011285D01*
X134983333Y-72011285D01*
X134911904Y-72047000D01*
X134864285Y-72118428D01*
X134840476Y-72189857D01*
X134816666Y-72332714D01*
X134816666Y-72439857D01*
X134840476Y-72582714D01*
X134864285Y-72654142D01*
X134911904Y-72725571D01*
X134983333Y-72761285D01*
X135102380Y-72761285D01*
X150960738Y-72761285D02*
X151127404Y-72404142D01*
X151246452Y-72761285D02*
X151246452Y-72011285D01*
X151055976Y-72011285D01*
X151008357Y-72047000D01*
X150984547Y-72082714D01*
X150960738Y-72154142D01*
X150960738Y-72261285D01*
X150984547Y-72332714D01*
X151008357Y-72368428D01*
X151055976Y-72404142D01*
X151246452Y-72404142D01*
X150770261Y-72547000D02*
X150532166Y-72547000D01*
X150817880Y-72761285D02*
X150651214Y-72011285D01*
X150484547Y-72761285D01*
X150365500Y-72011285D02*
X150246452Y-72761285D01*
X150151214Y-72225571D01*
X150055976Y-72761285D01*
X149936928Y-72011285D01*
D10*
G04 #@! TO.C,U2*
G04 #@! TO.C,J1*
X214696404Y-103195880D02*
X214124976Y-103195880D01*
X214410690Y-104195880D02*
X214410690Y-103195880D01*
X213220214Y-104195880D02*
X213553547Y-103719690D01*
X213791642Y-104195880D02*
X213791642Y-103195880D01*
X213410690Y-103195880D01*
X213315452Y-103243500D01*
X213267833Y-103291119D01*
X213220214Y-103386357D01*
X213220214Y-103529214D01*
X213267833Y-103624452D01*
X213315452Y-103672071D01*
X213410690Y-103719690D01*
X213791642Y-103719690D01*
X212220214Y-104195880D02*
X212553547Y-103719690D01*
X212791642Y-104195880D02*
X212791642Y-103195880D01*
X212410690Y-103195880D01*
X212315452Y-103243500D01*
X212267833Y-103291119D01*
X212220214Y-103386357D01*
X212220214Y-103529214D01*
X212267833Y-103624452D01*
X212315452Y-103672071D01*
X212410690Y-103719690D01*
X212791642Y-103719690D01*
X211839261Y-104148261D02*
X211696404Y-104195880D01*
X211458309Y-104195880D01*
X211363071Y-104148261D01*
X211315452Y-104100642D01*
X211267833Y-104005404D01*
X211267833Y-103910166D01*
X211315452Y-103814928D01*
X211363071Y-103767309D01*
X211458309Y-103719690D01*
X211648785Y-103672071D01*
X211744023Y-103624452D01*
X211791642Y-103576833D01*
X211839261Y-103481595D01*
X211839261Y-103386357D01*
X211791642Y-103291119D01*
X211744023Y-103243500D01*
X211648785Y-103195880D01*
X211410690Y-103195880D01*
X211267833Y-103243500D01*
G04 #@! TO.C,SW20*
X215762380Y-115534619D02*
X215286190Y-115201285D01*
X215762380Y-114963190D02*
X214762380Y-114963190D01*
X214762380Y-115344142D01*
X214810000Y-115439380D01*
X214857619Y-115487000D01*
X214952857Y-115534619D01*
X215095714Y-115534619D01*
X215190952Y-115487000D01*
X215238571Y-115439380D01*
X215286190Y-115344142D01*
X215286190Y-114963190D01*
X215238571Y-115963190D02*
X215238571Y-116296523D01*
X215762380Y-116439380D02*
X215762380Y-115963190D01*
X214762380Y-115963190D01*
X214762380Y-116439380D01*
X215714761Y-116820333D02*
X215762380Y-116963190D01*
X215762380Y-117201285D01*
X215714761Y-117296523D01*
X215667142Y-117344142D01*
X215571904Y-117391761D01*
X215476666Y-117391761D01*
X215381428Y-117344142D01*
X215333809Y-117296523D01*
X215286190Y-117201285D01*
X215238571Y-117010809D01*
X215190952Y-116915571D01*
X215143333Y-116867952D01*
X215048095Y-116820333D01*
X214952857Y-116820333D01*
X214857619Y-116867952D01*
X214810000Y-116915571D01*
X214762380Y-117010809D01*
X214762380Y-117248904D01*
X214810000Y-117391761D01*
X215238571Y-117820333D02*
X215238571Y-118153666D01*
X215762380Y-118296523D02*
X215762380Y-117820333D01*
X214762380Y-117820333D01*
X214762380Y-118296523D01*
X214762380Y-118582238D02*
X214762380Y-119153666D01*
X215762380Y-118867952D02*
X214762380Y-118867952D01*
G04 #@! TD*
M02*
