M48
;DRILL file {KiCad (5.0.0)} date 03/06/19 00:57:09
;FORMAT={-:-/ absolute / inch / decimal}
FMAT,2
INCH,TZ
T1C0.0157
T2C0.0320
T3C0.0394
T4C0.0472
T5C0.0512
T6C0.0591
%
G90
G05
M72
T1
X4.8984Y-3.4087
X4.9043Y-4.1791
X5.0504Y-4.1445
X5.0955Y-4.8035
X5.0969Y-4.4381
X5.1264Y-4.1445
X5.1661Y-3.4988
X5.1701Y-3.7024
X5.1717Y-3.4075
X5.2024Y-4.3087
X5.3445Y-4.0555
X5.6071Y-3.4567
X5.6102Y-3.4075
X5.6169Y-4.0957
X5.6429Y-4.3402
X5.9531Y-4.5799
X5.9677Y-2.9972
X6.05Y-3.0787
X6.3744Y-3.6378
X6.6157Y-3.781
X6.815Y-3.7984
X6.8339Y-4.5807
X7.2496Y-3.8012
X7.4539Y-3.8785
X7.4783Y-3.7394
T2
X6.8957Y-5.9622
X7.1957Y-5.9622
X6.1469Y-5.9626
X6.4469Y-5.9626
X3.8961Y-5.5878
X4.1961Y-5.5878
X5.3972Y-5.0272
X5.6972Y-5.0272
X6.8976Y-5.2142
X7.1976Y-5.2142
X5.3969Y-4.2764
X5.6969Y-4.2764
X7.6465Y-5.5882
X7.9465Y-5.5882
X6.8969Y-4.4646
X7.1969Y-4.4646
X5.3965Y-3.5303
X5.6965Y-3.5303
X7.6457Y-4.6524
X7.9457Y-4.6524
X6.1465Y-3.7122
X6.4465Y-3.7122
X6.1461Y-4.463
X6.4461Y-4.463
X4.6449Y-3.6185
X4.9449Y-3.6185
X4.6461Y-4.3693
X4.9461Y-4.3693
X4.6465Y-5.1209
X4.9465Y-5.1209
X3.8961Y-4.8354
X4.1961Y-4.8354
X5.2458Y-2.8513
X5.2458Y-2.9513
X5.2458Y-3.0513
X5.2458Y-3.1513
X5.2458Y-3.2513
X5.2458Y-3.3513
X5.2458Y-3.4513
X5.2458Y-3.5513
X5.2458Y-3.6513
X5.2458Y-3.7513
X5.2458Y-3.8513
X5.2458Y-3.9513
X5.845Y-2.8513
X5.845Y-2.9513
X5.845Y-3.0513
X5.845Y-3.1513
X5.845Y-3.2513
X5.845Y-3.3513
X5.845Y-3.4513
X5.845Y-3.5513
X5.845Y-3.6513
X5.845Y-3.7513
X5.845Y-3.8513
X5.845Y-3.9513
X6.8965Y-3.713
X7.1965Y-3.713
X4.4963Y-2.852
X4.4963Y-2.952
X4.4963Y-3.052
X4.4963Y-3.152
X4.4963Y-3.252
X4.4963Y-3.352
X4.4963Y-3.452
X4.4963Y-3.552
X4.4963Y-3.652
X4.4963Y-3.752
X4.4963Y-3.852
X4.4963Y-3.952
X5.0955Y-2.852
X5.0955Y-2.952
X5.0955Y-3.052
X5.0955Y-3.152
X5.0955Y-3.252
X5.0955Y-3.352
X5.0955Y-3.452
X5.0955Y-3.552
X5.0955Y-3.652
X5.0955Y-3.752
X5.0955Y-3.852
X5.0955Y-3.952
X6.1453Y-5.2142
X6.4453Y-5.2142
X3.8961Y-4.0894
X4.1961Y-4.0894
T4
X7.5949Y-4.1831
X7.7957Y-4.1043
X7.9965Y-4.1831
X5.3449Y-3.0579
X5.5457Y-2.9791
X5.7465Y-3.0579
X4.5949Y-3.152
X4.7957Y-3.0732
X4.9965Y-3.152
X7.5949Y-5.1205
X7.7957Y-5.0417
X7.9965Y-5.1205
X6.8449Y-3.9953
X7.0457Y-3.9165
X7.2465Y-3.9953
X4.5949Y-4.6516
X4.7957Y-4.5728
X4.9965Y-4.6516
X5.3449Y-3.8079
X5.5457Y-3.7291
X5.7465Y-3.8079
X4.5949Y-3.902
X4.7957Y-3.8232
X4.9965Y-3.902
X3.8449Y-4.3705
X4.0457Y-4.2917
X4.2465Y-4.3705
X6.8449Y-5.4953
X7.0457Y-5.4165
X7.2465Y-5.4953
X6.0949Y-5.4953
X6.2957Y-5.4165
X6.4965Y-5.4953
X3.8449Y-3.6205
X4.0457Y-3.5417
X4.2465Y-3.6205
X6.0949Y-3.2457
X6.2957Y-3.1669
X6.4965Y-3.2457
X5.3449Y-4.5579
X5.5457Y-4.4791
X5.7465Y-4.5579
X6.0949Y-4.7457
X6.2957Y-4.6669
X6.4965Y-4.7457
X6.0949Y-3.9953
X6.2957Y-3.9165
X6.4965Y-3.9953
X6.8449Y-4.7457
X7.0457Y-4.6669
X7.2465Y-4.7457
X3.8449Y-5.1205
X4.0457Y-5.0417
X4.2465Y-5.1205
X6.8449Y-3.2457
X7.0457Y-3.1669
X7.2465Y-3.2457
T5
X8.4768Y-4.4728
X8.4768Y-4.7287
T6
X7.6457Y-5.174
X7.6957Y-5.074
X7.6957Y-5.0969
X7.6957Y-5.1165
X7.8957Y-5.074
X7.8957Y-5.0969
X7.8957Y-5.1165
X7.9457Y-5.174
X6.8957Y-4.0488
X6.9457Y-3.9488
X6.9457Y-3.9717
X6.9457Y-3.9913
X7.1457Y-3.9488
X7.1457Y-3.9717
X7.1457Y-3.9913
X7.1957Y-4.0488
X4.6457Y-4.7051
X4.6957Y-4.6051
X4.6957Y-4.628
X4.6957Y-4.6476
X4.8957Y-4.6051
X4.8957Y-4.628
X4.8957Y-4.6476
X4.9457Y-4.7051
X5.3957Y-3.8614
X5.4457Y-3.7614
X5.4457Y-3.7843
X5.4457Y-3.8039
X5.6457Y-3.7614
X5.6457Y-3.7843
X5.6457Y-3.8039
X5.6957Y-3.8614
X4.6457Y-3.9555
X4.6957Y-3.8555
X4.6957Y-3.8783
X4.6957Y-3.898
X4.8957Y-3.8555
X4.8957Y-3.8783
X4.8957Y-3.898
X4.9457Y-3.9555
X3.8957Y-4.424
X3.9457Y-4.324
X3.9457Y-4.3469
X3.9457Y-4.3665
X4.1457Y-4.324
X4.1457Y-4.3469
X4.1457Y-4.3665
X4.1957Y-4.424
X6.8957Y-5.5488
X6.9457Y-5.4488
X6.9457Y-5.4717
X6.9457Y-5.4913
X7.1457Y-5.4488
X7.1457Y-5.4717
X7.1457Y-5.4913
X7.1957Y-5.5488
X6.1457Y-5.5488
X6.1957Y-5.4488
X6.1957Y-5.4717
X6.1957Y-5.4913
X6.3957Y-5.4488
X6.3957Y-5.4717
X6.3957Y-5.4913
X6.4457Y-5.5488
X3.8957Y-3.674
X3.9457Y-3.574
X3.9457Y-3.5969
X3.9457Y-3.6165
X4.1457Y-3.574
X4.1457Y-3.5969
X4.1457Y-3.6165
X4.1957Y-3.674
X6.1457Y-3.2992
X6.1957Y-3.1992
X6.1957Y-3.222
X6.1957Y-3.2417
X6.3957Y-3.1992
X6.3957Y-3.222
X6.3957Y-3.2417
X6.4457Y-3.2992
X5.3957Y-4.6114
X5.4457Y-4.5114
X5.4457Y-4.5343
X5.4457Y-4.5539
X5.6457Y-4.5114
X5.6457Y-4.5343
X5.6457Y-4.5539
X5.6957Y-4.6114
X6.1457Y-4.7992
X6.1957Y-4.6992
X6.1957Y-4.722
X6.1957Y-4.7417
X6.3957Y-4.6992
X6.3957Y-4.722
X6.3957Y-4.7417
X6.4457Y-4.7992
X6.1457Y-4.0488
X6.1957Y-3.9488
X6.1957Y-3.9717
X6.1957Y-3.9913
X6.3957Y-3.9488
X6.3957Y-3.9717
X6.3957Y-3.9913
X6.4457Y-4.0488
X6.8957Y-4.7992
X6.9457Y-4.6992
X6.9457Y-4.722
X6.9457Y-4.7417
X7.1457Y-4.6992
X7.1457Y-4.722
X7.1457Y-4.7417
X7.1957Y-4.7992
X3.8957Y-5.174
X3.9457Y-5.074
X3.9457Y-5.0969
X3.9457Y-5.1165
X4.1457Y-5.074
X4.1457Y-5.0969
X4.1457Y-5.1165
X4.1957Y-5.174
X6.8957Y-3.2992
X6.9457Y-3.1992
X6.9457Y-3.222
X6.9457Y-3.2417
X7.1457Y-3.1992
X7.1457Y-3.222
X7.1457Y-3.2417
X7.1957Y-3.2992
X7.6457Y-4.2366
X7.6957Y-4.1366
X7.6957Y-4.1594
X7.6957Y-4.1791
X7.8957Y-4.1366
X7.8957Y-4.1594
X7.8957Y-4.1791
X7.9457Y-4.2366
X5.3957Y-3.1114
X5.4457Y-3.0114
X5.4457Y-3.0343
X5.4457Y-3.0539
X5.6457Y-3.0114
X5.6457Y-3.0343
X5.6457Y-3.0539
X5.6957Y-3.1114
X4.6457Y-3.2055
X4.6957Y-3.1055
X4.6957Y-3.1283
X4.6957Y-3.148
X4.8957Y-3.1055
X4.8957Y-3.1283
X4.8957Y-3.148
X4.9457Y-3.2055
T3
X8.2642Y-3.952G85X8.2642Y-3.9717
G05
X8.2642Y-4.0701G85X8.2642Y-4.0898
G05
X8.2642Y-4.2276G85X8.2642Y-4.2472
G05
X8.3331Y-4.2866G85X8.3331Y-4.3063
G05
X8.4295Y-4.2866G85X8.4295Y-4.3063
G05
X8.4984Y-3.952G85X8.4984Y-3.9717
G05
X8.4984Y-4.0701G85X8.4984Y-4.0898
G05
X8.4984Y-4.2276G85X8.4984Y-4.2472
G05
T0
M30
