M48
;DRILL file {KiCad (5.0.2)-1} date 18/02/2019 16:39:34
;FORMAT={-:-/ absolute / metric / decimal}
FMAT,2
METRIC,TZ
T1C0.400
T2C0.813
T3C1.000
T4C1.200
T5C1.300
T6C1.500
%
G90
G05
T1
X124.42Y-86.58
X124.57Y-106.15
X128.28Y-105.27
X129.426Y-122.008
X129.46Y-112.729
X130.21Y-105.27
X131.22Y-88.87
X131.32Y-94.04
X131.36Y-86.55
X132.14Y-109.44
X135.75Y-103.01
X142.42Y-87.8
X142.5Y-86.55
X142.67Y-104.03
X143.33Y-110.24
X151.21Y-116.33
X151.58Y-76.13
X153.67Y-78.2
X161.91Y-92.4
X168.04Y-96.039
X173.1Y-96.48
X173.58Y-116.35
X184.14Y-96.55
X189.33Y-98.515
X189.95Y-94.98
T2
X156.09Y-132.44
X163.71Y-132.44
X118.01Y-110.98
X125.63Y-110.98
X194.22Y-141.94
X201.84Y-141.94
X175.17Y-94.31
X182.79Y-94.31
X137.07Y-89.67
X144.69Y-89.67
X175.2Y-132.44
X182.82Y-132.44
X114.206Y-72.442
X114.206Y-74.982
X114.206Y-77.522
X114.206Y-80.062
X114.206Y-82.602
X114.206Y-85.142
X114.206Y-87.682
X114.206Y-90.222
X114.206Y-92.762
X114.206Y-95.302
X114.206Y-97.842
X114.206Y-100.382
X129.426Y-72.442
X129.426Y-74.982
X129.426Y-77.522
X129.426Y-80.062
X129.426Y-82.602
X129.426Y-85.142
X129.426Y-87.682
X129.426Y-90.222
X129.426Y-92.762
X129.426Y-95.302
X129.426Y-97.842
X129.426Y-100.382
X137.09Y-127.69
X144.71Y-127.69
X98.96Y-122.82
X106.58Y-122.82
X133.244Y-72.422
X133.244Y-74.962
X133.244Y-77.502
X133.244Y-80.042
X133.244Y-82.582
X133.244Y-85.122
X133.244Y-87.662
X133.244Y-90.202
X133.244Y-92.742
X133.244Y-95.282
X133.244Y-97.822
X133.244Y-100.362
X148.464Y-72.422
X148.464Y-74.962
X148.464Y-77.502
X148.464Y-80.042
X148.464Y-82.582
X148.464Y-85.122
X148.464Y-87.662
X148.464Y-90.202
X148.464Y-92.742
X148.464Y-95.282
X148.464Y-97.822
X148.464Y-100.362
X156.11Y-113.36
X163.73Y-113.36
X117.98Y-91.91
X125.6Y-91.91
X194.2Y-118.17
X201.82Y-118.17
X156.13Y-151.45
X163.75Y-151.45
X118.02Y-130.07
X125.64Y-130.07
X175.18Y-113.4
X182.8Y-113.4
X137.08Y-108.62
X144.7Y-108.62
X98.96Y-103.87
X106.58Y-103.87
X156.12Y-94.29
X163.74Y-94.29
X98.96Y-141.93
X106.58Y-141.93
X175.15Y-151.44
X182.77Y-151.44
T4
X116.71Y-80.06
X121.81Y-78.06
X126.91Y-80.06
X154.81Y-101.48
X159.91Y-99.48
X165.01Y-101.48
X192.91Y-106.25
X198.01Y-104.25
X203.11Y-106.25
X135.76Y-115.77
X140.86Y-113.77
X145.96Y-115.77
X173.86Y-120.54
X178.96Y-118.54
X184.06Y-120.54
X135.76Y-77.67
X140.86Y-75.67
X145.96Y-77.67
X173.86Y-82.44
X178.96Y-80.44
X184.06Y-82.44
X116.71Y-99.11
X121.81Y-97.11
X126.91Y-99.11
X154.81Y-120.54
X159.91Y-118.54
X165.01Y-120.54
X97.66Y-91.96
X102.76Y-89.96
X107.86Y-91.96
X192.91Y-130.06
X198.01Y-128.06
X203.11Y-130.06
X154.81Y-82.44
X159.91Y-80.44
X165.01Y-82.44
X173.86Y-139.58
X178.96Y-137.58
X184.06Y-139.58
X135.76Y-96.72
X140.86Y-94.72
X145.96Y-96.72
X173.86Y-101.48
X178.96Y-99.48
X184.06Y-101.48
X116.71Y-118.15
X121.81Y-116.15
X126.91Y-118.15
X97.66Y-130.06
X102.76Y-128.06
X107.86Y-130.06
X154.81Y-139.58
X159.91Y-137.58
X165.01Y-139.58
X97.66Y-111.01
X102.76Y-109.01
X107.86Y-111.01
T5
X215.31Y-113.61
X215.31Y-120.11
T6
X118.Y-81.42
X119.27Y-78.88
X119.27Y-79.46
X119.27Y-79.96
X124.35Y-78.88
X124.35Y-79.46
X124.35Y-79.96
X125.62Y-81.42
X156.1Y-102.84
X157.37Y-100.3
X157.37Y-100.88
X157.37Y-101.38
X162.45Y-100.3
X162.45Y-100.88
X162.45Y-101.38
X163.72Y-102.84
X194.2Y-107.61
X195.47Y-105.07
X195.47Y-105.65
X195.47Y-106.15
X200.55Y-105.07
X200.55Y-105.65
X200.55Y-106.15
X201.82Y-107.61
X137.05Y-117.13
X138.32Y-114.59
X138.32Y-115.17
X138.32Y-115.67
X143.4Y-114.59
X143.4Y-115.17
X143.4Y-115.67
X144.67Y-117.13
X175.15Y-121.9
X176.42Y-119.36
X176.42Y-119.94
X176.42Y-120.44
X181.5Y-119.36
X181.5Y-119.94
X181.5Y-120.44
X182.77Y-121.9
X137.05Y-79.03
X138.32Y-76.49
X138.32Y-77.07
X138.32Y-77.57
X143.4Y-76.49
X143.4Y-77.07
X143.4Y-77.57
X144.67Y-79.03
X175.15Y-83.8
X176.42Y-81.26
X176.42Y-81.84
X176.42Y-82.34
X181.5Y-81.26
X181.5Y-81.84
X181.5Y-82.34
X182.77Y-83.8
X118.Y-100.47
X119.27Y-97.93
X119.27Y-98.51
X119.27Y-99.01
X124.35Y-97.93
X124.35Y-98.51
X124.35Y-99.01
X125.62Y-100.47
X156.1Y-121.9
X157.37Y-119.36
X157.37Y-119.94
X157.37Y-120.44
X162.45Y-119.36
X162.45Y-119.94
X162.45Y-120.44
X163.72Y-121.9
X98.95Y-93.32
X100.22Y-90.78
X100.22Y-91.36
X100.22Y-91.86
X105.3Y-90.78
X105.3Y-91.36
X105.3Y-91.86
X106.57Y-93.32
X194.2Y-131.42
X195.47Y-128.88
X195.47Y-129.46
X195.47Y-129.96
X200.55Y-128.88
X200.55Y-129.46
X200.55Y-129.96
X201.82Y-131.42
X156.1Y-83.8
X157.37Y-81.26
X157.37Y-81.84
X157.37Y-82.34
X162.45Y-81.26
X162.45Y-81.84
X162.45Y-82.34
X163.72Y-83.8
X175.15Y-140.94
X176.42Y-138.4
X176.42Y-138.98
X176.42Y-139.48
X181.5Y-138.4
X181.5Y-138.98
X181.5Y-139.48
X182.77Y-140.94
X137.05Y-98.08
X138.32Y-95.54
X138.32Y-96.12
X138.32Y-96.62
X143.4Y-95.54
X143.4Y-96.12
X143.4Y-96.62
X144.67Y-98.08
X175.15Y-102.84
X176.42Y-100.3
X176.42Y-100.88
X176.42Y-101.38
X181.5Y-100.3
X181.5Y-100.88
X181.5Y-101.38
X182.77Y-102.84
X118.Y-119.51
X119.27Y-116.97
X119.27Y-117.55
X119.27Y-118.05
X124.35Y-116.97
X124.35Y-117.55
X124.35Y-118.05
X125.62Y-119.51
X98.95Y-131.42
X100.22Y-128.88
X100.22Y-129.46
X100.22Y-129.96
X105.3Y-128.88
X105.3Y-129.46
X105.3Y-129.96
X106.57Y-131.42
X156.1Y-140.94
X157.37Y-138.4
X157.37Y-138.98
X157.37Y-139.48
X162.45Y-138.4
X162.45Y-138.98
X162.45Y-139.48
X163.72Y-140.94
X98.95Y-112.37
X100.22Y-109.83
X100.22Y-110.41
X100.22Y-110.91
X105.3Y-109.83
X105.3Y-110.41
X105.3Y-110.91
X106.57Y-112.37
T3
X209.91Y-100.38G85X209.91Y-100.88
G05
X209.91Y-103.38G85X209.91Y-103.88
G05
X209.91Y-107.38G85X209.91Y-107.88
G05
X211.66Y-108.88G85X211.66Y-109.38
G05
X214.11Y-108.88G85X214.11Y-109.38
G05
X215.86Y-100.38G85X215.86Y-100.88
G05
X215.86Y-103.38G85X215.86Y-103.88
G05
X215.86Y-107.38G85X215.86Y-107.88
G05
T0
M30
