M48
;DRILL file {KiCad (5.0.2)-1} date 18/02/2019 16:39:34
;FORMAT={-:-/ absolute / metric / decimal}
FMAT,2
METRIC,TZ
T1C1.000
T2C1.200
T3C1.700
T4C1.900
T5C4.000
%
G90
G05
T1
X135.64Y-85.77
X146.08Y-85.77
X173.74Y-90.54
X184.18Y-90.54
X116.59Y-107.21
X127.03Y-107.21
X154.69Y-128.64
X165.13Y-128.64
X97.54Y-100.06
X107.98Y-100.06
X192.79Y-138.16
X203.23Y-138.16
X154.69Y-90.54
X165.13Y-90.54
X173.74Y-147.68
X184.18Y-147.68
X135.64Y-104.82
X146.08Y-104.82
X173.74Y-109.58
X184.18Y-109.58
X116.59Y-126.25
X127.03Y-126.25
X97.54Y-138.16
X107.98Y-138.16
X154.69Y-147.68
X165.13Y-147.68
X97.54Y-119.11
X107.98Y-119.11
X116.59Y-88.16
X127.03Y-88.16
X154.69Y-109.58
X165.13Y-109.58
X192.79Y-114.35
X203.23Y-114.35
X135.64Y-123.87
X146.08Y-123.87
X173.74Y-128.64
X184.18Y-128.64
T2
X212.01Y-98.83
X212.01Y-105.83
X213.76Y-98.83
X213.76Y-105.83
T3
X116.73Y-103.01
X126.89Y-103.01
X154.83Y-124.44
X164.99Y-124.44
X97.68Y-95.86
X107.84Y-95.86
X192.93Y-133.96
X203.09Y-133.96
X154.83Y-86.34
X164.99Y-86.34
X173.88Y-143.48
X184.04Y-143.48
X135.78Y-100.62
X145.94Y-100.62
X173.88Y-105.38
X184.04Y-105.38
X116.73Y-122.05
X126.89Y-122.05
X97.68Y-133.96
X107.84Y-133.96
X154.83Y-143.48
X164.99Y-143.48
X97.68Y-114.91
X107.84Y-114.91
X116.73Y-83.96
X126.89Y-83.96
X154.83Y-105.38
X164.99Y-105.38
X192.93Y-110.15
X203.09Y-110.15
X135.78Y-119.67
X145.94Y-119.67
X173.88Y-124.44
X184.04Y-124.44
X135.78Y-81.57
X145.94Y-81.57
X173.88Y-86.34
X184.04Y-86.34
T4
X116.31Y-83.96
X127.31Y-83.96
X154.41Y-105.38
X165.41Y-105.38
X192.51Y-110.15
X203.51Y-110.15
X135.36Y-119.67
X146.36Y-119.67
X173.46Y-124.44
X184.46Y-124.44
X135.36Y-81.57
X146.36Y-81.57
X173.46Y-86.34
X184.46Y-86.34
X116.31Y-103.01
X127.31Y-103.01
X154.41Y-124.44
X165.41Y-124.44
X97.26Y-95.86
X108.26Y-95.86
X192.51Y-133.96
X203.51Y-133.96
X154.41Y-86.34
X165.41Y-86.34
X173.46Y-143.48
X184.46Y-143.48
X135.36Y-100.62
X146.36Y-100.62
X173.46Y-105.38
X184.46Y-105.38
X116.31Y-122.05
X127.31Y-122.05
X97.26Y-133.96
X108.26Y-133.96
X154.41Y-143.48
X165.41Y-143.48
X97.26Y-114.91
X108.26Y-114.91
T5
X121.81Y-103.01
X159.91Y-124.44
X102.76Y-95.86
X198.01Y-133.96
X159.91Y-86.34
X178.96Y-143.48
X140.86Y-100.62
X178.96Y-105.38
X121.81Y-122.05
X102.76Y-133.96
X159.91Y-143.48
X102.76Y-114.91
X121.81Y-83.96
X159.91Y-105.38
X198.01Y-110.15
X140.86Y-119.67
X178.96Y-124.44
X140.86Y-81.57
X178.96Y-86.34
T0
M30
